<svg width="50" height="50" viewBox="0 0 50 50" fill="none" xmlns="http://www.w3.org/2000/svg">
<path d="M40.1243 44.086L38.5454 43.7487C38.0533 43.642 37.5637 43.7827 37.1997 44.1363L37.0008 44.3313C36.1035 43.7757 35.3473 43.0194 34.7918 42.122L34.9845 41.9266C35.3408 41.565 35.4836 41.073 35.3764 40.5774L35.0357 38.9962C34.8869 38.3088 34.2924 37.8288 33.5897 37.8288H31.688C31.2643 37.8288 30.8873 37.9952 30.5975 38.3103C30.3155 38.6175 30.1798 39.0174 30.2152 39.4387C30.3335 40.797 30.7174 42.1189 31.345 43.3293C31.2427 43.2976 31.1344 43.2903 31.0288 43.3082C30.9231 43.326 30.8232 43.3684 30.737 43.432C30.6507 43.4955 30.5807 43.5784 30.5324 43.6741C30.4841 43.7697 30.459 43.8753 30.459 43.9824V48.0212C30.459 48.111 30.4767 48.1998 30.511 48.2828C30.5454 48.3657 30.5957 48.4411 30.6592 48.5046C30.7227 48.568 30.798 48.6184 30.881 48.6527C30.9639 48.6871 31.0528 48.7048 31.1426 48.7048C31.2323 48.7048 31.3212 48.6871 31.4042 48.6527C31.4871 48.6184 31.5625 48.568 31.626 48.5046C31.6894 48.4411 31.7398 48.3657 31.7741 48.2828C31.8085 48.1998 31.8262 48.111 31.8262 48.0212V44.1628C33.5211 46.8007 36.3726 48.6152 39.681 48.9067C39.73 48.9113 39.7785 48.9136 39.8267 48.9136C40.1922 48.9136 40.5303 48.7815 40.8146 48.5247C41.1234 48.2413 41.2934 47.854 41.2934 47.4343V45.5325C41.2935 44.8297 40.8134 44.2351 40.1243 44.086ZM39.9263 47.4342C39.9263 47.4739 39.9188 47.4911 39.8942 47.5137C39.8579 47.5465 39.841 47.5486 39.8081 47.5453L39.8032 47.5449C35.4217 47.16 31.9622 43.7005 31.5774 39.3214C31.5736 39.2766 31.5824 39.2591 31.6043 39.2352C31.6368 39.1998 31.6557 39.196 31.6879 39.196H33.5896C33.6471 39.196 33.6871 39.2286 33.6992 39.2848L34.0398 40.866C34.0493 40.9097 34.0419 40.9352 34.0106 40.9669L33.4542 41.5316C33.3524 41.635 33.286 41.768 33.2648 41.9115C33.2437 42.0551 33.2687 42.2016 33.3363 42.33C34.1185 43.8151 35.3139 45.0103 36.7933 45.7863C36.9213 45.8535 37.0673 45.8783 37.2104 45.8572C37.3534 45.8362 37.4861 45.7703 37.5894 45.669L38.1546 45.1148C38.1876 45.0827 38.2122 45.0754 38.2579 45.0854L39.8369 45.4228C39.8937 45.4351 39.9262 45.4751 39.9262 45.5325V47.4342H39.9263ZM39.1761 37.3386C39.1761 37.1508 39.022 36.9979 38.8326 36.9979H37.8057C37.6244 36.9979 37.4505 36.9259 37.3223 36.7977C37.1941 36.6695 37.1221 36.4957 37.1221 36.3144C37.1221 36.133 37.1941 35.9592 37.3223 35.831C37.4505 35.7028 37.6244 35.6308 37.8057 35.6308H38.8326C39.7759 35.6308 40.5433 36.3969 40.5433 37.3386C40.5433 38.3532 39.8079 39.1184 38.8326 39.1184C38.7416 39.1185 38.6543 39.1547 38.5899 39.2191C38.5255 39.2835 38.4893 39.3708 38.4893 39.4618V39.8717H39.8597C40.041 39.8717 40.2148 39.9437 40.343 40.0719C40.4712 40.2001 40.5433 40.374 40.5433 40.5553C40.5433 40.7366 40.4712 40.9104 40.343 41.0386C40.2148 41.1668 40.041 41.2389 39.8597 41.2389H37.8057C37.6244 41.2389 37.4505 41.1668 37.3223 41.0386C37.1941 40.9104 37.1221 40.7366 37.1221 40.5553V39.4618C37.1221 38.5185 37.8895 37.7512 38.8326 37.7512C39.1513 37.7512 39.1761 37.4353 39.1761 37.3386ZM43.0682 39.1184H41.659C41.5601 39.1184 41.4624 39.0969 41.3726 39.0555C41.2828 39.0141 41.2031 38.9537 41.1389 38.8785C41.0748 38.8033 41.0277 38.7151 41.0009 38.6199C40.9741 38.5247 40.9683 38.4249 40.9839 38.3272L41.3216 36.2068C41.3501 36.0278 41.4486 35.8674 41.5953 35.761C41.7421 35.6545 41.9252 35.6107 42.1042 35.6393C42.2832 35.6678 42.4436 35.7662 42.5501 35.913C42.6565 36.0598 42.7003 36.2428 42.6718 36.4219L42.4601 37.7512H43.0682V36.3144C43.0682 36.2246 43.0858 36.1357 43.1202 36.0527C43.1546 35.9698 43.2049 35.8945 43.2684 35.831C43.3319 35.7675 43.4072 35.7171 43.4902 35.6828C43.5731 35.6484 43.662 35.6308 43.7518 35.6308C43.8415 35.6308 43.9304 35.6484 44.0134 35.6828C44.0963 35.7171 44.1717 35.7675 44.2351 35.831C44.2986 35.8945 44.349 35.9698 44.3833 36.0527C44.4177 36.1357 44.4354 36.2246 44.4354 36.3144V40.5553C44.4354 40.645 44.4177 40.7339 44.3833 40.8169C44.349 40.8998 44.2986 40.9752 44.2351 41.0386C44.1717 41.1021 44.0963 41.1525 44.0134 41.1868C43.9304 41.2212 43.8415 41.2389 43.7518 41.2389C43.662 41.2389 43.5731 41.2212 43.4902 41.1868C43.4072 41.1525 43.3319 41.1021 43.2684 41.0386C43.2049 40.9752 43.1546 40.8998 43.1202 40.8169C43.0858 40.7339 43.0682 40.645 43.0682 40.5553V39.1184ZM19.5493 43.9822V48.021C19.5493 48.2023 19.4773 48.3762 19.3491 48.5044C19.2209 48.6326 19.047 48.7046 18.8657 48.7046C18.6844 48.7046 18.5105 48.6326 18.3823 48.5044C18.2542 48.3762 18.1821 48.2023 18.1821 48.021V43.9822C18.1821 43.8009 18.2542 43.627 18.3823 43.4988C18.5105 43.3706 18.6844 43.2986 18.8657 43.2986C19.047 43.2986 19.2209 43.3706 19.3491 43.4988C19.4773 43.627 19.5493 43.8009 19.5493 43.9822ZM25.6837 43.9822C25.6837 44.3587 25.3765 44.6659 25 44.6659C24.6235 44.6659 24.319 44.3587 24.319 43.9822C24.319 43.6058 24.6235 43.2985 25 43.2985C25.3765 43.2985 25.6837 43.6058 25.6837 43.9822ZM25.6837 40.9455C25.6837 41.322 25.3765 41.6292 25 41.6292C24.6235 41.6292 24.319 41.322 24.319 40.9455C24.319 40.569 24.6235 40.2618 25 40.2618C25.3765 40.2618 25.6837 40.569 25.6837 40.9455ZM25.6837 47.0218C25.6837 47.3982 25.3765 47.7055 25 47.7055C24.6235 47.7055 24.319 47.3982 24.319 47.0218C24.319 46.6453 24.6235 46.3381 25 46.3381C25.3765 46.3381 25.6837 46.6452 25.6837 47.0218ZM49.2188 29.2527V21.3578C49.2188 21.2012 49.165 21.0494 49.0665 20.9277C48.9679 20.8059 48.8306 20.7217 48.6774 20.6892L44.1378 19.7231L42.4807 15.7205L45.0087 11.8283C45.094 11.697 45.1316 11.5403 45.1153 11.3845C45.0989 11.2287 45.0295 11.0833 44.9187 10.9726L39.3354 5.38915C39.2246 5.27841 39.0793 5.20903 38.9235 5.19265C38.7678 5.17626 38.6111 5.21384 38.4798 5.29912L34.585 7.82724L30.5823 6.16777L29.6189 1.62822C29.5864 1.47497 29.5022 1.33755 29.3805 1.23894C29.2588 1.14033 29.1069 1.08653 28.9502 1.08652H21.0525C20.8959 1.08651 20.7441 1.14027 20.6224 1.2388C20.5007 1.33733 20.4165 1.47466 20.3839 1.62783L19.4179 6.16767L15.4151 7.82714L11.5231 5.29921C11.3918 5.21388 11.2351 5.17624 11.0793 5.19262C10.9236 5.20899 10.7781 5.27837 10.6674 5.38915L5.08389 10.9727C4.97314 11.0834 4.90378 11.2288 4.88741 11.3846C4.87103 11.5404 4.90864 11.697 4.99395 11.8284L7.52207 15.7206L5.86504 19.7231L1.32266 20.6892C1.16947 20.7217 1.03212 20.8059 0.933569 20.9276C0.835019 21.0493 0.781248 21.2012 0.78125 21.3578V29.2527C0.781266 29.4093 0.835043 29.5612 0.933591 29.6829C1.03214 29.8046 1.16948 29.8888 1.32266 29.9214L5.86504 30.8874L7.52207 34.8899L4.99395 38.7821C4.90863 38.9135 4.87101 39.0702 4.88738 39.2259C4.90375 39.3817 4.97312 39.5271 5.08389 39.6379L10.6674 45.2214C10.7309 45.2849 10.8063 45.3353 10.8892 45.3696C10.9722 45.404 11.0612 45.4216 11.151 45.4216C11.2794 45.4216 11.4087 45.3854 11.5228 45.3115L13.9495 43.7374V48.0211C13.9495 48.2024 14.0215 48.3763 14.1497 48.5045C14.2779 48.6327 14.4518 48.7047 14.6331 48.7047C14.8144 48.7047 14.9883 48.6327 15.1165 48.5045C15.2447 48.3763 15.3167 48.2024 15.3167 48.0211V39.1407C15.3167 37.0485 17.7523 35.7526 20.4351 35.1153L21.7488 39.4816C21.7819 39.5915 21.842 39.6913 21.9238 39.7718C22.0055 39.8523 22.1062 39.9109 22.2166 39.9423C22.3269 39.9736 22.4434 39.9767 22.5552 39.9512C22.6671 39.9258 22.7708 39.8725 22.8566 39.7965L25.1549 37.7618L27.4506 39.7962C27.5365 39.8722 27.6401 39.9255 27.752 39.9509C27.8638 39.9764 27.9803 39.9734 28.0907 39.942C28.201 39.9107 28.3017 39.8521 28.3835 39.7716C28.4653 39.6911 28.5255 39.5914 28.5586 39.4815L29.8647 35.1404C30.8115 35.36 31.6603 35.6476 32.3848 35.9962C32.3475 36.1682 32.378 36.3481 32.47 36.4982C32.562 36.6483 32.7084 36.757 32.8787 36.8019C33.049 36.8467 33.2299 36.824 33.3839 36.7387C33.5379 36.6534 33.653 36.5119 33.7053 36.3437C34.6532 33.3093 37.4291 31.2705 40.6127 31.2705C44.6043 31.2705 47.8517 34.5179 47.8517 38.5095C47.8517 41.6938 45.813 44.4697 42.7786 45.4168C42.6055 45.4708 42.461 45.5913 42.3768 45.7519C42.2926 45.9125 42.2756 46.0999 42.3296 46.273C42.3836 46.4461 42.5042 46.5906 42.6648 46.6748C42.8253 46.759 43.0128 46.776 43.1858 46.722C46.7943 45.5957 49.2188 42.2953 49.2188 38.5095C49.2188 35.1495 47.283 32.2335 44.4684 30.817L48.6774 29.9213C48.8306 29.8887 48.9679 29.8046 49.0665 29.6829C49.165 29.5612 49.2188 29.4093 49.2188 29.2527ZM22.7502 38.0646L21.7834 34.8515C21.9477 34.8258 22.1115 34.8025 22.2745 34.7815L24.1747 36.8036L22.7502 38.0646ZM19.2299 29.0646H18.6664C17.8481 29.0646 17.1825 28.3977 17.1825 27.5779C17.1825 26.7795 17.8164 26.1264 18.6073 26.0952L18.6075 26.0954C18.6746 27.0784 18.883 28.0743 19.207 28.9937C19.2142 29.0175 19.2215 29.0412 19.2299 29.0646ZM26.3231 32.2065C26.2218 32.2064 26.1247 32.1661 26.053 32.0944C25.9814 32.0228 25.9411 31.9256 25.941 31.8243C25.941 31.6171 26.116 31.4421 26.3231 31.4421H27.4913C27.6984 31.4421 27.8734 31.6171 27.8734 31.8243C27.8734 32.0315 27.6984 32.2065 27.4913 32.2065H26.3231ZM30.0576 24.7268H29.7226C27.4907 24.7268 25.8396 24.0049 24.0472 22.921C23.951 22.8628 23.842 22.8293 23.7298 22.8233C23.6176 22.8173 23.5056 22.8391 23.4038 22.8867L19.9507 24.5018V23.8464C19.9507 21.0606 22.2171 18.7943 25.0027 18.7943C27.79 18.7943 30.0576 21.0607 30.0576 23.8464V24.7268ZM30.1657 30.4318H30.7884V30.4929C30.7882 30.6646 30.7199 30.8293 30.5984 30.9508C30.477 31.0723 30.3123 31.1406 30.1405 31.1408H29.722C29.8822 30.9124 30.0303 30.6758 30.1657 30.4318ZM31.3309 29.0646H30.7843C30.7887 29.0525 30.7919 29.0403 30.796 29.0281C31.1493 28.0337 31.3374 27.0133 31.4001 26.1001L31.4021 26.0957C32.1874 26.133 32.8146 26.7836 32.8146 27.5778C32.8147 28.3976 32.1491 29.0646 31.3309 29.0646ZM31.9594 24.7976C31.7865 24.7585 31.6078 24.7352 31.4248 24.7293V23.8465C31.4248 20.3068 28.5439 17.4272 25.0027 17.4272C21.4631 17.4272 18.5835 20.3069 18.5835 23.8465V24.729C18.4036 24.734 18.2246 24.7561 18.0489 24.795V23.8465C18.0489 20.0121 21.1684 16.8926 25.0028 16.8926C28.8388 16.8926 31.9595 20.012 31.9595 23.8465V24.7976H31.9594ZM23.6553 24.2784C25.86 25.5647 27.6401 26.094 29.7226 26.094H30.0311C29.9088 27.7096 29.3637 29.294 28.5451 30.4313C28.2517 30.2088 27.8872 30.075 27.4913 30.075H26.3231C25.3586 30.075 24.5738 30.8598 24.5738 31.8244C24.5738 32.0026 24.601 32.1746 24.6507 32.3367C21.4843 32.092 20.1499 28.5801 19.9718 26.0013L23.6553 24.2784ZM25.0056 33.7177C25.439 33.7177 25.8661 33.667 26.2785 33.5715C26.2936 33.5719 26.3081 33.5737 26.3231 33.5737H27.0568V33.8236L25.1547 35.8501L23.2503 33.8234V33.4445C23.8014 33.6252 24.3879 33.7177 25.0056 33.7177ZM27.5572 38.0641L26.1349 36.8036L28.0028 34.8136C28.1755 34.8351 28.3458 34.8588 28.514 34.8843L27.5572 38.0641ZM32.8867 34.7225C31.6546 34.145 30.1352 33.7253 28.4241 33.4905V33.3017C28.725 33.1117 28.9612 32.8349 29.1015 32.5079H30.1406C31.2518 32.5079 32.1557 31.6039 32.1557 30.4928V30.3095C33.3268 29.9545 34.182 28.8644 34.182 27.5778C34.182 26.7822 33.8541 26.062 33.3267 25.5443V23.8463C33.3267 19.2581 29.5926 15.5252 25.0028 15.5252C20.4146 15.5252 16.6817 19.258 16.6817 23.8463V25.5337C16.1479 26.0521 15.8152 26.7767 15.8152 27.5777C15.8152 29.1514 17.0942 30.4316 18.6663 30.4316H19.8389V30.4181C19.9036 30.5368 19.9713 30.6539 20.0419 30.7693C20.5604 31.6105 21.1793 32.2787 21.8831 32.7648V33.4544C19.8033 33.7395 18.0061 34.2986 16.6587 35.0851C16.4604 35.2009 16.2672 35.3255 16.0798 35.4583C13.1521 32.8882 11.4827 29.2184 11.4827 25.3052C11.4827 17.8518 17.5465 11.7879 25 11.7879C32.455 11.7879 38.52 17.8517 38.52 25.3052C38.52 27.104 38.1729 28.8459 37.489 30.4877C36.7685 30.769 36.0892 31.1463 35.4697 31.6094C34.3764 32.4258 33.4867 33.5045 32.8867 34.7225ZM47.8516 28.6993L43.5015 29.625C43.393 29.6481 43.2917 29.6972 43.2065 29.7682C43.1212 29.8392 43.0545 29.9298 43.0121 30.0323L42.9338 30.2218C42.1782 30.0101 41.3972 29.903 40.6126 29.9035C40.1066 29.9035 39.6077 29.9482 39.1188 30.0334C39.6284 28.5167 39.8871 26.932 39.8871 25.3055C39.8871 17.0981 33.2088 10.421 24.9999 10.421C16.7926 10.421 10.1154 17.0981 10.1154 25.3055C10.1154 29.5563 11.9038 33.5466 15.0469 36.3704C14.3244 37.1822 13.9494 38.1183 13.9494 39.1409V42.108L11.2428 43.8637L6.44199 39.0628L8.86436 35.3333C8.92475 35.2403 8.96161 35.134 8.97177 35.0235C8.98192 34.9131 8.96507 34.8019 8.92266 34.6994L6.99043 30.0322C6.948 29.9297 6.88126 29.8391 6.79599 29.7682C6.71072 29.6973 6.60947 29.6482 6.50098 29.6251L2.14844 28.6992V21.9113L6.50117 20.9856C6.60966 20.9626 6.71092 20.9135 6.79619 20.8425C6.88146 20.7716 6.94819 20.681 6.99062 20.5785L8.92285 15.9113C8.96526 15.8089 8.98212 15.6976 8.97196 15.5872C8.96181 15.4767 8.92494 15.3704 8.86455 15.2774L6.44219 11.5479L11.2428 6.74736L14.9723 9.16972C15.0653 9.23014 15.1717 9.26701 15.2822 9.27715C15.3927 9.28729 15.5039 9.27039 15.6064 9.22792L20.2736 7.29296C20.376 7.25052 20.4666 7.18381 20.5374 7.0986C20.6083 7.01338 20.6574 6.91221 20.6805 6.8038L21.6062 2.4537H28.3967L29.3198 6.80341C29.3429 6.9119 29.3919 7.01315 29.4628 7.09844C29.5337 7.18373 29.6243 7.25049 29.7268 7.29296L34.3939 9.22792C34.4964 9.27041 34.6077 9.28732 34.7181 9.27719C34.8286 9.26707 34.9349 9.23022 35.0279 9.16982L38.7604 6.74726L43.561 11.5479L41.1387 15.2774C41.0783 15.3704 41.0414 15.4767 41.0313 15.5872C41.0211 15.6976 41.038 15.8089 41.0804 15.9113L43.0126 20.5785C43.055 20.681 43.1217 20.7716 43.207 20.8425C43.2922 20.9134 43.3935 20.9626 43.502 20.9856L47.8516 21.9112V28.6993Z" fill="#142D40"/>
</svg>
