<svg width="36" height="50" viewBox="0 0 36 50" fill="none" xmlns="http://www.w3.org/2000/svg">
<path d="M33.0251 33.0251V27.82L30.8285 28.6746L30.8221 28.6601L30.7697 28.5651C29.928 27.2546 28.5667 26.3428 27.0339 26.0649L21.7482 25.1031V24.6859C23.7249 23.538 25.1724 21.5799 25.6234 19.2649C27.0878 18.962 28.1922 17.6628 28.1922 16.1098V8.15398C28.1934 7.0651 27.8427 6.00497 27.1925 5.13159C26.5422 4.25821 25.6271 3.61834 24.5836 3.30734L24.1808 2.9046C22.3072 1.03103 19.8167 0 17.1674 0C11.6989 0 7.24941 4.44872 7.24941 9.918V16.1098C7.24941 17.6628 8.35374 18.962 9.81812 19.2649C10.27 21.5799 11.7167 23.5388 13.6933 24.6859V25.1031L8.40851 26.0641C6.87727 26.3419 5.5168 27.2521 4.67426 28.5619L4.62593 28.6795L2.41647 27.82V33.0251C1.08419 33.0251 0 34.1093 0 35.4416V38.6635C0 39.9958 1.08419 41.08 2.41647 41.08V44.0474L17.7208 50L33.0251 44.0474V41.08C34.3574 41.08 35.4416 39.9958 35.4416 38.6635V35.4416C35.4416 34.1093 34.3574 33.0251 33.0251 33.0251ZM23.2577 27.0153L26.7455 27.6493C27.7725 27.8361 28.6819 28.429 29.2884 29.2731L21.4953 32.3034L23.2577 27.0153ZM15.3728 25.4245C16.1162 25.6516 16.904 25.7757 17.7208 25.7757C18.5375 25.7757 19.3253 25.6516 20.0688 25.4245L17.7208 27.1853L15.3728 25.4245ZM16.4948 28.2792L14.8508 29.9223L13.7844 26.7237L14.2975 26.6311L16.4948 28.2792ZM21.1441 26.6319L21.6572 26.7246L20.5907 29.9232L18.9467 28.28L21.1441 26.6319ZM25.7757 17.4969V14.7227C26.255 15.0023 26.5812 15.5162 26.5812 16.1098C26.5812 16.7034 26.255 17.2174 25.7757 17.4969ZM9.66588 17.4969C9.18662 17.2174 8.86039 16.7034 8.86039 16.1098C8.86039 15.5162 9.18662 15.0023 9.66588 14.7227V17.4969ZM9.66588 12.0824V13.0022C9.38341 13.0761 9.11239 13.1883 8.86039 13.3357V9.918C8.86039 5.33798 12.5866 1.61098 17.1674 1.61098C19.3857 1.61098 21.4728 2.47527 23.0419 4.04437L23.7523 4.75561L23.969 4.80878C24.7156 4.99431 25.3785 5.42458 25.8519 6.03091C26.3254 6.63724 26.5821 7.38469 26.5812 8.15398V13.3357C26.3293 13.1879 26.0583 13.0757 25.7757 13.0022V12.0824H23.2215C21.0386 12.0824 18.9524 11.04 17.6435 9.29455L17.0031 8.43912L15.4026 10.0404C14.0848 11.3574 12.3337 12.0824 10.4714 12.0824H9.66588ZM11.2769 17.7208V13.6563C13.2656 13.4718 15.111 12.6091 16.5415 11.1794L16.8549 10.8661C18.4699 12.6486 20.7961 13.6933 23.2215 13.6933H24.1647V17.7208C24.1647 21.2738 21.2738 24.1647 17.7208 24.1647C14.1678 24.1647 11.2769 21.2738 11.2769 17.7208ZM8.69607 27.6493L12.1838 27.0153L13.9463 32.3034L6.15153 29.2723C6.75806 28.4274 7.66907 27.8361 8.69607 27.6493ZM1.61098 38.6635V35.4416C1.61098 34.9969 1.97265 34.6361 2.41647 34.6361C3.74875 34.6361 4.83294 35.7203 4.83294 37.0525C4.83294 38.3848 3.74875 39.469 2.41647 39.469C1.97265 39.469 1.61098 39.1082 1.61098 38.6635ZM16.9153 47.9573L4.02745 42.9463V40.7385C5.44753 40.115 6.44392 38.6998 6.44392 37.0525C6.44392 35.4053 5.44753 33.9901 4.02745 33.3666V30.1753L16.9153 35.187V47.9573ZM14.5238 32.5289L17.7208 29.3311L20.9178 32.5281L17.7208 33.7718L14.5238 32.5289ZM31.4141 42.9455L18.5263 47.9565V35.187L31.4141 30.1753V33.3666C29.994 33.9901 28.9976 35.4053 28.9976 37.0525C28.9976 38.6998 29.994 40.115 31.4141 40.7385V42.9455ZM33.8306 38.6635C33.8306 39.1082 33.4689 39.469 33.0251 39.469C31.6928 39.469 30.6086 38.3848 30.6086 37.0525C30.6086 35.7203 31.6928 34.6361 33.0251 34.6361C33.4689 34.6361 33.8306 34.9969 33.8306 35.4416V38.6635Z" fill="#F39F5F"/>
</svg>
