<svg width="49" height="48" viewBox="0 0 49 48" fill="none" xmlns="http://www.w3.org/2000/svg">
<path d="M39.3431 42.9995L37.7642 42.6622C37.2721 42.5555 36.7824 42.6962 36.4185 43.0498L36.2195 43.2448C35.3222 42.6891 34.5661 41.9329 34.0105 41.0354L34.2032 40.84C34.5596 40.4785 34.7023 39.9865 34.5951 39.4909L34.2545 37.9097C34.1057 37.2223 33.5111 36.7423 32.8085 36.7423H30.9067C30.483 36.7423 30.1061 36.9087 29.8162 37.2238C29.5343 37.531 29.3985 37.9309 29.434 38.3521C29.5523 39.7105 29.9361 41.0324 30.5638 42.2428C30.4615 42.2111 30.3531 42.2038 30.2475 42.2216C30.1419 42.2395 30.0419 42.2819 29.9557 42.3454C29.8695 42.409 29.7994 42.4919 29.7511 42.5875C29.7028 42.6832 29.6777 42.7888 29.6777 42.8959V46.9347C29.6777 47.0244 29.6954 47.1133 29.7298 47.1963C29.7641 47.2792 29.8145 47.3546 29.878 47.418C29.9414 47.4815 30.0168 47.5319 30.0997 47.5662C30.1827 47.6006 30.2716 47.6183 30.3613 47.6183C30.4511 47.6183 30.54 47.6006 30.6229 47.5662C30.7059 47.5319 30.7812 47.4815 30.8447 47.418C30.9082 47.3546 30.9585 47.2792 30.9929 47.1963C31.0272 47.1133 31.0449 47.0244 31.0449 46.9347V43.0763C32.7398 45.7142 35.5913 47.5287 38.8997 47.8202C38.9487 47.8248 38.9973 47.827 39.0454 47.827C39.4109 47.827 39.749 47.695 40.0334 47.4382C40.3422 47.1548 40.5121 46.7675 40.5121 46.3478V44.446C40.5122 43.7432 40.0321 43.1485 39.3431 42.9995ZM39.145 46.3477C39.145 46.3874 39.1376 46.4046 39.113 46.4271C39.0767 46.46 39.0598 46.4621 39.0269 46.4588L39.022 46.4584C34.6404 46.0734 31.181 42.614 30.7962 38.2349C30.7924 38.19 30.8012 38.1726 30.823 38.1487C30.8556 38.1133 30.8744 38.1095 30.9066 38.1095H32.8084C32.8658 38.1095 32.9059 38.1421 32.918 38.1982L33.2586 39.7795C33.2681 39.8231 33.2606 39.8486 33.2294 39.8804L32.673 40.4451C32.5711 40.5484 32.5048 40.6815 32.4836 40.825C32.4624 40.9686 32.4874 41.1151 32.5551 41.2435C33.3372 42.7286 34.5326 43.9238 36.012 44.6998C36.1401 44.767 36.2861 44.7918 36.4291 44.7707C36.5722 44.7496 36.7049 44.6837 36.8081 44.5825L37.3733 44.0283C37.4063 43.9962 37.431 43.9889 37.4767 43.9989L39.0557 44.3363C39.1124 44.3485 39.1449 44.3886 39.1449 44.446V46.3477H39.145ZM38.3948 36.252C38.3948 36.0643 38.2407 35.9114 38.0514 35.9114H37.0244C36.8431 35.9114 36.6692 35.8394 36.541 35.7112C36.4128 35.583 36.3408 35.4091 36.3408 35.2278C36.3408 35.0465 36.4128 34.8727 36.541 34.7445C36.6692 34.6163 36.8431 34.5442 37.0244 34.5442H38.0514C38.9946 34.5442 39.762 35.3103 39.762 36.252C39.762 37.2667 39.0267 38.0318 38.0514 38.0318C37.9603 38.0319 37.873 38.0682 37.8087 38.1326C37.7443 38.1969 37.7081 38.2842 37.708 38.3753V38.7852H39.0784C39.2597 38.7852 39.4336 38.8572 39.5618 38.9854C39.69 39.1136 39.762 39.2874 39.762 39.4688C39.762 39.6501 39.69 39.8239 39.5618 39.9521C39.4336 40.0803 39.2597 40.1523 39.0784 40.1523H37.0244C36.8431 40.1523 36.6692 40.0803 36.541 39.9521C36.4128 39.8239 36.3408 39.6501 36.3408 39.4688V38.3753C36.3408 37.432 37.1082 36.6646 38.0514 36.6646C38.37 36.6646 38.3948 36.3488 38.3948 36.252ZM42.2869 38.0318H40.8777C40.7789 38.0319 40.6812 38.0104 40.5914 37.969C40.5016 37.9276 40.4219 37.8672 40.3577 37.792C40.2935 37.7168 40.2464 37.6286 40.2196 37.5334C40.1929 37.4382 40.1871 37.3384 40.2026 37.2407L40.5403 35.1203C40.5688 34.9413 40.6673 34.7809 40.8141 34.6744C40.9609 34.568 41.1439 34.5242 41.3229 34.5527C41.502 34.5812 41.6624 34.6797 41.7688 34.8265C41.8753 34.9733 41.919 35.1563 41.8905 35.3354L41.6788 36.6646H42.2869V35.2278C42.2869 35.1381 42.3046 35.0492 42.339 34.9662C42.3733 34.8833 42.4237 34.8079 42.4871 34.7445C42.5506 34.681 42.626 34.6306 42.7089 34.5963C42.7918 34.5619 42.8807 34.5442 42.9705 34.5442C43.0603 34.5442 43.1492 34.5619 43.2321 34.5963C43.315 34.6306 43.3904 34.681 43.4539 34.7445C43.5174 34.8079 43.5677 34.8833 43.6021 34.9662C43.6364 35.0492 43.6541 35.1381 43.6541 35.2278V39.4688C43.6541 39.5585 43.6364 39.6474 43.6021 39.7304C43.5677 39.8133 43.5174 39.8886 43.4539 39.9521C43.3904 40.0156 43.315 40.066 43.2321 40.1003C43.1492 40.1347 43.0603 40.1523 42.9705 40.1523C42.8807 40.1523 42.7918 40.1347 42.7089 40.1003C42.626 40.066 42.5506 40.0156 42.4871 39.9521C42.4237 39.8886 42.3733 39.8133 42.339 39.7304C42.3046 39.6474 42.2869 39.5585 42.2869 39.4688V38.0318ZM18.7681 42.8957V46.9345C18.7681 47.1158 18.696 47.2896 18.5678 47.4178C18.4396 47.546 18.2658 47.6181 18.0845 47.6181C17.9032 47.6181 17.7293 47.546 17.6011 47.4178C17.4729 47.2896 17.4009 47.1158 17.4009 46.9345V42.8957C17.4009 42.7144 17.4729 42.5405 17.6011 42.4123C17.7293 42.2841 17.9032 42.2121 18.0845 42.2121C18.2658 42.2121 18.4396 42.2841 18.5678 42.4123C18.696 42.5405 18.7681 42.7144 18.7681 42.8957ZM24.9024 42.8957C24.9024 43.2722 24.5952 43.5794 24.2188 43.5794C23.8423 43.5794 23.5378 43.2722 23.5378 42.8957C23.5378 42.5192 23.8423 42.212 24.2188 42.212C24.5952 42.212 24.9024 42.5192 24.9024 42.8957ZM24.9024 39.859C24.9024 40.2355 24.5952 40.5427 24.2188 40.5427C23.8423 40.5427 23.5378 40.2355 23.5378 39.859C23.5378 39.4825 23.8423 39.1753 24.2188 39.1753C24.5952 39.1753 24.9024 39.4825 24.9024 39.859ZM24.9024 45.9353C24.9024 46.3117 24.5952 46.6189 24.2188 46.6189C23.8423 46.6189 23.5378 46.3117 23.5378 45.9353C23.5378 45.5588 23.8423 45.2516 24.2188 45.2516C24.5952 45.2516 24.9024 45.5587 24.9024 45.9353ZM48.4375 28.1662V20.2713C48.4375 20.1147 48.3838 19.9628 48.2852 19.8411C48.1867 19.7194 48.0494 19.6352 47.8962 19.6026L43.3565 18.6366L41.6994 14.634L44.2274 10.7418C44.3128 10.6104 44.3504 10.4538 44.334 10.298C44.3176 10.1422 44.2483 9.99679 44.1375 9.88603L38.5541 4.30264C38.4434 4.19189 38.298 4.12252 38.1423 4.10613C37.9865 4.08974 37.8299 4.12732 37.6985 4.2126L33.8037 6.74072L29.8011 5.08125L28.8377 0.541699C28.8052 0.388454 28.721 0.251031 28.5992 0.152424C28.4775 0.0538169 28.3256 7.81186e-06 28.1689 6.74987e-10H20.2713C20.1147 -6.95536e-06 19.9628 0.0537501 19.8411 0.152281C19.7194 0.250812 19.6352 0.388144 19.6026 0.541309L18.6366 5.08115L14.6339 6.74063L10.7419 4.2127C10.6105 4.12736 10.4539 4.08973 10.2981 4.1061C10.1423 4.12247 9.99687 4.19186 9.88613 4.30264L4.30264 9.88613C4.19189 9.99689 4.12253 10.1423 4.10616 10.2981C4.08978 10.4539 4.12739 10.6105 4.2127 10.7419L6.74082 14.6341L5.08379 18.6366L0.541406 19.6026C0.388223 19.6352 0.25087 19.7194 0.152319 19.8411C0.0537688 19.9628 -2.19734e-06 20.1147 0 20.2713V28.1662C1.59143e-05 28.3228 0.0537935 28.4747 0.152341 28.5964C0.250888 28.7181 0.388232 28.8023 0.541406 28.8349L5.08379 29.8009L6.74082 33.8034L4.2127 37.6956C4.12738 37.827 4.08976 37.9836 4.10613 38.1394C4.1225 38.2952 4.19187 38.4406 4.30264 38.5514L9.88613 44.1349C9.94962 44.1984 10.025 44.2488 10.108 44.2831C10.191 44.3175 10.2799 44.3351 10.3697 44.3351C10.4981 44.3351 10.6274 44.2989 10.7415 44.225L13.1683 42.6509V46.9346C13.1683 47.1159 13.2403 47.2897 13.3685 47.4179C13.4967 47.5461 13.6706 47.6182 13.8519 47.6182C14.0332 47.6182 14.207 47.5461 14.3352 47.4179C14.4634 47.2897 14.5354 47.1159 14.5354 46.9346V38.0542C14.5354 35.962 16.9711 34.6661 19.6538 34.0288L20.9676 38.3951C21.0006 38.505 21.0608 38.6048 21.1425 38.6852C21.2243 38.7657 21.325 38.8244 21.4353 38.8557C21.5457 38.8871 21.6621 38.8902 21.774 38.8647C21.8859 38.8392 21.9895 38.786 22.0754 38.71L24.3736 36.6753L26.6693 38.7097C26.7552 38.7857 26.8589 38.8389 26.9707 38.8644C27.0826 38.8899 27.1991 38.8868 27.3094 38.8555C27.4198 38.8242 27.5205 38.7656 27.6023 38.6851C27.684 38.6046 27.7442 38.5049 27.7773 38.395L29.0835 34.0539C30.0303 34.2734 30.879 34.561 31.6035 34.9097C31.5662 35.0817 31.5968 35.2615 31.6888 35.4116C31.7808 35.5617 31.9272 35.6705 32.0975 35.7153C32.2677 35.7602 32.4487 35.7375 32.6027 35.6522C32.7567 35.5668 32.8718 35.4254 32.924 35.2572C33.872 32.2228 36.6479 30.184 39.8314 30.184C43.823 30.184 47.0704 33.4313 47.0704 37.423C47.0704 40.6073 45.0317 43.3832 41.9974 44.3303C41.8243 44.3843 41.6797 44.5048 41.5956 44.6654C41.5114 44.826 41.4944 45.0134 41.5484 45.1865C41.6024 45.3596 41.7229 45.5041 41.8835 45.5883C42.0441 45.6725 42.2315 45.6895 42.4046 45.6354C46.0131 44.5092 48.4375 41.2088 48.4375 37.423C48.4375 34.063 46.5018 31.147 43.6871 29.7305L47.8962 28.8348C48.0494 28.8022 48.1867 28.718 48.2852 28.5963C48.3838 28.4746 48.4375 28.3228 48.4375 28.1662ZM21.9689 36.9781L21.0021 33.7649C21.1664 33.7393 21.3303 33.716 21.4933 33.695L23.3935 35.7171L21.9689 36.9781ZM18.4486 27.9781H17.8852C17.0669 27.9781 16.4013 27.3112 16.4013 26.4914C16.4013 25.693 17.0352 25.0398 17.8261 25.0087L17.8263 25.0089C17.8934 25.9919 18.1018 26.9878 18.4258 27.9072C18.4329 27.931 18.4402 27.9547 18.4486 27.9781ZM25.5419 31.12C25.4406 31.1199 25.3434 31.0796 25.2718 31.0079C25.2002 30.9363 25.1599 30.8391 25.1598 30.7378C25.1598 30.5306 25.3348 30.3556 25.5419 30.3556H26.7101C26.9172 30.3556 27.0922 30.5306 27.0922 30.7378C27.0922 30.945 26.9172 31.12 26.7101 31.12H25.5419ZM29.2764 23.6403H28.9413C26.7095 23.6403 25.0583 22.9184 23.2659 21.8345C23.1698 21.7763 23.0608 21.7427 22.9485 21.7368C22.8363 21.7308 22.7243 21.7526 22.6226 21.8002L19.1694 23.4152V22.7599C19.1694 19.9741 21.4358 17.7078 24.2215 17.7078C27.0088 17.7078 29.2764 19.9742 29.2764 22.7599V23.6403ZM29.3845 29.3453H30.0071V29.4063C30.0069 29.5781 29.9386 29.7428 29.8172 29.8643C29.6957 29.9858 29.5311 30.0541 29.3593 30.0543H28.9407C29.101 29.8259 29.2491 29.5893 29.3845 29.3453ZM30.5496 27.9781H30.003C30.0074 27.966 30.0106 27.9538 30.0147 27.9416C30.3681 26.9472 30.5562 25.9268 30.6188 25.0136L30.6209 25.0092C31.4062 25.0465 32.0334 25.6971 32.0334 26.4913C32.0335 27.3111 31.3679 27.9781 30.5496 27.9781ZM31.1781 23.711C31.0053 23.672 30.8266 23.6487 30.6436 23.6428V22.76C30.6436 19.2203 27.7627 16.3407 24.2215 16.3407C20.6818 16.3407 17.8022 19.2204 17.8022 22.76V23.6425C17.6224 23.6475 17.4434 23.6696 17.2677 23.7085V22.76C17.2677 18.9256 20.3871 15.8061 24.2216 15.8061C28.0575 15.8061 31.1782 18.9255 31.1782 22.76V23.711H31.1781ZM22.874 23.1919C25.0787 24.4782 26.8589 25.0075 28.9413 25.0075H29.2498C29.1275 26.623 28.5824 28.2075 27.7639 29.3448C27.4704 29.1223 27.106 28.9885 26.7101 28.9885H25.5419C24.5773 28.9885 23.7926 29.7732 23.7926 30.7379C23.7926 30.9161 23.8197 31.0881 23.8694 31.2502C20.703 31.0055 19.3687 27.4936 19.1905 24.9147L22.874 23.1919ZM24.2243 32.6312C24.6577 32.6312 25.0849 32.5805 25.4973 32.485C25.5123 32.4854 25.5269 32.4872 25.5419 32.4872H26.2756V32.7371L24.3734 34.7636L22.469 32.7369V32.358C23.0201 32.5387 23.6066 32.6312 24.2243 32.6312ZM26.776 36.9775L25.3536 35.7171L27.2216 33.7271C27.3942 33.7486 27.5646 33.7723 27.7327 33.7978L26.776 36.9775ZM32.1055 33.6359C30.8733 33.0585 29.3539 32.6388 27.6429 32.404V32.2151C27.9437 32.0252 28.1799 31.7484 28.3202 31.4214H29.3594C30.4705 31.4214 31.3744 30.5174 31.3744 29.4062V29.2229C32.5455 28.868 33.4008 27.7779 33.4008 26.4913C33.4008 25.6957 33.0729 24.9755 32.5454 24.4578V22.7598C32.5454 18.1716 28.8113 14.4387 24.2216 14.4387C19.6334 14.4387 15.9005 18.1715 15.9005 22.7598V24.4472C15.3667 24.9656 15.034 25.6901 15.034 26.4912C15.034 28.0648 16.313 29.3451 17.8851 29.3451H19.0576V29.3315C19.1224 29.4503 19.1901 29.5674 19.2606 29.6828C19.7791 30.524 20.398 31.1922 21.1019 31.6783V32.3679C19.0221 32.653 17.2248 33.2121 15.8774 33.9985C15.6791 34.1144 15.4859 34.2389 15.2985 34.3718C12.3708 31.8017 10.7015 28.1318 10.7015 24.2187C10.7015 16.7652 16.7652 10.7014 24.2188 10.7014C31.6737 10.7014 37.7388 16.7651 37.7388 24.2187C37.7388 26.0175 37.3916 27.7594 36.7077 29.4012C35.9872 29.6825 35.308 30.0598 34.6885 30.5229C33.5951 31.3393 32.7055 32.418 32.1055 33.6359ZM47.0703 27.6128L42.7202 28.5385C42.6117 28.5616 42.5105 28.6107 42.4252 28.6817C42.34 28.7527 42.2733 28.8433 42.2309 28.9458L42.1525 29.1353C41.397 28.9236 40.616 28.8165 39.8313 28.817C39.3254 28.817 38.8265 28.8617 38.3376 28.9469C38.8472 27.4302 39.1059 25.8455 39.1059 24.2189C39.1059 16.0116 32.4275 9.33447 24.2187 9.33447C16.0113 9.33447 9.33418 16.0116 9.33418 24.2189C9.33418 28.4698 11.1226 32.4601 14.2656 35.2839C13.5432 36.0957 13.1682 37.0317 13.1682 38.0544V41.0215L10.4615 42.7771L5.66074 37.9763L8.08311 34.2468C8.1435 34.1538 8.18036 34.0475 8.19052 33.937C8.20067 33.8266 8.18382 33.7154 8.14141 33.6129L6.20918 28.9457C6.16675 28.8432 6.10001 28.7526 6.01474 28.6817C5.92947 28.6108 5.82822 28.5616 5.71973 28.5386L1.36719 27.6127V20.8248L5.71992 19.8991C5.82841 19.8761 5.92967 19.8269 6.01494 19.756C6.10021 19.6851 6.16694 19.5945 6.20937 19.492L8.1416 14.8248C8.18401 14.7223 8.20087 14.6111 8.19071 14.5007C8.18056 14.3902 8.14369 14.2839 8.0833 14.1909L5.66094 10.4614L10.4615 5.66084L14.191 8.0832C14.2841 8.14362 14.3904 8.18049 14.5009 8.19063C14.6114 8.20077 14.7227 8.18388 14.8252 8.14141L19.4924 6.20645C19.5948 6.164 19.6853 6.0973 19.7562 6.01208C19.8271 5.92686 19.8761 5.82569 19.8992 5.71729L20.8249 1.36719H27.6154L28.5386 5.71689C28.5616 5.82538 28.6107 5.92663 28.6816 6.01192C28.7525 6.09721 28.8431 6.16397 28.9455 6.20645L33.6127 8.14141C33.7152 8.18389 33.8264 8.2008 33.9369 8.19067C34.0473 8.18055 34.1537 8.1437 34.2467 8.0833L37.9791 5.66074L42.7798 10.4614L40.3574 14.1909C40.297 14.2839 40.2602 14.3902 40.25 14.5007C40.2399 14.6111 40.2567 14.7223 40.2991 14.8248L42.2313 19.492C42.2738 19.5945 42.3405 19.6851 42.4257 19.756C42.511 19.8269 42.6122 19.876 42.7207 19.8991L47.0703 20.8247V27.6128Z" fill="#5866EB"/>
</svg>
