<svg width="45" height="50" viewBox="0 0 45 50" fill="none" xmlns="http://www.w3.org/2000/svg">
<path d="M11.7188 16.211C9.56498 16.211 7.81252 17.9634 7.81252 20.1173C7.81252 22.2711 9.56498 24.0235 11.7188 24.0235C13.873 24.0235 15.6251 22.2711 15.6251 20.1173C15.6251 17.9634 13.873 16.211 11.7188 16.211ZM11.7188 22.0704C10.6419 22.0704 9.76566 21.1941 9.76566 20.1173C9.76566 19.0404 10.6419 18.1641 11.7188 18.1641C12.7961 18.1641 13.6719 19.0404 13.6719 20.1173C13.6719 21.1941 12.7961 22.0704 11.7188 22.0704ZM26.3674 15.2344C26.3674 13.0806 24.6153 11.3281 22.4611 11.3281C20.3072 11.3281 18.5548 13.0806 18.5548 15.2344C18.5548 17.3882 20.3072 19.1407 22.4611 19.1407C24.6153 19.1407 26.3674 17.3882 26.3674 15.2344ZM20.5079 15.2344C20.5079 14.1575 21.3842 13.2813 22.4611 13.2813C23.5383 13.2813 24.4142 14.1575 24.4142 15.2344C24.4142 16.3113 23.5383 17.1875 22.4611 17.1875C21.3842 17.1875 20.5079 16.3113 20.5079 15.2344ZM4.88281 31.8361C4.88281 33.9899 6.63527 35.7424 8.78909 35.7424C10.9433 35.7424 12.6954 33.9899 12.6954 31.8361C12.6954 29.6823 10.9433 27.9298 8.78909 27.9298C6.63527 27.9298 4.88281 29.6823 4.88281 31.8361ZM8.78909 29.883C9.86635 29.883 10.7422 30.7592 10.7422 31.8361C10.7422 32.913 9.86635 33.7892 8.78909 33.7892C7.71223 33.7892 6.83595 32.913 6.83595 31.8361C6.83595 30.7592 7.71223 29.883 8.78909 29.883ZM13.6719 39.6487C13.6719 41.8025 15.4244 43.5549 17.5782 43.5549C19.7324 43.5549 21.4845 41.8025 21.4845 39.6487C21.4845 37.4948 19.7324 35.7424 17.5782 35.7424C15.4244 35.7424 13.6719 37.4948 13.6719 39.6487ZM19.5314 39.6487C19.5314 40.7255 18.6555 41.6018 17.5782 41.6018C16.5014 41.6018 15.6251 40.7255 15.6251 39.6487C15.6251 38.5718 16.5014 37.6955 17.5782 37.6955C18.6555 37.6955 19.5314 38.5718 19.5314 39.6487Z" fill="#39C0FA"/>
<path d="M40.0687 9.2871C40.0687 6.96354 36.688 1.52026 36.0101 0.452947C35.9219 0.314158 35.8002 0.199876 35.6561 0.120695C35.5119 0.0415148 35.3502 0 35.1858 0C35.0213 0 34.8596 0.0415148 34.7155 0.120695C34.5714 0.199876 34.4496 0.314158 34.3614 0.452947C33.769 1.38557 31.1143 5.65807 30.4524 8.27195C24.3146 5.75045 17.9169 5.8191 12.299 8.49656C6.71298 11.159 2.20826 16.3378 0.612151 22.858C0.483536 23.3821 0.804437 23.9105 1.32817 24.0387C1.4063 24.0577 1.48452 24.0668 1.56128 24.0668C2.00074 24.0668 2.40015 23.7682 2.50924 23.3222C3.89655 17.6543 7.8708 12.7706 13.1393 10.2596C18.4665 7.72087 24.5876 7.77078 30.4288 10.3877C30.7351 11.7133 31.587 12.8516 32.7589 13.5238C32.184 15.6162 31.7361 18.792 31.4816 22.6204C31.3783 24.1745 31.3085 25.8243 31.2741 27.5326C27.5659 29.6605 25.1237 33.7094 25.4296 38.5453C25.5456 40.3726 25.7207 43.134 22.8437 45.6419C20.7886 47.4337 17.7639 47.9261 14.9505 46.9274C7.96729 44.449 2.91549 38.0979 2.07964 30.7469C2.0191 30.2109 1.53413 29.8264 0.999361 29.8867C0.463321 29.9477 0.078455 30.4314 0.1391 30.9673C1.0768 39.2167 6.68896 46.0676 14.2974 48.7681C17.7758 50.0028 21.542 49.3677 24.1273 47.114C27.7306 43.9725 27.5017 40.3616 27.3786 38.4214C27.1508 34.8176 28.7214 31.7688 31.2509 29.8787V29.8826C31.2509 34.5078 31.6053 43.572 33.0961 47.7983C33.3081 48.4003 33.8724 49.9998 35.1572 49.9998C36.4423 49.9998 37.0066 48.4003 37.2187 47.7983C38.7002 43.5983 39.0634 34.601 39.0634 29.8825C39.0634 29.2123 39.0577 28.5527 39.0466 27.9091C39.348 27.9049 39.6536 27.9045 39.963 27.9095C41.8124 27.9366 43.4923 26.8113 44.1474 25.1065C45.9422 20.4311 42.6061 15.7741 38.6712 12.7063C39.5671 11.7937 40.0689 10.5659 40.0687 9.2871ZM35.1859 2.84857C36.5946 5.23355 38.1156 8.21248 38.1156 9.2871C38.1156 10.9827 36.7067 12.2541 35.1243 12.2188C33.5504 12.1832 32.2562 10.8987 32.2562 9.2871C32.2562 8.21248 33.7767 5.23355 35.1859 2.84857ZM35.1859 14.17C35.3582 14.17 35.5298 14.16 35.6995 14.142C36.1781 15.9304 36.574 18.656 36.8207 21.8765C35.7161 22.0175 34.5979 22.015 33.494 21.8691C33.7407 18.6492 34.1375 15.9247 34.6166 14.1364C34.8047 14.1584 34.9947 14.17 35.1858 14.17H35.1859ZM35.1572 47.6868C33.5794 44.312 33.204 34.1473 33.204 29.8828C33.204 29.3373 33.2166 28.136 33.217 28.1329C33.2395 26.6456 33.2899 25.2013 33.3657 23.8227C33.9695 23.8976 34.5773 23.9352 35.1858 23.9353C35.7763 23.9353 36.3664 23.8997 36.9497 23.8292C37.0075 24.8919 37.0491 25.9555 37.0747 27.0195C37.0985 27.9358 37.1103 28.899 37.1103 29.8828C37.1103 34.2804 36.7132 44.3591 35.1572 47.6868ZM42.3239 24.4064C41.9615 25.3493 41.0238 25.9742 39.9935 25.9571C39.6616 25.9518 39.3297 25.9516 38.9978 25.9567C38.9601 24.8244 38.9051 23.7098 38.8337 22.6317C38.8335 22.6253 38.8323 22.6187 38.8315 22.6122C38.6144 19.3442 38.2559 16.5522 37.7985 14.5052C41.751 17.7043 43.4752 21.4076 42.3239 24.4064Z" fill="#39C0FA"/>
<path d="M1.95312 26.9531C1.95312 27.4925 1.51602 27.9297 0.976562 27.9297C0.4375 27.9297 0 27.4925 0 26.9531C0 26.4138 0.4375 25.9766 0.976562 25.9766C1.51602 25.9766 1.95312 26.4138 1.95312 26.9531Z" fill="#39C0FA"/>
</svg>
