<svg width="50" height="50" viewBox="0 0 50 50" fill="none" xmlns="http://www.w3.org/2000/svg">
<g clip-path="url(#clip0_8248_4055)">
<path d="M1.37893 17.2655C1.75852 17.4483 2.18801 17.5406 2.64767 17.5406C2.91095 17.5406 3.184 17.5105 3.46369 17.4495C5.14249 17.0833 6.08927 15.7932 5.76661 14.3118V14.3115L3.91984 5.84513L11.6842 4.15148L13.0529 10.4259C12.6158 10.3431 12.1236 10.3546 11.593 10.4701C9.87686 10.8443 8.93838 12.0822 9.2585 13.5497C9.52813 14.7864 10.5475 15.5334 11.8536 15.5334C12.1118 15.5334 12.3819 15.504 12.6593 15.4437C14.3381 15.0775 15.2852 13.787 14.9622 12.3058V12.3054L12.5013 1.02307C12.3489 0.322677 11.6542 -0.122928 10.953 0.0300992L2.86779 1.79357C2.70094 1.82951 2.54287 1.89814 2.40269 1.99551C2.26251 2.09288 2.14301 2.21705 2.05109 2.36086C1.95826 2.50424 1.89484 2.66463 1.86452 2.83273C1.83419 3.00083 1.83756 3.17327 1.87443 3.34005L3.85734 12.432C3.42013 12.3492 2.92765 12.3603 2.39738 12.4759C1.63029 12.6434 1.0009 12.9855 0.577854 13.465C0.0759019 14.0342 -0.107301 14.7766 0.0629135 15.5555C0.231859 16.3303 0.699143 16.9374 1.37893 17.2655ZM12.347 14.0124C12.014 14.0849 10.9092 14.2443 10.6897 13.2377C10.4957 12.348 11.3681 12.0185 11.9056 11.9014C12.086 11.8621 12.2798 11.8347 12.4687 11.8347C12.9489 11.8347 13.3986 12.0112 13.5311 12.6174V12.6178C13.7508 13.6241 12.6804 13.9395 12.347 14.0124ZM11.1053 1.49601L11.3723 2.72013L3.60783 4.41398L3.34084 3.19025L11.1053 1.49601ZM1.67648 14.4345C1.88898 14.1937 2.25598 14.0064 2.70988 13.9072C2.89035 13.868 3.0841 13.8405 3.27297 13.8405C3.75324 13.8405 4.20294 14.0175 4.33537 14.6232V14.6236C4.5547 15.6304 3.48468 15.9459 3.15129 16.0183C2.71379 16.1137 2.31008 16.0881 2.01486 15.9458C1.7383 15.8127 1.56779 15.5826 1.49416 15.2435C1.42209 14.914 1.48 14.6568 1.67648 14.4345ZM49.8888 36.6446C49.8204 36.488 49.7216 36.3466 49.5982 36.2285C49.4748 36.1104 49.3291 36.0179 49.1698 35.9564L41.4553 32.9588C40.7866 32.6991 40.0321 33.0317 39.7723 33.7001L36.4004 42.3796C36.077 42.0611 35.6592 41.7963 35.1619 41.603C34.4298 41.3188 33.7165 41.2562 33.0984 41.4221C32.3657 41.619 31.8034 42.1369 31.5146 42.8801C31.2274 43.6194 31.2815 44.3838 31.6669 45.0324C32.0051 45.6019 32.5709 46.0535 33.3029 46.3377C33.7435 46.509 34.1761 46.591 34.5839 46.591C35.6588 46.591 36.558 46.0192 36.9563 44.9946L40.0942 36.9174L47.5016 39.7955L45.1735 45.788C44.85 45.4699 44.4326 45.2051 43.9349 45.0117C42.2976 44.3754 40.8316 44.8889 40.2876 46.2889C40.0003 47.0281 40.0545 47.7923 40.4402 48.4412C40.7786 49.0107 41.3443 49.4619 42.0759 49.7465C42.5165 49.9174 42.9495 49.9998 43.3573 49.9998C44.4323 49.9998 45.3314 49.4276 45.7293 48.403L49.911 37.6395C49.9732 37.4804 50.0033 37.3106 49.9995 37.1398C49.9956 36.969 49.958 36.8007 49.8888 36.6446ZM33.8332 44.9721C33.4155 44.81 33.0931 44.5658 32.926 44.2843C32.7693 44.02 32.754 43.7342 32.8798 43.4107C33.0019 43.096 33.1923 42.914 33.4788 42.8369C33.5792 42.8099 33.6901 42.7965 33.8088 42.7965C34.0563 42.7965 34.3386 42.8545 34.6312 42.9686C35.0588 43.1346 35.3846 43.3714 35.549 43.6358C35.7016 43.8811 35.7146 44.1443 35.5906 44.4639C35.2175 45.4241 34.1513 45.0957 33.8332 44.9721ZM40.6245 35.5517L41.0781 34.384L48.4858 37.2622L48.0322 38.4298L40.6245 35.5517ZM42.6062 48.3808C42.1885 48.2187 41.8665 47.9742 41.6995 47.6927C41.5422 47.4287 41.5274 47.143 41.6529 46.8196C41.8375 46.3446 42.2034 46.2004 42.5799 46.2004C42.8758 46.2004 43.1787 46.2897 43.4041 46.3774C43.8319 46.5434 44.1576 46.7802 44.3221 47.0446C44.4746 47.2899 44.4876 47.5531 44.3636 47.8724C43.9906 48.8329 42.9244 48.5044 42.6062 48.3809V48.3808ZM21.5106 46.6502C17.0069 49.9232 10.1531 48.8524 5.56749 44.1595C2.89299 41.4225 1.39797 37.8306 1.46701 34.305C1.52199 31.4879 2.59162 28.953 4.47872 27.167C5.82267 25.8967 7.53663 25.04 9.43555 24.6889C12.0158 24.2126 14.3005 22.9667 16.0422 21.0864C16.1076 21.0159 16.1585 20.9332 16.1919 20.843C16.2253 20.7528 16.2406 20.6569 16.237 20.5608C16.2333 20.4647 16.2108 20.3702 16.1706 20.2828C16.1305 20.1954 16.0735 20.1168 16.0029 20.0514C15.9324 19.986 15.8497 19.9351 15.7595 19.9016C15.6693 19.8682 15.5734 19.8528 15.4773 19.8565C15.3812 19.8601 15.2867 19.8827 15.1993 19.9229C15.1119 19.9631 15.0333 20.0201 14.968 20.0907C13.4418 21.738 11.4371 22.8297 9.16963 23.2485C6.99229 23.6507 5.02238 24.6375 3.47209 26.1027C1.29729 28.1611 0.0651596 31.0636 0.00256211 34.2765C-0.0740979 38.1922 1.57268 42.1675 4.51994 45.1834C7.60225 48.3377 11.631 49.9998 15.4601 49.9998C17.9545 49.9998 20.365 49.2938 22.3716 47.8354C22.5262 47.7202 22.6292 47.5488 22.6582 47.3582C22.6873 47.1677 22.6401 46.9733 22.5268 46.8173C22.4135 46.6614 22.2433 46.5563 22.053 46.525C21.8628 46.4937 21.6679 46.5387 21.5106 46.6501V46.6502Z" fill="#F92596"/>
<path d="M34.1578 31.9219C35.6885 30.3907 36.4202 28.418 36.2725 26.2171C36.1558 24.4703 35.4928 22.6145 34.3511 20.8174L39.0253 16.1432C39.0933 16.0752 39.1472 15.9945 39.184 15.9057C39.2208 15.8169 39.2398 15.7217 39.2398 15.6255C39.2398 15.5294 39.2209 15.4341 39.1841 15.3453C39.1473 15.2565 39.0934 15.1757 39.0254 15.1077C38.9574 15.0397 38.8767 14.9858 38.7879 14.949C38.6991 14.9122 38.6039 14.8932 38.5077 14.8932C38.4115 14.8932 38.3163 14.9121 38.2275 14.9489C38.1386 14.9857 38.0579 15.0396 37.9899 15.1076L25.03 28.0672C24.7472 27.3671 24.3258 26.7315 23.7913 26.1983C23.2484 25.6555 22.614 25.2381 21.9228 24.9597L37.1777 9.70348L40.2856 12.8113L40.199 12.8979C40.0965 13.0003 40.0267 13.1308 39.9985 13.2729C39.9702 13.415 39.9847 13.5623 40.0402 13.6961C40.0956 13.8299 40.1896 13.9443 40.3101 14.0247C40.4305 14.1052 40.5722 14.148 40.7171 14.1479C40.9044 14.1479 41.0921 14.0766 41.2346 13.9337L41.4202 13.7486C41.5364 13.7852 41.6582 13.8047 41.7817 13.8047C41.7944 13.8047 41.8069 13.8043 41.8195 13.8039C41.9852 13.7985 42.148 13.7592 42.298 13.6886C42.448 13.6179 42.5819 13.5174 42.6916 13.393L43.4689 12.5103L44.3025 13.3438C44.3705 13.412 44.4512 13.466 44.5401 13.5029C44.629 13.5398 44.7243 13.5587 44.8206 13.5587C45.0079 13.5587 45.1956 13.4869 45.3386 13.3438C45.4066 13.2758 45.4605 13.1951 45.4973 13.1063C45.5342 13.0174 45.5531 12.9222 45.5531 12.826C45.5531 12.7298 45.5342 12.6346 45.4973 12.5457C45.4605 12.4569 45.4066 12.3762 45.3386 12.3082L44.4391 11.4087L45.6625 10.0193L46.533 10.8899C46.601 10.958 46.6817 11.012 46.7706 11.0488C46.8595 11.0855 46.9548 11.1044 47.051 11.1043C47.1958 11.1042 47.3374 11.0613 47.4579 10.9808C47.5783 10.9003 47.6722 10.7859 47.7276 10.6521C47.7831 10.5182 47.7976 10.3709 47.7694 10.2289C47.7411 10.0868 47.6714 9.95624 47.569 9.85378L46.6325 8.91764L47.8468 7.53903L48.4773 8.16999C48.5453 8.23808 48.6261 8.29206 48.715 8.32885C48.8039 8.36563 48.8992 8.38449 48.9954 8.38434C49.1403 8.38431 49.2819 8.34134 49.4023 8.26085C49.5228 8.18036 49.6166 8.06597 49.6721 7.93213C49.7275 7.7983 49.742 7.65103 49.7138 7.50894C49.6856 7.36685 49.6159 7.23632 49.5135 7.13385L48.8165 6.43737L49.6954 5.43942C50.1173 4.96032 50.0943 4.23132 49.643 3.77965L46.2178 0.354557C45.7662 -0.0971027 45.0372 -0.120052 44.5581 0.301823L43.5597 1.18122L42.8625 0.484245C42.725 0.346949 42.5387 0.269873 42.3444 0.269974C42.1502 0.270075 41.9639 0.347343 41.8266 0.484782C41.6893 0.622221 41.6122 0.808571 41.6123 1.00284C41.6124 1.1971 41.6897 1.38337 41.8271 1.52067L42.4581 2.15124L41.0799 3.36471L40.1349 2.42018C40.0669 2.35216 39.9862 2.2982 39.8974 2.26138C39.8085 2.22457 39.7133 2.20562 39.6171 2.20562C39.5209 2.20562 39.4257 2.22457 39.3369 2.26138C39.248 2.2982 39.1673 2.35216 39.0993 2.42018C39.0313 2.48817 38.9773 2.5689 38.9405 2.65776C38.9036 2.74662 38.8847 2.84187 38.8847 2.93805C38.8847 3.03424 38.9036 3.12948 38.9405 3.21834C38.9773 3.3072 39.0313 3.38793 39.0993 3.45592L39.9786 4.33483L38.5889 5.55846L37.6897 4.65944C37.6217 4.59142 37.541 4.53746 37.4522 4.50064C37.3633 4.46382 37.2681 4.44488 37.1719 4.44488C37.0757 4.44488 36.9805 4.46382 36.8916 4.50064C36.8028 4.53746 36.7221 4.59142 36.6541 4.65944C36.5861 4.72743 36.5321 4.80816 36.4953 4.897C36.4585 4.98585 36.4395 5.08109 36.4395 5.17726C36.4395 5.27344 36.4585 5.36867 36.4953 5.45752C36.5321 5.54637 36.5861 5.6271 36.6541 5.69509L37.4876 6.52858L36.6045 7.30602C36.4803 7.41582 36.3799 7.54979 36.3093 7.69974C36.2388 7.84969 36.1995 8.01246 36.194 8.17809C36.1902 8.30884 36.2075 8.43934 36.2455 8.56452L29.1803 15.6301C25.0627 12.9842 20.9161 12.9686 18.2546 15.6305C17.5695 16.3141 17.045 16.9816 16.651 17.671C16.6032 17.7544 16.5723 17.8465 16.5601 17.9419C16.5479 18.0373 16.5547 18.1342 16.5799 18.227C16.6052 18.3198 16.6485 18.4067 16.7073 18.4828C16.7662 18.5589 16.8394 18.6226 16.9229 18.6704C17.0064 18.7182 17.0985 18.749 17.194 18.7612C17.2894 18.7734 17.3863 18.7666 17.4791 18.7413C17.5719 18.716 17.6589 18.6727 17.7349 18.6137C17.811 18.5548 17.8747 18.4815 17.9223 18.3979C18.2511 17.8236 18.6978 17.2575 19.2899 16.6665C22.2012 13.7548 26.1899 15.5337 28.1156 16.6948L20.2401 24.5706C20.1006 24.5597 19.9608 24.554 19.8209 24.5535C18.3214 24.5535 16.9111 25.1375 15.8506 26.1983C14.7897 27.2589 14.2056 28.6691 14.2056 30.169C14.2056 31.6689 14.7896 33.0793 15.8506 34.1397C16.9111 35.2003 18.3214 35.7846 19.8209 35.7846C21.3209 35.7846 22.7311 35.2003 23.7916 34.1398C24.852 33.0794 25.4361 31.669 25.4361 30.1691C25.4361 30.0283 25.4293 29.8886 25.419 29.7499L33.2852 21.8836C34.4343 23.8195 36.1677 27.8406 33.1217 30.8866C32.64 31.3688 32.0919 31.7796 31.4939 32.1065C28.1636 33.9281 25.9607 36.926 25.2912 40.5481C25.0124 42.0602 24.4295 43.4274 23.5582 44.6123C23.3186 44.9384 23.3885 45.3969 23.7142 45.6365C23.8397 45.729 23.9916 45.7789 24.1475 45.7788C24.2625 45.779 24.3759 45.752 24.4785 45.7001C24.5812 45.6482 24.6701 45.5729 24.7381 45.4801C25.7417 44.1152 26.4124 42.5455 26.7316 40.8139C27.3195 37.6337 29.2604 34.9977 32.1969 33.3914C32.9172 32.9975 33.5774 32.5027 34.1577 31.9219H34.1578ZM45.3488 1.55729L48.4398 4.64831L41.769 12.224L37.7739 8.22809L45.3488 1.55729ZM22.7554 33.1037C21.9716 33.8877 20.9294 34.3195 19.8209 34.3195C18.7123 34.3195 17.6701 33.8877 16.8862 33.1037C16.1022 32.3198 15.6704 31.2776 15.6704 30.1691C15.6704 29.0601 16.1022 28.0179 16.8862 27.2341C17.6697 26.4501 18.7123 26.0182 19.8208 26.0182C20.9294 26.0182 21.9716 26.4501 22.7554 27.2341C23.539 28.0179 23.9709 29.0601 23.9709 30.1691C23.9709 31.2776 23.5394 32.3198 22.7554 33.1037ZM6.22957 32.6963C5.24119 33.6846 5.24119 35.2933 6.22957 36.2817L13.7083 43.7608C14.2026 44.2549 14.8518 44.502 15.5008 44.502C16.1501 44.502 16.7993 44.2549 17.2937 43.7604C18.282 42.7721 18.282 41.1637 17.2937 40.175L9.81501 32.6959C9.33621 32.2172 8.69958 31.9536 8.02244 31.9536C7.34529 31.9536 6.70876 32.2175 6.22957 32.6963ZM16.2576 41.2111C16.675 41.6284 16.675 42.3074 16.2576 42.7248C15.8406 43.1421 15.1617 43.1424 14.7439 42.7248L7.2656 35.2461C6.84832 34.8287 6.84832 34.1494 7.2656 33.732C7.36477 33.6323 7.48272 33.5533 7.61262 33.4994C7.74253 33.4456 7.88182 33.4181 8.02244 33.4184C8.30818 33.4184 8.57712 33.5298 8.77927 33.7319L16.2576 41.2111Z" fill="#F92596"/>
<path d="M36.8151 15.4622C36.9113 15.4624 37.0066 15.4435 37.0955 15.4067C37.1844 15.3699 37.2652 15.316 37.3332 15.2479C37.6189 14.9617 37.6189 14.4979 37.3332 14.2121L35.7707 12.6492C35.6332 12.512 35.4468 12.4349 35.2526 12.4349C35.0583 12.4349 34.872 12.512 34.7345 12.6492C34.6665 12.7173 34.6125 12.798 34.5757 12.8869C34.5389 12.9758 34.5199 13.0711 34.5199 13.1673C34.5199 13.2635 34.5389 13.3588 34.5757 13.4477C34.6125 13.5366 34.6665 13.6173 34.7345 13.6854L36.297 15.2479C36.365 15.316 36.4458 15.3699 36.5347 15.4067C36.6236 15.4435 36.7189 15.4624 36.8151 15.4622ZM34.6503 17.6271C34.7951 17.6272 34.9368 17.5843 35.0573 17.5039C35.1778 17.4234 35.2717 17.3091 35.3271 17.1752C35.3826 17.0414 35.3971 16.8941 35.3689 16.7521C35.3406 16.61 35.2708 16.4795 35.1683 16.3771L33.6058 14.8141C33.4684 14.6768 33.2821 14.5997 33.0879 14.5997C32.8937 14.5997 32.7075 14.6768 32.5701 14.8141C32.502 14.8821 32.4481 14.9629 32.4112 15.0518C32.3744 15.1407 32.3555 15.2359 32.3555 15.3321C32.3555 15.4284 32.3744 15.5236 32.4112 15.6125C32.4481 15.7014 32.502 15.7822 32.5701 15.8502L34.1326 17.4127C34.2005 17.4808 34.2812 17.5348 34.37 17.5716C34.4589 17.6084 34.5541 17.6272 34.6503 17.6271ZM32.4858 19.7919C32.6306 19.7918 32.7722 19.7487 32.8925 19.6682C33.0129 19.5877 33.1067 19.4733 33.1621 19.3395C33.2175 19.2057 33.232 19.0584 33.2037 18.9164C33.1755 18.7743 33.1057 18.6439 33.0034 18.5414L31.4409 16.9789C31.3729 16.9109 31.2922 16.8569 31.2033 16.8201C31.1145 16.7833 31.0192 16.7644 30.9231 16.7644C30.8269 16.7644 30.7316 16.7833 30.6428 16.8201C30.5539 16.8569 30.4732 16.9109 30.4052 16.9789C30.3372 17.0469 30.2832 17.1276 30.2464 17.2165C30.2096 17.3054 30.1906 17.4006 30.1906 17.4968C30.1906 17.593 30.2096 17.6882 30.2464 17.7771C30.2832 17.8659 30.3372 17.9467 30.4052 18.0147L31.9677 19.5776C32.0357 19.6457 32.1164 19.6997 32.2054 19.7365C32.2943 19.7733 32.3896 19.7921 32.4858 19.7919ZM30.321 21.9568C30.4658 21.9567 30.6074 21.9137 30.7279 21.8333C30.8483 21.7528 30.9422 21.6384 30.9976 21.5045C31.0531 21.3707 31.0676 21.2234 31.0394 21.0813C31.0111 20.9393 30.9414 20.8087 30.839 20.7063L29.2765 19.1438C29.2085 19.0757 29.1278 19.0218 29.0389 18.9849C28.9501 18.9481 28.8548 18.9292 28.7586 18.9292C28.6625 18.9292 28.5672 18.9481 28.4784 18.9849C28.3895 19.0218 28.3088 19.0757 28.2408 19.1438C28.1727 19.2118 28.1188 19.2925 28.0819 19.3813C28.0451 19.4702 28.0262 19.5654 28.0262 19.6616C28.0262 19.7578 28.0451 19.8531 28.0819 19.9419C28.1188 20.0308 28.1727 20.1115 28.2408 20.1795L29.8033 21.7424C29.8712 21.8105 29.9519 21.8645 30.0407 21.9013C30.1296 21.938 30.2248 21.9569 30.321 21.9568ZM26.0759 21.3086C26.0079 21.3766 25.9539 21.4574 25.9171 21.5463C25.8803 21.6352 25.8613 21.7305 25.8613 21.8267C25.8613 21.9229 25.8803 22.0182 25.9171 22.1071C25.9539 22.1959 26.0079 22.2767 26.0759 22.3447L27.6384 23.9072C27.7064 23.9754 27.7871 24.0294 27.8761 24.0662C27.965 24.1029 28.0603 24.1218 28.1565 24.1216C28.3013 24.1215 28.4429 24.0784 28.5632 23.9979C28.6836 23.9174 28.7774 23.803 28.8328 23.6692C28.8882 23.5353 28.9027 23.3881 28.8744 23.2461C28.8462 23.104 28.7765 22.9735 28.6741 22.8711L27.1116 21.3086C27.0436 21.2406 26.9629 21.1866 26.874 21.1498C26.7852 21.113 26.6899 21.094 26.5938 21.094C26.4976 21.094 26.4023 21.113 26.3135 21.1498C26.2246 21.1866 26.1439 21.2406 26.0759 21.3086ZM40.7824 7.47462C40.7144 7.4066 40.6337 7.35264 40.5448 7.31582C40.456 7.27901 40.3607 7.26006 40.2646 7.26006C40.1684 7.26006 40.0732 7.27901 39.9843 7.31582C39.8955 7.35264 39.8147 7.4066 39.7467 7.47462C39.6787 7.54261 39.6248 7.62334 39.5879 7.71219C39.5511 7.80104 39.5322 7.89627 39.5322 7.99244C39.5322 8.08862 39.5511 8.18385 39.5879 8.2727C39.6248 8.36155 39.6787 8.44228 39.7467 8.51027C39.8147 8.57829 39.8955 8.63225 39.9843 8.66907C40.0732 8.70588 40.1684 8.72483 40.2646 8.72483C40.3607 8.72483 40.456 8.70588 40.5448 8.66907C40.6337 8.63225 40.7144 8.57829 40.7824 8.51027C40.8504 8.44228 40.9044 8.36155 40.9412 8.2727C40.978 8.18385 40.9969 8.08862 40.9969 7.99244C40.9969 7.89627 40.978 7.80104 40.9412 7.71219C40.9044 7.62334 40.8504 7.54261 40.7824 7.47462ZM42.5391 9.21603C42.4711 9.14799 42.3903 9.09402 42.3014 9.0572C42.2125 9.02038 42.1173 9.00142 42.0211 9.00142C41.9248 9.00142 41.8296 9.02038 41.7407 9.0572C41.6518 9.09402 41.571 9.14799 41.503 9.21603C41.2172 9.50177 41.2172 9.96564 41.503 10.2517C41.571 10.3197 41.6518 10.3737 41.7407 10.4105C41.8296 10.4473 41.9248 10.4663 42.0211 10.4663C42.1173 10.4663 42.2125 10.4473 42.3014 10.4105C42.3903 10.3737 42.4711 10.3197 42.5391 10.2517C42.8248 9.96554 42.8248 9.50167 42.5391 9.21603ZM42.9804 5.27316C42.9124 5.20512 42.8317 5.15115 42.7428 5.11432C42.654 5.0775 42.5587 5.05854 42.4626 5.05854C42.3664 5.05854 42.2711 5.0775 42.1823 5.11432C42.0934 5.15115 42.0127 5.20512 41.9447 5.27316C41.8767 5.34115 41.8227 5.42187 41.7859 5.51072C41.7491 5.59957 41.7301 5.69481 41.7301 5.79098C41.7301 5.88716 41.7491 5.98239 41.7859 6.07124C41.8227 6.16009 41.8767 6.24081 41.9447 6.3088C42.0127 6.37684 42.0934 6.43081 42.1823 6.46764C42.2711 6.50446 42.3664 6.52342 42.4626 6.52342C42.5587 6.52342 42.654 6.50446 42.7428 6.46764C42.8317 6.43081 42.9124 6.37684 42.9804 6.3088C43.0485 6.24081 43.1024 6.16009 43.1392 6.07124C43.176 5.98239 43.195 5.88716 43.195 5.79098C43.195 5.69481 43.176 5.59957 43.1392 5.51072C43.1024 5.42187 43.0485 5.34115 42.9804 5.27316ZM44.7382 7.01652C44.6702 6.94848 44.5895 6.89451 44.5007 6.85768C44.4118 6.82086 44.3166 6.8019 44.2204 6.8019C44.1242 6.8019 44.0289 6.82086 43.9401 6.85768C43.8512 6.89451 43.7705 6.94848 43.7025 7.01652C43.6345 7.08451 43.5805 7.16523 43.5437 7.25408C43.5069 7.34293 43.4879 7.43816 43.4879 7.53434C43.4879 7.63052 43.5069 7.72575 43.5437 7.8146C43.5805 7.90345 43.6345 7.98417 43.7025 8.05216C43.7705 8.1202 43.8512 8.17417 43.9401 8.211C44.0289 8.24782 44.1242 8.26678 44.2204 8.26678C44.3166 8.26678 44.4118 8.24782 44.5007 8.211C44.5895 8.17417 44.6702 8.1202 44.7382 8.05216C44.8063 7.98417 44.8602 7.90345 44.897 7.8146C44.9339 7.72575 44.9528 7.63052 44.9528 7.53434C44.9528 7.43816 44.9339 7.34293 44.897 7.25408C44.8602 7.16523 44.8063 7.08451 44.7382 7.01652ZM45.1796 3.07394C45.1116 3.00592 45.0308 2.95196 44.942 2.91514C44.8531 2.87832 44.7579 2.85938 44.6617 2.85938C44.5655 2.85938 44.4703 2.87832 44.3815 2.91514C44.2926 2.95196 44.2119 3.00592 44.1439 3.07394C44.0759 3.14193 44.0219 3.22266 43.9851 3.31152C43.9482 3.40038 43.9293 3.49562 43.9293 3.59181C43.9293 3.688 43.9482 3.78324 43.9851 3.8721C44.0219 3.96096 44.0759 4.04169 44.1439 4.10968C44.2119 4.1777 44.2926 4.23167 44.3815 4.26848C44.4703 4.3053 44.5655 4.32425 44.6617 4.32425C44.7579 4.32425 44.8531 4.3053 44.942 4.26848C45.0308 4.23167 45.1116 4.1777 45.1796 4.10968C45.2476 4.04169 45.3016 3.96096 45.3384 3.8721C45.3752 3.78324 45.3942 3.688 45.3942 3.59181C45.3942 3.49562 45.3752 3.40038 45.3384 3.31152C45.3016 3.22266 45.2476 3.14193 45.1796 3.07394ZM46.9371 4.81691C46.8691 4.74887 46.7883 4.6949 46.6995 4.65807C46.6106 4.62125 46.5154 4.6023 46.4192 4.6023C46.323 4.6023 46.2278 4.62125 46.1389 4.65807C46.05 4.6949 45.9693 4.74887 45.9013 4.81691C45.8333 4.8849 45.7793 4.96563 45.7425 5.05449C45.7057 5.14335 45.6867 5.23859 45.6867 5.33478C45.6867 5.43097 45.7057 5.52621 45.7425 5.61507C45.7793 5.70393 45.8333 5.78466 45.9013 5.85265C45.9693 5.92069 46.05 5.97466 46.1389 6.01149C46.2278 6.04831 46.323 6.06726 46.4192 6.06726C46.5154 6.06726 46.6106 6.04831 46.6995 6.01149C46.7883 5.97466 46.8691 5.92069 46.9371 5.85265C47.0051 5.78466 47.0591 5.70393 47.0959 5.61507C47.1327 5.52621 47.1517 5.43097 47.1517 5.33478C47.1517 5.23859 47.1327 5.14335 47.0959 5.05449C47.0591 4.96563 47.0051 4.8849 46.9371 4.81691Z" fill="#F92596"/>
</g>
<defs>
<clipPath id="clip0_8248_4055">
<rect width="50" height="50" fill="white"/>
</clipPath>
</defs>
</svg>
