<svg width="50" height="50" viewBox="0 0 50 50" fill="none" xmlns="http://www.w3.org/2000/svg">
<path d="M5.46875 36.7188V16.4062C5.46875 16.199 5.38644 16.0003 5.23993 15.8538C5.09341 15.7073 4.8947 15.625 4.6875 15.625C4.4803 15.625 4.28159 15.7073 4.13507 15.8538C3.98856 16.0003 3.90625 16.199 3.90625 16.4062V36.7188C3.90625 36.926 3.98856 37.1247 4.13507 37.2712C4.28159 37.4177 4.4803 37.5 4.6875 37.5C4.8947 37.5 5.09341 37.4177 5.23993 37.2712C5.38644 37.1247 5.46875 36.926 5.46875 36.7188Z" fill="white"/>
<path d="M47.427 33.9919C47.7311 33.4998 47.8406 32.912 47.7341 32.3435C47.617 31.7334 47.263 31.1946 46.7494 30.845C46.2359 30.4955 45.6047 30.3637 44.9942 30.4786L41.1567 31.2075C40.7866 31.2747 40.4384 31.4307 40.1418 31.6621C39.8452 31.8934 39.6092 32.1933 39.4541 32.5359C39.2989 32.8786 39.2291 33.2537 39.2508 33.6293C39.2725 34.0048 39.385 34.3694 39.5786 34.6919L37.1349 35.1552L36.2599 30.5482L39.3302 29.9646C39.5337 29.9259 39.7136 29.808 39.8303 29.6367C39.9469 29.4655 39.9907 29.2549 39.952 29.0513C39.9134 28.8477 39.7955 28.6678 39.6242 28.5512C39.4529 28.4346 39.2423 28.3908 39.0388 28.4294L31.9372 29.7786L30.302 25.6888C30.1274 25.2544 29.8266 24.8822 29.4386 24.6201C29.0505 24.3581 28.5929 24.2182 28.1247 24.2185H24.2185V14.0622H25.781C25.9377 14.0622 26.0909 14.0149 26.2204 13.9267C26.35 13.8384 26.4501 13.7132 26.5075 13.5674C26.565 13.4215 26.5773 13.2617 26.5427 13.1088C26.5081 12.9559 26.4284 12.8169 26.3138 12.7099L14.595 1.77238C14.4504 1.6375 14.26 1.5625 14.0622 1.5625C13.8644 1.5625 13.674 1.6375 13.5294 1.77238L1.81064 12.7099C1.69604 12.8169 1.61627 12.9559 1.58171 13.1088C1.54716 13.2617 1.55941 13.4215 1.61688 13.5674C1.67435 13.7132 1.77438 13.8384 1.90396 13.9267C2.03354 14.0149 2.18668 14.0622 2.34346 14.0622H22.656V34.3747C22.656 34.5819 22.7383 34.7806 22.8848 34.9272C23.0313 35.0737 23.23 35.156 23.4372 35.156C23.6444 35.156 23.8431 35.0737 23.9896 34.9272C24.1361 34.7806 24.2185 34.5819 24.2185 34.3747V28.906H26.0075C26.1642 28.9062 26.3172 28.9533 26.447 29.0411C26.5767 29.1289 26.6772 29.2536 26.7356 29.3989L29.6099 36.5825L27.8544 36.9154C27.3316 36.5102 26.7286 36.2208 26.0855 36.0664C25.4424 35.9119 24.7738 35.8959 24.124 36.0194C23.4742 36.1429 22.8581 36.4031 22.3165 36.7828C21.7749 37.1624 21.3202 37.6529 20.9825 38.2216L14.1083 39.5263L13.2333 34.9232L16.3036 34.3396C16.5072 34.3009 16.6871 34.183 16.8037 34.0117C16.9203 33.8405 16.9641 33.6299 16.9255 33.4263C16.8868 33.2227 16.7689 33.0428 16.5976 32.9262C16.4264 32.8096 16.2158 32.7658 16.0122 32.8044L8.33721 34.263C8.14658 34.2997 7.97644 34.406 7.85991 34.5612C7.74339 34.7165 7.68883 34.9095 7.70687 35.1028C7.72491 35.2961 7.81426 35.4757 7.9575 35.6067C8.10074 35.7377 8.28763 35.8107 8.48174 35.8114C8.53101 35.8117 8.58019 35.8073 8.62861 35.7982L11.6989 35.2146L12.5739 39.8177L10.1317 40.281C10.1898 39.9109 10.1579 39.5323 10.0389 39.1771C9.91995 38.822 9.71729 38.5006 9.44805 38.2402C9.17881 37.9797 8.8509 37.7879 8.49195 37.6808C8.13301 37.5737 7.75357 37.5544 7.38564 37.6247L3.54814 38.3536C3.10266 38.4365 2.6909 38.6472 2.36304 38.96C2.03519 39.2728 1.80538 39.6742 1.70163 40.1153C1.59788 40.5564 1.62465 41.0181 1.7787 41.4443C1.93275 41.8704 2.20742 42.2426 2.56924 42.5154C2.34617 42.88 2.22753 43.2989 2.22627 43.7263C2.22663 43.8727 2.23918 44.0187 2.26377 44.163C2.32044 44.4658 2.43648 44.7544 2.60521 45.0121C2.77393 45.2698 2.99199 45.4916 3.24683 45.6647C3.50166 45.8377 3.78823 45.9587 4.09001 46.0204C4.3918 46.0822 4.70283 46.0837 5.00517 46.0247L20.3122 43.1216V47.656C20.3122 47.8632 20.3945 48.0619 20.541 48.2084C20.6875 48.3549 20.8863 48.4372 21.0935 48.4372H28.906C29.1132 48.4372 29.3119 48.3549 29.4584 48.2084C29.6049 48.0619 29.6872 47.8632 29.6872 47.656V41.3341L31.3802 41.0122L33.7606 46.9669C33.9354 47.4012 34.236 47.7732 34.6239 48.0352C35.0117 48.2972 35.4691 48.4372 35.9372 48.4372H39.8435C40.4642 48.4343 41.0586 48.1865 41.4976 47.7476C41.9365 47.3087 42.1843 46.7142 42.1872 46.0935C42.1866 45.4721 41.9395 44.8763 41.5 44.4369C41.0606 43.9975 40.4649 43.7503 39.8435 43.7497H38.0544C37.8976 43.7494 37.7445 43.7023 37.6148 43.6143C37.485 43.5263 37.3845 43.4015 37.3263 43.256L36.07 40.1216L46.4489 38.1505C46.9844 38.0509 47.4683 37.7675 47.8171 37.3491C48.1658 36.9308 48.3575 36.4038 48.3591 35.8591C48.3559 35.7123 48.341 35.566 48.3145 35.4216C48.2093 34.8503 47.8923 34.3397 47.427 33.9919ZM14.0622 3.41301L23.7989 12.4997H4.32549L14.0622 3.41301ZM40.9481 33.07C41.0056 32.985 41.0794 32.9121 41.1652 32.8558C41.2511 32.7995 41.3472 32.7608 41.4481 32.7419L45.2856 32.0122C45.3338 32.0033 45.3827 31.9989 45.4317 31.9989C45.6259 31.9995 45.8129 32.0723 45.9563 32.2033C46.0997 32.3342 46.1892 32.5139 46.2073 32.7072C46.2255 32.9005 46.171 33.0937 46.0545 33.249C45.9379 33.4043 45.7677 33.5107 45.577 33.5474L41.7395 34.2771C41.5878 34.3058 41.4309 34.289 41.2887 34.2286C41.1465 34.1682 41.0254 34.067 40.9407 33.9379C40.856 33.8087 40.8115 33.6573 40.8129 33.5028C40.8142 33.3484 40.8613 33.1978 40.9481 33.07ZM34.7239 30.838L35.5989 35.445L34.2997 35.6919L32.5263 31.256L34.7239 30.838ZM28.1872 28.8216C28.0121 28.3864 27.7111 28.0133 27.3229 27.75C26.9346 27.4867 26.4766 27.3451 26.0075 27.3435H24.2185V25.781H28.1247C28.2811 25.7815 28.4338 25.8286 28.5634 25.9163C28.6929 26.0039 28.7934 26.1282 28.852 26.2732L32.7349 35.9896L31.1739 36.2857L28.1872 28.8216ZM3.33877 40.2161C3.39625 40.1311 3.47005 40.0583 3.55588 40.002C3.64171 39.9456 3.73786 39.9069 3.83877 39.888L7.67705 39.1591C7.72547 39.1499 7.77464 39.1452 7.82392 39.145C8.01696 39.1448 8.20322 39.2161 8.34667 39.3453C8.49013 39.4744 8.58057 39.6522 8.6005 39.8442C8.62043 40.0362 8.56843 40.2288 8.45456 40.3847C8.34069 40.5405 8.17305 40.6486 7.98408 40.688L4.12158 41.4208L4.11377 41.4232C3.96298 41.4491 3.80791 41.43 3.6679 41.3683C3.5279 41.3066 3.40915 41.2051 3.32649 41.0763C3.24383 40.9476 3.20092 40.7974 3.2031 40.6444C3.20528 40.4914 3.25247 40.3425 3.33877 40.2161ZM4.71064 44.4919C4.51023 44.5296 4.30302 44.4875 4.13325 44.3745C3.96348 44.2616 3.84462 44.0867 3.80205 43.8872C3.79353 43.8343 3.78935 43.7807 3.78955 43.7271C3.79024 43.5485 3.85163 43.3754 3.96364 43.2363C4.07564 43.0972 4.23162 43.0002 4.40596 42.9614L4.42314 42.9591L8.26064 42.2294C8.27158 42.2279 8.28174 42.2232 8.29189 42.2208L13.6122 41.2107C13.62 41.2099 13.6263 41.2107 13.6333 41.2091L13.6411 41.2052L20.37 39.9286C20.3335 40.1589 20.3141 40.3916 20.3122 40.6247V41.531L4.71064 44.4919ZM28.1247 46.8747H21.8747V40.6247C21.8747 39.7959 22.2039 39.0011 22.79 38.415C23.376 37.829 24.1709 37.4997 24.9997 37.4997C25.8285 37.4997 26.6234 37.829 27.2094 38.415C27.7955 39.0011 28.1247 39.7959 28.1247 40.6247V46.8747ZM35.8747 43.8333C36.0497 44.2687 36.3506 44.642 36.7389 44.9054C37.1271 45.1688 37.5852 45.3105 38.0544 45.3122H39.8435C40.0506 45.3124 40.2492 45.3948 40.3957 45.5413C40.5421 45.6877 40.6245 45.8863 40.6247 46.0935C40.625 46.1976 40.6039 46.3007 40.5628 46.3964C40.5217 46.492 40.4614 46.5783 40.3856 46.6497C40.3151 46.7218 40.2307 46.7789 40.1375 46.8175C40.0443 46.8562 39.9443 46.8757 39.8435 46.8747H35.9372C35.7808 46.8742 35.6281 46.8271 35.4986 46.7394C35.369 46.6518 35.2685 46.5275 35.2099 46.3825L32.9442 40.7154L34.5067 40.4185L35.8747 43.8333ZM46.1591 36.6146L29.6044 39.7591C29.5061 39.2377 29.3193 38.737 29.052 38.2786L45.8747 35.0857C45.9744 35.0663 46.0769 35.0669 46.1763 35.0874C46.2757 35.1079 46.3701 35.1479 46.454 35.2051C46.5379 35.2622 46.6096 35.3354 46.6651 35.4205C46.7205 35.5055 46.7586 35.6007 46.7771 35.7005C46.7875 35.7525 46.7937 35.8053 46.7958 35.8583C46.7944 36.0389 46.73 36.2134 46.6136 36.3515C46.4971 36.4896 46.3369 36.5827 46.1591 36.6146Z" fill="white"/>
<path d="M25 38.6719C24.6137 38.6719 24.2361 38.7864 23.9149 39.001C23.5937 39.2156 23.3434 39.5207 23.1955 39.8776C23.0477 40.2345 23.009 40.6272 23.0844 41.006C23.1598 41.3849 23.3458 41.7329 23.6189 42.0061C23.8921 42.2792 24.2401 42.4652 24.619 42.5406C24.9978 42.616 25.3905 42.5773 25.7474 42.4295C26.1043 42.2816 26.4094 42.0313 26.624 41.7101C26.8386 41.3889 26.9531 41.0113 26.9531 40.625C26.9525 40.1072 26.7465 39.6108 26.3804 39.2446C26.0142 38.8785 25.5178 38.6725 25 38.6719ZM25 41.0156C24.9227 41.0156 24.8472 40.9927 24.783 40.9498C24.7187 40.9069 24.6687 40.8459 24.6391 40.7745C24.6095 40.7031 24.6018 40.6246 24.6169 40.5488C24.632 40.473 24.6692 40.4034 24.7238 40.3488C24.7784 40.2942 24.848 40.257 24.9238 40.2419C24.9996 40.2268 25.0781 40.2345 25.1495 40.2641C25.2209 40.2937 25.2819 40.3437 25.3248 40.408C25.3677 40.4722 25.3906 40.5477 25.3906 40.625C25.3906 40.7286 25.3495 40.828 25.2762 40.9012C25.203 40.9745 25.1036 41.0156 25 41.0156ZM14.0625 29.6875C15.2986 29.6875 16.507 29.3209 17.5348 28.6342C18.5626 27.9474 19.3637 26.9713 19.8367 25.8293C20.3098 24.6872 20.4336 23.4306 20.1924 22.2182C19.9513 21.0058 19.356 19.8922 18.4819 19.0181C17.6078 18.144 16.4942 17.5487 15.2818 17.3076C14.0694 17.0664 12.8128 17.1902 11.6707 17.6633C10.5287 18.1363 9.55257 18.9374 8.86581 19.9652C8.17906 20.993 7.8125 22.2014 7.8125 23.4375C7.81457 25.0945 8.47371 26.683 9.64537 27.8546C10.817 29.0263 12.4055 29.6854 14.0625 29.6875ZM14.0625 18.75C14.9896 18.75 15.8959 19.0249 16.6667 19.54C17.4376 20.0551 18.0384 20.7871 18.3932 21.6437C18.748 22.5002 18.8408 23.4427 18.6599 24.352C18.4791 25.2613 18.0326 26.0965 17.3771 26.7521C16.7215 27.4076 15.8863 27.8541 14.977 28.0349C14.0677 28.2158 13.1252 28.123 12.2687 27.7682C11.4121 27.4134 10.6801 26.8126 10.165 26.0417C9.64992 25.2709 9.375 24.3646 9.375 23.4375C9.37645 22.1947 9.87077 21.0033 10.7495 20.1245C11.6283 19.2458 12.8197 18.7514 14.0625 18.75ZM39.8438 14.0625C40.6163 14.0625 41.3716 13.8334 42.0139 13.4042C42.6563 12.975 43.157 12.3649 43.4527 11.6511C43.7483 10.9373 43.8257 10.1519 43.6749 9.39418C43.5242 8.63644 43.1522 7.94041 42.6059 7.39411C42.0596 6.84782 41.3636 6.47578 40.6058 6.32506C39.8481 6.17433 39.0627 6.25169 38.3489 6.54735C37.6351 6.843 37.025 7.34367 36.5958 7.98605C36.1666 8.62843 35.9375 9.38367 35.9375 10.1562C35.9387 11.1919 36.3507 12.1847 37.083 12.917C37.8153 13.6493 38.8081 14.0613 39.8438 14.0625ZM39.8438 7.8125C40.3073 7.8125 40.7604 7.94996 41.1459 8.20749C41.5313 8.46503 41.8317 8.83107 42.0091 9.25934C42.1865 9.6876 42.2329 10.1588 42.1425 10.6135C42.052 11.0681 41.8288 11.4858 41.501 11.8135C41.1733 12.1413 40.7556 12.3645 40.301 12.455C39.8463 12.5454 39.3751 12.499 38.9468 12.3216C38.5186 12.1442 38.1525 11.8438 37.895 11.4584C37.6375 11.0729 37.5 10.6198 37.5 10.1562C37.5006 9.53484 37.7478 8.93906 38.1872 8.49965C38.6266 8.06025 39.2223 7.81312 39.8438 7.8125ZM39.8438 4.6875C40.0509 4.6875 40.2497 4.60519 40.3962 4.45868C40.5427 4.31216 40.625 4.11345 40.625 3.90625V2.34375C40.625 2.13655 40.5427 1.93784 40.3962 1.79132C40.2497 1.64481 40.0509 1.5625 39.8438 1.5625C39.6365 1.5625 39.4378 1.64481 39.2913 1.79132C39.1448 1.93784 39.0625 2.13655 39.0625 2.34375V3.90625C39.0625 4.11345 39.1448 4.31216 39.2913 4.45868C39.4378 4.60519 39.6365 4.6875 39.8438 4.6875ZM34.8719 6.28906C35.0192 6.43137 35.2166 6.51012 35.4214 6.50834C35.6262 6.50656 35.8222 6.4244 35.967 6.27955C36.1119 6.1347 36.1941 5.93875 36.1958 5.73391C36.1976 5.52907 36.1189 5.33172 35.9766 5.18438L34.8719 4.07969C34.7245 3.93738 34.5272 3.85863 34.3223 3.86041C34.1175 3.86219 33.9216 3.94435 33.7767 4.0892C33.6319 4.23405 33.5497 4.43 33.5479 4.63484C33.5461 4.83968 33.6249 5.03703 33.7672 5.18438L34.8719 6.28906ZM32.0312 10.9375H33.5938C33.801 10.9375 33.9997 10.8552 34.1462 10.7087C34.2927 10.5622 34.375 10.3635 34.375 10.1562C34.375 9.94905 34.2927 9.75034 34.1462 9.60382C33.9997 9.45731 33.801 9.375 33.5938 9.375H32.0312C31.824 9.375 31.6253 9.45731 31.4788 9.60382C31.3323 9.75034 31.25 9.94905 31.25 10.1562C31.25 10.3635 31.3323 10.5622 31.4788 10.7087C31.6253 10.8552 31.824 10.9375 32.0312 10.9375ZM34.8719 14.0234L33.7672 15.1289C33.6926 15.201 33.6331 15.2872 33.5921 15.3825C33.5512 15.4778 33.5296 15.5803 33.5287 15.6841C33.5278 15.7878 33.5476 15.8907 33.5869 15.9867C33.6261 16.0827 33.6842 16.1699 33.7575 16.2433C33.8309 16.3166 33.9181 16.3746 34.0141 16.4139C34.1101 16.4532 34.213 16.473 34.3167 16.4721C34.4205 16.4712 34.523 16.4496 34.6183 16.4087C34.7136 16.3677 34.7998 16.3082 34.8719 16.2336L35.9766 15.1281C36.1189 14.9808 36.1976 14.7834 36.1958 14.5786C36.1941 14.3738 36.1119 14.1778 35.967 14.033C35.8222 13.8881 35.6262 13.8059 35.4214 13.8042C35.2166 13.8024 35.0192 13.8811 34.8719 14.0234ZM39.0625 16.4062V17.9688C39.0625 18.176 39.1448 18.3747 39.2913 18.5212C39.4378 18.6677 39.6365 18.75 39.8438 18.75C40.0509 18.75 40.2497 18.6677 40.3962 18.5212C40.5427 18.3747 40.625 18.176 40.625 17.9688V16.4062C40.625 16.199 40.5427 16.0003 40.3962 15.8538C40.2497 15.7073 40.0509 15.625 39.8438 15.625C39.6365 15.625 39.4378 15.7073 39.2913 15.8538C39.1448 16.0003 39.0625 16.199 39.0625 16.4062ZM44.8156 14.0234C44.6683 13.8811 44.4709 13.8024 44.2661 13.8042C44.0613 13.8059 43.8653 13.8881 43.7205 14.033C43.5756 14.1778 43.4934 14.3738 43.4917 14.5786C43.4899 14.7834 43.5686 14.9808 43.7109 15.1281L44.8164 16.2328C44.9638 16.3751 45.1611 16.4539 45.3659 16.4521C45.5708 16.4503 45.7667 16.3681 45.9116 16.2233C46.0564 16.0784 46.1386 15.8825 46.1404 15.6777C46.1422 15.4728 46.0634 15.2755 45.9211 15.1281L44.8156 14.0234ZM45.3125 10.1562C45.3125 10.3635 45.3948 10.5622 45.5413 10.7087C45.6878 10.8552 45.8866 10.9375 46.0938 10.9375H47.6562C47.8634 10.9375 48.0622 10.8552 48.2087 10.7087C48.3552 10.5622 48.4375 10.3635 48.4375 10.1562C48.4375 9.94905 48.3552 9.75034 48.2087 9.60382C48.0622 9.45731 47.8634 9.375 47.6562 9.375H46.0938C45.8866 9.375 45.6878 9.45731 45.5413 9.60382C45.3948 9.75034 45.3125 9.94905 45.3125 10.1562ZM44.2633 6.51797C44.3659 6.51807 44.4675 6.49791 44.5623 6.45862C44.6571 6.41934 44.7432 6.36172 44.8156 6.28906L45.9203 5.18438C45.9949 5.11231 46.0544 5.0261 46.0954 4.93078C46.1363 4.83547 46.1579 4.73295 46.1588 4.62922C46.1597 4.52549 46.1399 4.42261 46.1006 4.3266C46.0614 4.23059 46.0033 4.14336 45.93 4.07C45.8566 3.99665 45.7694 3.93864 45.6734 3.89936C45.5774 3.86008 45.4745 3.84031 45.3708 3.84121C45.267 3.84211 45.1645 3.86366 45.0692 3.90461C44.9739 3.94555 44.8877 4.00507 44.8156 4.07969L43.7109 5.18438C43.6017 5.29363 43.5273 5.43282 43.4972 5.58435C43.4671 5.73588 43.4825 5.89293 43.5417 6.03567C43.6008 6.1784 43.7009 6.3004 43.8293 6.38625C43.9578 6.4721 44.1088 6.51794 44.2633 6.51797Z" fill="white"/>
</svg>
