<svg width="47" height="47" viewBox="0 0 47 47" fill="none" xmlns="http://www.w3.org/2000/svg">
<path d="M18.0832 21.9637V10.7047C18.5663 10.6825 19.0215 10.4723 19.3517 10.119C19.6818 9.76571 19.8607 9.2973 19.8502 8.81385C19.8396 8.3304 19.6404 7.87025 19.2952 7.53169C18.9499 7.19314 18.4859 7.00302 18.0024 7.00195H7.49455C7.01102 7.00312 6.54711 7.1933 6.20191 7.53189C5.85672 7.87048 5.6576 8.33063 5.6471 8.81405C5.63659 9.29746 5.81553 9.76582 6.14569 10.1191C6.47585 10.4724 6.93105 10.6825 7.41408 10.7047V21.9637C4.77408 23.1799 2.62898 25.2617 1.33434 27.8642C0.0397084 30.4666 -0.326706 33.4333 0.295838 36.2725C0.918382 39.1117 2.4925 41.6529 4.75725 43.4749C7.02201 45.2969 9.8414 46.2902 12.7481 46.2902C15.6547 46.2902 18.4741 45.2969 20.7389 43.4749C23.0036 41.6529 24.5777 39.1117 25.2003 36.2725C25.8228 33.4333 25.4564 30.4666 24.1618 27.8642C22.8671 25.2617 20.722 23.1799 18.082 21.9637H18.0832ZM7.00744 8.85742C7.00754 8.72795 7.05902 8.60382 7.15057 8.51227C7.24211 8.42072 7.36625 8.36924 7.49572 8.36914H18.0035C18.133 8.36914 18.2572 8.42058 18.3488 8.51215C18.4404 8.60373 18.4918 8.72792 18.4918 8.85742C18.4918 8.98692 18.4404 9.11112 18.3488 9.20269C18.2572 9.29426 18.133 9.3457 18.0035 9.3457H7.49572C7.36625 9.3456 7.24211 9.29412 7.15057 9.20257C7.05902 9.11103 7.00754 8.98689 7.00744 8.85742ZM12.7473 44.9258C10.1173 44.9249 7.56874 44.0133 5.53485 42.3459C3.50096 40.6785 2.10722 38.3582 1.59055 35.7795C1.07388 33.2007 1.46616 30.5226 2.7007 28.2004C3.93524 25.8781 5.93586 24.055 8.36252 23.041C8.4869 22.989 8.59312 22.9013 8.66783 22.7891C8.74255 22.6768 8.78242 22.545 8.78244 22.4102V10.7129H16.716V22.4102C16.7161 22.545 16.756 22.6768 16.8307 22.789C16.9054 22.9012 17.0116 22.9889 17.136 23.041C19.5629 24.0552 21.5637 25.8786 22.7982 28.2012C24.0327 30.5239 24.4247 33.2026 23.9075 35.7814C23.3904 38.3604 21.9959 40.6806 19.9614 42.3477C17.9268 44.0148 15.3776 44.9258 12.7473 44.9258Z" fill="white"/>
<path d="M12.6193 34.1112C9.49853 33.1801 6.24727 32.7616 2.99238 32.8722C2.81742 32.8813 2.65264 32.9573 2.53211 33.0844C2.41157 33.2116 2.34449 33.3802 2.34473 33.5554C2.34647 36.3027 3.43498 38.9379 5.37264 40.8856C7.3103 42.8333 9.93978 43.9354 12.6871 43.9513C15.4344 43.9673 18.0765 42.8957 20.0367 40.9706C21.9968 39.0456 23.1158 36.4232 23.1494 33.6761C23.1509 33.5633 23.1243 33.4519 23.0723 33.3518C23.0202 33.2517 22.9442 33.1661 22.8509 33.1025C22.7577 33.039 22.6502 32.9995 22.5381 32.9876C22.4259 32.9757 22.3125 32.9917 22.208 33.0343C18.6623 34.469 15.2568 34.8515 12.6193 34.1112ZM21.7115 34.6847C21.4295 36.9071 20.3319 38.9456 18.6317 40.4045C16.9316 41.8633 14.7501 42.6386 12.5106 42.5799C10.271 42.5211 8.1332 41.6326 6.51185 40.0866C4.89051 38.5406 3.90129 36.4474 3.73613 34.2132C6.61877 34.1996 9.48782 34.6088 12.2518 35.4276C14.9182 36.1765 18.2451 35.9097 21.7115 34.6847ZM9.36777 30.3655C9.73475 30.3655 10.0935 30.2567 10.3986 30.0528C10.7037 29.8489 10.9416 29.5592 11.082 29.2201C11.2224 28.8811 11.2592 28.508 11.1876 28.1481C11.116 27.7881 10.9393 27.4575 10.6798 27.198C10.4203 26.9385 10.0897 26.7618 9.72976 26.6902C9.36983 26.6186 8.99676 26.6554 8.65772 26.7958C8.31867 26.9363 8.02889 27.1741 7.82501 27.4792C7.62113 27.7843 7.51231 28.1431 7.51231 28.5101C7.51293 29.002 7.70861 29.4736 8.05644 29.8214C8.40428 30.1692 8.87586 30.3649 9.36777 30.3655ZM9.36777 28.0218C9.46435 28.0218 9.55875 28.0504 9.63905 28.1041C9.71935 28.1577 9.78193 28.234 9.81889 28.3232C9.85584 28.4124 9.86551 28.5106 9.84667 28.6053C9.82783 28.7 9.78133 28.787 9.71304 28.8553C9.64475 28.9236 9.55775 28.9701 9.46303 28.989C9.36832 29.0078 9.27014 28.9981 9.18092 28.9612C9.0917 28.9242 9.01544 28.8616 8.96178 28.7813C8.90813 28.701 8.87949 28.6066 8.87949 28.5101C8.8797 28.3806 8.93121 28.2565 9.02274 28.165C9.11426 28.0735 9.23834 28.022 9.36777 28.0218ZM12.1518 24.2089C12.1518 24.5759 12.2606 24.9346 12.4645 25.2397C12.6683 25.5449 12.9581 25.7827 13.2972 25.9231C13.6362 26.0635 14.0093 26.1003 14.3692 26.0287C14.7291 25.9571 15.0597 25.7804 15.3192 25.5209C15.5787 25.2614 15.7554 24.9308 15.827 24.5709C15.8986 24.2109 15.8619 23.8379 15.7215 23.4988C15.581 23.1598 15.3432 22.87 15.0381 22.6661C14.7329 22.4622 14.3742 22.3534 14.0072 22.3534C13.5153 22.354 13.0437 22.5497 12.6959 22.8976C12.3481 23.2454 12.1524 23.717 12.1518 24.2089ZM14.4955 24.2089C14.4955 24.3055 14.4669 24.3999 14.4132 24.4802C14.3596 24.5605 14.2833 24.623 14.1941 24.66C14.1049 24.697 14.0067 24.7066 13.912 24.6878C13.8173 24.6689 13.7302 24.6224 13.662 24.5542C13.5937 24.4859 13.5472 24.3989 13.5283 24.3041C13.5095 24.2094 13.5192 24.1113 13.5561 24.022C13.5931 23.9328 13.6557 23.8565 13.736 23.8029C13.8162 23.7492 13.9107 23.7206 14.0072 23.7206C14.1367 23.7207 14.2608 23.7722 14.3524 23.8637C14.4439 23.9553 14.4954 24.0794 14.4955 24.2089ZM12.4338 17.8292C12.8008 17.8292 13.1595 17.7204 13.4646 17.5165C13.7698 17.3126 14.0076 17.0228 14.148 16.6838C14.2885 16.3447 14.3252 15.9717 14.2536 15.6117C14.182 15.2518 14.0053 14.9212 13.7458 14.6617C13.4863 14.4022 13.1557 14.2255 12.7958 14.1539C12.4358 14.0823 12.0628 14.1191 11.7237 14.2595C11.3847 14.3999 11.0949 14.6378 10.891 14.9429C10.6871 15.248 10.5783 15.6068 10.5783 15.9737C10.5789 16.4656 10.7746 16.9372 11.1225 17.2851C11.4703 17.6329 11.9419 17.8286 12.4338 17.8292ZM12.4338 15.4854C12.5304 15.4854 12.6248 15.5141 12.7051 15.5677C12.7854 15.6214 12.8479 15.6976 12.8849 15.7869C12.9219 15.8761 12.9315 15.9743 12.9127 16.069C12.8938 16.1637 12.8473 16.2507 12.7791 16.319C12.7108 16.3873 12.6238 16.4338 12.529 16.4526C12.4343 16.4715 12.3362 16.4618 12.2469 16.4248C12.1577 16.3879 12.0815 16.3253 12.0278 16.245C11.9741 16.1647 11.9455 16.0703 11.9455 15.9737C11.9456 15.8443 11.9971 15.7201 12.0886 15.6286C12.1802 15.537 12.3043 15.4856 12.4338 15.4854ZM43.2627 10.6534C42.4681 10.6544 41.7057 10.9677 41.1398 11.5255C40.574 12.0834 40.25 12.8413 40.2377 13.6358L36.3096 14.4894C35.9799 13.6599 35.3888 12.9605 34.626 12.4972L37.2311 6.01787C37.9654 6.13221 38.7162 5.97238 39.3403 5.56883C39.9644 5.16529 40.4183 4.54623 40.6153 3.82962C40.8124 3.11302 40.739 2.34895 40.409 1.68301C40.079 1.01706 39.5155 0.495797 38.826 0.21853C38.1364 -0.0587371 37.369 -0.0726236 36.6698 0.179516C35.9707 0.431656 35.3888 0.932198 35.0349 1.58577C34.681 2.23934 34.58 3.00025 34.751 3.72352C34.9221 4.44678 35.3532 5.08185 35.9623 5.50771L33.3584 11.9843C32.6992 11.8373 32.0139 11.8555 31.3634 12.0372C30.7129 12.219 30.1174 12.5587 29.6299 13.0261L27.2861 11.2577C27.5887 10.5777 27.6305 9.8102 27.4035 9.1014C27.1765 8.3926 26.6967 7.79208 26.0555 7.41429C25.4143 7.0365 24.6564 6.90786 23.9264 7.05287C23.1965 7.19789 22.5453 7.60642 22.0972 8.20062C21.6491 8.79482 21.4352 9.53314 21.4964 10.2749C21.5576 11.0166 21.8896 11.7099 22.4291 12.2226C22.9685 12.7353 23.6778 13.0316 24.4217 13.055C25.1656 13.0784 25.892 12.8273 26.4627 12.3495L28.8014 14.1132C28.5312 14.6307 28.3745 15.1999 28.3418 15.7827C28.309 16.3656 28.401 16.9488 28.6115 17.4933L27.01 18.4331C26.5013 17.9018 25.8151 17.576 25.0818 17.5177C24.3486 17.4595 23.6195 17.6728 23.0333 18.1171C22.4471 18.5615 22.0447 19.2058 21.9027 19.9275C21.7607 20.6492 21.889 21.398 22.2631 22.0313C22.6372 22.6646 23.2311 23.1383 23.9318 23.3621C24.6324 23.586 25.391 23.5445 26.063 23.2455C26.7351 22.9465 27.2737 22.4109 27.5765 21.7406C27.8794 21.0702 27.9252 20.312 27.7053 19.6101L29.3021 18.6726C29.7973 19.2734 30.4535 19.7207 31.1937 19.962C31.934 20.2033 32.7277 20.2286 33.4818 20.0351L35.1088 23.7538C34.5349 24.1848 34.1332 24.806 33.9755 25.5062C33.8179 26.2064 33.9147 26.9399 34.2485 27.5752C34.5824 28.2106 35.1315 28.7064 35.7975 28.9738C36.4636 29.2412 37.2031 29.2627 37.8836 29.0346C38.5641 28.8065 39.1412 28.3436 39.5115 27.7288C39.8818 27.114 40.0212 26.3875 39.9047 25.6793C39.7881 24.9711 39.4233 24.3275 38.8755 23.8637C38.3277 23.4 37.6328 23.1464 36.915 23.1483C36.7279 23.149 36.5411 23.167 36.3572 23.2019L34.733 19.489C35.3091 19.1126 35.7823 18.5987 36.1101 17.9936C36.4378 17.3886 36.6098 16.7115 36.6104 16.0233C36.6104 15.9565 36.6029 15.8913 36.5998 15.8253L40.5283 14.9718C40.7597 15.4616 41.1184 15.8803 41.5669 16.1842C42.0154 16.488 42.5373 16.6659 43.078 16.6992C43.6187 16.7326 44.1585 16.6201 44.6409 16.3736C45.1233 16.1271 45.5307 15.7556 45.8205 15.2979C46.1103 14.8402 46.2719 14.3131 46.2885 13.7716C46.305 13.2301 46.1759 12.6941 45.9145 12.2195C45.6532 11.745 45.2693 11.3493 44.8028 11.0738C44.3363 10.7984 43.8044 10.6532 43.2627 10.6534ZM37.6963 1.37099C38.0246 1.37099 38.3456 1.46836 38.6186 1.65078C38.8916 1.8332 39.1044 2.09248 39.2301 2.39584C39.3557 2.69919 39.3886 3.03299 39.3245 3.35503C39.2605 3.67707 39.1024 3.97288 38.8702 4.20506C38.638 4.43724 38.3422 4.59535 38.0202 4.65941C37.6981 4.72346 37.3643 4.69059 37.061 4.56494C36.7576 4.43928 36.4983 4.2265 36.3159 3.95348C36.1335 3.68047 36.0361 3.3595 36.0361 3.03115C36.0367 2.59101 36.2117 2.16904 36.5229 1.85781C36.8342 1.54659 37.2561 1.37151 37.6963 1.37099ZM24.8131 22.1718C24.4847 22.1718 24.1638 22.0744 23.8908 21.892C23.6177 21.7096 23.405 21.4503 23.2793 21.1469C23.1536 20.8436 23.1208 20.5098 23.1848 20.1877C23.2489 19.8657 23.407 19.5699 23.6392 19.3377C23.8714 19.1055 24.1672 18.9474 24.4892 18.8834C24.8112 18.8193 25.145 18.8522 25.4484 18.9778C25.7518 19.1035 26.011 19.3163 26.1935 19.5893C26.3759 19.8623 26.4732 20.1833 26.4732 20.5116C26.4727 20.9518 26.2977 21.3737 25.9864 21.685C25.6752 21.9962 25.2532 22.1713 24.8131 22.1718ZM38.5752 26.1761C38.5752 26.5044 38.4778 26.8254 38.2954 27.0984C38.113 27.3714 37.8537 27.5842 37.5504 27.7099C37.247 27.8355 36.9132 27.8684 36.5912 27.8043C36.2691 27.7403 35.9733 27.5822 35.7411 27.35C35.509 27.1178 35.3508 26.822 35.2868 26.5C35.2227 26.1779 35.2556 25.8441 35.3813 25.5408C35.5069 25.2374 35.7197 24.9781 35.9927 24.7957C36.2657 24.6133 36.5867 24.5159 36.915 24.5159C37.3552 24.5164 37.7771 24.6915 38.0884 25.0027C38.3996 25.314 38.5747 25.7359 38.5752 26.1761ZM24.5197 11.6894C24.1914 11.6894 23.8704 11.592 23.5974 11.4096C23.3244 11.2271 23.1116 10.9679 22.9859 10.6645C22.8603 10.3612 22.8274 10.0274 22.8915 9.70532C22.9555 9.38328 23.1136 9.08747 23.3458 8.85529C23.578 8.62311 23.8738 8.465 24.1958 8.40094C24.5179 8.33688 24.8517 8.36976 25.155 8.49541C25.4584 8.62107 25.7177 8.83385 25.9001 9.10686C26.0825 9.37988 26.1799 9.70085 26.1799 10.0292C26.1794 10.4693 26.0043 10.8913 25.6931 11.2025C25.3818 11.5138 24.9599 11.6888 24.5197 11.6894ZM33.5822 18.5644C33.2319 18.7179 32.8534 18.7965 32.4709 18.7952C31.736 18.7942 31.0316 18.5015 30.5123 17.9815C29.993 17.4615 29.7014 16.7567 29.7014 16.0218C29.6992 15.4199 29.8952 14.834 30.2592 14.3546C30.518 14.0133 30.8521 13.7363 31.2356 13.5454C31.619 13.3545 32.0414 13.2547 32.4697 13.2538C32.8251 13.2521 33.1773 13.3206 33.5061 13.4554C33.9258 13.6224 34.298 13.8901 34.5899 14.2349C34.8819 14.5796 35.0846 14.9908 35.1803 15.4323C35.3158 16.0589 35.2307 16.7132 34.9393 17.2842C34.6478 17.8553 34.168 18.308 33.5811 18.5659L33.5822 18.5644ZM43.2627 15.3409C42.8837 15.3403 42.5163 15.2101 42.2214 14.9719C41.9265 14.7337 41.722 14.4019 41.6416 14.0315C41.6416 14.0261 41.6377 14.0214 41.6361 14.0159C41.6138 13.906 41.6026 13.7941 41.6025 13.6819C41.6025 13.3536 41.6999 13.0326 41.8823 12.7596C42.0647 12.4866 42.324 12.2738 42.6274 12.1481C42.9307 12.0225 43.2645 11.9896 43.5866 12.0537C43.9086 12.1177 44.2044 12.2758 44.4366 12.508C44.6688 12.7402 44.8269 13.036 44.891 13.3581C44.955 13.6801 44.9221 14.0139 44.7965 14.3172C44.6708 14.6206 44.458 14.8799 44.185 15.0623C43.912 15.2447 43.591 15.3421 43.2627 15.3421V15.3409Z" fill="white"/>
</svg>
