<svg width="50" height="50" viewBox="0 0 50 50" fill="none" xmlns="http://www.w3.org/2000/svg">
<path d="M11.8165 16.211C9.66263 16.211 7.91018 17.9634 7.91018 20.1173C7.91018 22.2711 9.66263 24.0235 11.8165 24.0235C13.9707 24.0235 15.7227 22.2711 15.7227 20.1173C15.7227 17.9634 13.9707 16.211 11.8165 16.211ZM11.8165 22.0704C10.7396 22.0704 9.86332 21.1941 9.86332 20.1173C9.86332 19.0404 10.7396 18.1641 11.8165 18.1641C12.8937 18.1641 13.7696 19.0404 13.7696 20.1173C13.7696 21.1941 12.8937 22.0704 11.8165 22.0704ZM26.465 15.2344C26.465 13.0806 24.7129 11.3281 22.5587 11.3281C20.4049 11.3281 18.6525 13.0806 18.6525 15.2344C18.6525 17.3882 20.4049 19.1407 22.5587 19.1407C24.7129 19.1407 26.465 17.3882 26.465 15.2344ZM20.6056 15.2344C20.6056 14.1575 21.4819 13.2813 22.5587 13.2813C23.636 13.2813 24.5119 14.1575 24.5119 15.2344C24.5119 16.3113 23.636 17.1875 22.5587 17.1875C21.4819 17.1875 20.6056 16.3113 20.6056 15.2344ZM4.98047 31.8361C4.98047 33.9899 6.73292 35.7424 8.88675 35.7424C11.041 35.7424 12.793 33.9899 12.793 31.8361C12.793 29.6823 11.041 27.9298 8.88675 27.9298C6.73292 27.9298 4.98047 29.6823 4.98047 31.8361ZM8.88675 29.883C9.964 29.883 10.8399 30.7592 10.8399 31.8361C10.8399 32.913 9.964 33.7892 8.88675 33.7892C7.80989 33.7892 6.93361 32.913 6.93361 31.8361C6.93361 30.7592 7.80989 29.883 8.88675 29.883ZM13.7696 39.6487C13.7696 41.8025 15.5221 43.5549 17.6759 43.5549C19.8301 43.5549 21.5822 41.8025 21.5822 39.6487C21.5822 37.4948 19.8301 35.7424 17.6759 35.7424C15.5221 35.7424 13.7696 37.4948 13.7696 39.6487ZM19.629 39.6487C19.629 40.7255 18.7531 41.6018 17.6759 41.6018C16.599 41.6018 15.7227 40.7255 15.7227 39.6487C15.7227 38.5718 16.599 37.6955 17.6759 37.6955C18.7531 37.6955 19.629 38.5718 19.629 39.6487Z" fill="white"/>
<path d="M40.1664 9.2871C40.1664 6.96354 36.7857 1.52026 36.1077 0.452947C36.0196 0.314158 35.8978 0.199876 35.7537 0.120695C35.6096 0.0415148 35.4478 0 35.2834 0C35.119 0 34.9572 0.0415148 34.8131 0.120695C34.669 0.199876 34.5473 0.314158 34.4591 0.452947C33.8666 1.38557 31.212 5.65807 30.5501 8.27195C24.4122 5.75045 18.0145 5.8191 12.3966 8.49656C6.81064 11.159 2.30591 16.3378 0.709807 22.858C0.581193 23.3821 0.902094 23.9105 1.42583 24.0387C1.50395 24.0577 1.58218 24.0668 1.65894 24.0668C2.09839 24.0668 2.49781 23.7682 2.60689 23.3222C3.99421 17.6543 7.96846 12.7706 13.237 10.2596C18.5641 7.72087 24.6853 7.77078 30.5265 10.3877C30.8328 11.7133 31.6847 12.8516 32.8565 13.5238C32.2816 15.6162 31.8338 18.792 31.5793 22.6204C31.476 24.1745 31.4061 25.8243 31.3718 27.5326C27.6635 29.6605 25.2213 33.7094 25.5273 38.5453C25.6432 40.3726 25.8183 43.134 22.9413 45.6419C20.8862 47.4337 17.8616 47.9261 15.0482 46.9274C8.06494 44.449 3.01315 38.0979 2.1773 30.7469C2.11675 30.2109 1.63179 29.8264 1.09702 29.8867C0.560978 29.9477 0.176111 30.4314 0.236756 30.9673C1.17446 39.2167 6.78661 46.0676 14.3951 48.7681C17.8734 50.0028 21.6397 49.3677 24.2249 47.114C27.8283 43.9725 27.5994 40.3616 27.4762 38.4214C27.2485 34.8176 28.819 31.7688 31.3485 29.8787V29.8826C31.3485 34.5078 31.7029 43.572 33.1938 47.7983C33.4058 48.4003 33.97 49.9998 35.2548 49.9998C36.54 49.9998 37.1042 48.4003 37.3163 47.7983C38.7979 43.5983 39.1611 34.601 39.1611 29.8825C39.1611 29.2123 39.1553 28.5527 39.1443 27.9091C39.4457 27.9049 39.7512 27.9045 40.0606 27.9095C41.91 27.9366 43.5899 26.8113 44.245 25.1065C46.0399 20.4311 42.7038 15.7741 38.7689 12.7063C39.6647 11.7937 40.1665 10.5659 40.1664 9.2871ZM35.2835 2.84857C36.6922 5.23355 38.2132 8.21248 38.2132 9.2871C38.2132 10.9827 36.8043 12.2541 35.222 12.2188C33.6481 12.1832 32.3538 10.8987 32.3538 9.2871C32.3538 8.21248 33.8743 5.23355 35.2835 2.84857ZM35.2835 14.17C35.4559 14.17 35.6275 14.16 35.7972 14.142C36.2757 15.9304 36.6716 18.656 36.9184 21.8765C35.8138 22.0175 34.6956 22.015 33.5916 21.8691C33.8384 18.6492 34.2352 15.9247 34.7143 14.1364C34.9024 14.1584 35.0923 14.17 35.2834 14.17H35.2835ZM35.2548 47.6868C33.6771 44.312 33.3017 34.1473 33.3017 29.8828C33.3017 29.3373 33.3143 28.136 33.3147 28.1329C33.3371 26.6456 33.3875 25.2013 33.4634 23.8227C34.0672 23.8976 34.675 23.9352 35.2834 23.9353C35.874 23.9353 36.4641 23.8997 37.0474 23.8292C37.1051 24.8919 37.1468 25.9555 37.1724 27.0195C37.1961 27.9358 37.208 28.899 37.208 29.8828C37.208 34.2804 36.8109 44.3591 35.2548 47.6868ZM42.4216 24.4064C42.0592 25.3493 41.1215 25.9742 40.0912 25.9571C39.7593 25.9518 39.4273 25.9516 39.0955 25.9567C39.0578 24.8244 39.0028 23.7098 38.9314 22.6317C38.9311 22.6253 38.9299 22.6187 38.9292 22.6122C38.7121 19.3442 38.3536 16.5522 37.8961 14.5052C41.8486 17.7043 43.5728 21.4076 42.4216 24.4064Z" fill="white"/>
<path d="M2.05078 26.9531C2.05078 27.4925 1.61367 27.9297 1.07422 27.9297C0.535156 27.9297 0.0976562 27.4925 0.0976562 26.9531C0.0976562 26.4138 0.535156 25.9766 1.07422 25.9766C1.61367 25.9766 2.05078 26.4138 2.05078 26.9531Z" fill="white"/>
</svg>
