<svg width="17" height="17" viewBox="0 0 17 17" fill="none" xmlns="http://www.w3.org/2000/svg">
<g clip-path="url(#clip0_16_574)">
<path d="M16.4364 7.42645C16.3381 6.53058 16.1111 5.64906 15.775 4.81355C15.4542 4.01604 15.0635 3.2147 14.4018 2.64599C13.465 1.84079 12.4199 1.13412 11.2294 0.771891C9.98805 0.394204 8.62081 0.51004 7.36874 0.783878C5.5021 1.19211 3.96336 2.23558 2.80527 3.76456C1.39288 5.62929 0.236545 8.28518 0.598172 10.6699C0.78781 11.9205 1.26726 13.1271 1.99179 14.163C2.76089 15.2626 3.73904 15.7949 5.02222 16.131C7.53346 16.7889 10.4314 16.5146 12.6216 15.0521C13.8369 14.2406 14.71 13.0964 15.3634 11.8005C16.0615 10.4159 16.6099 9.00644 16.4364 7.42645ZM14.7019 8.36096C14.6605 9.52849 14.3146 10.6807 13.6228 11.7184C12.5681 13.3002 10.8624 14.4284 8.96139 14.6336C7.006 14.8447 4.44567 14.9001 3.18185 13.0564C2.70836 12.3656 2.43683 11.5338 2.27729 10.7169C2.08426 9.7283 2.17304 8.68568 2.53098 7.7444C2.90041 6.77301 3.32529 5.76642 3.8616 4.8754C4.52424 3.77453 5.49248 2.85274 6.77773 2.58897C8.10846 2.31586 9.52072 2.08802 10.871 2.43916C12.0328 2.74132 13.2039 3.49468 13.7832 4.57438C14.4227 5.76652 14.7476 7.07307 14.7019 8.36096ZM12.8134 7.28668C12.3338 7.00498 11.1316 6.02672 10.6938 5.68331C10.2754 5.35505 8.92606 4.02909 7.94461 4.30137C7.31734 4.47539 7.24243 5.06768 7.5162 5.58009C7.72349 5.96807 8.14725 6.32767 8.51998 6.55002C8.69144 6.65232 9.53287 7.22258 9.90244 7.37814C8.98737 7.37814 7.55325 7.52376 6.65363 7.69005C5.84097 7.84026 4.8261 8.01111 4.08951 8.4024C3.60604 8.65923 3.41041 9.50049 3.98015 9.79388C4.65542 10.1416 5.57681 9.8478 6.44825 9.6759C7.56635 9.45532 9.30013 9.2357 10.1672 9.19106C9.55928 9.47893 8.925 10.209 8.47987 10.7071C8.21347 11.0052 7.89633 11.4751 8.07655 11.887C8.22138 12.218 8.89863 12.5848 9.5062 12.1788C9.94188 11.8876 10.3163 11.5199 10.7157 11.1791C11.2752 10.7017 11.8471 10.238 12.3855 9.73626C12.6419 9.49732 12.9626 9.2046 13.182 8.92871C13.6803 8.30238 13.4522 7.66182 12.8134 7.28668Z" fill="white"/>
</g>
<defs>
<clipPath id="clip0_16_574">
<rect width="17" height="17" fill="white"/>
</clipPath>
</defs>
</svg>
