<svg width="47" height="60" viewBox="0 0 47 60" fill="none" xmlns="http://www.w3.org/2000/svg">
<path d="M38.8293 39.7979C43.2885 35.5939 46.077 29.6361 46.077 23.0385C46.077 17.7872 44.3561 12.8412 41.1002 8.73521C37.942 4.75224 33.5005 1.88959 28.5939 0.674588C27.966 0.519315 27.3302 0.902166 27.1746 1.53041C27.0191 2.15865 27.4022 2.79404 28.0304 2.94955C37.2759 5.23904 43.7331 13.4999 43.7331 23.0384C43.7331 34.4495 34.4495 43.7331 23.0384 43.7331C11.6272 43.7331 2.34375 34.4497 2.34375 23.0385C2.34375 13.5001 8.8009 5.23916 18.0463 2.94967C18.6745 2.79416 19.0576 2.15877 18.9021 1.53053C18.7466 0.902283 18.1113 0.518963 17.483 0.674705C12.5763 1.88982 8.1348 4.75248 4.97672 8.73545C1.7209 12.8415 0 17.7875 0 23.0387C0 29.6362 2.78848 35.5941 7.2477 39.798L1.11246 51.5316C0.813282 52.1038 1.03336 52.8103 1.60453 53.1113L1.64672 53.1336C1.90887 53.2717 2.21332 53.3053 2.49938 53.228L11.0023 50.926L13.965 59.2223C14.1216 59.6607 14.5229 59.9649 14.9873 59.9972C15.0146 59.9991 15.0418 60.0001 15.0689 60.0001C15.5027 60.0001 15.904 59.7595 16.1071 59.3712L23.0385 46.1149L29.9699 59.3711C30.173 59.7595 30.5742 60.0001 31.008 59.9999C31.035 59.9999 31.0623 59.999 31.0896 59.9971C31.554 59.9649 31.9554 59.6606 32.112 59.2222L35.0747 50.9259L43.5776 53.2279C43.8635 53.3055 44.1682 53.2716 44.4302 53.1335L44.4724 53.1112C45.0436 52.8101 45.2636 52.1037 44.9645 51.5315L38.8293 39.7979ZM15.2713 55.9114L12.8452 49.1177C12.6395 48.5417 12.0255 48.2208 11.4353 48.3807L4.41035 50.2826L9.07922 41.3533C12.3182 43.8279 16.2295 45.4639 20.4875 45.9351L15.2713 55.9114ZM34.6416 48.3807C34.0514 48.221 33.4373 48.5418 33.2317 49.1177L30.8057 55.9114L25.5893 45.9351C29.8473 45.4639 33.7587 43.8279 36.9976 41.3533L41.6665 50.2826L34.6416 48.3807Z" fill="#FF876B"/>
<path d="M5.85938 23.0385C5.85938 32.511 13.5659 40.2176 23.0385 40.2176C32.5111 40.2176 40.2176 32.5111 40.2176 23.0385C40.2176 13.5659 32.511 5.85938 23.0385 5.85938C13.566 5.85938 5.85938 13.5659 5.85938 23.0385ZM37.8738 23.0385C37.8738 31.2188 31.2188 37.8738 23.0385 37.8738C14.8582 37.8738 8.20312 31.2188 8.20312 23.0385C8.20312 14.8582 14.8582 8.20312 23.0385 8.20312C31.2188 8.20312 37.8738 14.8582 37.8738 23.0385Z" fill="#FF876B"/>
<path d="M21.2692 15.6004L19.8195 18.4017C19.6503 18.7286 19.3325 18.9595 18.9694 19.0194L15.8572 19.5325C15.1195 19.6542 14.5177 20.1714 14.2866 20.8825C14.0555 21.5936 14.2383 22.3659 14.7637 22.8979L16.9799 25.1423C17.2384 25.4042 17.36 25.7778 17.3045 26.1417L16.8309 29.2601C16.7186 29.9994 17.0246 30.7315 17.6294 31.1711C18.2343 31.6106 19.0252 31.6753 19.6936 31.3401L22.5132 29.926C22.842 29.761 23.2348 29.7609 23.5639 29.926L26.3833 31.3401C26.6672 31.4825 26.9732 31.5527 27.2777 31.5527C27.6899 31.5527 28.0995 31.4239 28.4474 31.1711C29.0524 30.7315 29.3583 29.9994 29.2461 29.2603L28.7724 26.1418C28.7171 25.7779 28.8385 25.4042 29.0971 25.1424L31.3134 22.898C31.8387 22.366 32.0215 21.5937 31.7904 20.8826C31.5593 20.1715 30.9576 19.6543 30.2199 19.5326L27.1077 19.0195C26.7445 18.9596 26.4268 18.7287 26.2576 18.4018L24.8078 15.6005C24.4641 14.9364 23.7862 14.5239 23.0385 14.5239C22.2908 14.5238 21.6128 14.9363 21.2692 15.6004ZM26.7264 21.3319L29.1683 21.7346L27.4293 23.4957C26.6535 24.2814 26.2893 25.4022 26.4551 26.4937L26.8267 28.9406L24.6146 27.831C24.121 27.5834 23.5797 27.4597 23.0383 27.4597C22.497 27.4597 21.9555 27.5835 21.4621 27.831L19.25 28.9406L19.6216 26.4938C19.7874 25.4022 19.4233 24.2814 18.6474 23.4956L16.9084 21.7346L19.3504 21.3319C20.4398 21.1523 21.3931 20.4596 21.9008 19.479L23.0385 17.281L24.1761 19.479C24.6835 20.4595 25.6369 21.1523 26.7264 21.3319Z" fill="#FF876B"/>
<path d="M23.0386 2.34375C23.6858 2.34375 24.2104 1.81908 24.2104 1.17188C24.2104 0.524666 23.6858 0 23.0386 0C22.3914 0 21.8667 0.524666 21.8667 1.17188C21.8667 1.81908 22.3914 2.34375 23.0386 2.34375Z" fill="#FF876B"/>
</svg>
