<svg width="60" height="60" viewBox="0 0 60 60" fill="none" xmlns="http://www.w3.org/2000/svg">
<path d="M56.22 16.62C53.88 16.32 51.72 16.98 50.1 18.72L49.8 19.02C47.58 14.88 43.56 14.82 40.68 15.24C40.26 15.3 39.9 15.66 39.9 16.14V16.56C37.44 16.2 34.92 16.44 32.7 17.22C32.34 16.74 31.92 16.32 31.38 15.96C31.62 13.86 30.96 11.76 29.52 10.2C28.08 8.63995 26.1 7.79995 23.94 7.85995C22.32 4.37995 18.42 2.45995 14.64 3.41995C10.8 4.31995 8.28 7.85995 8.46 11.7C6.6 12.6 5.22 14.28 4.68 16.38C4.14 18.42 4.56 20.64 5.76 22.38C5.04 23.7 4.92 25.32 5.52 26.88C6.3 28.92 8.1 30.42 10.26 30.84C12.54 31.38 15.6 34.14 16.86 36.96C17.22 37.74 17.52 38.4 17.88 38.94C17.34 39.12 16.86 39.36 16.38 39.6C15.42 40.08 14.64 40.68 13.98 41.4C12.3 39.18 10.74 37.98 9.3 37.8C8.4 37.68 7.56 37.92 6.78 38.46C5.52 39.42 4.8 41.28 6.06 43.68C4.14 44.46 3 45.78 3 47.28C3 48.78 4.14 50.0399 6.06 50.8199C4.8 53.2199 5.52 55.0799 6.78 56.0399C7.38 56.5199 8.1 56.7599 8.82 56.7599C9 56.7599 9.12 56.7599 9.3 56.6999C10.74 56.4599 12.3 55.3199 13.98 53.0999C14.64 53.8199 15.42 54.4199 16.38 54.8999C18.96 56.2799 22.5 56.8799 26.34 56.8799C37.26 56.8799 51 52.3199 55.02 49.7399C56.04 49.0799 56.58 48.18 56.58 47.28C56.58 46.38 56.04 45.4799 55.02 44.8199C54.18 44.2799 52.86 43.6199 51.18 42.8999C51.42 42.7199 51.6 42.4799 51.78 42.2399C54.78 38.88 55.74 34.2 54.42 29.52C54.54 29.52 54.72 29.52 54.84 29.46C55.26 29.4 55.62 29.04 55.62 28.56C55.68 25.74 55.26 21.9 51.18 20.1L51.36 19.92C52.62 18.6 54.18 18.12 55.98 18.36C56.46 18.42 56.94 18.06 57 17.58C57.06 17.16 56.7 16.74 56.22 16.62ZM18.54 36.18C17.04 32.88 13.5 29.7 10.68 29.04C9.06 28.74 7.8 27.66 7.26 26.22C6.78 25.02 6.96 23.76 7.62 22.86C7.86 22.5 7.86 22.08 7.62 21.72C6.36 20.4 6 18.6 6.42 16.86C6.84 15.12 8.1 13.74 9.78 13.14C10.2 12.96 10.38 12.6 10.38 12.18C9.9 8.99995 11.94 5.93995 15.12 5.15995C18.24 4.37995 21.48 6.05995 22.56 9.11995C22.68 9.53995 23.1 9.77995 23.52 9.71995C25.32 9.47995 27 10.14 28.2 11.46C29.4 12.78 29.94 14.58 29.52 16.32C29.46 16.74 29.64 17.16 30.06 17.34C31.08 17.82 31.8 18.84 31.98 20.1C32.16 21.66 31.56 23.22 30.24 24.24C28.08 26.16 26.46 30.6 26.7 34.2C26.76 35.64 26.76 36.78 26.64 37.68C24.12 37.68 21.78 37.86 19.68 38.4C19.26 37.74 18.9 37.02 18.54 36.18ZM9.06 54.9599C8.64 55.0199 8.28 54.8999 7.92 54.6599C6.48 53.5199 7.62 51.66 8.22 50.88C8.4 50.64 8.46 50.3399 8.34 50.0399C8.22 49.7399 7.98 49.5599 7.74 49.4999C6 49.0199 4.8 48.12 4.8 47.28C4.8 46.44 6 45.5399 7.68 45.1199C7.98 45.0599 8.22 44.82 8.28 44.58C8.34 44.34 8.34 43.9799 8.16 43.7399C7.62 42.9599 6.48 41.04 7.86 39.96C8.22 39.66 8.58 39.6 9 39.66C9.72 39.78 10.98 40.4399 12.84 43.0199C12.18 44.2799 11.82 45.7199 11.82 47.3399C11.82 48.9599 12.18 50.3999 12.84 51.6599C11.04 54.1199 9.78 54.8399 9.06 54.9599ZM54.78 47.28C54.78 47.58 54.48 47.9399 54 48.2399C51 50.1599 41.52 53.4599 32.46 54.5999V50.4599C32.46 49.9799 32.04 49.5599 31.56 49.5599C31.08 49.5599 30.66 49.9799 30.66 50.4599V54.7799C27.42 55.0799 24.3 55.1399 21.66 54.7199V49.6199C21.66 49.1399 21.24 48.7199 20.76 48.7199C20.28 48.7199 19.86 49.1399 19.86 49.6199V54.2999C18.9 54.0599 18 53.6999 17.22 53.28C14.82 51.96 13.68 49.9799 13.68 47.2199C13.68 44.4599 14.82 42.48 17.22 41.16C19.2 40.08 21.78 39.6 24.72 39.48V43.8599C24.72 44.3399 25.14 44.7599 25.62 44.7599C26.1 44.7599 26.52 44.3399 26.52 43.8599V39.48C29.7 39.54 33.18 39.9599 36.6 40.6199V46.68C36.6 47.16 37.02 47.58 37.5 47.58C37.98 47.58 38.4 47.16 38.4 46.68V40.98C45.36 42.48 51.72 44.8199 54 46.3199C54.48 46.6199 54.78 46.98 54.78 47.28ZM50.46 41.04C50.1 41.46 49.68 41.8199 49.32 42.1199C43.74 40.0799 35.64 37.98 28.44 37.62C28.56 36.6 28.56 35.4 28.5 33.96C28.32 30.9 29.64 27 31.44 25.5C33.18 24.06 34.08 21.96 33.78 19.74C33.72 19.38 33.66 19.08 33.54 18.78C35.58 18.06 37.98 17.94 40.26 18.42C40.56 19.32 41.1 20.1 41.76 20.82C40.5 21.6 39.48 22.86 38.82 24.42C38.64 24.84 38.82 25.32 39.18 25.56C40.74 26.46 42.36 26.88 43.86 26.7C43.86 28.26 44.4 29.82 45.54 31.26C45.72 31.5 45.96 31.62 46.26 31.62C46.38 31.62 46.56 31.56 46.68 31.5C48.18 30.66 49.26 29.52 49.92 28.2C50.7 28.8 51.6 29.22 52.5 29.46C53.94 33.72 53.16 38.04 50.46 41.04ZM53.88 27.78C52.5 27.78 51.36 27.18 50.28 25.98C50.04 25.74 49.68 25.62 49.38 25.74C49.08 25.8 48.78 26.1 48.72 26.4C48.48 27.6 47.7 28.68 46.56 29.46C45.84 28.26 45.54 26.94 45.84 25.74C45.9 25.44 45.78 25.08 45.54 24.9C45.36 24.78 45.18 24.66 44.94 24.66C44.82 24.66 44.76 24.66 44.64 24.72C43.44 25.14 42.12 25.02 40.86 24.42C41.52 23.22 42.54 22.32 43.68 21.96C43.98 21.84 44.22 21.6 44.28 21.24C44.34 20.88 44.22 20.58 43.92 20.4C42.6 19.44 41.88 18.36 41.7 16.98C45.18 16.68 47.22 17.7 48.42 20.4L47.4 21.42C47.04 21.78 47.04 22.32 47.4 22.68C47.58 22.86 47.82 22.92 48.06 22.92C48.3 22.92 48.54 22.86 48.72 22.68L49.86 21.48C52.56 22.44 53.76 24.36 53.88 27.78Z" fill="#2AC4FF"/>
<path d="M24.78 15.4799C25.08 15.1199 25.02 14.5199 24.66 14.2199C24.3 13.9199 23.7 13.9799 23.4 14.3399L19.44 19.0799L18.42 15.1199C18.3 14.6399 17.82 14.3399 17.34 14.4599C16.86 14.5799 16.56 15.0599 16.68 15.5399L17.7 19.4999L12 17.2199C11.52 17.0399 11.04 17.2799 10.8 17.6999C10.62 18.1799 10.86 18.6599 11.28 18.8999L18.24 21.7199L19.2 25.6199L15.96 24.2999C15.48 24.1199 15 24.3599 14.76 24.7799C14.58 25.2599 14.82 25.7399 15.24 25.9799L19.74 27.7799L21.06 33.1799C21.18 33.5999 21.54 33.8399 21.96 33.8399H22.2C22.68 33.7199 22.98 33.2399 22.86 32.7599L21.54 27.3599L24.6 23.6399C24.9 23.2799 24.84 22.6799 24.48 22.3799C24.12 22.0799 23.52 22.1399 23.22 22.4999L21 25.1399L20.04 21.2399L24.78 15.4799Z" fill="#2AC4FF"/>
</svg>
