<svg width="60" height="60" viewBox="0 0 60 60" fill="none" xmlns="http://www.w3.org/2000/svg">
<g clip-path="url(#clip0_137_11941)">
<path d="M5.45455 0C2.45632 0 0 2.45632 0 5.45455V13.6364H2.72727H57.2727V40.9091C57.2727 42.4436 56.0799 43.6364 54.5455 43.6364H34.0696C34.0823 43.4031 34.0909 43.1695 34.0909 42.9359C34.0909 37.9647 31.242 33.5065 26.9052 31.353C27.9855 30.0549 28.6364 28.3886 28.6364 26.5776C28.6364 22.4582 25.2656 19.0909 21.1444 19.0909C17.0231 19.0909 13.6497 22.4582 13.6497 26.5776C13.6497 28.3886 14.3026 30.0549 15.3835 31.353C11.0469 33.5069 8.19513 37.9648 8.19514 42.9359C8.19514 43.1697 8.20347 43.4032 8.21644 43.6364H5.45455C3.92005 43.6364 2.72727 42.4436 2.72727 40.9091V16.3636H0V40.9091C0 43.9073 2.45632 46.3636 5.45455 46.3636H54.5455C57.5437 46.3636 60 43.9073 60 40.9091V5.45455C60 2.45632 57.5437 0 54.5455 0H5.45455ZM5.45455 2.72727H54.5455C56.0799 2.72727 57.2727 3.92005 57.2727 5.45455V10.9091H2.72727V5.45455C2.72727 3.92005 3.92005 2.72727 5.45455 2.72727ZM21.1444 21.8182C23.7931 21.8182 25.9091 23.9336 25.9091 26.5776C25.9091 29.2216 23.7931 31.337 21.1444 31.337C18.4956 31.337 16.377 29.2216 16.377 26.5776C16.377 23.9336 18.4956 21.8182 21.1444 21.8182ZM17.8232 33.2839C18.8258 33.7831 19.9535 34.0643 21.1444 34.0643C22.3352 34.0643 23.4632 33.7831 24.4656 33.2839C28.5781 34.6931 31.3636 38.5513 31.3636 42.9359C31.3636 43.1698 31.3533 43.4031 31.337 43.6364H10.949C10.9328 43.4032 10.9224 43.1699 10.9224 42.9359C10.9224 38.5504 13.7102 34.6925 17.8232 33.2839Z" fill="#F39F5F"/>
<path d="M13.6364 49.0908C11.111 49.0908 8.97427 50.8389 8.36293 53.1817H0V55.909H8.36293C8.97427 58.2518 11.111 59.9999 13.6364 59.9999C16.1625 59.9999 18.3045 58.2528 18.9151 55.909H60V53.1817H18.9151C18.3045 50.8379 16.1625 49.0908 13.6364 49.0908ZM13.6364 51.8181C15.1587 51.8181 16.3636 53.023 16.3636 54.5454C16.3636 56.0677 15.1587 57.2726 13.6364 57.2726C12.114 57.2726 10.9091 56.0677 10.9091 54.5454C10.9091 53.023 12.114 51.8181 13.6364 51.8181Z" fill="#F39F5F"/>
<path d="M40.2087 19.2614C40.001 19.1458 39.7667 19.0866 39.5291 19.0895C39.2914 19.0923 39.0586 19.1573 38.8538 19.2779C38.649 19.3985 38.4792 19.5705 38.3614 19.7769C38.2435 19.9833 38.1816 20.2169 38.1819 20.4546V34.0909C38.1816 34.3286 38.2435 34.5622 38.3614 34.7686C38.4792 34.975 38.649 35.147 38.8538 35.2676C39.0586 35.3882 39.2914 35.4532 39.5291 35.456C39.7667 35.4589 40.001 35.3997 40.2087 35.2841L52.4814 28.4659C52.6945 28.348 52.8722 28.1751 52.9958 27.9653C53.1195 27.7554 53.1848 27.5163 53.1848 27.2728C53.1848 27.0292 53.1195 26.7901 52.9958 26.5802C52.8722 26.3704 52.6945 26.1975 52.4814 26.0796L40.2087 19.2614ZM40.9092 22.7744L49.0084 27.2728L40.9092 31.7738V22.7744Z" fill="#F39F5F"/>
<path d="M51.8181 5.45459V8.18186H54.5454V5.45459H51.8181Z" fill="#F39F5F"/>
<path d="M46.3635 5.45459V8.18186H49.0908V5.45459H46.3635Z" fill="#F39F5F"/>
<path d="M40.9092 5.45459V8.18186H43.6365V5.45459H40.9092Z" fill="#F39F5F"/>
<path d="M35.4546 5.45459V8.18186H38.1819V5.45459H35.4546Z" fill="#F39F5F"/>
</g>
<defs>
<clipPath id="clip0_137_11941">
<rect width="60" height="60" fill="white"/>
</clipPath>
</defs>
</svg>
