<svg width="52" height="60" viewBox="0 0 52 60" fill="none" xmlns="http://www.w3.org/2000/svg">
<path d="M25.5469 60C25.4727 60 25.3986 59.9931 25.3253 59.9789C18.2158 58.6116 11.7609 54.7847 7.14981 49.2027C2.53922 43.6208 0 36.5593 0 29.3193V8.8092C0 8.29697 0.332794 7.84378 0.821686 7.69089L25.1596 0.065918C25.2827 0.0228881 25.4178 0.00274658 25.5469 0H25.5482C25.681 0 25.8115 0.0228881 25.9346 0.065918L50.2721 7.69089C50.761 7.84424 51.0938 8.29697 51.0938 8.8092V29.3193C51.0938 36.5593 48.5545 43.6208 43.9435 49.2027C39.3329 54.7847 32.878 58.6116 25.7684 59.9789C25.6952 59.9931 25.621 60 25.5469 60ZM2.34375 9.6698V29.3193C2.34375 43.0659 12.0882 54.9376 25.5469 57.6338C39.0056 54.9376 48.7495 43.0659 48.7495 29.3193V9.6698L25.5469 2.40051L2.34375 9.6698Z" fill="#3FE4FF"/>
<path d="M25.5469 53.2823C25.4517 53.2823 25.3564 53.2709 25.264 53.248C19.9731 51.9315 15.1991 48.8333 11.8204 44.5244C8.42972 40.1995 6.5625 34.7997 6.5625 29.3193V13.6299C6.5625 13.1177 6.89529 12.665 7.38373 12.5121L25.1962 6.93149C25.4242 6.86008 25.6691 6.86008 25.8971 6.93149L43.7096 12.5121C44.198 12.665 44.5308 13.1177 44.5308 13.6299V29.3193C44.5308 33.3252 43.5384 37.3128 41.6611 40.8509C41.3576 41.4226 40.6485 41.6396 40.0768 41.3365C39.505 41.0331 39.2876 40.324 39.5906 39.7522C41.2894 36.5515 42.187 32.9439 42.187 29.3193V14.491L25.5464 9.27753L8.90625 14.491V29.3193C8.90625 39.4922 15.7343 48.3252 25.5464 50.9011C28.2724 50.1856 30.8052 48.9748 33.0794 47.2998C33.6003 46.9162 34.3341 47.0275 34.7177 47.5484C35.1018 48.0693 34.9905 48.8031 34.4691 49.1867C31.8686 51.1025 28.9618 52.4684 25.8293 53.248C25.7368 53.2709 25.6416 53.2823 25.5469 53.2823Z" fill="#3FE4FF"/>
<path d="M23.4182 38.8193C23.118 38.8193 22.8186 38.7048 22.5897 38.476L14.7422 30.6285C14.2845 30.1712 14.2845 29.4292 14.7422 28.9714L18.7198 24.9939C18.9395 24.7742 19.2375 24.6506 19.5483 24.6506C19.8591 24.6506 20.1571 24.7742 20.3769 24.9939L23.4182 28.0353L30.7164 20.7367C31.1741 20.2794 31.9162 20.2789 32.3739 20.7367L36.3514 24.7142C36.5712 24.9339 36.6948 25.2319 36.6948 25.5428C36.6948 25.8536 36.5712 26.1516 36.3514 26.3713L24.2468 38.476C24.0179 38.7048 23.7181 38.8193 23.4182 38.8193ZM17.2279 29.8L23.4182 35.9898L33.8653 25.5428L31.5449 23.2228L24.2468 30.5214C24.0271 30.7411 23.7291 30.8643 23.4182 30.8643C23.1074 30.8643 22.8094 30.7411 22.5897 30.5214L19.5483 27.48L17.2279 29.8Z" fill="#3FE4FF"/>
<path d="M37.6428 45.8323C37.3347 45.8323 37.0322 45.7078 36.8143 45.489C36.5964 45.2711 36.4709 44.9685 36.4709 44.6604C36.4709 44.3523 36.5964 44.0497 36.8143 43.8318C37.0322 43.614 37.3347 43.4885 37.6428 43.4885C37.9509 43.4885 38.2535 43.614 38.4714 43.8318C38.6893 44.0497 38.8147 44.3523 38.8147 44.6604C38.8147 44.9685 38.6893 45.2711 38.4714 45.489C38.2535 45.7078 37.9509 45.8323 37.6428 45.8323Z" fill="#3FE4FF"/>
</svg>
