<svg width="51" height="51" viewBox="0 0 51 51" fill="none" xmlns="http://www.w3.org/2000/svg">
<path d="M45.9376 0H19.6876C18.4444 0 17.2521 0.49386 16.3731 1.37294C15.494 2.25201 15.0001 3.4443 15.0001 4.6875V42.1875C14.9999 43.2681 15.3731 44.3156 16.0564 45.1527C16.7398 45.9898 17.6914 46.5651 18.7501 46.7813V47.8125C18.7501 48.5584 19.0464 49.2738 19.5739 49.8012C20.1013 50.3287 20.8167 50.625 21.5626 50.625H23.4376C24.1836 50.625 24.8989 50.3287 25.4264 49.8012C25.9538 49.2738 26.2501 48.5584 26.2501 47.8125V46.875H39.3751V47.8125C39.3751 48.5584 39.6715 49.2738 40.1989 49.8012C40.7263 50.3287 41.4417 50.625 42.1876 50.625H44.0626C44.8086 50.625 45.5239 50.3287 46.0514 49.8012C46.5788 49.2738 46.8751 48.5584 46.8751 47.8125V46.7813C47.9339 46.5651 48.8855 45.9898 49.5689 45.1527C50.2522 44.3156 50.6254 43.2681 50.6251 42.1875V4.6875C50.6251 3.4443 50.1313 2.25201 49.2522 1.37294C48.3731 0.49386 47.1808 0 45.9376 0ZM19.6876 1.875H45.9376C46.6836 1.875 47.3989 2.17132 47.9264 2.69876C48.4538 3.22621 48.7501 3.94158 48.7501 4.6875V7.4625H16.8751V4.6875C16.8751 3.94158 17.1714 3.22621 17.6989 2.69876C18.2263 2.17132 18.9417 1.875 19.6876 1.875ZM24.3751 47.8125C24.3751 48.0611 24.2764 48.2996 24.1005 48.4754C23.9247 48.6512 23.6863 48.75 23.4376 48.75H21.5626C21.314 48.75 21.0755 48.6512 20.8997 48.4754C20.7239 48.2996 20.6251 48.0611 20.6251 47.8125V46.875H24.3751V47.8125ZM45.0001 47.8125C45.0001 48.0611 44.9014 48.2996 44.7255 48.4754C44.5497 48.6512 44.3113 48.75 44.0626 48.75H42.1876C41.939 48.75 41.7005 48.6512 41.5247 48.4754C41.3489 48.2996 41.2501 48.0611 41.2501 47.8125V46.875H45.0001V47.8125ZM45.9376 45H19.6876C18.9417 45 18.2263 44.7037 17.6989 44.1762C17.1714 43.6488 16.8751 42.9334 16.8751 42.1875V9.3375H48.7501V42.1875C48.7501 42.9334 48.4538 43.6488 47.9264 44.1762C47.3989 44.7037 46.6836 45 45.9376 45ZM23.4376 33.75C22.5105 33.75 21.6043 34.0249 20.8334 34.54C20.0625 35.0551 19.4617 35.7871 19.1069 36.6437C18.7522 37.5002 18.6593 38.4427 18.8402 39.352C19.0211 40.2613 19.4675 41.0965 20.1231 41.7521C20.7786 42.4076 21.6139 42.8541 22.5231 43.0349C23.4324 43.2158 24.3749 43.123 25.2315 42.7682C26.088 42.4134 26.8201 41.8126 27.3351 41.0417C27.8502 40.2709 28.1251 39.3646 28.1251 38.4375C28.1251 37.1943 27.6313 36.002 26.7522 35.1229C25.8731 34.2439 24.6808 33.75 23.4376 33.75ZM23.4376 41.25C22.8814 41.25 22.3376 41.0851 21.8751 40.776C21.4126 40.467 21.0521 40.0277 20.8392 39.5138C20.6264 38.9999 20.5707 38.4344 20.6792 37.8888C20.7877 37.3432 21.0556 36.8421 21.4489 36.4488C21.8422 36.0554 22.3434 35.7876 22.8889 35.679C23.4345 35.5705 24 35.6262 24.5139 35.8391C25.0278 36.052 25.4671 36.4124 25.7761 36.875C26.0852 37.3375 26.2501 37.8812 26.2501 38.4375C26.2501 39.1834 25.9538 39.8988 25.4264 40.4262C24.8989 40.9537 24.1836 41.25 23.4376 41.25ZM42.1876 33.75C41.2605 33.75 40.3543 34.0249 39.5834 34.54C38.8125 35.0551 38.2117 35.7871 37.857 36.6437C37.5022 37.5002 37.4093 38.4427 37.5902 39.352C37.7711 40.2613 38.2175 41.0965 38.8731 41.7521C39.5286 42.4076 40.3639 42.8541 41.2731 43.0349C42.1824 43.2158 43.1249 43.123 43.9815 42.7682C44.838 42.4134 45.5701 41.8126 46.0852 41.0417C46.6002 40.2709 46.8751 39.3646 46.8751 38.4375C46.8751 37.1943 46.3813 36.002 45.5022 35.1229C44.6231 34.2439 43.4308 33.75 42.1876 33.75ZM42.1876 41.25C41.6314 41.25 41.0876 41.0851 40.6251 40.776C40.1626 40.467 39.8021 40.0277 39.5892 39.5138C39.3764 38.9999 39.3207 38.4344 39.4292 37.8888C39.5377 37.3432 39.8056 36.8421 40.1989 36.4488C40.5922 36.0554 41.0934 35.7876 41.6389 35.679C42.1845 35.5705 42.75 35.6262 43.2639 35.8391C43.7778 36.052 44.2171 36.4124 44.5261 36.875C44.8352 37.3375 45.0001 37.8812 45.0001 38.4375C45.0001 39.1834 44.7038 39.8988 44.1764 40.4262C43.6489 40.9537 42.9336 41.25 42.1876 41.25ZM44.0626 11.25H21.5626C20.8167 11.25 20.1013 11.5463 19.5739 12.0738C19.0464 12.6012 18.7501 13.3166 18.7501 14.0625V29.0625C18.7501 29.8084 19.0464 30.5238 19.5739 31.0512C20.1013 31.5787 20.8167 31.875 21.5626 31.875H44.0626C44.8086 31.875 45.5239 31.5787 46.0514 31.0512C46.5788 30.5238 46.8751 29.8084 46.8751 29.0625V14.0625C46.8801 13.69 46.811 13.3203 46.6719 12.9747C46.5328 12.6291 46.3264 12.3146 46.0648 12.0495C45.8031 11.7843 45.4914 11.5738 45.1477 11.4301C44.804 11.2864 44.4352 11.2125 44.0626 11.2125V11.25ZM37.5001 30C37.5001 29.5027 37.6977 29.0258 38.0493 28.6742C38.4009 28.3225 38.8779 28.125 39.3751 28.125C39.8724 28.125 40.3493 28.3225 40.701 28.6742C41.0526 29.0258 41.2501 29.5027 41.2501 30H37.5001ZM45.0001 29.0625C45.0001 29.3111 44.9014 29.5496 44.7255 29.7254C44.5497 29.9012 44.3113 30 44.0626 30H43.1251C43.1251 29.0054 42.73 28.0516 42.0268 27.3484C41.3235 26.6451 40.3697 26.25 39.3751 26.25C38.3806 26.25 37.4267 26.6451 36.7235 27.3484C36.0202 28.0516 35.6251 29.0054 35.6251 30H21.5626C21.314 30 21.0755 29.9012 20.8997 29.7254C20.7239 29.5496 20.6251 29.3111 20.6251 29.0625V14.0625C20.6251 13.8139 20.7239 13.5754 20.8997 13.3996C21.0755 13.2238 21.314 13.125 21.5626 13.125H44.0626C44.3113 13.125 44.5497 13.2238 44.7255 13.3996C44.9014 13.5754 45.0001 13.8139 45.0001 14.0625V29.0625ZM4.68763 28.125C5.61473 28.125 6.52101 27.8501 7.29187 27.335C8.06273 26.8199 8.66353 26.0879 9.01832 25.2313C9.37311 24.3748 9.46593 23.4323 9.28507 22.523C9.1042 21.6137 8.65776 20.7785 8.0022 20.1229C7.34664 19.4674 6.51141 19.0209 5.60212 18.8401C4.69283 18.6592 3.75033 18.752 2.89381 19.1068C2.03728 19.4616 1.30519 20.0624 0.790121 20.8333C0.275052 21.6041 0.000134562 22.5104 0.000134562 23.4375C0.000134562 24.6807 0.493995 25.873 1.37307 26.7521C2.25215 27.6311 3.44443 28.125 4.68763 28.125ZM4.68763 20.625C5.24389 20.625 5.78766 20.79 6.25018 21.099C6.71269 21.408 7.07317 21.8473 7.28605 22.3612C7.49892 22.8751 7.55461 23.4406 7.44609 23.9862C7.33757 24.5318 7.06971 25.0329 6.67637 25.4262C6.28304 25.8196 5.7819 26.0874 5.23633 26.196C4.69075 26.3045 4.12525 26.2488 3.61134 26.0359C3.09742 25.823 2.65817 25.4626 2.34913 25C2.04009 24.5375 1.87513 23.9938 1.87513 23.4375C1.87513 22.6916 2.17145 21.9762 2.6989 21.4488C3.22634 20.9213 3.94171 20.625 4.68763 20.625ZM11.6251 28.3125L8.43764 30.7125C7.92144 30.2526 7.25396 29.999 6.56263 30H2.81263C2.06671 30 1.35134 30.2963 0.823897 30.8238C0.296451 31.3512 0.000134562 32.0666 0.000134562 32.8125V47.8125C-0.00521588 48.3577 0.149098 48.8926 0.444052 49.3512C0.739006 49.8098 1.16171 50.172 1.66005 50.3933C2.15839 50.6146 2.71058 50.6852 3.24856 50.5964C3.78654 50.5076 4.28679 50.2634 4.68763 49.8938C5.08848 50.2634 5.58873 50.5076 6.1267 50.5964C6.66468 50.6852 7.21688 50.6146 7.71522 50.3933C8.21356 50.172 8.63626 49.8098 8.93122 49.3512C9.22617 48.8926 9.38049 48.3577 9.37514 47.8125V32.8125C9.38523 32.6689 9.38523 32.5248 9.37514 32.3813L12.7501 29.8125C12.8486 29.7386 12.9316 29.6461 12.9943 29.5402C13.0571 29.4342 13.0983 29.317 13.1157 29.1951C13.1331 29.0732 13.1264 28.9491 13.0958 28.8298C13.0652 28.7106 13.0115 28.5985 12.9376 28.5C12.8638 28.4015 12.7712 28.3185 12.6653 28.2558C12.5593 28.1931 12.4421 28.1518 12.3202 28.1344C12.1983 28.117 12.0742 28.1238 11.955 28.1543C11.8357 28.1849 11.7236 28.2386 11.6251 28.3125ZM2.81263 48.75C2.56399 48.75 2.32554 48.6512 2.14972 48.4754C1.97391 48.2996 1.87513 48.0611 1.87513 47.8125V43.125H3.75013V47.8125C3.75013 48.0611 3.65136 48.2996 3.47555 48.4754C3.29973 48.6512 3.06128 48.75 2.81263 48.75ZM7.50014 47.8125C7.50014 48.0611 7.40136 48.2996 7.22555 48.4754C7.04973 48.6512 6.81128 48.75 6.56263 48.75C6.31399 48.75 6.07554 48.6512 5.89972 48.4754C5.72391 48.2996 5.62513 48.0611 5.62513 47.8125V43.125H7.50014V47.8125ZM7.50014 41.25H1.87513V32.8125C1.87513 32.5639 1.97391 32.3254 2.14972 32.1496C2.32554 31.9738 2.56399 31.875 2.81263 31.875H6.56263C6.64276 31.8559 6.72626 31.8559 6.80638 31.875L4.12513 33.9375C3.92622 34.0867 3.79472 34.3088 3.75956 34.5549C3.72439 34.8011 3.78845 35.0511 3.93763 35.25C4.02594 35.3654 4.13938 35.4591 4.26934 35.5241C4.39929 35.5891 4.54235 35.6236 4.68763 35.625C4.8907 35.6264 5.08851 35.5604 5.25013 35.4375L7.50014 33.75V41.25Z" fill="#6876FF"/>
</svg>
