<svg width="60" height="60" viewBox="0 0 60 60" fill="none" xmlns="http://www.w3.org/2000/svg">
<g clip-path="url(#clip0_137_11977)">
<path d="M58.5298 53.0658H52.4973C51.8227 53.0658 51.2718 52.9195 50.7641 52.6061C48.9353 51.4742 47.4783 47.8492 46.6077 45.6833C46.51 45.4403 46.412 45.1975 46.3131 44.9549C44.8807 41.4422 43.0982 37.0706 39.5569 34.8138C37.9714 33.8006 36.1692 33.287 34.2005 33.287H31.8306V23.2781C32.6727 23.2759 33.4634 22.9478 34.0568 22.3544C34.6533 21.7601 34.9822 20.9671 34.983 20.1215C34.9839 19.2743 34.6554 18.4786 34.0569 17.8802L27.5063 11.3526C27.1624 11.0099 26.6059 11.0107 26.2634 11.3548C25.9207 11.6986 25.9216 12.2551 26.2656 12.5977L32.8152 19.1242C33.08 19.3892 33.2258 19.7427 33.2254 20.1198C33.225 20.4953 33.0797 20.8466 32.8152 21.1103C32.2676 21.6578 31.3768 21.6578 30.8292 21.1103L18.113 8.39708C17.7697 8.05384 17.2133 8.05384 16.8702 8.39708L4.15395 21.1103C3.88934 21.3749 3.53637 21.5206 3.15985 21.5206C3.15938 21.5206 3.15891 21.5206 3.15844 21.5206C2.78297 21.5202 2.43176 21.3749 2.16692 21.1091C1.90336 20.8466 1.75817 20.4953 1.75781 20.1198C1.75746 19.7427 1.90313 19.3892 2.16809 19.1242L16.4998 4.79216C16.7623 4.52873 17.1136 4.38341 17.4889 4.38306H17.4904C17.8669 4.38306 18.22 4.52873 18.4846 4.79333L23.5603 9.86931C23.9034 10.2126 24.46 10.2126 24.8032 9.86931C25.1464 9.52607 25.1464 8.96966 24.8032 8.62642L19.7275 3.55044C19.1307 2.95384 18.3364 2.62537 17.4904 2.62537C17.4893 2.62537 17.4882 2.62537 17.4873 2.62537C16.6418 2.62619 15.8488 2.95501 15.2557 3.55044L0.925197 17.8813C0.327775 18.4787 -0.00081878 19.2742 1.53218e-06 20.1215C0.000821845 20.967 0.329767 21.76 0.923908 22.352C1.51723 22.9476 2.30848 23.2763 3.15246 23.2781V38.7599V57.6599H0.878908C0.393517 57.6599 1.53218e-06 58.0534 1.53218e-06 58.5388C1.53218e-06 59.0242 0.393517 59.4177 0.878908 59.4177H58.5663C59.3569 59.4177 60 58.776 60 57.9873V54.5358C60 53.7253 59.3405 53.0658 58.5298 53.0658ZM7.0357 57.66H4.91027V39.6389H7.0357V57.66ZM13.0782 57.66H8.79352V39.6389H12.2098H13.0782V57.66ZM20.1471 57.66H14.8361V54.8535H20.1471V57.66ZM20.1471 53.0957H14.8361V49.7842H20.1471V53.0957ZM20.1471 48.0264H14.8361V44.7116H20.1471V48.0264ZM20.1471 42.9538H14.8361V39.6389H20.1471V42.9538ZM21.8944 37.8811H13.0887V33.5247C13.0887 31.0969 15.0638 29.1217 17.4915 29.1217C19.9193 29.1217 21.8944 31.0969 21.8944 33.5247V37.8811ZM26.1863 57.66H21.9049V39.6389H22.7733H26.1863V57.66ZM23.6522 37.8811V33.5247C23.6522 30.1276 20.8886 27.3639 17.4915 27.3639C14.0945 27.3639 11.3309 30.1275 11.3309 33.5247V37.8811H7.91461H4.91027V22.7522C5.08348 22.6369 5.24649 22.5036 5.39684 22.3532L17.4915 10.2614L29.5861 22.3532C29.7366 22.5036 29.8996 22.6369 30.0728 22.7523V37.8811H27.0652H23.6522ZM31.8306 57.66V51.8419C31.8306 51.3565 31.4371 50.963 30.9517 50.963C30.4663 50.963 30.0728 51.3565 30.0728 51.8419V57.66H27.9441V39.6389H30.0728V47.7858C30.0728 48.2712 30.4663 48.6647 30.9517 48.6647C31.4371 48.6647 31.8306 48.2712 31.8306 47.7858V39.6389H34.2005C34.9557 39.6389 35.572 39.8074 36.1397 40.1688C38.0004 41.355 39.386 44.7752 40.3028 47.0385C40.4162 47.3182 40.5299 47.5978 40.6436 47.8776C42.0047 51.2312 43.6821 55.3638 46.899 57.66H31.8306ZM58.2422 57.66H52.4973C50.9746 57.66 49.5776 57.2739 48.3461 56.5127C45.273 54.6095 43.6789 50.6817 42.2723 47.2164C42.1589 46.9371 42.0452 46.6579 41.932 46.3785C40.9313 43.9079 39.4188 40.1746 37.0842 38.6863C36.2333 38.1444 35.2901 37.881 34.2005 37.881H31.8306V35.0446H34.2005C35.8284 35.0446 37.3121 35.4652 38.6113 36.2954C41.6818 38.2522 43.2776 42.1656 44.6855 45.6184C44.7832 45.8582 44.8801 46.0983 44.9767 46.3386C45.9893 48.8579 47.5194 52.665 49.8396 54.101C50.6266 54.5871 51.4961 54.8235 52.4973 54.8235H58.2422V57.66Z" fill="#FF73BB"/>
<path d="M40.3061 18.1824H53.1783C56.9398 18.1824 60 15.1236 60 11.3639C60 7.60227 56.9398 4.54204 53.1783 4.54204C53.1337 4.54204 53.0888 4.54251 53.0439 4.54344C51.6689 2.11872 49.0647 0.582153 46.2489 0.582153C41.9416 0.582153 38.4373 4.08512 38.4373 8.39071C38.4373 8.55008 38.4422 8.71051 38.4521 8.87094C36.6619 9.607 35.4675 11.3496 35.4675 13.3436C35.4675 16.0118 37.6381 18.1824 40.3061 18.1824ZM39.6023 10.3428C40.0507 10.2382 40.3423 9.80516 40.2707 9.35024C40.2205 9.03137 40.195 8.70852 40.195 8.39071C40.195 5.05438 42.9107 2.33997 46.2488 2.33997C48.5892 2.33997 50.7409 3.70965 51.7307 5.82922C51.8897 6.16965 52.2477 6.37133 52.6211 6.33126C52.8183 6.31004 53.0004 6.29973 53.1782 6.29973C55.9704 6.29973 58.2421 8.57141 58.2421 11.3638C58.2421 14.1542 55.9704 16.4245 53.1782 16.4245H40.3061C38.6073 16.4245 37.2253 15.0425 37.2253 13.3436C37.2253 11.9035 38.2028 10.6695 39.6023 10.3428Z" fill="#FF73BB"/>
<path d="M17.4914 16.9294C15.3364 16.9294 13.583 18.6828 13.583 20.838C13.583 22.9932 15.3364 24.7466 17.4914 24.7466C19.6465 24.7466 21.3999 22.9932 21.3999 20.838C21.3999 18.6828 19.6465 16.9294 17.4914 16.9294ZM17.4914 22.9887C16.3056 22.9887 15.3408 22.0239 15.3408 20.838C15.3408 19.6521 16.3056 18.6873 17.4914 18.6873C18.6773 18.6873 19.6421 19.6521 19.6421 20.838C19.6421 22.0239 18.6773 22.9887 17.4914 22.9887Z" fill="#FF73BB"/>
</g>
<defs>
<clipPath id="clip0_137_11977">
<rect width="60" height="60" fill="white"/>
</clipPath>
</defs>
</svg>
