<svg width="26" height="26" viewBox="0 0 26 26" fill="none" xmlns="http://www.w3.org/2000/svg">
<g clip-path="url(#clip0_232_3791)">
<path d="M20.4348 10.4621L24.5447 8.48323C25.0497 8.24008 25.6562 8.45238 25.8994 8.95735C26.1425 9.46232 25.9302 10.0688 25.4252 10.3119L21.3153 12.2908C20.8215 12.5317 20.2046 12.3268 19.9607 11.8167C19.7176 11.3117 19.9298 10.7052 20.4348 10.4621ZM15.2864 10.724C15.6827 11.1204 16.3252 11.1204 16.7216 10.724L23.3685 4.07705C23.7648 3.68077 23.7648 3.0382 23.3685 2.64192C22.9722 2.24558 22.3296 2.24558 21.9333 2.64192L15.2864 9.28889C14.8901 9.68517 14.8901 10.3277 15.2864 10.724ZM25.0122 23.6621C25.0124 23.662 25.0127 23.6616 25.0131 23.6612C25.0129 23.6615 25.0125 23.6618 25.0122 23.6621ZM25.0122 23.6621L25.012 23.6623C25.0121 23.6623 25.0121 23.6622 25.0122 23.6621ZM24.8188 18.303C22.1968 15.7625 19.5246 14.4636 16.7872 17.0389C16.7852 17.0409 16.7833 17.0428 16.7814 17.0447L15.4094 18.4064C14.552 17.9231 12.8329 16.7803 11.0315 14.9789C9.22977 13.1773 8.08675 11.4577 7.6039 10.6012L8.96572 9.22911C8.96765 9.22719 8.96958 9.22521 8.97145 9.22328C11.5464 6.48381 10.2485 3.81584 7.70736 1.19171C7.00938 0.467952 6.0716 0.0493957 5.06674 0.0131164C4.06163 -0.0230106 3.0964 0.326843 2.34798 0.998593C-2.57565 6.34575 0.995345 14.6491 6.15446 19.856C6.15766 19.8593 6.16095 19.8625 6.1642 19.8657C6.88207 20.5826 7.69732 21.2921 8.5874 21.9746C9.03214 22.3156 9.66913 22.2315 10.0102 21.7867C10.3512 21.342 10.2672 20.7049 9.82237 20.3639C8.9985 19.7322 8.24729 19.0784 7.5896 18.4208C7.5865 18.4177 7.58341 18.4146 7.58031 18.4116C4.13586 14.9632 2.0687 10.729 2.05054 7.08321C2.04105 5.19187 2.61005 3.61319 3.69609 2.51588L3.70386 2.50888C4.44152 1.84682 5.55831 1.88705 6.24635 2.60061C8.87373 5.32526 8.68345 6.61158 7.52252 7.80209L5.64137 9.69734C5.34637 9.99458 5.26422 10.4425 5.43461 10.8251C6.98939 14.2769 11.8127 19.0624 15.1855 20.5758C15.5681 20.7462 16.016 20.6641 16.3132 20.3691L18.2082 18.4882C19.3989 17.327 20.6852 17.1366 23.41 19.7641C24.1235 20.4521 24.1638 21.5689 23.5012 22.3071L23.4945 22.3146C22.3971 23.4005 20.8196 23.9705 18.9273 23.9599C17.432 23.9524 15.7004 23.5425 13.9198 22.7745C13.4053 22.5525 12.808 22.7897 12.586 23.3044C12.364 23.819 12.6013 24.4162 13.116 24.6382C15.1741 25.5259 17.1259 25.9805 18.9172 25.9895C21.3588 26.0051 23.5259 25.1522 25.0121 23.6623C25.6838 22.9141 26.0337 21.9486 25.9974 20.9437C25.9612 19.9388 25.5426 19.001 24.8188 18.303ZM14.1937 6.04973C14.6875 6.2907 15.3044 6.08571 15.5484 5.57561L17.5272 1.46566C17.7703 0.96069 17.5581 0.354192 17.0531 0.111096C16.5479 -0.132102 15.9416 0.0802457 15.6985 0.585212L13.7196 4.69517C13.4765 5.20014 13.6888 5.80658 14.1937 6.04973Z" fill="#F39F5F"/>
</g>
<defs>
<clipPath id="clip0_232_3791">
<rect width="26" height="26" fill="white"/>
</clipPath>
</defs>
</svg>
