<svg width="50" height="50" viewBox="0 0 50 50" fill="none" xmlns="http://www.w3.org/2000/svg">
<path d="M44.0005 7.61337C44.993 7.61337 45.796 6.81034 45.796 5.81792C45.796 4.82549 44.993 4.02246 44.0005 4.02246C43.0081 4.02246 42.2051 4.82549 42.2051 5.81792C42.2051 6.81034 43.0157 7.61337 44.0005 7.61337ZM44.0005 5.30276C44.2884 5.30276 44.5233 5.53761 44.5233 5.82549C44.5233 6.11337 44.2884 6.34822 44.0005 6.34822C43.7051 6.34822 43.4778 6.12095 43.4778 5.82549C43.4778 5.53004 43.7127 5.30276 44.0005 5.30276Z" fill="#F39F5F"/>
<path d="M45.9932 1.12109H9.0841C7.68259 1.12109 6.53865 2.26503 6.53865 3.66655V7.55291H4.00835C2.60683 7.55291 1.46289 8.69685 1.46289 10.0984V42.015C1.46289 43.4165 2.60683 44.5605 4.00835 44.5605H20.925V48.2423C20.925 48.5908 21.2129 48.8787 21.5614 48.8787H33.5159C33.8644 48.8787 34.1523 48.5908 34.1523 48.2423V44.5605H40.9174C42.319 44.5605 43.4629 43.4165 43.4629 42.015V38.1287H45.9932C47.3947 38.1287 48.5387 36.9847 48.5387 35.5832V3.66655C48.5387 2.26503 47.3947 1.12109 45.9932 1.12109ZM7.81138 3.66655C7.81138 2.962 8.38713 2.39382 9.0841 2.39382H45.9932C46.6977 2.39382 47.2659 2.96958 47.2659 3.66655V9.24988H23.1144L20.2735 6.30291C20.0538 6.07564 19.7508 5.94685 19.4402 5.94685H13.1826C12.5462 5.94685 12.0235 6.46958 12.0235 7.10594V9.24988H7.81138V3.66655ZM4.00835 43.2953C3.3038 43.2953 2.73562 42.7196 2.73562 42.0226V10.0984C2.73562 9.39382 3.31138 8.82564 4.00835 8.82564H6.53865V35.5908C6.53865 36.9923 7.68259 38.1362 9.0841 38.1362H22.9023C23.1523 38.6211 23.2659 39.1665 23.2205 39.7272H22.2356C21.5083 39.7272 20.925 40.3181 20.925 41.0378V43.2953H4.00835ZM26.9099 29.9696C27.0387 29.7423 27.2735 29.5984 27.5386 29.5984C27.9326 29.5984 28.2508 29.9165 28.2508 30.3105C28.2508 30.5681 28.1144 30.8029 27.8947 30.9317C27.6523 31.0756 27.3644 31.0605 27.069 30.8938C27.0299 30.8737 26.9981 30.8419 26.978 30.8029C26.7356 30.4165 26.8341 30.1135 26.9099 29.9696ZM26.9023 28.4469C26.4354 28.6021 26.0436 28.9264 25.8038 29.3559C25.4402 30.0075 25.4856 30.8029 25.9099 31.4847C26.0462 31.6969 26.228 31.8711 26.4477 31.9999C26.7962 32.1969 27.175 32.3029 27.5462 32.3029C27.8947 32.3029 28.2356 32.212 28.5386 32.0378C29.1447 31.6817 29.5235 31.0226 29.5235 30.3181C29.5235 29.4469 28.9553 28.712 28.175 28.4469V25.1741L33.8038 35.3332C33.7962 35.3408 33.7887 35.3559 33.7659 35.3635C31.7735 35.8787 30.4705 37.7423 30.5765 39.7272H24.5083C24.622 37.7347 23.3114 35.8711 21.2811 35.3029L26.9023 25.1741V28.4469ZM32.8796 47.6059H22.1977L22.2356 40.9923H32.8417C32.8644 40.9923 32.8796 41.0075 32.8796 41.0302V47.6059ZM42.1902 42.015C42.1902 42.7196 41.6144 43.2878 40.9174 43.2878H34.1523V41.0302C34.1523 40.3029 33.5614 39.7196 32.8417 39.7196H31.8568C31.8114 39.159 31.9326 38.6135 32.175 38.1287H42.1902V42.015ZM45.9932 36.8635H33.4099C33.6144 36.7499 33.8341 36.6514 34.0765 36.5908C34.478 36.4847 34.8038 36.2044 34.9705 35.8256C35.1296 35.4544 35.1068 35.0378 34.9099 34.6817L28.3947 22.9469C28.228 22.6362 27.9023 22.4393 27.5462 22.4393C27.1826 22.4469 26.8568 22.6287 26.6826 22.9393L20.1599 34.6817C19.9629 35.0378 19.9477 35.462 20.1068 35.8332C20.2659 36.212 20.5917 36.4847 20.9932 36.5908C21.2356 36.6514 21.4477 36.7499 21.6599 36.8635H9.0841C8.37956 36.8635 7.81138 36.2878 7.81138 35.5908V10.5226H12.1296C12.7659 10.5226 13.2886 9.99988 13.2886 9.36352V7.21958H19.3871L22.228 10.1665C22.4477 10.3938 22.7508 10.5226 23.0614 10.5226H47.2659V35.5832C47.2659 36.2878 46.6977 36.8635 45.9932 36.8635Z" fill="#F39F5F"/>
<path d="M39.6674 7.61337C40.6598 7.61337 41.4629 6.81034 41.4629 5.81792C41.4629 4.82549 40.6598 4.02246 39.6674 4.02246C38.675 4.02246 37.872 4.82549 37.872 5.81792C37.872 6.81034 38.675 7.61337 39.6674 7.61337ZM39.6674 5.30276C39.9553 5.30276 40.1901 5.53761 40.1901 5.82549C40.1901 6.11337 39.9553 6.34822 39.6674 6.34822C39.3719 6.34822 39.1447 6.12095 39.1447 5.82549C39.1447 5.53004 39.3795 5.30276 39.6674 5.30276ZM35.3265 7.61337C36.3189 7.61337 37.1219 6.81034 37.1219 5.81792C37.1219 4.82549 36.3189 4.02246 35.3265 4.02246C34.3341 4.02246 33.531 4.82549 33.531 5.81792C33.531 6.81034 34.3341 7.61337 35.3265 7.61337ZM35.3265 5.30276C35.6144 5.30276 35.8492 5.53761 35.8492 5.82549C35.8492 6.11337 35.6144 6.34822 35.3265 6.34822C35.031 6.34822 34.8038 6.12095 34.8038 5.82549C34.8038 5.53004 35.0386 5.30276 35.3265 5.30276ZM39.8038 16.0679C39.4326 16.4391 39.1977 16.9088 39.1068 17.4088H30.2053V16.4088C30.2053 15.727 29.6523 15.174 28.9704 15.174H26.0992C25.4174 15.174 24.8644 15.727 24.8644 16.4088V17.4088H15.9704C15.8871 16.9164 15.6523 16.4467 15.2735 16.0603C14.3113 15.1134 12.6674 15.1285 11.728 16.0679C11.2507 16.5452 10.9932 17.174 10.9932 17.8406C10.9932 18.5149 11.2583 19.1512 11.728 19.6134C12.2053 20.1058 12.8416 20.3558 13.5007 20.3558C13.9174 20.3558 14.3416 20.2573 14.7432 20.0528C15.1807 19.8287 15.5322 19.4665 15.7432 19.0225C15.7962 18.9088 15.8416 18.7952 15.8795 18.6816H22.0538C18.6977 20.3179 16.1674 23.3937 15.2886 27.1058H14.3038C13.622 27.1058 13.0689 27.6588 13.0689 28.3406V31.2119C13.0689 31.8937 13.622 32.4467 14.3038 32.4467H17.175C17.8568 32.4467 18.4098 31.8937 18.4098 31.2119V28.3406C18.4098 27.6588 17.8568 27.1058 17.175 27.1058H16.5992C17.6598 23.1058 20.8644 19.9694 24.8871 18.9997V19.2725C24.8871 19.9543 25.4401 20.5073 26.122 20.5073H28.9932C29.675 20.5073 30.228 19.9543 30.228 19.2725V18.9997C34.2432 19.9694 37.4477 23.1058 38.5159 27.1058H37.9932C37.3113 27.1058 36.7583 27.6588 36.7583 28.3406V31.2119C36.7583 31.8937 37.3113 32.4467 37.9932 32.4467H40.8644C41.5462 32.4467 42.0992 31.8937 42.0992 31.2119V28.3406C42.0992 27.6588 41.5462 27.1058 40.8644 27.1058H39.8265C38.9401 23.3937 36.4098 20.3103 33.0613 18.6816H39.2507C39.372 19.03 39.5689 19.3482 39.8341 19.6134C40.3113 20.1058 40.9477 20.3558 41.6068 20.3558C42.0235 20.3558 42.4477 20.2573 42.8492 20.0528C43.2868 19.8287 43.6383 19.4665 43.8492 19.0225C44.3416 17.9846 44.1674 16.8558 43.3871 16.0603C42.3947 15.1209 40.7507 15.1285 39.8038 16.0679ZM14.5841 18.4846C14.4932 18.6664 14.3416 18.8255 14.1598 18.9164C13.5007 19.2497 12.9326 19.0376 12.622 18.7119C12.3871 18.4846 12.2583 18.174 12.2583 17.8406C12.2583 17.5149 12.3871 17.2043 12.622 16.9619C12.8568 16.727 13.1674 16.5982 13.5007 16.5982C13.8265 16.5982 14.1447 16.727 14.372 16.9543C14.7659 17.3634 14.8416 17.9316 14.5841 18.4846ZM17.1598 31.174L14.3265 31.2119L14.2886 28.3785H17.122L17.1598 31.174ZM40.8416 31.174L38.0083 31.2119L37.9704 28.3785H40.8038L40.8416 31.174ZM26.1447 19.28L26.1295 18.3255C26.1447 18.2573 26.1447 18.1891 26.1371 18.1134V18.1058C26.1371 18.0831 26.1523 18.0679 26.1523 18.0452C26.1523 18.0073 26.1371 17.977 26.1295 17.9467L26.1068 16.4543H28.9401L28.9629 17.9467C28.9553 17.9846 28.9401 18.0149 28.9401 18.0528C28.9401 18.0755 28.9477 18.0906 28.9553 18.1134V18.1209C28.9401 18.2194 28.9477 18.3103 28.9704 18.3937L28.9856 19.2497L26.1447 19.28ZM42.6674 18.4846C42.5765 18.6664 42.425 18.8255 42.2432 18.9164C41.5841 19.2497 41.0159 19.0376 40.7053 18.7119C40.4704 18.4846 40.3416 18.174 40.3416 17.8406C40.3416 17.5149 40.4704 17.2043 40.7053 16.9619C40.9401 16.727 41.2507 16.5982 41.5841 16.5982C41.9098 16.5982 42.228 16.727 42.4553 16.9543C42.8492 17.3634 42.925 17.9316 42.6674 18.4846Z" fill="#F39F5F"/>
</svg>
