<svg width="44" height="44" viewBox="0 0 44 44" fill="none" xmlns="http://www.w3.org/2000/svg">
<path d="M40.4804 16.0633H37.8581V15.7688C37.8581 15.0358 37.2617 14.4395 36.5286 14.4395H31.3567C31.0003 14.4395 30.7113 14.7284 30.7113 15.0849C30.7113 15.4414 31.0003 15.7303 31.3567 15.7303H36.5286C36.5499 15.7303 36.5672 15.7475 36.5672 15.7688V23.6386C36.5672 23.9952 36.8562 24.2841 37.2126 24.2841C37.5691 24.2841 37.8581 23.9952 37.8581 23.6386V17.3542H40.4804C40.5676 17.3542 40.6386 17.4252 40.6386 17.5124V40.0305C40.6386 41.5075 39.437 42.7092 37.96 42.7092H6.04085C4.56382 42.7092 3.36217 41.5075 3.36217 40.0305V17.5124C3.36217 17.4252 3.43317 17.3542 3.52044 17.3542H6.2288V39.4294C6.2288 40.3396 6.96925 41.0801 7.8795 41.0801H36.2073C37.1175 41.0801 37.858 40.3397 37.858 39.4294V26.3916C37.858 26.035 37.569 25.7461 37.2125 25.7461C36.8561 25.7461 36.5671 26.035 36.5671 26.3916V35.68H26.1244C24.7719 35.68 23.5512 36.252 22.6889 37.1656V28.8166C22.6889 28.46 22.3999 28.1711 22.0434 28.1711C21.687 28.1711 21.398 28.46 21.398 28.8166V37.1657C20.5357 36.2521 19.3149 35.6801 17.9625 35.6801H15.0296C14.6732 35.6801 14.3842 35.969 14.3842 36.3256C14.3842 36.6821 14.6732 36.971 15.0296 36.971H17.9625C19.6461 36.971 21.0497 38.1886 21.3415 39.7893H7.8795C7.7841 39.7892 7.69263 39.7512 7.62517 39.6838C7.55771 39.6163 7.51978 39.5248 7.51969 39.4294V36.971H12.2766C12.6331 36.971 12.922 36.6821 12.922 36.3256C12.922 35.969 12.6331 35.6801 12.2766 35.6801H7.51969V15.7688C7.51969 15.7475 7.53698 15.7303 7.55824 15.7303H12.7301C13.0866 15.7303 13.3756 15.4414 13.3756 15.0849C13.3756 14.7284 13.0866 14.4395 12.7301 14.4395H7.55824C6.82519 14.4395 6.2288 15.0358 6.2288 15.7688V16.0633H3.52044C2.72138 16.0633 2.07129 16.7134 2.07129 17.5124V40.0305C2.07129 42.2193 3.85202 44 6.04085 44H37.9598C40.1486 44 41.9294 42.2193 41.9294 40.0305V17.5124C41.9294 16.7134 41.2794 16.0633 40.4804 16.0633ZM26.1244 36.9709H36.5671V39.4294C36.567 39.5248 36.5291 39.6163 36.4616 39.6838C36.3942 39.7512 36.3027 39.7892 36.2073 39.7893H22.7455C23.0372 38.1886 24.4408 36.9709 26.1244 36.9709Z" fill="white"/>
<path d="M13.4375 9.05608C13.7918 9.08895 14.1072 8.82897 14.1407 8.47406C14.3253 6.51673 15.2291 4.7045 16.6859 3.37128C18.1517 2.02979 20.0542 1.29089 22.0431 1.29089C26.4203 1.29089 29.9814 4.85201 29.9814 9.22914C29.9814 10.8762 29.4815 12.4558 28.5358 13.7972C28.5305 13.8048 28.5253 13.8125 28.5202 13.8203L24.3899 20.2505C24.323 20.3545 24.2875 20.4756 24.2875 20.5993V21.4355C24.2874 21.5171 24.2549 21.5953 24.1972 21.653C24.1395 21.7107 24.0613 21.7432 23.9797 21.7432H23.9376L24.3487 14.766H25.084C26.1362 14.766 26.9921 13.9101 26.9921 12.858V12.7797C26.9921 11.7276 26.1362 10.8717 25.084 10.8717C24.0753 10.8717 23.2387 11.6605 23.1793 12.6675L23.1317 13.4751H20.8683L20.8207 12.6675C20.7614 11.6605 19.9246 10.8717 18.9159 10.8717C17.8638 10.8717 17.0078 11.7276 17.0078 12.7797V12.858C17.0078 13.9101 17.8638 14.766 18.9159 14.766H19.6512L20.0621 21.7388C19.9135 21.7171 19.7986 21.5901 19.7986 21.4355V20.5993C19.7986 20.4757 19.7631 20.3546 19.6963 20.2505L15.5659 13.8203C15.5609 13.8125 15.5557 13.8048 15.5504 13.7972C14.9586 12.9596 14.5364 12.0142 14.3076 11.0144C14.2692 10.8476 14.1661 10.7028 14.021 10.612C13.876 10.5211 13.7007 10.4917 13.5339 10.53C13.367 10.5684 13.2223 10.6714 13.1314 10.8165C13.0406 10.9616 13.0111 11.1368 13.0495 11.3037C13.3147 12.4621 13.8031 13.5577 14.4872 14.5293L18.5079 20.7886V21.4353C18.5079 22.087 18.9004 22.6481 19.4611 22.8967V23.9882C19.4611 25.1367 20.3955 26.0711 21.544 26.0711H22.5426C23.6911 26.0711 24.6255 25.1367 24.6255 23.9882V22.8967C25.1861 22.6481 25.5787 22.0871 25.5787 21.4353V20.7886L29.5993 14.5293C30.694 12.9716 31.2725 11.139 31.2725 9.22906C31.2722 4.14013 27.132 0 22.0431 0C19.7308 0 17.5188 0.859127 15.8144 2.41903C14.121 3.96896 13.0702 6.0762 12.8556 8.35289C12.8476 8.43728 12.8563 8.52241 12.8812 8.60343C12.9061 8.68445 12.9468 8.75976 13.0008 8.82506C13.0549 8.89037 13.1212 8.94438 13.1962 8.98402C13.2711 9.02366 13.3531 9.04814 13.4375 9.05608ZM24.4679 12.7434C24.4774 12.5863 24.5464 12.4387 24.6608 12.3308C24.7753 12.2228 24.9267 12.1626 25.084 12.1625C25.4244 12.1625 25.7013 12.4393 25.7013 12.7796V12.8579C25.7013 13.1982 25.4244 13.475 25.084 13.475H24.4248L24.4679 12.7434ZM18.9159 13.475C18.5756 13.475 18.2987 13.1982 18.2987 12.8579V12.7796C18.2987 12.4393 18.5756 12.1625 18.9159 12.1625C19.0733 12.1626 19.2247 12.2228 19.3391 12.3308C19.4536 12.4387 19.5226 12.5863 19.532 12.7434L19.5751 13.475H18.9159ZM23.0556 14.7659L22.6445 21.7432H21.3555L20.9444 14.7659H23.0556ZM23.3343 23.9883C23.3343 24.4249 22.979 24.7803 22.5423 24.7803H21.5437C21.107 24.7803 20.7517 24.4249 20.7517 23.9883V23.034H23.3342V23.9883H23.3343ZM33.349 4.90115C33.5056 4.9013 33.657 4.84426 33.7745 4.74073L35.1828 3.50424C35.3101 3.39092 35.3873 3.23188 35.3978 3.06181C35.4082 2.89174 35.351 2.72443 35.2386 2.59638C35.1262 2.46833 34.9677 2.38993 34.7977 2.37828C34.6277 2.36663 34.46 2.42267 34.3312 2.53418L32.9229 3.77068C32.8243 3.85727 32.7544 3.97187 32.7226 4.0992C32.6907 4.22653 32.6985 4.36053 32.7448 4.48334C32.7911 4.60615 32.8737 4.71194 32.9816 4.78658C33.0896 4.86123 33.2177 4.90119 33.349 4.90115ZM32.9229 8.79385L34.3312 10.0304C34.4487 10.134 34.6001 10.1911 34.7568 10.1909C34.8881 10.1909 35.0162 10.151 35.1242 10.0763C35.2321 10.0017 35.3148 9.8959 35.3611 9.77309C35.4074 9.65027 35.4151 9.51626 35.3833 9.38892C35.3515 9.26159 35.2816 9.14698 35.183 9.06038L33.7747 7.8238C33.711 7.76786 33.6369 7.72502 33.5567 7.69772C33.4764 7.67042 33.3916 7.6592 33.307 7.66469C33.2224 7.67019 33.1398 7.6923 33.0637 7.72976C32.9877 7.76722 32.9198 7.81929 32.8639 7.88301C32.8079 7.94668 32.7651 8.02076 32.7377 8.101C32.7104 8.18124 32.6992 8.26608 32.7047 8.35066C32.7102 8.43525 32.7322 8.51792 32.7697 8.59397C32.8071 8.67001 32.8592 8.73794 32.9229 8.79385ZM8.90322 3.50424L10.3115 4.74073C10.429 4.84429 10.5804 4.90134 10.737 4.90115C10.8683 4.90119 10.9964 4.86123 11.1044 4.78658C11.2123 4.71194 11.295 4.60615 11.3413 4.48334C11.3875 4.36053 11.3953 4.22653 11.3635 4.0992C11.3316 3.97187 11.2618 3.85727 11.1631 3.77068L9.75486 2.53418C9.69117 2.47824 9.61709 2.4354 9.53684 2.4081C9.45659 2.3808 9.37175 2.36958 9.28717 2.37508C9.20258 2.38058 9.11991 2.40269 9.04387 2.44014C8.96783 2.4776 8.89992 2.52968 8.84401 2.59339C8.73108 2.72203 8.67387 2.89026 8.68498 3.06107C8.69608 3.23189 8.77458 3.3913 8.90322 3.50424ZM9.32929 10.1909C9.48598 10.191 9.63733 10.134 9.75494 10.0304L11.1632 8.79385C11.2919 8.68091 11.3704 8.52149 11.3814 8.35066C11.3925 8.17984 11.3353 8.0116 11.2224 7.88296C11.1094 7.75433 10.95 7.67582 10.7792 7.66473C10.6084 7.65363 10.4401 7.71085 10.3115 7.8238L8.90322 9.06038C8.80459 9.14697 8.73471 9.26157 8.70288 9.3889C8.67106 9.51623 8.6788 9.65023 8.72509 9.77305C8.77138 9.89586 8.85401 10.0016 8.96196 10.0763C9.06991 10.1509 9.19805 10.1909 9.32929 10.1909ZM16.3324 22.3886C16.3324 22.2174 16.2644 22.0532 16.1434 21.9322C16.0223 21.8112 15.8582 21.7432 15.687 21.7432H9.32904C8.97258 21.7432 8.68359 22.0321 8.68359 22.3886C8.68359 22.7451 8.97258 23.034 9.32904 23.034H15.687C15.8582 23.034 16.0223 22.966 16.1434 22.845C16.2644 22.724 16.3324 22.5598 16.3324 22.3886ZM17.6533 25.0264H10.495C10.1385 25.0264 9.84952 25.3153 9.84952 25.6718C9.84952 26.0284 10.1385 26.3173 10.495 26.3173H17.6533C18.0097 26.3173 18.2987 26.0284 18.2987 25.6718C18.2987 25.3153 18.0097 25.0264 17.6533 25.0264ZM17.6533 28.1711H10.495C10.1385 28.1711 9.84952 28.46 9.84952 28.8165C9.84952 29.1731 10.1385 29.462 10.495 29.462H17.6533C18.0097 29.462 18.2987 29.1731 18.2987 28.8165C18.2987 28.46 18.0097 28.1711 17.6533 28.1711ZM17.6533 31.3158H10.495C10.1385 31.3158 9.84952 31.6047 9.84952 31.9612C9.84952 32.3177 10.1385 32.6066 10.495 32.6066H17.6533C18.0097 32.6066 18.2987 32.3177 18.2987 31.9612C18.2987 31.6047 18.0097 31.3158 17.6533 31.3158ZM35.4025 22.3886C35.4025 22.2174 35.3345 22.0532 35.2135 21.9322C35.0924 21.8112 34.9282 21.7432 34.7571 21.7432H28.3991C28.0427 21.7432 27.7537 22.0321 27.7537 22.3886C27.7537 22.7451 28.0427 23.034 28.3991 23.034H34.7571C34.9282 23.034 35.0924 22.966 35.2135 22.845C35.3345 22.724 35.4025 22.5598 35.4025 22.3886ZM33.5911 25.0264H26.4328C26.0763 25.0264 25.7873 25.3153 25.7873 25.6718C25.7873 26.0284 26.0763 26.3173 26.4328 26.3173H33.5911C33.9475 26.3173 34.2365 26.0284 34.2365 25.6718C34.2365 25.3153 33.9475 25.0264 33.5911 25.0264ZM33.5911 28.1711H26.4328C26.0763 28.1711 25.7873 28.46 25.7873 28.8165C25.7873 29.1731 26.0763 29.462 26.4328 29.462H33.5911C33.9475 29.462 34.2365 29.1731 34.2365 28.8165C34.2365 28.46 33.9475 28.1711 33.5911 28.1711ZM33.5911 31.3158H26.4328C26.0763 31.3158 25.7873 31.6047 25.7873 31.9612C25.7873 32.3177 26.0763 32.6066 26.4328 32.6066H33.5911C33.9475 32.6066 34.2365 32.3177 34.2365 31.9612C34.2365 31.6047 33.9475 31.3158 33.5911 31.3158Z" fill="white"/>
</svg>
