<svg width="50" height="50" viewBox="0 0 50 50" fill="none" xmlns="http://www.w3.org/2000/svg">
<g clip-path="url(#clip0_1264_1429)">
<path d="M1.37893 17.2655C1.75852 17.4483 2.18801 17.5406 2.64767 17.5406C2.91095 17.5406 3.184 17.5105 3.46369 17.4495C5.14249 17.0833 6.08927 15.7932 5.76661 14.3118V14.3115L3.91984 5.84513L11.6842 4.15148L13.0529 10.4259C12.6158 10.3431 12.1236 10.3546 11.593 10.4701C9.87686 10.8443 8.93838 12.0822 9.2585 13.5497C9.52813 14.7864 10.5475 15.5334 11.8536 15.5334C12.1118 15.5334 12.3819 15.504 12.6593 15.4437C14.3381 15.0775 15.2852 13.787 14.9622 12.3058V12.3054L12.5013 1.02307C12.3489 0.322677 11.6542 -0.122928 10.953 0.0300992L2.86779 1.79357C2.70094 1.82951 2.54287 1.89814 2.40269 1.99551C2.26251 2.09288 2.14301 2.21705 2.05109 2.36086C1.95826 2.50424 1.89484 2.66463 1.86452 2.83273C1.83419 3.00083 1.83756 3.17327 1.87443 3.34005L3.85734 12.432C3.42013 12.3492 2.92765 12.3603 2.39738 12.4759C1.63029 12.6434 1.0009 12.9855 0.577854 13.465C0.0759019 14.0342 -0.107301 14.7766 0.0629135 15.5555C0.231859 16.3303 0.699143 16.9374 1.37893 17.2655ZM12.347 14.0124C12.014 14.0849 10.9092 14.2443 10.6897 13.2377C10.4957 12.348 11.3681 12.0185 11.9056 11.9014C12.086 11.8621 12.2798 11.8347 12.4687 11.8347C12.9489 11.8347 13.3986 12.0112 13.5311 12.6174V12.6178C13.7508 13.6241 12.6804 13.9395 12.347 14.0124ZM11.1053 1.49601L11.3723 2.72013L3.60783 4.41398L3.34084 3.19025L11.1053 1.49601ZM1.67648 14.4345C1.88898 14.1937 2.25598 14.0064 2.70988 13.9072C2.89035 13.868 3.0841 13.8405 3.27297 13.8405C3.75324 13.8405 4.20294 14.0175 4.33537 14.6232V14.6236C4.5547 15.6304 3.48468 15.9459 3.15129 16.0183C2.71379 16.1137 2.31008 16.0881 2.01486 15.9458C1.7383 15.8127 1.56779 15.5826 1.49416 15.2435C1.42209 14.914 1.48 14.6568 1.67648 14.4345ZM49.8888 36.6446C49.8204 36.488 49.7216 36.3466 49.5982 36.2285C49.4748 36.1104 49.3291 36.0179 49.1698 35.9564L41.4553 32.9588C40.7866 32.6991 40.0321 33.0317 39.7723 33.7001L36.4004 42.3796C36.077 42.0611 35.6592 41.7963 35.1619 41.603C34.4298 41.3188 33.7165 41.2562 33.0984 41.4221C32.3657 41.619 31.8034 42.1369 31.5146 42.8801C31.2274 43.6194 31.2815 44.3838 31.6669 45.0324C32.0051 45.6019 32.5709 46.0535 33.3029 46.3377C33.7435 46.509 34.1761 46.591 34.5839 46.591C35.6588 46.591 36.558 46.0192 36.9563 44.9946L40.0942 36.9174L47.5016 39.7955L45.1735 45.788C44.85 45.4699 44.4326 45.2051 43.9349 45.0117C42.2976 44.3754 40.8316 44.8889 40.2876 46.2889C40.0003 47.0281 40.0545 47.7923 40.4402 48.4412C40.7786 49.0107 41.3443 49.4619 42.0759 49.7465C42.5165 49.9174 42.9495 49.9998 43.3573 49.9998C44.4323 49.9998 45.3314 49.4276 45.7293 48.403L49.911 37.6395C49.9732 37.4804 50.0033 37.3106 49.9995 37.1398C49.9956 36.969 49.958 36.8007 49.8888 36.6446ZM33.8332 44.9721C33.4155 44.81 33.0931 44.5658 32.926 44.2843C32.7693 44.02 32.754 43.7342 32.8798 43.4107C33.0019 43.096 33.1923 42.914 33.4788 42.8369C33.5792 42.8099 33.6901 42.7965 33.8088 42.7965C34.0563 42.7965 34.3386 42.8545 34.6312 42.9686C35.0588 43.1346 35.3846 43.3714 35.549 43.6358C35.7016 43.8811 35.7146 44.1443 35.5906 44.4639C35.2175 45.4241 34.1513 45.0957 33.8332 44.9721ZM40.6245 35.5517L41.0781 34.384L48.4858 37.2622L48.0322 38.4298L40.6245 35.5517ZM42.6062 48.3808C42.1885 48.2187 41.8665 47.9742 41.6995 47.6927C41.5422 47.4287 41.5274 47.143 41.6529 46.8196C41.8375 46.3446 42.2034 46.2004 42.5799 46.2004C42.8758 46.2004 43.1787 46.2897 43.4041 46.3774C43.8319 46.5434 44.1576 46.7802 44.3221 47.0446C44.4746 47.2899 44.4876 47.5531 44.3636 47.8724C43.9906 48.8329 42.9244 48.5044 42.6062 48.3809V48.3808ZM21.5106 46.6502C17.0069 49.9232 10.1531 48.8524 5.56749 44.1595C2.89299 41.4225 1.39797 37.8306 1.46701 34.305C1.52199 31.4879 2.59162 28.953 4.47872 27.167C5.82267 25.8967 7.53663 25.04 9.43555 24.6889C12.0158 24.2126 14.3005 22.9667 16.0422 21.0864C16.1076 21.0159 16.1585 20.9332 16.1919 20.843C16.2253 20.7528 16.2406 20.6569 16.237 20.5608C16.2333 20.4647 16.2108 20.3702 16.1706 20.2828C16.1305 20.1954 16.0735 20.1168 16.0029 20.0514C15.9324 19.986 15.8497 19.9351 15.7595 19.9016C15.6693 19.8682 15.5734 19.8528 15.4773 19.8565C15.3812 19.8601 15.2867 19.8827 15.1993 19.9229C15.1119 19.9631 15.0333 20.0201 14.968 20.0907C13.4418 21.738 11.4371 22.8297 9.16963 23.2485C6.99229 23.6507 5.02238 24.6375 3.47209 26.1027C1.29729 28.1611 0.0651596 31.0636 0.00256211 34.2765C-0.0740979 38.1922 1.57268 42.1675 4.51994 45.1834C7.60225 48.3377 11.631 49.9998 15.4601 49.9998C17.9545 49.9998 20.365 49.2938 22.3716 47.8354C22.5262 47.7202 22.6292 47.5488 22.6582 47.3582C22.6873 47.1677 22.6401 46.9733 22.5268 46.8173C22.4135 46.6614 22.2433 46.5563 22.053 46.525C21.8628 46.4937 21.6679 46.5387 21.5106 46.6501V46.6502Z" fill="#F92596"/>
<path d="M34.1588 31.9224C35.6895 30.3912 36.4212 28.4185 36.2735 26.2175C36.1568 24.4708 35.4938 22.615 34.3521 20.8178L39.0262 16.1437C39.0942 16.0757 39.1482 15.995 39.185 15.9062C39.2218 15.8174 39.2408 15.7222 39.2408 15.626C39.2408 15.5298 39.2219 15.4346 39.1851 15.3458C39.1483 15.2569 39.0944 15.1762 39.0264 15.1082C38.9584 15.0402 38.8777 14.9863 38.7889 14.9495C38.7 14.9127 38.6048 14.8937 38.5087 14.8937C38.4125 14.8937 38.3173 14.9126 38.2285 14.9494C38.1396 14.9862 38.0589 15.0401 37.9909 15.1081L25.0309 28.0676C24.7481 27.3676 24.3268 26.732 23.7923 26.1988C23.2494 25.656 22.615 25.2386 21.9238 24.9602L37.1787 9.70397L40.2866 12.8118L40.2 12.8984C40.0975 13.0008 40.0277 13.1313 39.9994 13.2734C39.9712 13.4155 39.9857 13.5628 40.0411 13.6966C40.0966 13.8304 40.1905 13.9448 40.311 14.0252C40.4315 14.1056 40.5732 14.1485 40.718 14.1484C40.9053 14.1484 41.093 14.0771 41.2356 13.9341L41.4212 13.7491C41.5374 13.7857 41.6592 13.8051 41.7827 13.8051C41.7954 13.8051 41.8079 13.8048 41.8205 13.8044C41.9862 13.799 42.149 13.7597 42.299 13.6891C42.449 13.6184 42.5829 13.5178 42.6926 13.3935L43.4699 12.5108L44.3035 13.3443C44.3714 13.4125 44.4522 13.4665 44.5411 13.5034C44.63 13.5403 44.7253 13.5592 44.8216 13.5591C45.0089 13.5591 45.1966 13.4874 45.3395 13.3443C45.4075 13.2763 45.4615 13.1956 45.4983 13.1067C45.5351 13.0179 45.5541 12.9227 45.5541 12.8265C45.5541 12.7303 45.5351 12.6351 45.4983 12.5462C45.4615 12.4574 45.4075 12.3766 45.3395 12.3087L44.4401 11.4091L45.6634 10.0198L46.534 10.8904C46.6019 10.9585 46.6827 11.0125 46.7716 11.0492C46.8605 11.086 46.9557 11.1049 47.0519 11.1048C47.1968 11.1047 47.3384 11.0617 47.4588 10.9813C47.5793 10.9008 47.6732 10.7864 47.7286 10.6525C47.7841 10.5187 47.7986 10.3714 47.7704 10.2293C47.7421 10.0873 47.6724 9.95673 47.57 9.85426L46.6335 8.91813L47.8477 7.53952L48.4783 8.17048C48.5463 8.23856 48.627 8.29255 48.7159 8.32934C48.8048 8.36612 48.9001 8.38498 48.9964 8.38483C49.1412 8.3848 49.2828 8.34183 49.4033 8.26134C49.5237 8.18085 49.6176 8.06645 49.673 7.93262C49.7285 7.79878 49.743 7.65152 49.7148 7.50943C49.6866 7.36734 49.6168 7.23681 49.5144 7.13434L48.8175 6.43786L49.6964 5.43991C50.1182 4.96081 50.0953 4.2318 49.644 3.78014L46.2188 0.355046C45.7672 -0.0966144 45.0382 -0.119564 44.5591 0.302311L43.5607 1.18171L42.8634 0.484733C42.726 0.347437 42.5397 0.270361 42.3454 0.270462C42.1511 0.270563 41.9649 0.347832 41.8276 0.48527C41.6903 0.622709 41.6132 0.809059 41.6133 1.00333C41.6134 1.19759 41.6907 1.38386 41.8281 1.52116L42.4591 2.15173L41.0808 3.3652L40.1359 2.42067C40.0679 2.35265 39.9872 2.29869 39.8983 2.26187C39.8095 2.22506 39.7143 2.20611 39.6181 2.20611C39.5219 2.20611 39.4267 2.22506 39.3378 2.26187C39.249 2.29869 39.1683 2.35265 39.1003 2.42067C39.0322 2.48866 38.9783 2.56939 38.9414 2.65825C38.9046 2.74711 38.8857 2.84235 38.8857 2.93854C38.8857 3.03473 38.9046 3.12997 38.9414 3.21883C38.9783 3.30769 39.0322 3.38842 39.1003 3.45641L39.9796 4.33532L38.5899 5.55895L37.6907 4.65993C37.6227 4.59191 37.542 4.53794 37.4531 4.50113C37.3643 4.46431 37.2691 4.44536 37.1729 4.44536C37.0767 4.44536 36.9815 4.46431 36.8926 4.50113C36.8038 4.53794 36.723 4.59191 36.6551 4.65993C36.587 4.72792 36.5331 4.80864 36.4963 4.89749C36.4594 4.98634 36.4405 5.08158 36.4405 5.17775C36.4405 5.27393 36.4594 5.36916 36.4963 5.45801C36.5331 5.54686 36.587 5.62758 36.6551 5.69557L37.4885 6.52907L36.6054 7.30651C36.4813 7.41631 36.3809 7.55028 36.3103 7.70023C36.2397 7.85017 36.2005 8.01295 36.195 8.17858C36.1911 8.30933 36.2085 8.43983 36.2465 8.56501L29.1812 15.6306C25.0636 12.9847 20.9171 12.9691 18.2555 15.631C17.5705 16.3146 17.046 16.9821 16.6519 17.6715C16.6042 17.7549 16.5733 17.847 16.5611 17.9424C16.5489 18.0378 16.5556 18.1347 16.5809 18.2275C16.6062 18.3203 16.6494 18.4072 16.7083 18.4833C16.7672 18.5594 16.8404 18.6231 16.9239 18.6709C17.0074 18.7187 17.0995 18.7495 17.1949 18.7617C17.2904 18.7739 17.3873 18.7671 17.4801 18.7418C17.5729 18.7165 17.6598 18.6731 17.7359 18.6142C17.8119 18.5553 17.8756 18.482 17.9233 18.3984C18.2521 17.8241 18.6988 17.258 19.2909 16.667C22.2022 13.7552 26.1909 15.5341 28.1166 16.6953L20.2411 24.5711C20.1016 24.5602 19.9618 24.5545 19.8218 24.554C18.3223 24.554 16.9121 25.138 15.8515 26.1988C14.7907 27.2593 14.2066 28.6696 14.2066 30.1695C14.2066 31.6694 14.7906 33.0798 15.8515 34.1402C16.9121 35.2007 18.3223 35.7851 19.8218 35.7851C21.3218 35.7851 22.7321 35.2007 23.7926 34.1403C24.853 33.0798 25.4371 31.6695 25.4371 30.1696C25.4371 30.0288 25.4302 29.8891 25.42 29.7504L33.2862 21.884C34.4352 23.82 36.1686 27.8411 33.1226 30.8871C32.641 31.3693 32.0929 31.7801 31.4949 32.107C28.1646 33.9286 25.9617 36.9265 25.2922 40.5486C25.0134 42.0607 24.4304 43.4279 23.5592 44.6128C23.3196 44.9389 23.3894 45.3974 23.7152 45.637C23.8407 45.7295 23.9926 45.7794 24.1485 45.7793C24.2635 45.7795 24.3769 45.7525 24.4795 45.7006C24.5821 45.6487 24.671 45.5734 24.739 45.4806C25.7427 44.1157 26.4134 42.546 26.7326 40.8144C27.3205 37.6341 29.2614 34.9982 32.1979 33.3919C32.9182 32.998 33.5784 32.5031 34.1587 31.9224H34.1588ZM45.3498 1.55778L48.4408 4.6488L41.77 12.2245L37.7749 8.22858L45.3498 1.55778ZM22.7564 33.1042C21.9725 33.8882 20.9303 34.32 19.8218 34.32C18.7133 34.32 17.6711 33.8882 16.8872 33.1042C16.1032 32.3203 15.6714 31.2781 15.6714 30.1696C15.6714 29.0606 16.1032 28.0184 16.8872 27.2345C17.6707 26.4506 18.7133 26.0187 19.8218 26.0187C20.9303 26.0187 21.9725 26.4506 22.7564 27.2345C23.54 28.0184 23.9719 29.0606 23.9719 30.1696C23.9719 31.2781 23.5404 32.3203 22.7564 33.1042ZM6.23054 32.6967C5.24216 33.6851 5.24216 35.2938 6.23054 36.2822L13.7093 43.7613C14.2036 44.2553 14.8528 44.5025 15.5017 44.5025C16.1511 44.5025 16.8003 44.2553 17.2947 43.7609C18.283 42.7726 18.283 41.1642 17.2947 40.1755L9.81599 32.6964C9.33718 32.2176 8.70056 31.9541 8.02341 31.9541C7.34626 31.9541 6.70974 32.218 6.23054 32.6967ZM16.2586 41.2116C16.676 41.6289 16.676 42.3079 16.2586 42.7253C15.8416 43.1425 15.1627 43.1429 14.7449 42.7253L7.26658 35.2466C6.84929 34.8292 6.84929 34.1499 7.26658 33.7325C7.36575 33.6328 7.48369 33.5538 7.6136 33.4999C7.74351 33.4461 7.8828 33.4186 8.02341 33.4189C8.30916 33.4189 8.5781 33.5302 8.78025 33.7324L16.2586 41.2116Z" fill="#F92596"/>
<path d="M36.8161 15.4622C36.9123 15.4624 37.0076 15.4435 37.0965 15.4067C37.1854 15.3699 37.2662 15.316 37.3341 15.2479C37.6199 14.9617 37.6199 14.4979 37.3341 14.2121L35.7716 12.6492C35.6341 12.512 35.4478 12.4349 35.2536 12.4349C35.0593 12.4349 34.873 12.512 34.7355 12.6492C34.6675 12.7173 34.6135 12.798 34.5767 12.8869C34.5399 12.9758 34.5209 13.0711 34.5209 13.1673C34.5209 13.2635 34.5399 13.3588 34.5767 13.4477C34.6135 13.5366 34.6675 13.6173 34.7355 13.6854L36.298 15.2479C36.366 15.316 36.4467 15.3699 36.5357 15.4067C36.6246 15.4435 36.7199 15.4624 36.8161 15.4622ZM34.6512 17.6271C34.7961 17.6272 34.9377 17.5843 35.0582 17.5039C35.1787 17.4234 35.2727 17.3091 35.3281 17.1752C35.3836 17.0414 35.3981 16.8941 35.3698 16.7521C35.3416 16.61 35.2718 16.4795 35.1693 16.3771L33.6068 14.8141C33.4694 14.6768 33.2831 14.5997 33.0889 14.5997C32.8947 14.5997 32.7085 14.6768 32.5711 14.8141C32.503 14.8821 32.449 14.9629 32.4122 15.0518C32.3754 15.1407 32.3564 15.2359 32.3564 15.3321C32.3564 15.4284 32.3754 15.5236 32.4122 15.6125C32.449 15.7014 32.503 15.7822 32.5711 15.8502L34.1336 17.4127C34.2015 17.4808 34.2821 17.5348 34.371 17.5716C34.4598 17.6084 34.5551 17.6272 34.6512 17.6271ZM32.4868 19.7919C32.6316 19.7918 32.7731 19.7487 32.8935 19.6682C33.0139 19.5877 33.1077 19.4733 33.1631 19.3395C33.2185 19.2057 33.2329 19.0584 33.2047 18.9164C33.1764 18.7743 33.1067 18.6439 33.0044 18.5414L31.4419 16.9789C31.3739 16.9109 31.2931 16.8569 31.2043 16.8201C31.1154 16.7833 31.0202 16.7644 30.924 16.7644C30.8279 16.7644 30.7326 16.7833 30.6438 16.8201C30.5549 16.8569 30.4742 16.9109 30.4062 16.9789C30.3382 17.0469 30.2842 17.1276 30.2474 17.2165C30.2105 17.3054 30.1916 17.4006 30.1916 17.4968C30.1916 17.593 30.2105 17.6882 30.2474 17.7771C30.2842 17.8659 30.3382 17.9467 30.4062 18.0147L31.9687 19.5776C32.0367 19.6457 32.1174 19.6997 32.2063 19.7365C32.2952 19.7733 32.3906 19.7921 32.4868 19.7919ZM30.3219 21.9568C30.4668 21.9567 30.6084 21.9137 30.7288 21.8333C30.8493 21.7528 30.9432 21.6384 30.9986 21.5045C31.0541 21.3707 31.0686 21.2234 31.0404 21.0813C31.0121 20.9393 30.9424 20.8087 30.84 20.7063L29.2775 19.1438C29.2095 19.0757 29.1288 19.0218 29.0399 18.9849C28.9511 18.9481 28.8558 18.9292 28.7596 18.9292C28.6634 18.9292 28.5682 18.9481 28.4793 18.9849C28.3905 19.0218 28.3097 19.0757 28.2418 19.1438C28.1737 19.2118 28.1197 19.2925 28.0829 19.3813C28.0461 19.4702 28.0271 19.5654 28.0271 19.6616C28.0271 19.7578 28.0461 19.8531 28.0829 19.9419C28.1197 20.0308 28.1737 20.1115 28.2418 20.1795L29.8043 21.7424C29.8722 21.8105 29.9529 21.8645 30.0417 21.9013C30.1305 21.938 30.2258 21.9569 30.3219 21.9568ZM26.0769 21.3086C26.0089 21.3766 25.9549 21.4574 25.9181 21.5463C25.8813 21.6352 25.8623 21.7305 25.8623 21.8267C25.8623 21.9229 25.8813 22.0182 25.9181 22.1071C25.9549 22.1959 26.0089 22.2767 26.0769 22.3447L27.6394 23.9072C27.7074 23.9754 27.7881 24.0294 27.877 24.0662C27.9659 24.1029 28.0613 24.1218 28.1575 24.1216C28.3023 24.1215 28.4438 24.0784 28.5642 23.9979C28.6846 23.9174 28.7784 23.803 28.8338 23.6692C28.8892 23.5353 28.9036 23.3881 28.8754 23.2461C28.8471 23.104 28.7774 22.9735 28.6751 22.8711L27.1126 21.3086C27.0446 21.2406 26.9638 21.1866 26.875 21.1498C26.7861 21.113 26.6909 21.094 26.5947 21.094C26.4986 21.094 26.4033 21.113 26.3145 21.1498C26.2256 21.1866 26.1449 21.2406 26.0769 21.3086ZM40.7834 7.47462C40.7154 7.4066 40.6346 7.35264 40.5458 7.31582C40.4569 7.27901 40.3617 7.26006 40.2655 7.26006C40.1694 7.26006 40.0741 7.27901 39.9853 7.31582C39.8964 7.35264 39.8157 7.4066 39.7477 7.47462C39.6797 7.54261 39.6257 7.62334 39.5889 7.71219C39.5521 7.80104 39.5331 7.89627 39.5331 7.99244C39.5331 8.08862 39.5521 8.18385 39.5889 8.2727C39.6257 8.36155 39.6797 8.44228 39.7477 8.51027C39.8157 8.57829 39.8964 8.63225 39.9853 8.66907C40.0741 8.70588 40.1694 8.72483 40.2655 8.72483C40.3617 8.72483 40.4569 8.70588 40.5458 8.66907C40.6346 8.63225 40.7154 8.57829 40.7834 8.51027C40.8514 8.44228 40.9053 8.36155 40.9422 8.2727C40.979 8.18385 40.9979 8.08862 40.9979 7.99244C40.9979 7.89627 40.979 7.80104 40.9422 7.71219C40.9053 7.62334 40.8514 7.54261 40.7834 7.47462ZM42.5401 9.21603C42.4721 9.14799 42.3913 9.09402 42.3024 9.0572C42.2135 9.02038 42.1182 9.00142 42.022 9.00142C41.9258 9.00142 41.8305 9.02038 41.7417 9.0572C41.6528 9.09402 41.572 9.14799 41.504 9.21603C41.2182 9.50177 41.2182 9.96564 41.504 10.2517C41.572 10.3197 41.6528 10.3737 41.7417 10.4105C41.8305 10.4473 41.9258 10.4663 42.022 10.4663C42.1182 10.4663 42.2135 10.4473 42.3024 10.4105C42.3913 10.3737 42.4721 10.3197 42.5401 10.2517C42.8257 9.96554 42.8257 9.50167 42.5401 9.21603ZM42.9814 5.27316C42.9134 5.20512 42.8327 5.15115 42.7438 5.11432C42.655 5.0775 42.5597 5.05854 42.4635 5.05854C42.3673 5.05854 42.2721 5.0775 42.1832 5.11432C42.0944 5.15115 42.0137 5.20512 41.9457 5.27316C41.8776 5.34115 41.8237 5.42187 41.7869 5.51072C41.75 5.59957 41.7311 5.69481 41.7311 5.79098C41.7311 5.88716 41.75 5.98239 41.7869 6.07124C41.8237 6.16009 41.8776 6.24081 41.9457 6.3088C42.0137 6.37684 42.0944 6.43081 42.1832 6.46764C42.2721 6.50446 42.3673 6.52342 42.4635 6.52342C42.5597 6.52342 42.655 6.50446 42.7438 6.46764C42.8327 6.43081 42.9134 6.37684 42.9814 6.3088C43.0494 6.24081 43.1034 6.16009 43.1402 6.07124C43.177 5.98239 43.196 5.88716 43.196 5.79098C43.196 5.69481 43.177 5.59957 43.1402 5.51072C43.1034 5.42187 43.0494 5.34115 42.9814 5.27316ZM44.7392 7.01652C44.6712 6.94848 44.5905 6.89451 44.5016 6.85768C44.4128 6.82086 44.3175 6.8019 44.2213 6.8019C44.1252 6.8019 44.0299 6.82086 43.9411 6.85768C43.8522 6.89451 43.7715 6.94848 43.7035 7.01652C43.6355 7.08451 43.5815 7.16523 43.5447 7.25408C43.5079 7.34293 43.4889 7.43816 43.4889 7.53434C43.4889 7.63052 43.5079 7.72575 43.5447 7.8146C43.5815 7.90345 43.6355 7.98417 43.7035 8.05216C43.7715 8.1202 43.8522 8.17417 43.9411 8.211C44.0299 8.24782 44.1252 8.26678 44.2213 8.26678C44.3175 8.26678 44.4128 8.24782 44.5016 8.211C44.5905 8.17417 44.6712 8.1202 44.7392 8.05216C44.8072 7.98417 44.8612 7.90345 44.898 7.8146C44.9348 7.72575 44.9538 7.63052 44.9538 7.53434C44.9538 7.43816 44.9348 7.34293 44.898 7.25408C44.8612 7.16523 44.8072 7.08451 44.7392 7.01652ZM45.1805 3.07394C45.1125 3.00592 45.0318 2.95196 44.943 2.91514C44.8541 2.87832 44.7589 2.85938 44.6627 2.85938C44.5665 2.85938 44.4713 2.87832 44.3824 2.91514C44.2936 2.95196 44.2129 3.00592 44.1449 3.07394C44.0768 3.14193 44.0229 3.22266 43.986 3.31152C43.9492 3.40038 43.9303 3.49562 43.9303 3.59181C43.9303 3.688 43.9492 3.78324 43.986 3.8721C44.0229 3.96096 44.0768 4.04169 44.1449 4.10968C44.2129 4.1777 44.2936 4.23167 44.3824 4.26848C44.4713 4.3053 44.5665 4.32425 44.6627 4.32425C44.7589 4.32425 44.8541 4.3053 44.943 4.26848C45.0318 4.23167 45.1125 4.1777 45.1805 4.10968C45.2486 4.04169 45.3025 3.96096 45.3394 3.8721C45.3762 3.78324 45.3951 3.688 45.3951 3.59181C45.3951 3.49562 45.3762 3.40038 45.3394 3.31152C45.3025 3.22266 45.2486 3.14193 45.1805 3.07394ZM46.938 4.81691C46.8701 4.74887 46.7893 4.6949 46.7005 4.65807C46.6116 4.62125 46.5164 4.6023 46.4202 4.6023C46.324 4.6023 46.2287 4.62125 46.1399 4.65807C46.051 4.6949 45.9703 4.74887 45.9023 4.81691C45.8343 4.8849 45.7803 4.96563 45.7435 5.05449C45.7066 5.14335 45.6877 5.23859 45.6877 5.33478C45.6877 5.43097 45.7066 5.52621 45.7435 5.61507C45.7803 5.70393 45.8343 5.78466 45.9023 5.85265C45.9703 5.92069 46.051 5.97466 46.1399 6.01149C46.2287 6.04831 46.324 6.06726 46.4202 6.06726C46.5164 6.06726 46.6116 6.04831 46.7005 6.01149C46.7893 5.97466 46.8701 5.92069 46.938 5.85265C47.0061 5.78466 47.0601 5.70393 47.0969 5.61507C47.1337 5.52621 47.1527 5.43097 47.1527 5.33478C47.1527 5.23859 47.1337 5.14335 47.0969 5.05449C47.0601 4.96563 47.0061 4.8849 46.938 4.81691Z" fill="#F92596"/>
</g>
<defs>
<clipPath id="clip0_1264_1429">
<rect width="50" height="50" fill="white"/>
</clipPath>
</defs>
</svg>
