<svg width="44" height="44" viewBox="0 0 44 44" fill="none" xmlns="http://www.w3.org/2000/svg">
<path d="M37.9402 4.40847C34.4485 2.80196 29.9147 5.16274 27.8331 9.67077C26.6543 12.2236 26.4601 14.9941 27.3007 17.2718C27.9023 18.9014 28.9705 20.1081 30.3908 20.7615C31.1242 21.0972 31.9218 21.2693 32.7283 21.2656C35.7018 21.2656 38.8595 19.0476 40.4979 15.4992C41.6767 12.9464 41.8707 10.1758 41.0302 7.89822C40.4289 6.26893 39.3605 5.0622 37.9402 4.40847ZM37.9631 5.58736C38.6853 6.03453 39.2768 6.66426 39.6779 7.41302L39.5179 7.75935L37.4087 6.78894L37.9631 5.58736ZM30.6761 13.3696L31.4724 11.645L33.582 12.6156L32.7857 14.3402L30.6761 13.3696ZM32.3534 15.2765L31.5571 17.001L29.4475 16.0304L30.2438 14.3059L32.3534 15.2765ZM31.9047 10.7088L32.7011 8.98421L34.8106 9.95479L34.0141 11.6797L31.9047 10.7088ZM34.5188 13.0463L36.6284 14.0169L35.8321 15.7415L33.7225 14.7709L34.5188 13.0463ZM34.9512 12.1096L35.7475 10.3851L37.8571 11.3557L37.0607 13.0803L34.9512 12.1096ZM36.1798 9.44991L36.9761 7.72566L39.0856 8.69624L38.2893 10.4207L36.1798 9.44991ZM34.5212 5.04235C34.8705 4.96969 35.2263 4.93243 35.5831 4.93114C36.073 4.92972 36.56 5.00594 37.026 5.15699L36.4719 6.35814L34.3619 5.38747L34.5212 5.04235ZM33.9295 6.32376L36.0391 7.29434L35.243 9.01893L33.1334 8.04835L33.9295 6.32376ZM32.6649 5.74179L32.9929 5.8927L32.1966 7.61729L30.931 7.03498C31.4505 6.53067 32.0334 6.09598 32.6649 5.74179ZM30.1939 7.8311L31.7642 8.55358L30.9679 10.278L29.1133 9.42473C29.4229 8.8609 29.7847 8.32735 30.1939 7.8311ZM28.659 10.351L30.5356 11.2147L29.7393 12.9393L28.0607 12.167C28.2048 11.5448 28.405 10.9369 28.659 10.351ZM27.8804 15.3096C27.7948 14.6149 27.794 13.9124 27.8778 13.2175L29.307 13.875L28.5107 15.5996L27.8804 15.3096ZM30.3657 19.5814C29.6437 19.1337 29.0525 18.5036 28.6516 17.7546L29.0153 16.967L31.1248 17.9376L30.3657 19.5814ZM33.806 20.13C32.9755 20.3096 32.1125 20.2692 31.3025 20.0126L32.0616 18.3685L34.1711 19.3391L33.806 20.13ZM34.6035 18.4026L32.4939 17.4324L33.2903 15.7078L35.3998 16.6784L34.6035 18.4026ZM36.17 19.1234L35.5403 18.8337L36.3366 17.1091L37.7639 17.7657C37.2885 18.2802 36.7534 18.7361 36.17 19.1237V19.1234ZM38.4473 16.9452L36.7689 16.1733L37.5652 14.4487L39.444 15.3131C39.1624 15.8865 38.8289 16.4329 38.4477 16.9455L38.4473 16.9452ZM39.8551 14.3671L37.9971 13.5122L38.7935 11.7876L40.3699 12.513C40.2567 13.1458 40.0845 13.7666 39.8556 14.3673L39.8551 14.3671ZM40.4983 11.4366L39.2257 10.8511L40.022 9.12661L40.3531 9.27889C40.4964 9.98874 40.5454 10.7144 40.4987 11.437L40.4983 11.4366Z" fill="#F39F5F"/>
<path d="M38.9204 2.28653C34.4489 0.229354 28.6782 3.17521 26.0566 8.85353C24.5877 12.0349 24.3526 15.506 25.4121 18.3766C25.9567 19.8524 26.8018 21.059 27.8934 21.9409L25.8448 26.3779L25.6224 26.3304C25.3804 26.2786 25.1346 26.2464 24.8875 26.2342L24.5117 25.6895C24.2072 25.249 24.0766 24.7113 24.1453 24.1802C24.2466 23.3967 24.0541 22.6034 23.6049 21.9534L12.2683 5.52697C11.7704 4.80835 11.0082 4.31617 10.1484 4.1581C9.28856 4.00003 8.40113 4.18894 7.68024 4.68349C7.3235 4.92856 7.01859 5.24157 6.78298 5.60462C6.54736 5.96766 6.38566 6.37362 6.30713 6.79923C6.2286 7.22485 6.23478 7.66178 6.32532 8.08501C6.41587 8.50823 6.58899 8.90945 6.83478 9.26568L13.4643 18.8718C11.602 18.5298 9.68298 18.6742 7.89287 19.2912C6.10275 19.9082 4.50218 20.9767 3.24603 22.3935C1.98988 23.8103 1.12068 25.5273 0.722524 27.3784C0.324372 29.2295 0.410752 31.152 0.973305 32.96C1.53586 34.7679 2.55554 36.4001 3.93368 37.6985C5.31183 38.9969 7.00178 39.9176 8.84001 40.3716C10.6782 40.8255 12.6025 40.7973 14.4267 40.2897C16.2508 39.782 17.913 38.8122 19.2525 37.4739C19.3308 37.3956 19.4078 37.3161 19.4837 37.2354C19.2403 37.9289 19.2 38.6773 19.3673 39.3929C19.5346 40.1085 19.9026 40.7615 20.4282 41.2751C20.9538 41.7888 21.615 42.1418 22.3342 42.2927C23.0535 42.4436 23.8008 42.3861 24.4885 42.1269C25.1762 41.8678 25.7756 41.4178 26.2164 40.8297C26.6572 40.2417 26.921 39.5401 26.9769 38.8073C27.0327 38.0746 26.8783 37.3411 26.5318 36.6931C26.1852 36.045 25.6609 35.5093 25.0204 35.1489L25.8534 35.3208L26.7822 35.8239L29.0959 39.1767L29.0281 39.2231C28.9004 39.311 28.7912 39.4231 28.7069 39.5532C28.6225 39.6832 28.5646 39.8287 28.5365 39.9811C28.5084 40.1336 28.5106 40.2901 28.5431 40.4417C28.5755 40.5933 28.6375 40.737 28.7256 40.8646C29.0886 41.3889 29.6445 41.748 30.2717 41.8634C30.8989 41.9788 31.5463 41.841 32.0721 41.4802L33.4282 40.5477C33.712 40.3522 33.9505 40.0981 34.1277 39.8025L34.7035 40.1144C35.2893 40.4327 35.9753 40.5131 36.6189 40.3389L38.8597 39.7359C38.9942 39.6997 39.118 39.6317 39.2206 39.5374C39.3232 39.4432 39.4015 39.3256 39.4488 39.1947C39.4962 39.0637 39.5112 38.9232 39.4927 38.7852C39.4741 38.6472 39.4225 38.5157 39.3423 38.4018L37.641 35.9898L40.8237 34.645C40.8273 34.6435 40.8308 34.6419 40.8343 34.6404C40.9647 34.5819 41.0785 34.492 41.1657 34.3788C41.2528 34.2656 41.3106 34.1325 41.3338 33.9915C41.3569 33.8506 41.3448 33.706 41.2985 33.5709C41.2522 33.4357 41.1731 33.3141 41.0683 33.217L38.7975 30.9988L41.2901 29.4102C41.4085 29.3348 41.5067 29.2318 41.5763 29.1099C41.646 28.9881 41.6849 28.8512 41.6898 28.7109C41.6947 28.5707 41.6655 28.4314 41.6045 28.305C41.5436 28.1786 41.4528 28.0689 41.34 27.9854L39.5029 26.6251C39.0027 26.2543 38.3859 26.0756 37.765 26.1215L29.6267 26.6471L31.1163 23.4209C31.5561 23.5005 32.0023 23.5403 32.4493 23.5399C36.2313 23.5399 40.2212 20.7676 42.2761 16.3172C43.7451 13.1358 43.9801 9.66469 42.9206 6.79412C42.1441 4.69209 40.7614 3.13361 38.9204 2.28653ZM24.9324 27.271L23.5283 33.8168C23.0581 33.7653 22.3834 33.6364 21.9489 33.0884C22.3035 31.9907 22.4835 30.844 22.4823 29.6904C22.4821 29.2907 22.4605 28.8913 22.4176 28.4939C22.6855 27.6857 23.7596 27.1819 24.9324 27.271ZM22.6095 34.6865C22.0013 34.7684 21.4216 34.995 20.9191 35.3472C21.1531 34.9594 21.3626 34.5573 21.5464 34.1433C21.8611 34.3933 22.2225 34.578 22.6095 34.6865ZM13.1015 19.8547C13.7351 19.9594 14.3571 20.1246 14.9591 20.3482C15.0693 20.3897 15.1904 20.3922 15.3022 20.3553C15.414 20.3184 15.5099 20.2443 15.5738 20.1454V20.1448C15.6154 20.0801 15.642 20.007 15.6517 19.9307C15.6614 19.8544 15.654 19.7769 15.6298 19.7039C15.6057 19.6309 15.5656 19.5642 15.5124 19.5087C15.4591 19.4532 15.3942 19.4103 15.3222 19.3832C15.2117 19.342 15.1005 19.3034 14.989 19.2659L7.68359 8.67959C7.51478 8.43494 7.39589 8.15939 7.33373 7.86873C7.27156 7.57806 7.26734 7.27799 7.3213 6.98569C7.37526 6.6934 7.48635 6.41461 7.6482 6.16531C7.81005 5.916 8.01949 5.70107 8.26453 5.53282C8.76025 5.19279 9.37046 5.06291 9.96169 5.17158C10.5529 5.28026 11.0771 5.61864 11.4195 6.11272L22.7555 22.5392C23.06 22.9798 23.1905 23.5175 23.1218 24.0487C23.0206 24.8322 23.2131 25.6254 23.6623 26.2753L23.7041 26.3354C23.1397 26.4569 22.6141 26.7158 22.1737 27.089C21.6978 25.1247 20.6866 23.3307 19.2525 21.9064C19.0388 21.693 18.8185 21.4904 18.5917 21.2986C18.5403 21.2526 18.4802 21.2175 18.415 21.1952C18.3497 21.1729 18.2807 21.164 18.2119 21.1688C18.1432 21.1737 18.0761 21.1923 18.0146 21.2235C17.9532 21.2548 17.8986 21.298 17.8541 21.3507C17.8097 21.4034 17.7763 21.4645 17.7558 21.5303C17.7354 21.5962 17.7284 21.6654 17.7352 21.734C17.742 21.8026 17.7625 21.8692 17.7954 21.9297C17.8284 21.9903 17.8732 22.0436 17.9271 22.0865C18.0017 22.1499 18.0747 22.2154 18.1479 22.2818L14.7111 25.7124C14.019 24.9203 13.5148 23.982 13.2361 22.9677C12.9574 21.9534 12.9114 20.8893 13.1015 19.8547ZM21.3161 28.0459C20.2792 28.2371 19.2125 28.1921 18.1954 27.9142C17.1783 27.6364 16.2368 27.1329 15.4411 26.4412L18.8786 23.0095C20.1595 24.4183 21.006 26.1673 21.3161 28.0459ZM11.4558 19.7189C11.6624 19.7189 11.8689 19.7254 12.0753 19.7384C11.8666 20.9271 11.9296 22.1477 12.2593 23.3087C12.589 24.4698 13.1771 25.5412 13.9794 26.4429L11.4558 28.9618L4.763 22.281C6.5996 20.6275 8.98455 19.7145 11.4558 19.7189ZM1.46128 29.6904C1.4546 27.2204 2.37213 24.8373 4.03348 23.0095L10.7263 29.6904L8.21692 32.1952C7.30467 31.3997 6.22706 30.8168 5.06199 30.4887C3.89692 30.1606 2.67351 30.0955 1.48019 30.298C1.46807 30.0965 1.46128 29.8939 1.46128 29.6904ZM1.5944 31.3232C2.6336 31.129 3.70325 31.1722 4.72339 31.4496C5.74353 31.7271 6.68776 32.2315 7.4855 32.9252L4.03331 36.3713C2.74989 34.9595 1.9028 33.2063 1.5944 31.3234V31.3232ZM9.82214 39.5281C7.93772 39.2209 6.18154 38.3778 4.76335 37.0995L8.21563 33.6534C8.90989 34.4476 9.41512 35.3889 9.69337 36.4064C9.97161 37.4239 10.0156 38.4913 9.82214 39.5283V39.5281ZM10.8475 39.6424C11.0491 38.4517 10.9831 37.231 10.6543 36.0689C10.3254 34.9068 9.74206 33.8325 8.94644 32.9238L11.4558 30.4189L18.1486 37.0997C17.1617 37.9876 16.0077 38.6698 14.7541 39.1065C13.5005 39.5431 12.1724 39.7255 10.8475 39.6429V39.6424ZM18.8789 36.3709L12.1863 29.6904L14.7107 27.1705C16.179 28.4732 18.0738 29.1927 20.0368 29.1929C20.5043 29.1924 20.9709 29.152 21.4315 29.0719C21.444 29.277 21.451 29.4832 21.451 29.6906C21.4576 32.1605 20.5401 34.5434 18.8789 36.3711V36.3709ZM25.9568 38.5118C25.9568 39.0714 25.7908 39.6185 25.4799 40.0839C25.1689 40.5493 24.727 40.9119 24.2099 41.1261C23.6928 41.3403 23.1238 41.3963 22.5749 41.2871C22.026 41.1779 21.5217 40.9084 21.126 40.5127C20.7302 40.1169 20.4607 39.6127 20.3515 39.0638C20.2423 38.5148 20.2984 37.9459 20.5125 37.4288C20.7267 36.9117 21.0894 36.4697 21.5548 36.1588C22.0201 35.8478 22.5672 35.6819 23.1269 35.6818C23.8772 35.6827 24.5966 35.9811 25.1271 36.5117C25.6577 37.0423 25.9561 37.7617 25.9568 38.512V38.5118ZM25.6375 34.2202L24.5465 33.9871L25.9473 27.4548L27.0383 27.688L25.6375 34.2202ZM28.7832 36.9077L30.8038 38.0022L29.9456 38.5923L28.7832 36.9077ZM32.8439 39.698L31.4878 40.6305C31.1872 40.8367 30.8171 40.9155 30.4585 40.8496C30.1 40.7837 29.7821 40.5785 29.5744 40.2789C29.5632 40.2629 29.5554 40.2448 29.5513 40.2257C29.5472 40.2067 29.5469 40.187 29.5505 40.1678C29.554 40.1486 29.5613 40.1304 29.572 40.114C29.5826 40.0977 29.5964 40.0836 29.6125 40.0726L31.8219 38.5534L33.2187 39.3097C33.1207 39.4625 32.9933 39.5944 32.8439 39.6977V39.698ZM38.3622 38.8019L36.3508 39.3433C35.9623 39.4486 35.5481 39.4001 35.1945 39.2078L26.6187 34.5628L27.0054 32.7581L36.2017 36.0924C36.4193 36.1709 36.6074 36.3145 36.7405 36.5037L38.3622 38.8019ZM40.1841 33.7959L36.7937 35.2283L27.2241 31.7402L27.4452 30.709L37.4709 31.4394C37.5653 31.4392 37.6595 31.4328 37.753 31.4202L40.1841 33.7959ZM37.8362 27.1507C38.2122 27.122 38.5858 27.2298 38.8887 27.4544L40.5314 28.6707L38.083 30.2313C37.8768 30.3622 37.634 30.4234 37.3905 30.4059L27.6636 29.6913L28.0735 27.7805L37.8362 27.1507ZM28.4551 26.7227L27.6889 26.7722L26.878 26.5988L28.7525 22.5391C28.966 22.6653 29.1858 22.7805 29.4111 22.8842C29.6361 22.9875 29.8663 23.079 30.1009 23.1583L28.4551 26.7227ZM41.339 15.8849C38.9552 21.0475 33.7979 23.7672 29.8421 21.9473C28.2552 21.2168 27.0578 19.859 26.3789 18.02C25.4137 15.4042 25.6372 12.2208 26.9924 9.28605C28.8739 5.21115 32.4833 2.65829 35.866 2.65829C36.7711 2.65414 37.6662 2.84707 38.4892 3.22367C40.0761 3.95414 41.2736 5.31196 41.9525 7.15102C42.9175 9.76678 42.6941 12.9502 41.339 15.8849Z" fill="#F39F5F"/>
<path d="M9.3011 7.3297L9.20287 7.18223C9.16583 7.12479 9.11774 7.07529 9.0614 7.0366C9.00506 6.99792 8.94159 6.97082 8.87468 6.95688C8.80777 6.94294 8.73876 6.94245 8.67165 6.95542C8.60455 6.96839 8.54069 6.99458 8.4838 7.03245C8.42691 7.07033 8.37811 7.11913 8.34025 7.17603C8.30239 7.23293 8.27622 7.29679 8.26326 7.3639C8.2503 7.43101 8.25081 7.50002 8.26476 7.56692C8.27871 7.63383 8.30583 7.6973 8.34453 7.75363L8.44267 7.9011C8.47991 7.9581 8.52806 8.00716 8.58436 8.04545C8.64066 8.08375 8.70399 8.11051 8.77068 8.12419C8.83738 8.13788 8.90613 8.13823 8.97296 8.1252C9.03979 8.11218 9.10338 8.08606 9.16005 8.04833C9.21673 8.0106 9.26538 7.96202 9.30318 7.9054C9.34099 7.84877 9.3672 7.78522 9.38032 7.7184C9.39343 7.65159 9.39318 7.58285 9.37958 7.51613C9.36599 7.44942 9.33931 7.38605 9.3011 7.3297ZM10.1722 8.63836C10.0957 8.52618 9.97804 8.44869 9.84478 8.42271C9.71151 8.39674 9.57338 8.42437 9.46037 8.49961C9.34735 8.57486 9.26858 8.69164 9.24114 8.82461C9.2137 8.95758 9.23982 9.09601 9.31382 9.20984L12.989 14.7308C13.0261 14.7882 13.0741 14.8378 13.1305 14.8764C13.1868 14.9151 13.2503 14.9422 13.3172 14.9562C13.3841 14.9701 13.4531 14.9706 13.5202 14.9576C13.5873 14.9447 13.6512 14.9185 13.7081 14.8806C13.765 14.8427 13.8138 14.7939 13.8516 14.737C13.8895 14.6801 13.9157 14.6163 13.9286 14.5491C13.9416 14.482 13.9411 14.413 13.9271 14.3461C13.9132 14.2792 13.8861 14.2157 13.8474 14.1594L10.1722 8.63836Z" fill="#F39F5F"/>
</svg>
