<svg width="44" height="44" viewBox="0 0 44 44" fill="none" xmlns="http://www.w3.org/2000/svg">
<path d="M21.9999 41.25C25.3157 41.25 28.5752 40.3934 31.4627 38.7634C34.3501 37.1334 36.7676 34.7853 38.4809 31.9464C40.1941 29.1076 41.145 25.8743 41.2415 22.5599C41.3379 19.2456 40.5766 15.9625 39.0314 13.0288C38.9439 12.8714 38.7982 12.7545 38.6255 12.7034C38.4528 12.6523 38.2669 12.671 38.1078 12.7554C37.9488 12.8399 37.8292 12.9835 37.7749 13.1552C37.7205 13.3269 37.7357 13.5131 37.8172 13.6737C39.1706 16.2403 39.877 19.0985 39.8749 22C38.8952 45.7098 5.10461 45.7098 4.12492 22C3.95992 8.74363 18.6999 -0.141621 30.3269 6.18338C30.4067 6.22568 30.494 6.25185 30.5839 6.2604C30.6738 6.26895 30.7645 6.25972 30.8508 6.23323C30.9371 6.20673 31.0173 6.1635 31.0869 6.10599C31.1565 6.04848 31.2141 5.97783 31.2564 5.89807C31.2987 5.8183 31.3249 5.73098 31.3334 5.6411C31.342 5.55122 31.3328 5.46054 31.3063 5.37423C31.2798 5.28791 31.2365 5.20767 31.179 5.13806C31.1215 5.06846 31.0509 5.01086 30.9711 4.96857C28.2059 3.50974 25.1263 2.74816 21.9999 2.75C-3.53383 3.80532 -3.53383 40.1954 21.9999 41.25Z" fill="white"/>
<path d="M21.9997 16.5C22.5948 16.4996 23.1859 16.5983 23.7487 16.7922C23.9211 16.8515 24.11 16.84 24.2738 16.76C24.4377 16.6801 24.5631 16.5383 24.6225 16.3659C24.925 15.1511 22.7834 15.1993 21.9997 15.125C12.88 15.5017 12.8807 28.4983 21.9997 28.875C23.8224 28.873 25.5699 28.148 26.8588 26.8591C28.1477 25.5703 28.8727 23.8227 28.8747 22C28.8045 21.2025 28.8506 19.0829 27.6399 19.3841C27.4677 19.4434 27.3261 19.5687 27.2461 19.7324C27.1662 19.8961 27.1545 20.0849 27.2137 20.2572C27.4052 20.8182 27.5018 21.4072 27.4997 22C27.224 29.2854 16.7747 29.2854 16.4997 22C16.5015 20.5419 17.0815 19.144 18.1126 18.1129C19.1436 17.0819 20.5415 16.5018 21.9997 16.5Z" fill="white"/>
<path d="M28.5825 11.5053C28.6263 11.4263 28.6541 11.3395 28.6644 11.2497C28.6746 11.16 28.6671 11.0691 28.6422 10.9822C28.6173 10.8954 28.5755 10.8143 28.5193 10.7437C28.463 10.673 28.3934 10.6141 28.3144 10.5703C26.3815 9.50055 24.2088 8.93875 21.9997 8.9375C4.67329 9.65388 4.67329 34.3468 21.9997 35.0625C24.272 35.0639 26.5053 34.4721 28.4787 33.3457C30.4522 32.2193 32.0975 30.5974 33.252 28.6402C34.4064 26.683 35.03 24.4584 35.0611 22.1863C35.0922 19.9142 34.5298 17.6734 33.4294 15.6853C33.3409 15.5258 33.1927 15.4079 33.0174 15.3576C32.842 15.3073 32.6539 15.3288 32.4944 15.4172C32.3348 15.5056 32.2169 15.6538 32.1666 15.8292C32.1164 16.0045 32.1378 16.1926 32.2262 16.3522C36.585 23.9092 30.7309 33.8388 21.9997 33.6875C18.901 33.684 15.9303 32.4516 13.7392 30.2605C11.5481 28.0694 10.3156 25.0987 10.3122 22C10.1623 13.2694 20.0891 7.41469 27.6475 11.7734C27.7264 11.8174 27.8133 11.8454 27.9031 11.8558C27.9929 11.8661 28.0838 11.8586 28.1707 11.8337C28.2576 11.8088 28.3387 11.7669 28.4094 11.7106C28.48 11.6542 28.5389 11.5845 28.5825 11.5053Z" fill="white"/>
<path d="M29.9231 9.55491L30.1754 12.8529L21.5143 21.514C21.389 21.6436 21.3197 21.8173 21.3213 21.9976C21.3229 22.1778 21.3952 22.3503 21.5227 22.4777C21.6501 22.6052 21.8226 22.6775 22.0028 22.6791C22.1831 22.6806 22.3567 22.6113 22.4864 22.4861L31.1475 13.825L34.4455 14.0773C34.5443 14.0848 34.6435 14.0709 34.7364 14.0365C34.8293 14.0021 34.9137 13.948 34.9838 13.8779L39.9874 8.87429C40.0784 8.78055 40.1409 8.663 40.1679 8.53521C40.1949 8.40741 40.1852 8.27459 40.1399 8.15209C40.0946 8.02958 40.0156 7.92238 39.912 7.84288C39.8083 7.76338 39.6843 7.71481 39.5543 7.70279L36.5293 7.4711L36.2976 4.4461C36.2856 4.31604 36.237 4.19204 36.1575 4.08841C36.078 3.98478 35.9708 3.90576 35.8483 3.86046C35.7258 3.81517 35.593 3.80546 35.4652 3.83244C35.3374 3.85943 35.2198 3.92202 35.1261 4.01298L30.1225 9.0166C30.0523 9.08661 29.9982 9.17098 29.9638 9.2639C29.9294 9.35683 29.9155 9.45611 29.9231 9.55491ZM35.0408 6.04248C35.3158 9.24416 34.7741 8.68041 37.9579 8.95954L34.2351 12.6824L31.5257 12.4747L31.318 9.76598L35.0408 6.04248Z" fill="white"/>
</svg>
