<svg width="50" height="50" viewBox="0 0 50 50" fill="none" xmlns="http://www.w3.org/2000/svg">
<path d="M11.8155 16.2107C9.66166 16.2107 7.9092 17.9632 7.9092 20.117C7.9092 22.2708 9.66166 24.0233 11.8155 24.0233C13.9697 24.0233 15.7218 22.2708 15.7218 20.117C15.7218 17.9632 13.9697 16.2107 11.8155 16.2107ZM11.8155 22.0702C10.7386 22.0702 9.86234 21.1939 9.86234 20.117C9.86234 19.0401 10.7386 18.1639 11.8155 18.1639C12.8927 18.1639 13.7686 19.0401 13.7686 20.117C13.7686 21.1939 12.8927 22.0702 11.8155 22.0702ZM26.464 15.2342C26.464 13.0803 24.712 11.3279 22.5578 11.3279C20.4039 11.3279 18.6515 13.0803 18.6515 15.2342C18.6515 17.388 20.4039 19.1404 22.5578 19.1404C24.712 19.1404 26.464 17.388 26.464 15.2342ZM20.6046 15.2342C20.6046 14.1573 21.4809 13.281 22.5578 13.281C23.635 13.281 24.5109 14.1573 24.5109 15.2342C24.5109 16.311 23.635 17.1873 22.5578 17.1873C21.4809 17.1873 20.6046 16.311 20.6046 15.2342ZM4.97949 31.8359C4.97949 33.9897 6.73195 35.7421 8.88577 35.7421C11.04 35.7421 12.7921 33.9897 12.7921 31.8359C12.7921 29.682 11.04 27.9296 8.88577 27.9296C6.73195 27.9296 4.97949 29.682 4.97949 31.8359ZM8.88577 29.8827C9.96303 29.8827 10.8389 30.759 10.8389 31.8359C10.8389 32.9127 9.96303 33.789 8.88577 33.789C7.80891 33.789 6.93263 32.9127 6.93263 31.8359C6.93263 30.759 7.80891 29.8827 8.88577 29.8827ZM13.7686 39.6484C13.7686 41.8022 15.5211 43.5547 17.6749 43.5547C19.8291 43.5547 21.5812 41.8022 21.5812 39.6484C21.5812 37.4946 19.8291 35.7421 17.6749 35.7421C15.5211 35.7421 13.7686 37.4946 13.7686 39.6484ZM19.628 39.6484C19.628 40.7253 18.7522 41.6016 17.6749 41.6016C16.598 41.6016 15.7218 40.7253 15.7218 39.6484C15.7218 38.5716 16.598 37.6953 17.6749 37.6953C18.7522 37.6953 19.628 38.5716 19.628 39.6484Z" fill="#39C0FA"/>
<path d="M40.1644 9.2871C40.1644 6.96354 36.7837 1.52024 36.1058 0.452947C36.0176 0.314158 35.8959 0.199876 35.7518 0.120695C35.6077 0.0415148 35.4459 0 35.2815 0C35.117 0 34.9553 0.0415148 34.8112 0.120695C34.6671 0.199876 34.5453 0.314158 34.4571 0.452947C33.8647 1.38557 31.2101 5.65807 30.5481 8.27195C24.4103 5.75045 18.0126 5.8191 12.3947 8.49656C6.80868 11.159 2.30396 16.3378 0.707854 22.858C0.579239 23.3821 0.900141 23.9105 1.42388 24.0387C1.502 24.0577 1.58022 24.0668 1.65698 24.0668C2.09644 24.0668 2.49586 23.7682 2.60494 23.3222C3.99225 17.6543 7.96651 12.7706 13.235 10.2596C18.5622 7.72087 24.6833 7.77078 30.5245 10.3877C30.8308 11.7133 31.6827 12.8516 32.8546 13.5238C32.2797 15.6162 31.8318 18.792 31.5773 22.6204C31.474 24.1745 31.4042 25.8243 31.3698 27.5326C27.6616 29.6605 25.2194 33.7094 25.5253 38.5453C25.6413 40.3726 25.8164 43.134 22.9394 45.6419C20.8843 47.4337 17.8597 47.9261 15.0462 46.9274C8.06299 44.449 3.01119 38.0979 2.17535 30.7469C2.1148 30.2109 1.62983 29.8264 1.09506 29.8867C0.559024 29.9477 0.174158 30.4314 0.234803 30.9673C1.17251 39.2167 6.78466 46.0676 14.3931 48.7681C17.8715 50.0028 21.6377 49.3677 24.223 47.114C27.8263 43.9725 27.5974 40.3616 27.4743 38.4214C27.2465 34.8176 28.8171 31.7688 31.3466 29.8787V29.8826C31.3466 34.5078 31.701 43.572 33.1918 47.7983C33.4038 48.4003 33.9681 49.9998 35.2529 49.9998C36.538 49.9998 37.1023 48.4003 37.3144 47.7983C38.7959 43.5983 39.1591 34.601 39.1591 29.8825C39.1591 29.2123 39.1534 28.5527 39.1423 27.9091C39.4437 27.9049 39.7493 27.9045 40.0587 27.9095C41.9081 27.9366 43.588 26.8113 44.2431 25.1065C46.0379 20.4311 42.7018 15.7741 38.7669 12.7063C39.6628 11.7937 40.1646 10.5659 40.1644 9.2871ZM35.2816 2.84857C36.6903 5.23355 38.2113 8.21248 38.2113 9.2871C38.2113 10.9827 36.8024 12.2541 35.22 12.2188C33.6461 12.1832 32.3519 10.8987 32.3519 9.2871C32.3519 8.21248 33.8724 5.23355 35.2816 2.84857ZM35.2816 14.17C35.4539 14.17 35.6255 14.16 35.7952 14.142C36.2738 15.9304 36.6697 18.656 36.9164 21.8765C35.8118 22.0175 34.6936 22.015 33.5897 21.8691C33.8364 18.6492 34.2332 15.9247 34.7123 14.1364C34.9004 14.1584 35.0904 14.17 35.2815 14.17H35.2816ZM35.2529 47.6868C33.6751 44.312 33.2997 34.1473 33.2997 29.8828C33.2997 29.3373 33.3123 28.136 33.3127 28.1329C33.3352 26.6456 33.3856 25.2013 33.4614 23.8227C34.0652 23.8976 34.673 23.9352 35.2815 23.9353C35.872 23.9353 36.4621 23.8997 37.0454 23.8292C37.1032 24.8919 37.1448 25.9555 37.1704 27.0195C37.1942 27.9358 37.206 28.899 37.206 29.8828C37.206 34.2804 36.8089 44.3591 35.2529 47.6868ZM42.4196 24.4064C42.0572 25.3493 41.1195 25.9742 40.0892 25.9571C39.7573 25.9518 39.4254 25.9516 39.0935 25.9567C39.0558 24.8244 39.0008 23.7098 38.9294 22.6317C38.9292 22.6253 38.928 22.6187 38.9272 22.6122C38.7101 19.3442 38.3516 16.5522 37.8942 14.5052C41.8467 17.7043 43.5709 21.4076 42.4196 24.4064Z" fill="#39C0FA"/>
<path d="M2.0498 26.9531C2.0498 27.4925 1.6127 27.9297 1.07324 27.9297C0.53418 27.9297 0.0966797 27.4925 0.0966797 26.9531C0.0966797 26.4138 0.53418 25.9766 1.07324 25.9766C1.6127 25.9766 2.0498 26.4138 2.0498 26.9531Z" fill="#39C0FA"/>
</svg>
