<svg width="50" height="50" viewBox="0 0 50 50" fill="none" xmlns="http://www.w3.org/2000/svg">
<g clip-path="url(#clip0_1257_1266)">
<path d="M16.3332 24.0221C15.9886 25.598 14.5827 26.7817 12.905 26.7817C12.4577 26.7817 12.095 27.1442 12.095 27.5917C12.095 28.0391 12.4577 28.4016 12.905 28.4016C15.4724 28.4016 17.605 26.5056 17.9769 24.0403C19.5488 23.8703 20.9999 23.1698 22.1232 22.0233C22.2702 21.8692 22.3506 21.6634 22.347 21.4505C22.3434 21.2376 22.256 21.0347 22.1039 20.8856C21.9518 20.7366 21.7472 20.6535 21.5342 20.6542C21.3213 20.6549 21.1172 20.7395 20.9661 20.8896C19.9727 21.9036 18.644 22.4621 17.2246 22.4621C14.3366 22.4621 11.9871 20.1125 11.9871 17.2245C11.9871 16.7771 11.6244 16.4146 11.1771 16.4146C10.7298 16.4146 10.3672 16.7771 10.3672 17.2245C10.3672 20.7034 12.9718 23.5834 16.3332 24.0221ZM19.7624 31.0474C19.7624 30.8326 19.6771 30.6266 19.5252 30.4747C19.3733 30.3228 19.1673 30.2374 18.9525 30.2374C15.1713 30.2374 12.095 33.3137 12.095 37.0949C12.095 37.134 12.0965 37.1732 12.0971 37.2124C11.7922 37.1707 11.4849 37.1495 11.1771 37.1489C10.7298 37.1489 10.3672 37.5114 10.3672 37.9588C10.3672 38.4062 10.7298 38.7688 11.1771 38.7688C14.0651 38.7688 16.4147 41.1183 16.4147 44.0063C16.4147 44.4537 16.7773 44.8163 17.2246 44.8163C17.6719 44.8163 18.0346 44.4537 18.0346 44.0063C18.0346 41.1326 16.2568 38.6676 13.744 37.6492C13.7247 37.4651 13.715 37.28 13.7149 37.0949C13.7149 34.2069 16.0645 31.8573 18.9525 31.8573C19.1673 31.8573 19.3733 31.772 19.5252 31.6201C19.6771 31.4682 19.7624 31.2622 19.7624 31.0474Z" fill="#5866EB"/>
<path d="M47.4082 24.1361C47.409 23.2287 47.2291 22.3302 46.8792 21.493C46.5292 20.6557 46.0162 19.8966 45.3699 19.2596C45.576 18.601 45.6807 17.9148 45.6804 17.2246C45.6804 13.8905 43.2881 11.1059 40.1302 10.4936C40.3733 9.88679 40.4977 9.239 40.4968 8.58531C40.4968 6.47333 39.2135 4.65583 37.386 3.8703C34.3412 1.44525 31.011 0 28.4557 0C27.0353 0 25.7757 0.698488 25 1.76933C24.2243 0.698488 22.9647 0 21.5443 0C18.989 0 15.6589 1.44525 12.614 3.8703C10.7865 4.65583 9.50325 6.47333 9.50325 8.58531C9.50325 9.24708 9.62841 9.89201 9.86977 10.4936C6.71189 11.1059 4.31966 13.8905 4.31966 17.2246C4.31966 17.9177 4.42387 18.5999 4.63014 19.2596C3.98384 19.8966 3.47077 20.6557 3.12082 21.493C2.77087 22.3302 2.59104 23.2287 2.5918 24.1361C2.5918 25.5775 3.03986 26.9159 3.80271 28.0211C3.00994 29.1671 2.5918 30.5039 2.5918 31.9114C2.5918 34.4048 3.95109 36.6892 6.10325 37.8937C6.06616 38.2021 6.04756 38.5123 6.04752 38.8229C6.04752 42.1862 8.24137 45.1597 11.4244 46.1731C12.809 48.5427 15.331 50 18.0886 50C21.1118 50 23.7332 48.2526 25 45.7155C26.2669 48.2526 28.8882 50 31.9115 50C34.669 50 37.191 48.5427 38.5756 46.1731C41.7586 45.1596 43.9525 42.1861 43.9525 38.8229C43.9525 38.5125 43.9338 38.2017 43.8968 37.8937C46.0489 36.6892 47.4082 34.4048 47.4082 31.9114C47.4082 30.5039 46.9901 29.1671 46.1973 28.0211C46.9602 26.9159 47.4082 25.5775 47.4082 24.1361ZM18.0886 48.3801C15.8176 48.3801 13.7483 47.1281 12.688 45.1127C12.6361 45.014 12.5643 44.927 12.4772 44.8573C12.3901 44.7876 12.2895 44.7367 12.1818 44.7077C9.52376 43.9923 7.66739 41.5725 7.66739 38.8229C7.66739 38.4114 7.70886 37.9994 7.79061 37.5978C7.8274 37.4171 7.80141 37.2292 7.71694 37.0653C7.63246 36.9013 7.49456 36.7711 7.32603 36.6961C5.43413 35.8551 4.21167 33.9769 4.21167 31.9114C4.21167 30.972 4.4553 30.0741 4.9202 29.2787C6.12927 30.3447 7.71448 30.9935 9.44925 30.9935C9.89655 30.9935 10.2592 30.631 10.2592 30.1836C10.2592 29.7362 9.89655 29.3736 9.44925 29.3736C6.56124 29.3736 4.21167 27.0241 4.21167 24.1361C4.21167 22.5814 4.89763 21.1162 6.09374 20.1165C6.22533 20.0065 6.31861 19.8576 6.36015 19.6912C6.40168 19.5248 6.38932 19.3495 6.32484 19.1906C6.07033 18.5664 5.93947 17.8987 5.93953 17.2246C5.93953 14.3366 8.2891 11.987 11.1771 11.987C14.0651 11.987 16.4147 14.3366 16.4147 17.2246C16.4147 17.672 16.7773 18.0346 17.2246 18.0346C17.6719 18.0346 18.0346 17.672 18.0346 17.2246C18.0346 13.5916 15.1942 10.6109 11.6176 10.3828C11.2934 9.84093 11.1231 9.22473 11.1231 8.58531C11.1231 7.14158 11.9996 5.89903 13.2482 5.3608C13.297 5.34636 13.3443 5.32731 13.3894 5.30389C13.7865 5.15275 14.2079 5.07538 14.6328 5.07559C15.9889 5.07559 17.1995 5.8338 17.7922 7.05454C17.8387 7.15023 17.9035 7.23584 17.9831 7.30647C18.0626 7.3771 18.1553 7.43136 18.2558 7.46616C18.3563 7.50096 18.4627 7.51561 18.5689 7.50928C18.6751 7.50295 18.779 7.47576 18.8746 7.42927C18.9703 7.38282 19.0559 7.31798 19.1265 7.23845C19.1971 7.15892 19.2514 7.06626 19.2862 6.96575C19.321 6.86524 19.3357 6.75887 19.3293 6.6527C19.323 6.54653 19.2958 6.44264 19.2494 6.34698C18.5727 4.95356 17.292 3.95205 15.8172 3.5973C17.8843 2.33596 19.9194 1.61987 21.5443 1.61987C23.0031 1.61987 24.1901 2.8067 24.1901 4.26566V14.7463C23.4623 14.169 22.5432 13.8229 21.5443 13.8229C21.097 13.8229 20.7343 14.1854 20.7343 14.6328C20.7343 15.0802 21.097 15.4428 21.5443 15.4428C23.0031 15.4428 24.1901 16.6296 24.1901 18.0886V37.5571C23.1831 36.2579 21.7634 35.2773 20.0934 34.8286C19.9905 34.8003 19.8829 34.7926 19.777 34.806C19.6711 34.8194 19.5688 34.8536 19.4762 34.9066C19.3835 34.9597 19.3023 35.0305 19.2371 35.1151C19.1719 35.1996 19.1241 35.2963 19.0964 35.3994C19.0687 35.5025 19.0616 35.6101 19.0756 35.7159C19.0897 35.8218 19.1245 35.9238 19.1781 36.0161C19.2317 36.1085 19.303 36.1893 19.388 36.254C19.4729 36.3187 19.5698 36.3659 19.6731 36.393C22.3326 37.1076 24.1901 39.5278 24.1901 42.2786C24.1901 45.643 21.4529 48.3801 18.0886 48.3801ZM42.674 36.6962C42.5054 36.7712 42.3675 36.9014 42.283 37.0653C42.1986 37.2293 42.1726 37.4172 42.2094 37.5979C42.2913 38.0012 42.3326 38.4116 42.3326 38.823C42.3326 41.5726 40.4762 43.9924 37.8183 44.7078C37.7105 44.7368 37.6099 44.7877 37.5228 44.8574C37.4357 44.9271 37.3639 45.0141 37.312 45.1129C36.2517 47.1281 34.1824 48.3801 31.9115 48.3801C28.5471 48.3801 25.8099 45.643 25.8099 42.2786C25.8099 42.0509 25.7994 41.8251 25.7796 41.6014C25.7995 41.5307 25.8097 41.4576 25.8099 41.3841V14.6328C25.8099 13.1739 26.9969 11.987 28.4557 11.987C28.903 11.987 29.2657 11.6245 29.2657 11.1771C29.2657 10.7297 28.903 10.3672 28.4557 10.3672C27.4568 10.3672 26.5377 10.7133 25.8099 11.2906V4.26566C25.8099 2.8067 26.9969 1.61987 28.4557 1.61987C30.0806 1.61987 32.1157 2.33596 34.1828 3.5973C32.708 3.95194 31.4273 4.95356 30.7507 6.34698C30.7042 6.44264 30.677 6.54653 30.6707 6.6527C30.6644 6.75887 30.679 6.86524 30.7138 6.96575C30.7486 7.06626 30.8029 7.15892 30.8735 7.23845C30.9441 7.31798 31.0297 7.38282 31.1254 7.42927C31.2211 7.47575 31.325 7.50292 31.4311 7.50925C31.5373 7.51557 31.6437 7.50091 31.7442 7.46612C31.8447 7.43132 31.9374 7.37706 32.0169 7.30644C32.0965 7.23582 32.1613 7.15022 32.2078 7.05454C32.8005 5.8338 34.0111 5.07559 35.3672 5.07559C35.8049 5.07559 36.2239 5.1568 36.6106 5.30389C36.6562 5.32765 36.7035 5.34633 36.7515 5.36069C38.0003 5.89892 38.8769 7.14147 38.8769 8.58531C38.8769 9.22473 38.7066 9.84093 38.3824 10.3828C34.8058 10.6109 31.9655 13.5916 31.9655 17.2246C31.9655 17.672 32.3281 18.0346 32.7754 18.0346C33.2227 18.0346 33.5853 17.672 33.5853 17.2246C33.5853 14.3366 35.9349 11.987 38.8229 11.987C41.7109 11.987 44.0605 14.3366 44.0605 17.2246C44.0605 17.8989 43.9309 18.5604 43.6753 19.1906C43.6108 19.3495 43.5984 19.5248 43.64 19.6912C43.6815 19.8576 43.7748 20.0065 43.9064 20.1165C45.1024 21.1162 45.7883 22.5814 45.7883 24.1361C45.7883 27.0241 43.4388 29.3736 40.5508 29.3736C40.1035 29.3736 39.7408 29.7362 39.7408 30.1836C39.7408 30.631 40.1035 30.9935 40.5508 30.9935C42.2855 30.9935 43.8707 30.3447 45.0798 29.2787C45.5448 30.0741 45.7883 30.972 45.7883 31.9114C45.7883 33.9769 44.5659 35.8551 42.674 36.6962Z" fill="#5866EB"/>
<path d="M38.8226 25.918C37.1449 25.918 35.739 24.7343 35.3944 23.1583C38.7558 22.7197 41.3604 19.8397 41.3604 16.3607C41.3604 15.9133 40.9978 15.5508 40.5505 15.5508C40.1032 15.5508 39.7405 15.9133 39.7405 16.3607C39.7405 19.2487 37.391 21.5983 34.503 21.5983C33.0836 21.5983 31.7549 21.0399 30.7615 20.0258C30.6112 19.8724 30.406 19.785 30.1912 19.7828C29.9764 19.7806 29.7695 19.8638 29.6161 20.0141C29.4626 20.1645 29.3752 20.3696 29.373 20.5844C29.3708 20.7992 29.454 21.0061 29.6044 21.1595C30.7277 22.3061 32.1788 23.0065 33.7507 23.1765C34.1226 25.6418 36.2552 27.5378 38.8226 27.5378C39.2699 27.5378 39.6325 27.1753 39.6325 26.7279C39.6325 26.2805 39.2699 25.918 38.8226 25.918ZM36.2308 35.4212C35.9187 35.4212 35.612 35.4441 35.3108 35.4847C35.3115 35.4455 35.3129 35.4063 35.3129 35.3672C35.3129 31.586 32.2367 28.5097 28.4554 28.5097C28.0081 28.5097 27.6455 28.8723 27.6455 29.3197C27.6455 29.7671 28.0081 30.1296 28.4554 30.1296C31.3435 30.1296 33.693 32.4792 33.693 35.3672C33.693 35.5523 33.6833 35.7374 33.664 35.9215C31.1511 36.9399 29.3734 39.4049 29.3734 42.2786C29.3734 42.7261 29.736 43.0886 30.1833 43.0886C30.6306 43.0886 30.9932 42.7261 30.9932 42.2786C30.9932 39.3906 33.3428 37.0411 36.2308 37.0411C36.6781 37.0411 37.0408 36.6785 37.0408 36.2311C37.0408 35.7837 36.6781 35.4212 36.2308 35.4212Z" fill="#5866EB"/>
</g>
<defs>
<clipPath id="clip0_1257_1266">
<rect width="50" height="50" fill="white"/>
</clipPath>
</defs>
</svg>
