<svg width="17" height="17" viewBox="0 0 17 17" fill="none" xmlns="http://www.w3.org/2000/svg">
<path d="M5.66406 4.07288C5.37365 4.07288 5.13281 3.83204 5.13281 3.54163V1.41663C5.13281 1.12621 5.37365 0.885376 5.66406 0.885376C5.95448 0.885376 6.19531 1.12621 6.19531 1.41663V3.54163C6.19531 3.83204 5.95448 4.07288 5.66406 4.07288ZM11.3307 4.07288C11.0403 4.07288 10.7995 3.83204 10.7995 3.54163V1.41663C10.7995 1.12621 11.0403 0.885376 11.3307 0.885376C11.6211 0.885376 11.862 1.12621 11.862 1.41663V3.54163C11.862 3.83204 11.6211 4.07288 11.3307 4.07288ZM6.01823 10.2708C5.92615 10.2708 5.83406 10.2495 5.74906 10.2141C5.65698 10.1787 5.58615 10.1291 5.51531 10.0654C5.38781 9.93079 5.3099 9.75371 5.3099 9.56246C5.3099 9.47038 5.33115 9.37829 5.36656 9.29329C5.40198 9.20829 5.45156 9.13038 5.51531 9.05954C5.58615 8.99579 5.65698 8.94621 5.74906 8.91079C6.00406 8.80454 6.32281 8.86121 6.52115 9.05954C6.64865 9.19413 6.72656 9.37829 6.72656 9.56246C6.72656 9.60496 6.71948 9.65454 6.7124 9.70413C6.70531 9.74663 6.69115 9.78913 6.6699 9.83163C6.65573 9.87413 6.63448 9.91663 6.60615 9.95913C6.5849 9.99454 6.54948 10.03 6.52115 10.0654C6.38656 10.1929 6.2024 10.2708 6.01823 10.2708ZM8.4974 10.2708C8.40531 10.2708 8.31323 10.2495 8.22823 10.2141C8.13615 10.1787 8.06531 10.1291 7.99448 10.0654C7.86698 9.93079 7.78906 9.75371 7.78906 9.56246C7.78906 9.47038 7.81031 9.37829 7.84573 9.29329C7.88115 9.20829 7.93073 9.13038 7.99448 9.05954C8.06531 8.99579 8.13615 8.94621 8.22823 8.91079C8.48323 8.79746 8.80198 8.86121 9.00031 9.05954C9.12781 9.19413 9.20573 9.37829 9.20573 9.56246C9.20573 9.60496 9.19865 9.65454 9.19156 9.70413C9.18448 9.74663 9.17031 9.78913 9.14906 9.83163C9.1349 9.87413 9.11365 9.91663 9.08531 9.95913C9.06406 9.99454 9.02865 10.03 9.00031 10.0654C8.86573 10.1929 8.68156 10.2708 8.4974 10.2708ZM10.9766 10.2708C10.8845 10.2708 10.7924 10.2495 10.7074 10.2141C10.6153 10.1787 10.5445 10.1291 10.4736 10.0654L10.3886 9.95913C10.3618 9.91965 10.3404 9.87677 10.3249 9.83163C10.3044 9.79149 10.2901 9.74851 10.2824 9.70413C10.2753 9.65454 10.2682 9.60496 10.2682 9.56246C10.2682 9.37829 10.3461 9.19413 10.4736 9.05954C10.5445 8.99579 10.6153 8.94621 10.7074 8.91079C10.9695 8.79746 11.2811 8.86121 11.4795 9.05954C11.607 9.19413 11.6849 9.37829 11.6849 9.56246C11.6849 9.60496 11.6778 9.65454 11.6707 9.70413C11.6636 9.74663 11.6495 9.78913 11.6282 9.83163C11.6141 9.87413 11.5928 9.91663 11.5645 9.95913C11.5432 9.99454 11.5078 10.03 11.4795 10.0654C11.3449 10.1929 11.1607 10.2708 10.9766 10.2708ZM6.01823 12.75C5.92615 12.75 5.83406 12.7287 5.74906 12.6933C5.66406 12.6579 5.58615 12.6083 5.51531 12.5445C5.38781 12.41 5.3099 12.2258 5.3099 12.0416C5.3099 11.9495 5.33115 11.8575 5.36656 11.7725C5.40198 11.6804 5.45156 11.6025 5.51531 11.5387C5.7774 11.2766 6.25906 11.2766 6.52115 11.5387C6.64865 11.6733 6.72656 11.8575 6.72656 12.0416C6.72656 12.2258 6.64865 12.41 6.52115 12.5445C6.38656 12.672 6.2024 12.75 6.01823 12.75ZM8.4974 12.75C8.31323 12.75 8.12906 12.672 7.99448 12.5445C7.86698 12.41 7.78906 12.2258 7.78906 12.0416C7.78906 11.9495 7.81031 11.8575 7.84573 11.7725C7.88115 11.6804 7.93073 11.6025 7.99448 11.5387C8.25656 11.2766 8.73823 11.2766 9.00031 11.5387C9.06406 11.6025 9.11365 11.6804 9.14906 11.7725C9.18448 11.8575 9.20573 11.9495 9.20573 12.0416C9.20573 12.2258 9.12781 12.41 9.00031 12.5445C8.86573 12.672 8.68156 12.75 8.4974 12.75ZM10.9766 12.75C10.7924 12.75 10.6082 12.672 10.4736 12.5445C10.4081 12.478 10.3574 12.3983 10.3249 12.3108C10.2895 12.2258 10.2682 12.1337 10.2682 12.0416C10.2682 11.9495 10.2895 11.8575 10.3249 11.7725C10.3603 11.6804 10.4099 11.6025 10.4736 11.5387C10.6366 11.3758 10.8845 11.2979 11.1111 11.3475C11.1607 11.3545 11.2032 11.3687 11.2457 11.39C11.2882 11.4041 11.3307 11.4254 11.3732 11.4537C11.4086 11.475 11.4441 11.5104 11.4795 11.5387C11.607 11.6733 11.6849 11.8575 11.6849 12.0416C11.6849 12.2258 11.607 12.41 11.4795 12.5445C11.3449 12.672 11.1607 12.75 10.9766 12.75ZM14.5182 6.96996H2.47656C2.18615 6.96996 1.94531 6.72913 1.94531 6.43871C1.94531 6.14829 2.18615 5.90746 2.47656 5.90746H14.5182C14.8086 5.90746 15.0495 6.14829 15.0495 6.43871C15.0495 6.72913 14.8086 6.96996 14.5182 6.96996Z" fill="white"/>
<path d="M11.3333 16.1145H5.66667C3.08125 16.1145 1.59375 14.627 1.59375 12.0416V6.02079C1.59375 3.43538 3.08125 1.94788 5.66667 1.94788H11.3333C13.9187 1.94788 15.4062 3.43538 15.4062 6.02079V12.0416C15.4062 14.627 13.9187 16.1145 11.3333 16.1145ZM5.66667 3.01038C3.64083 3.01038 2.65625 3.99496 2.65625 6.02079V12.0416C2.65625 14.0675 3.64083 15.052 5.66667 15.052H11.3333C13.3592 15.052 14.3438 14.0675 14.3438 12.0416V6.02079C14.3438 3.99496 13.3592 3.01038 11.3333 3.01038H5.66667Z" fill="white"/>
</svg>
