<svg width="44" height="44" viewBox="0 0 44 44" fill="none" xmlns="http://www.w3.org/2000/svg">
<path d="M22.4396 7.49098C22.0416 7.3534 21.5901 7.36251 21.3788 7.64335L16.9012 13.5167C16.8752 13.5549 16.8491 13.5931 16.8415 13.6141C16.7193 13.9494 17.1409 14.3547 17.5174 14.4849C17.7541 14.5667 17.9637 14.5566 18.09 14.3761L19.0066 13.1238L21.4701 13.9754L21.3711 15.5104C21.3523 15.728 21.5084 15.8646 21.7451 15.9464C22.1216 16.0765 22.715 16.0103 22.8334 15.6855C22.8449 15.654 22.8456 15.6189 22.8501 15.5732L23.1753 8.26442C23.193 7.91663 22.8484 7.63235 22.4396 7.49098ZM21.5582 12.8024L19.6864 12.1552L21.7944 9.2619L21.5582 12.8024ZM14.362 34.3772L14.3011 34.1514C14.0111 33.076 13.4343 32.7752 12.6913 32.6894C13.2097 32.2924 13.4064 31.6213 13.1686 30.7394C12.7568 29.2123 11.5873 29.1206 10.4391 29.4144L8.30829 29.9595C7.98812 30.0414 7.71957 30.271 7.79791 30.5615L9.68274 37.5518C9.74361 37.7776 10.0416 37.9197 10.4281 37.8209L12.7687 37.2221C14.0162 36.9029 14.8144 36.055 14.362 34.3772ZM9.92677 32.8104L9.43377 30.9822L10.6592 30.6687C11.2223 30.5246 11.6463 30.7841 11.7971 31.3433C11.945 31.8917 11.7595 32.3416 11.1632 32.4942L9.92677 32.8104ZM12.14 36.0723L10.8925 36.3915L10.2227 33.9073L11.4703 33.5881C12.1436 33.4158 12.6222 33.6153 12.8484 34.4541L12.8948 34.6262C13.1152 35.4435 12.8135 35.9 12.14 36.0723ZM35.9855 33.9193C35.5974 33.9193 35.2777 34.0305 35.2549 34.3752C35.2206 34.8422 35.1293 35.565 34.0906 35.565C33.303 35.565 32.8692 35.1535 32.8692 34.2862V31.184C32.8693 30.3168 33.3031 29.9054 34.0678 29.9054C35.1523 29.9054 35.2321 30.6615 35.255 31.0062C35.2663 31.3398 35.5746 31.462 35.9969 31.462C36.4992 31.462 36.7389 31.3286 36.7389 30.7504C36.7389 29.4606 35.6088 28.6378 34.0221 28.6378C32.5839 28.6378 31.3853 29.3272 31.3853 31.1841V34.2863C31.3853 36.1432 32.5724 36.8325 34.0107 36.8325C35.6088 36.8325 36.7389 35.9764 36.7389 34.631C36.7389 34.064 36.4992 33.9193 35.9855 33.9193Z" fill="white"/>
<path d="M28.8427 3.12867L18.4569 0.190552C15.8558 -0.54576 13.1255 0.91724 12.3701 3.45076L11.391 6.73461C11.3421 6.89865 11.3621 7.07491 11.4466 7.2246C11.5311 7.37428 11.6731 7.48515 11.8415 7.53279C11.9249 7.55641 12.0123 7.56379 12.0986 7.55451C12.1849 7.54523 12.2685 7.51948 12.3446 7.47872C12.4207 7.43797 12.4878 7.383 12.5421 7.31698C12.5964 7.25095 12.6368 7.17515 12.661 7.09391L13.6402 3.81007C13.9076 2.91331 14.5175 2.17158 15.3576 1.72161C16.1976 1.27165 17.1673 1.16715 18.0881 1.42762L28.4738 4.36565C30.3744 4.90345 31.4716 6.84701 30.9197 8.69837L27.9033 18.8149C27.3513 20.6662 25.3559 21.735 23.4553 21.1974L13.0695 18.2593C12.1488 17.9988 11.3874 17.4046 10.9254 16.5863C10.4635 15.768 10.3563 14.8234 10.6237 13.9266L11.7895 10.0167C11.8384 9.85269 11.8184 9.67644 11.7339 9.52676C11.6494 9.37708 11.5073 9.26621 11.3389 9.21854C11.1705 9.17095 10.9896 9.19044 10.8359 9.27274C10.6823 9.35504 10.5685 9.49341 10.5195 9.65743L9.35379 13.5673C8.98783 14.7946 9.13446 16.0872 9.76668 17.207C10.3988 18.3269 11.4409 19.1399 12.7008 19.4963L23.0866 22.4344C23.531 22.5606 23.9915 22.6246 24.4544 22.6248C26.5837 22.6247 28.5504 21.2637 29.1734 19.1742L32.1897 9.05767C32.945 6.52423 31.4436 3.86447 28.8427 3.12867ZM22.1641 36.7683L20.4372 26.3689C20.2277 25.1073 19.5263 24.0007 18.4624 23.253C17.3984 22.5052 16.099 22.2057 14.804 22.4099L4.1279 24.092C1.45426 24.5133 -0.368992 26.9747 0.0634841 29.5789L0.639061 33.0453C0.697377 33.3965 1.03722 33.6359 1.39744 33.5783C1.57055 33.551 1.72545 33.4579 1.82806 33.3194C1.93067 33.1808 1.97259 33.0083 1.94461 32.8397L1.36903 29.3733C1.05301 27.4702 2.38538 25.6715 4.3392 25.3636L15.0153 23.6815C15.9615 23.5326 16.9111 23.7512 17.6887 24.2977C18.4662 24.844 18.9786 25.6527 19.1317 26.5746L20.8586 36.9739C21.1746 38.877 19.8423 40.6759 17.8885 40.9837L7.21232 42.6658C6.26584 42.8146 5.31646 42.5962 4.53894 42.0497C3.7615 41.5033 3.24901 40.6946 3.09594 39.7728L2.43769 35.8086C2.37938 35.4575 2.03962 35.2182 1.67932 35.2757C1.50621 35.3029 1.35131 35.3961 1.2487 35.5346C1.14608 35.6731 1.10416 35.8457 1.13215 36.0143L1.79039 39.9784C1.99984 41.2401 2.70122 42.3466 3.76512 43.0943C4.6111 43.6889 5.60566 44 6.62871 44C6.89241 44 7.15806 43.9793 7.42353 43.9375L18.0997 42.2553C20.7733 41.8341 22.5966 39.3726 22.1641 36.7683ZM39.0882 22.7601H28.2732C25.5648 22.7601 23.3614 24.9064 23.3614 27.5445V31.0599C23.3614 31.2307 23.431 31.3946 23.555 31.5154C23.6791 31.6361 23.8472 31.704 24.0226 31.704C24.198 31.704 24.3662 31.6361 24.4902 31.5154C24.6142 31.3946 24.6839 31.2307 24.6839 31.0599V27.5445C24.6839 25.6168 26.294 24.0483 28.2732 24.0483H39.0882C41.0673 24.0483 42.6775 25.6168 42.6775 27.5445V38.0791C42.6775 40.0069 41.0673 41.5754 39.0882 41.5754H28.2732C26.294 41.5754 24.6839 40.0069 24.6839 38.0791V34.0657C24.6839 33.8949 24.6142 33.7311 24.4902 33.6103C24.3662 33.4895 24.198 33.4216 24.0226 33.4216C23.8472 33.4216 23.6791 33.4895 23.555 33.6103C23.431 33.7311 23.3614 33.8949 23.3614 34.0657V38.0791C23.3614 40.7172 25.5648 42.8636 28.2732 42.8636H39.0882C41.7966 42.8636 44 40.7172 44 38.0791V27.5445C44 24.9064 41.7966 22.7601 39.0882 22.7601Z" fill="white"/>
</svg>
