<svg width="44" height="44" viewBox="0 0 44 44" fill="none" xmlns="http://www.w3.org/2000/svg">
<path d="M42.1678 27.3052C42.0256 27.1717 41.8984 27.0537 41.7841 26.9477C41.336 26.532 41.111 26.3233 41.0001 26.1312C40.8892 25.9391 40.821 25.6401 40.685 25.0441C40.6503 24.8921 40.6117 24.7228 40.5672 24.533C40.3149 23.4565 39.4037 22.6919 38.2998 22.6304C38.1252 22.6208 37.9506 22.6118 37.776 22.6033C37.1655 22.5729 36.8591 22.5576 36.6507 22.4817C36.4422 22.4059 36.1977 22.2205 35.7105 21.8514C35.5862 21.7573 35.4479 21.6525 35.2918 21.5357C34.4067 20.8731 33.2172 20.8731 32.332 21.5357C32.1922 21.6405 32.0527 21.7457 31.9134 21.8513C31.4262 22.2205 31.1816 22.4058 30.9731 22.4817C30.8859 22.5135 30.781 22.5345 30.6443 22.5506C28.3895 20.5264 25.6899 19.1308 22.787 18.4587C25.9269 16.9512 28.0999 13.7399 28.0999 10.0305C28.1 4.87876 23.9087 0.6875 18.7569 0.6875C13.6051 0.6875 9.41388 4.87876 9.41388 10.0305C9.41388 13.7401 11.5871 16.9515 14.7271 18.4589C11.803 19.1366 9.08087 20.5477 6.81805 22.5941C3.56497 25.536 1.51742 29.5476 1.05276 33.8901C1.04246 33.986 1.05246 34.083 1.08212 34.1748C1.11178 34.2665 1.16043 34.3511 1.22491 34.4228C1.28938 34.4946 1.36824 34.5519 1.45635 34.5912C1.54446 34.6304 1.63984 34.6507 1.7363 34.6507L18.7557 34.6506L18.7568 34.6507L18.7579 34.6506H25.6831C25.9266 35.2137 26.3779 35.6788 26.978 35.9358C27.1571 36.0125 27.3171 36.08 27.4607 36.1405C27.5339 36.1713 27.602 36.2001 27.6661 36.2272L25.7503 40.3419C25.6848 40.4821 25.659 40.6375 25.6759 40.7914C25.6928 40.9452 25.7516 41.0914 25.846 41.214C25.9399 41.3369 26.0658 41.4316 26.2099 41.4878C26.3541 41.5439 26.5109 41.5594 26.6632 41.5324L28.5965 41.1947L29.5825 42.8915C29.66 43.0254 29.7728 43.1355 29.9086 43.2096C30.0444 43.2837 30.1979 43.319 30.3525 43.3117C30.507 43.305 30.6568 43.2558 30.7853 43.1697C30.9139 43.0836 31.0163 42.9638 31.0814 42.8234L32.9666 38.7741C33.3865 38.646 33.625 38.5815 33.812 38.5815C33.999 38.5815 34.2374 38.646 34.6574 38.7741L36.5425 42.8233C36.6103 42.9698 36.7187 43.0937 36.8548 43.1804C36.9908 43.2671 37.1489 43.313 37.3103 43.3126C37.4584 43.3128 37.6039 43.2739 37.7323 43.2C37.8606 43.1261 37.9672 43.0197 38.0414 42.8915L39.0274 41.1947L40.9608 41.5325C41.1132 41.5594 41.2701 41.5439 41.4142 41.4877C41.5584 41.4314 41.6844 41.3366 41.7783 41.2136C41.8726 41.0909 41.9313 40.9447 41.9481 40.791C41.9649 40.6372 41.939 40.4818 41.8734 40.3417L39.9578 36.2272C40.0218 36.2001 40.09 36.1714 40.1631 36.1405C40.3242 36.0728 40.4852 36.0045 40.6459 35.9358C41.6623 35.5005 42.257 34.4704 42.1258 33.3725C42.1027 33.1788 42.081 33.0066 42.0617 32.8519C41.9856 32.2454 41.9474 31.941 41.986 31.7225C42.0246 31.5041 42.1645 31.2311 42.4434 30.6872C42.5145 30.5485 42.5937 30.394 42.6817 30.2201C43.1805 29.2333 42.974 28.0619 42.1678 27.3052ZM24.9423 30.2201C25.0302 30.394 25.1094 30.5485 25.1805 30.6873C25.4594 31.2312 25.5994 31.5042 25.6379 31.7226C25.6764 31.9411 25.6383 32.2455 25.5622 32.852C25.5461 32.9802 25.5285 33.1213 25.5098 33.2757H20.3058L22.04 31.3584C22.1124 31.2783 22.165 31.1822 22.1934 31.0779C22.2218 30.9737 22.2252 30.8642 22.2034 30.7584L21.3198 26.4746L21.4917 26.6784C21.5633 26.7633 21.6544 26.8296 21.7573 26.8717C21.8601 26.9137 21.9716 26.9302 22.0822 26.9197C22.1928 26.9092 22.2992 26.872 22.3923 26.8114C22.4854 26.7507 22.5625 26.6684 22.6168 26.5715L25.7743 20.9445C26.8165 21.4375 27.8037 22.039 28.7196 22.7392C27.8981 22.9939 27.2611 23.661 27.0568 24.5333C27.0122 24.723 26.9737 24.8923 26.939 25.0443C26.8031 25.6402 26.7348 25.9394 26.6239 26.1314C26.5129 26.3235 26.288 26.5323 25.8399 26.9479C25.7116 27.0667 25.5837 27.1859 25.4562 27.3054C24.65 28.0619 24.4435 29.2333 24.9423 30.2201ZM15.6107 25.0333L13.0113 20.4011C13.4956 20.2215 13.9882 20.0648 14.4873 19.9317L17.7693 22.4738L15.6107 25.0333ZM18.0523 24.2709L18.7568 23.4355L19.4613 24.2708L20.7862 30.6946L18.7567 32.9384L16.7272 30.6946L18.0523 24.2709ZM19.7445 22.4738L23.0229 19.9346C23.5222 20.0685 24.0149 20.2261 24.4993 20.4067L21.9031 25.0333L19.7445 22.4738ZM10.7889 10.0305C10.7889 5.63698 14.3634 2.0625 18.7569 2.0625C23.1505 2.0625 26.725 5.63698 26.725 10.0305C26.725 14.423 23.1524 17.9967 18.7604 17.9986H18.7534C14.3615 17.9966 10.7889 14.423 10.7889 10.0305ZM18.7569 19.3736H18.7604C19.5957 19.374 20.4299 19.4377 21.2556 19.5642L18.7568 21.4996L16.256 19.5626C17.0826 19.437 17.9174 19.3738 18.7534 19.3736H18.7569ZM11.7356 20.9376L14.897 26.5714C14.9514 26.6682 15.0284 26.7505 15.1215 26.8111C15.2146 26.8717 15.321 26.9089 15.4316 26.9194C15.5422 26.9299 15.6537 26.9134 15.7565 26.8714C15.8594 26.8294 15.9505 26.7631 16.0221 26.6782L16.1939 26.4745L15.3103 30.7583C15.2885 30.8642 15.2919 30.9736 15.3203 31.0779C15.3487 31.1822 15.4013 31.2783 15.4738 31.3584L17.208 33.2757L2.51902 33.2758C3.36877 27.7472 6.91962 23.2056 11.7356 20.9376ZM30.2625 41.3247L29.5447 40.0894C29.4741 39.9679 29.3679 39.8709 29.2404 39.8116C29.113 39.7523 28.9704 39.7334 28.832 39.7576L27.4247 40.0035L28.8058 37.0372C28.8985 37.1722 29.0073 37.3406 29.1448 37.5535C29.2293 37.6844 29.3235 37.8302 29.4302 37.9934C29.8611 38.6522 30.5521 39.0464 31.2962 39.1043L30.2625 41.3247ZM38.792 39.7576C38.6536 39.7334 38.511 39.7522 38.3835 39.8115C38.2561 39.8709 38.1499 39.9679 38.0793 40.0894L37.3615 41.3246L36.3283 39.1053C37.0723 39.0472 37.7631 38.6521 38.1938 37.9933C38.3005 37.8302 38.3947 37.6844 38.4792 37.5535C38.6167 37.3405 38.7255 37.1722 38.8182 37.0372L40.1993 40.0035L38.792 39.7576ZM41.4546 29.5998C41.3768 29.7533 41.2986 29.9067 41.2199 30.0597C40.535 31.3954 40.5107 31.5338 40.6974 33.023C40.7165 33.1753 40.7378 33.345 40.7606 33.5356C40.8197 34.0298 40.5622 34.4758 40.1046 34.6717C39.9281 34.7473 39.7706 34.8137 39.6292 34.8734C38.2461 35.4563 38.1383 35.5466 37.3241 36.8075C37.2409 36.9365 37.1482 37.0801 37.0431 37.2408C36.7707 37.6573 36.2866 37.8335 35.8103 37.6894C35.6266 37.6339 35.4632 37.5835 35.3166 37.5382C34.5994 37.3169 34.2057 37.2063 33.812 37.2063C33.4184 37.2063 33.0246 37.317 32.3075 37.5382C32.1608 37.5835 31.9976 37.6338 31.8137 37.6894C31.3374 37.8331 30.8534 37.6573 30.581 37.2408C30.4759 37.0801 30.3832 36.9365 30.3 36.8075C29.4857 35.5467 29.378 35.4563 27.9949 34.8734C27.8362 34.8067 27.6777 34.7395 27.5194 34.6717C27.0619 34.4758 26.8044 34.0298 26.8635 33.5356C26.8863 33.345 26.9076 33.1753 26.9266 33.023C27.1134 31.5338 27.0891 31.3954 26.4041 30.0597C26.334 29.9232 26.2561 29.7711 26.1695 29.5998C25.9449 29.1556 26.0344 28.6484 26.3972 28.3078C26.5228 28.1901 26.6487 28.0727 26.7751 27.9557C27.8754 26.935 27.9457 26.8133 28.2796 25.3498C28.3137 25.2002 28.3517 25.0336 28.3955 24.8467C28.509 24.362 28.9036 24.031 29.4005 24.0034C29.5923 23.9926 29.763 23.9842 29.9163 23.9766C31.4153 23.9019 31.5474 23.8538 32.7439 22.9473C32.8662 22.8546 33.0024 22.7514 33.1561 22.6364C33.5547 22.3381 34.0695 22.3382 34.468 22.6364C34.6217 22.7514 34.758 22.8546 34.8803 22.9474C36.0767 23.8537 36.2088 23.9018 37.7078 23.9765C37.8611 23.9841 38.0318 23.9926 38.2236 24.0033C38.7205 24.0309 39.1151 24.3619 39.2286 24.8466C39.2724 25.0335 39.3104 25.2002 39.3446 25.3498C39.6785 26.8131 39.7488 26.9349 40.8491 27.9556C40.9617 28.0601 41.087 28.1762 41.2269 28.3076C41.5897 28.6484 41.6792 29.1556 41.4546 29.5998ZM33.812 24.9285C30.9737 24.9285 28.6646 27.2376 28.6646 30.0758C28.6646 32.914 30.9737 35.2231 33.812 35.2231C36.6502 35.2231 38.9594 32.9141 38.9594 30.0759C38.9594 27.2377 36.6503 24.9285 33.812 24.9285ZM33.812 33.8482C31.7318 33.8482 30.0396 32.1559 30.0396 30.0759C30.0396 27.9959 31.7318 26.3036 33.812 26.3036C35.8921 26.3036 37.5844 27.9959 37.5844 30.0759C37.5844 32.1559 35.8921 33.8482 33.812 33.8482Z" fill="white"/>
</svg>
