<svg width="50" height="50" viewBox="0 0 50 50" fill="none" xmlns="http://www.w3.org/2000/svg">
<g clip-path="url(#clip0_4229_381)">
<path d="M40.3034 33.0251V27.82L38.1068 28.6746L38.1004 28.6601L38.048 28.5651C37.2063 27.2546 35.845 26.3428 34.3122 26.0649L29.0266 25.1031V24.6859C31.0032 23.538 32.4507 21.5799 32.9018 19.2649C34.3661 18.962 35.4705 17.6628 35.4705 16.1098V8.15398C35.4717 7.0651 35.1211 6.00497 34.4708 5.13159C33.8205 4.25821 32.9054 3.61834 31.8619 3.30734L31.4591 2.9046C29.5856 1.03103 27.095 0 24.4457 0C18.9773 0 14.5277 4.44872 14.5277 9.918V16.1098C14.5277 17.6628 15.6321 18.962 17.0964 19.2649C17.5483 21.5799 18.995 23.5388 20.9717 24.6859V25.1031L15.6868 26.0641C14.1556 26.3419 12.7951 27.2521 11.9526 28.5619L11.9043 28.6795L9.69479 27.82V33.0251C8.36251 33.0251 7.27832 34.1093 7.27832 35.4416V38.6635C7.27832 39.9958 8.36251 41.08 9.69479 41.08V44.0474L24.9991 50L40.3034 44.0474V41.08C41.6357 41.08 42.7199 39.9958 42.7199 38.6635V35.4416C42.7199 34.1093 41.6357 33.0251 40.3034 33.0251ZM30.536 27.0153L34.0238 27.6493C35.0508 27.8361 35.9602 28.429 36.5667 29.2731L28.7736 32.3034L30.536 27.0153ZM22.6511 25.4245C23.3946 25.6516 24.1823 25.7757 24.9991 25.7757C25.8159 25.7757 26.6036 25.6516 27.3471 25.4245L24.9991 27.1853L22.6511 25.4245ZM23.7731 28.2792L22.1291 29.9223L21.0627 26.7237L21.5758 26.6311L23.7731 28.2792ZM28.4224 26.6319L28.9355 26.7246L27.8691 29.9232L26.2251 28.28L28.4224 26.6319ZM33.054 17.4969V14.7227C33.5333 15.0023 33.8595 15.5162 33.8595 16.1098C33.8595 16.7034 33.5333 17.2174 33.054 17.4969ZM16.9442 17.4969C16.4649 17.2174 16.1387 16.7034 16.1387 16.1098C16.1387 15.5162 16.4649 15.0023 16.9442 14.7227V17.4969ZM16.9442 12.0824V13.0022C16.6617 13.0761 16.3907 13.1883 16.1387 13.3357V9.918C16.1387 5.33798 19.8649 1.61098 24.4457 1.61098C26.6641 1.61098 28.7511 2.47527 30.3202 4.04437L31.0306 4.75561L31.2473 4.80878C31.9939 4.99431 32.6568 5.42458 33.1303 6.03091C33.6037 6.63724 33.8605 7.38469 33.8595 8.15398V13.3357C33.6077 13.1879 33.3366 13.0757 33.054 13.0022V12.0824H30.4998C28.3169 12.0824 26.2307 11.04 24.9218 9.29455L24.2814 8.43912L22.6809 10.0404C21.3631 11.3574 19.612 12.0824 17.7497 12.0824H16.9442ZM18.5552 17.7208V13.6563C20.5439 13.4718 22.3893 12.6091 23.8199 11.1794L24.1332 10.8661C25.7482 12.6486 28.0745 13.6933 30.4998 13.6933H31.443V17.7208C31.443 21.2738 28.5521 24.1647 24.9991 24.1647C21.4461 24.1647 18.5552 21.2738 18.5552 17.7208ZM15.9744 27.6493L19.4622 27.0153L21.2246 32.3034L13.4298 29.2723C14.0364 28.4274 14.9474 27.8361 15.9744 27.6493ZM8.8893 38.6635V35.4416C8.8893 34.9969 9.25097 34.6361 9.69479 34.6361C11.0271 34.6361 12.1113 35.7203 12.1113 37.0525C12.1113 38.3848 11.0271 39.469 9.69479 39.469C9.25097 39.469 8.8893 39.1082 8.8893 38.6635ZM24.1936 47.9573L11.3058 42.9463V40.7385C12.7259 40.115 13.7222 38.6998 13.7222 37.0525C13.7222 35.4053 12.7259 33.9901 11.3058 33.3666V30.1753L24.1936 35.187V47.9573ZM21.8021 32.5289L24.9991 29.3311L28.1961 32.5281L24.9991 33.7718L21.8021 32.5289ZM38.6924 42.9455L25.8046 47.9565V35.187L38.6924 30.1753V33.3666C37.2724 33.9901 36.276 35.4053 36.276 37.0525C36.276 38.6998 37.2724 40.115 38.6924 40.7385V42.9455ZM41.1089 38.6635C41.1089 39.1082 40.7472 39.469 40.3034 39.469C38.9711 39.469 37.8869 38.3848 37.8869 37.0525C37.8869 35.7203 38.9711 34.6361 40.3034 34.6361C40.7472 34.6361 41.1089 34.9969 41.1089 35.4416V38.6635Z" fill="white"/>
</g>
<defs>
<clipPath id="clip0_4229_381">
<rect width="50" height="50" fill="white"/>
</clipPath>
</defs>
</svg>
