<svg width="44" height="44" viewBox="0 0 44 44" fill="none" xmlns="http://www.w3.org/2000/svg">
<g clip-path="url(#clip0_4229_372)">
<path d="M42.625 19.9375H26.125C25.9427 19.9375 25.7678 20.0099 25.6389 20.1389C25.5099 20.2678 25.4375 20.4427 25.4375 20.625V23.1069C24.1824 22.3849 22.7604 22.0034 21.3125 22H19.25V20.625C20.6039 19.6195 21.5411 18.1514 21.8831 16.5H22C22.5259 16.497 23.04 16.3433 23.4812 16.0571C23.9224 15.7709 24.2723 15.3642 24.4894 14.8851C24.7064 14.4061 24.7816 13.8749 24.706 13.3544C24.6303 12.834 24.407 12.3461 24.0625 11.9487V9.625C24.0625 7.25463 23.1209 4.98134 21.4448 3.30523C19.7687 1.62913 17.4954 0.6875 15.125 0.6875C12.7546 0.6875 10.4813 1.62913 8.80523 3.30523C7.12913 4.98134 6.1875 7.25463 6.1875 9.625V11.9487C5.84301 12.3461 5.6197 12.834 5.54405 13.3544C5.46839 13.8749 5.54356 14.4061 5.76064 14.8851C5.97772 15.3642 6.32761 15.7709 6.76883 16.0571C7.21005 16.3433 7.72409 16.497 8.25 16.5H8.3875C8.72428 18.1483 9.65378 19.616 11 20.625V22H8.9375C6.74946 22 4.65104 22.8692 3.10387 24.4164C1.55669 25.9635 0.6875 28.062 0.6875 30.25V42.625C0.6875 42.8073 0.759933 42.9822 0.888864 43.1111C1.0178 43.2401 1.19266 43.3125 1.375 43.3125H24.0625V41.9375H18.4594L16.5 30.36L17.3319 28.6963L18.9131 29.4869C19.0172 29.5403 19.1331 29.5664 19.25 29.5625C19.3941 29.5629 19.5347 29.5179 19.6519 29.434C19.7691 29.3502 19.857 29.2316 19.9031 29.095L21.8006 23.375C23.12 23.4738 24.3828 23.9513 25.4375 24.75V42.625C25.4375 42.8073 25.5099 42.9822 25.6389 43.1111C25.7678 43.2401 25.9427 43.3125 26.125 43.3125H42.625C42.8073 43.3125 42.9822 43.2401 43.1111 43.1111C43.2401 42.9822 43.3125 42.8073 43.3125 42.625V20.625C43.3125 20.4427 43.2401 20.2678 43.1111 20.1389C42.9822 20.0099 42.8073 19.9375 42.625 19.9375ZM22 15.125V12.375C22.3647 12.375 22.7144 12.5199 22.9723 12.7777C23.2301 13.0356 23.375 13.3853 23.375 13.75C23.375 14.1147 23.2301 14.4644 22.9723 14.7223C22.7144 14.9801 22.3647 15.125 22 15.125ZM6.875 13.75C6.875 13.3853 7.01987 13.0356 7.27773 12.7777C7.53559 12.5199 7.88533 12.375 8.25 12.375V15.125C7.88533 15.125 7.53559 14.9801 7.27773 14.7223C7.01987 14.4644 6.875 14.1147 6.875 13.75ZM8.25 11C8.01774 11.0036 7.78681 11.0359 7.5625 11.0962V9.625C7.5625 7.6193 8.35926 5.69575 9.7775 4.27751C11.1957 2.85926 13.1193 2.0625 15.125 2.0625C17.1307 2.0625 19.0543 2.85926 20.4725 4.27751C21.8907 5.69575 22.6875 7.6193 22.6875 9.625V11.0962C22.4632 11.0359 22.2323 11.0036 22 11C22 10.8177 21.9276 10.6428 21.7986 10.5139C21.6697 10.3849 21.4948 10.3125 21.3125 10.3125C20.7788 10.3125 20.2525 10.1883 19.7752 9.94959C19.2979 9.71094 18.8827 9.36442 18.5625 8.9375L17.7375 7.8375C17.6735 7.75211 17.5904 7.68281 17.495 7.63508C17.3995 7.58735 17.2942 7.5625 17.1875 7.5625C17.0808 7.5625 16.9755 7.58735 16.88 7.63508C16.7846 7.68281 16.7015 7.75211 16.6375 7.8375L15.8125 8.9375C15.4923 9.36442 15.0771 9.71094 14.5998 9.94959C14.1225 10.1883 13.5962 10.3125 13.0625 10.3125H8.9375C8.75516 10.3125 8.5803 10.3849 8.45136 10.5139C8.32243 10.6428 8.25 10.8177 8.25 11ZM9.625 15.125V11.6875H13.0625C13.8096 11.6875 14.5465 11.5136 15.2147 11.1794C15.883 10.8453 16.4642 10.3602 16.9125 9.7625L17.1875 9.39812L17.4625 9.7625C18.2297 10.7787 19.3655 11.4528 20.625 11.6394V15.125C20.625 16.5837 20.0455 17.9826 19.0141 19.0141C17.9826 20.0455 16.5837 20.625 15.125 20.625C13.6663 20.625 12.2674 20.0455 11.2359 19.0141C10.2045 17.9826 9.625 16.5837 9.625 15.125ZM15.125 22C16.0718 22.0005 17.0084 21.8038 17.875 21.4225V22.44L15.125 25.74L12.375 22.44V21.4225C13.2416 21.8038 14.1782 22.0005 15.125 22ZM11.3988 27.9056L9.89313 23.375H11.3644L14.0387 26.5856L11.3988 27.9056ZM2.0625 30.25C2.0581 28.5081 2.71505 26.8295 3.9006 25.5534C5.08615 24.2772 6.71191 23.4987 8.44938 23.375L10.3469 29.0675C10.3882 29.2092 10.474 29.3338 10.5916 29.423C10.7092 29.5121 10.8524 29.561 11 29.5625C11.1076 29.5619 11.2136 29.536 11.3094 29.4869L12.8906 28.6963L13.75 30.36L11.7906 41.9375H6.1875V32.3125H4.8125V41.9375H2.0625V30.25ZM13.1863 41.9375L15.0219 30.9375H15.2281L17.0637 41.9375H13.1863ZM15.3862 29.5625H14.8638L14.1213 28.0844L15.125 27.5825L16.1287 28.0844L15.3862 29.5625ZM18.8237 27.9056L16.1838 26.5856L18.8856 23.375H20.3569L18.8237 27.9056ZM30.9375 21.3125H37.8125V22.6875H30.9375V21.3125ZM41.9375 41.9375H26.8125V21.3125H29.5625V23.375C29.5625 23.5573 29.6349 23.7322 29.7639 23.8611C29.8928 23.9901 30.0677 24.0625 30.25 24.0625H38.5C38.6823 24.0625 38.8572 23.9901 38.9861 23.8611C39.1151 23.7322 39.1875 23.5573 39.1875 23.375V21.3125H41.9375V41.9375Z" fill="white"/>
<path d="M31.625 25.4375H28.875C28.6927 25.4375 28.5178 25.5099 28.3889 25.6389C28.2599 25.7678 28.1875 25.9427 28.1875 26.125V28.875C28.1875 29.0573 28.2599 29.2322 28.3889 29.3611C28.5178 29.4901 28.6927 29.5625 28.875 29.5625H31.625C31.8073 29.5625 31.9822 29.4901 32.1111 29.3611C32.2401 29.2322 32.3125 29.0573 32.3125 28.875V26.125C32.3125 25.9427 32.2401 25.7678 32.1111 25.6389C31.9822 25.5099 31.8073 25.4375 31.625 25.4375ZM30.9375 28.1875H29.5625V26.8125H30.9375V28.1875ZM31.625 30.9375H28.875C28.6927 30.9375 28.5178 31.0099 28.3889 31.1389C28.2599 31.2678 28.1875 31.4427 28.1875 31.625V34.375C28.1875 34.5573 28.2599 34.7322 28.3889 34.8611C28.5178 34.9901 28.6927 35.0625 28.875 35.0625H31.625C31.8073 35.0625 31.9822 34.9901 32.1111 34.8611C32.2401 34.7322 32.3125 34.5573 32.3125 34.375V31.625C32.3125 31.4427 32.2401 31.2678 32.1111 31.1389C31.9822 31.0099 31.8073 30.9375 31.625 30.9375ZM30.9375 33.6875H29.5625V32.3125H30.9375V33.6875ZM31.625 36.4375H28.875C28.6927 36.4375 28.5178 36.5099 28.3889 36.6389C28.2599 36.7678 28.1875 36.9427 28.1875 37.125V39.875C28.1875 40.0573 28.2599 40.2322 28.3889 40.3611C28.5178 40.4901 28.6927 40.5625 28.875 40.5625H31.625C31.8073 40.5625 31.9822 40.4901 32.1111 40.3611C32.2401 40.2322 32.3125 40.0573 32.3125 39.875V37.125C32.3125 36.9427 32.2401 36.7678 32.1111 36.6389C31.9822 36.5099 31.8073 36.4375 31.625 36.4375ZM30.9375 39.1875H29.5625V37.8125H30.9375V39.1875ZM33.6875 25.4375H40.5625V26.8125H33.6875V25.4375ZM33.6875 28.1875H40.5625V29.5625H33.6875V28.1875ZM33.6875 30.9375H40.5625V32.3125H33.6875V30.9375ZM33.6875 33.6875H40.5625V35.0625H33.6875V33.6875ZM33.6875 36.4375H40.5625V37.8125H33.6875V36.4375ZM33.6875 39.1875H40.5625V40.5625H33.6875V39.1875Z" fill="white"/>
</g>
<defs>
<clipPath id="clip0_4229_372">
<rect width="44" height="44" fill="white"/>
</clipPath>
</defs>
</svg>
