<svg width="60" height="60" viewBox="0 0 60 60" fill="none" xmlns="http://www.w3.org/2000/svg">
<path d="M48.5203 17.5397L38.6146 16.1003L34.1846 7.12429C32.4742 3.65813 27.5265 3.65684 25.8153 7.12417L21.3853 16.1003L11.4795 17.5397C7.65454 18.0954 6.12466 22.8003 8.89333 25.4994L16.0612 32.4863L14.3691 42.3518C13.7157 46.1611 17.7172 49.0703 21.1401 47.2714L29.9999 42.6132L38.86 47.2714C42.2869 49.0726 46.2827 46.1526 45.6306 42.3518L43.9385 32.4863L51.1065 25.4994C53.8741 22.8013 52.3468 18.0957 48.5203 17.5397Z" fill="#F39F5F"/>
<path d="M15.7888 5.52563L13.3969 2.23361C12.7475 1.34017 11.4968 1.14201 10.6034 1.79134C9.7098 2.44056 9.51176 3.6913 10.161 4.58485L12.5529 7.87688C13.2026 8.77078 14.4534 8.96824 15.3464 8.31914C16.2399 7.67004 16.438 6.41919 15.7888 5.52563Z" fill="#F39F5F"/>
<path d="M7.85122 35.0281C7.50985 33.9777 6.38181 33.4024 5.33111 33.7441L1.38248 35.0272C0.332013 35.3683 -0.24279 36.4967 0.0984591 37.5473C0.440412 38.5997 1.5708 39.1722 2.61857 38.8313L6.56731 37.5482C7.61778 37.2071 8.19258 36.0787 7.85122 35.0281Z" fill="#F39F5F"/>
<path d="M49.3967 1.79138C48.5032 1.14204 47.2525 1.34009 46.6032 2.23364L44.2113 5.52567C43.5619 6.41922 43.7601 7.67007 44.6536 8.31918C45.5475 8.96863 46.798 8.77011 47.4471 7.87691L49.8391 4.58489C50.4884 3.69133 50.2902 2.44059 49.3967 1.79138Z" fill="#F39F5F"/>
<path d="M58.6175 35.0273L54.6688 33.7442C53.6183 33.4022 52.4901 33.9777 52.1487 35.0282C51.8073 36.0787 52.3821 37.2069 53.4327 37.5483L57.3815 38.8314C58.4298 39.1724 59.5597 38.5992 59.9016 37.5474C60.2428 36.4969 59.668 35.3686 58.6175 35.0273Z" fill="#F39F5F"/>
<path d="M29.9999 50.5317C28.8954 50.5317 28 51.4272 28 52.5317V56.5908C28 57.6953 28.8954 58.5907 29.9999 58.5907C31.1044 58.5907 31.9998 57.6953 31.9998 56.5908V52.5317C32 51.4272 31.1045 50.5317 29.9999 50.5317Z" fill="#F39F5F"/>
</svg>
