<svg width="48" height="48" viewBox="0 0 48 48" fill="none" xmlns="http://www.w3.org/2000/svg">
<path d="M18.9377 22.8152V11.5563C19.4208 11.5341 19.876 11.3239 20.2062 10.9706C20.5363 10.6173 20.7152 10.1489 20.7047 9.66541C20.6941 9.18197 20.4949 8.72181 20.1497 8.38326C19.8044 8.0447 19.3404 7.85458 18.8569 7.85352H8.34904C7.86551 7.85468 7.4016 8.04487 7.0564 8.38346C6.71121 8.72204 6.51209 9.18219 6.50159 9.66561C6.49108 10.149 6.67002 10.6174 7.00018 10.9707C7.33034 11.3239 7.78555 11.5341 8.26857 11.5563V22.8152C5.62857 24.0314 3.48347 26.1133 2.18883 28.7157C0.894201 31.3181 0.527786 34.2849 1.15033 37.1241C1.77287 39.9633 3.34699 42.5045 5.61175 44.3265C7.8765 46.1485 10.6959 47.1418 13.6026 47.1418C16.5092 47.1418 19.3286 46.1485 21.5934 44.3265C23.8581 42.5045 25.4322 39.9633 26.0548 37.1241C26.6773 34.2849 26.3109 31.3181 25.0163 28.7157C23.7216 26.1133 21.5765 24.0314 18.9365 22.8152H18.9377ZM7.86193 9.70898C7.86203 9.57952 7.91351 9.45538 8.00506 9.36383C8.09661 9.27228 8.22074 9.22081 8.35021 9.2207H18.858C18.9875 9.2207 19.1117 9.27215 19.2033 9.36372C19.2949 9.45529 19.3463 9.57948 19.3463 9.70898C19.3463 9.83848 19.2949 9.96268 19.2033 10.0543C19.1117 10.1458 18.9875 10.1973 18.858 10.1973H8.35021C8.22074 10.1972 8.09661 10.1457 8.00506 10.0541C7.91351 9.96259 7.86203 9.83845 7.86193 9.70898ZM13.6018 45.7773C10.9718 45.7764 8.42323 44.8648 6.38934 43.1974C4.35545 41.53 2.96172 39.2098 2.44505 36.631C1.92838 34.0523 2.32065 31.3742 3.55519 29.0519C4.78973 26.7297 6.79036 24.9066 9.21701 23.8926C9.34139 23.8405 9.44761 23.7529 9.52232 23.6406C9.59704 23.5284 9.63691 23.3966 9.63693 23.2617V11.5645H17.5705V23.2617C17.5706 23.3965 17.6105 23.5283 17.6852 23.6406C17.7599 23.7528 17.8661 23.8405 17.9904 23.8926C20.4174 24.9067 22.4182 26.7302 23.6527 29.0528C24.8872 31.3754 25.2792 34.054 24.762 36.6329C24.2448 39.2119 22.8504 41.5322 20.8158 43.1993C18.7813 44.8664 16.2321 45.7773 13.6018 45.7773Z" fill="white"/>
<path d="M13.4738 34.9628C10.353 34.0316 7.10176 33.6132 3.84688 33.7237C3.67191 33.7328 3.50713 33.8088 3.3866 33.936C3.26606 34.0631 3.19898 34.2317 3.19922 34.4069C3.20097 37.1543 4.28947 39.7894 6.22713 41.7371C8.1648 43.6848 10.7943 44.7869 13.5416 44.8029C16.2889 44.8188 18.931 43.7473 20.8911 41.8222C22.8513 39.8971 23.9703 37.2748 24.0039 34.5276C24.0053 34.4148 23.9788 34.3034 23.9268 34.2034C23.8747 34.1033 23.7986 34.0177 23.7054 33.9541C23.6122 33.8906 23.5047 33.8511 23.3925 33.8392C23.2804 33.8272 23.167 33.8433 23.0625 33.8858C19.5168 35.3206 16.1113 35.703 13.4738 34.9628ZM22.566 35.5362C22.284 37.7587 21.1864 39.7971 19.4862 41.256C17.7861 42.7149 15.6046 43.4902 13.3651 43.4314C11.1255 43.3727 8.98769 42.4841 7.36635 40.9381C5.745 39.3921 4.75578 37.2989 4.59063 35.0647C7.47327 35.0512 10.3423 35.4604 13.1063 36.2792C15.7727 37.028 19.0996 36.7612 22.566 35.5362ZM10.2223 31.2171C10.5892 31.2171 10.948 31.1083 11.2531 30.9044C11.5582 30.7005 11.7961 30.4107 11.9365 30.0717C12.0769 29.7326 12.1137 29.3596 12.0421 28.9996C11.9705 28.6397 11.7938 28.3091 11.5343 28.0496C11.2748 27.7901 10.9442 27.6134 10.5843 27.5418C10.2243 27.4702 9.85125 27.507 9.51221 27.6474C9.17317 27.7878 8.88338 28.0256 8.6795 28.3308C8.47562 28.6359 8.3668 28.9946 8.3668 29.3616C8.36742 29.8535 8.5631 30.3251 8.91094 30.6729C9.25877 31.0208 9.73036 31.2165 10.2223 31.2171ZM10.2223 28.8733C10.3188 28.8733 10.4132 28.902 10.4935 28.9556C10.5738 29.0093 10.6364 29.0855 10.6734 29.1748C10.7103 29.264 10.72 29.3622 10.7012 29.4569C10.6823 29.5516 10.6358 29.6386 10.5675 29.7069C10.4992 29.7752 10.4122 29.8217 10.3175 29.8405C10.2228 29.8594 10.1246 29.8497 10.0354 29.8127C9.94619 29.7758 9.86993 29.7132 9.81628 29.6329C9.76262 29.5526 9.73398 29.4582 9.73398 29.3616C9.73419 29.2322 9.7857 29.1081 9.87723 29.0166C9.96875 28.9251 10.0928 28.8735 10.2223 28.8733ZM13.0063 25.0604C13.0063 25.4274 13.1151 25.7862 13.319 26.0913C13.5228 26.3964 13.8126 26.6342 14.1517 26.7747C14.4907 26.9151 14.8638 26.9519 15.2237 26.8803C15.5836 26.8087 15.9142 26.632 16.1737 26.3725C16.4332 26.113 16.6099 25.7824 16.6815 25.4224C16.7531 25.0625 16.7164 24.6894 16.5759 24.3504C16.4355 24.0113 16.1977 23.7216 15.8926 23.5177C15.5874 23.3138 15.2287 23.205 14.8617 23.205C14.3698 23.2056 13.8982 23.4013 13.5504 23.7491C13.2026 24.097 13.0069 24.5685 13.0063 25.0604ZM15.35 25.0604C15.35 25.157 15.3214 25.2514 15.2677 25.3317C15.2141 25.412 15.1378 25.4746 15.0486 25.5116C14.9594 25.5485 14.8612 25.5582 14.7665 25.5393C14.6717 25.5205 14.5847 25.474 14.5165 25.4057C14.4482 25.3374 14.4017 25.2504 14.3828 25.1557C14.364 25.061 14.3736 24.9628 14.4106 24.8736C14.4476 24.7844 14.5101 24.7081 14.5904 24.6545C14.6707 24.6008 14.7651 24.5722 14.8617 24.5722C14.9912 24.5723 15.1153 24.6237 15.2069 24.7153C15.2984 24.8068 15.3499 24.931 15.35 25.0604ZM13.2883 18.6808C13.6553 18.6808 14.014 18.5719 14.3191 18.3681C14.6243 18.1642 14.8621 17.8744 15.0025 17.5353C15.1429 17.1963 15.1797 16.8232 15.1081 16.4633C15.0365 16.1034 14.8598 15.7728 14.6003 15.5133C14.3408 15.2538 14.0102 15.0771 13.6503 15.0055C13.2903 14.9339 12.9173 14.9706 12.5782 15.1111C12.2392 15.2515 11.9494 15.4893 11.7455 15.7944C11.5416 16.0996 11.4328 16.4583 11.4328 16.8253C11.4334 17.3172 11.6291 17.7888 11.977 18.1366C12.3248 18.4845 12.7964 18.6801 13.2883 18.6808ZM13.2883 16.337C13.3849 16.337 13.4793 16.3656 13.5596 16.4193C13.6399 16.473 13.7024 16.5492 13.7394 16.6384C13.7764 16.7277 13.786 16.8258 13.7672 16.9205C13.7483 17.0153 13.7018 17.1023 13.6335 17.1706C13.5653 17.2388 13.4783 17.2854 13.3835 17.3042C13.2888 17.323 13.1906 17.3134 13.1014 17.2764C13.0122 17.2394 12.9359 17.1769 12.8823 17.0966C12.8286 17.0163 12.8 16.9219 12.8 16.8253C12.8001 16.6958 12.8516 16.5717 12.9431 16.4801C13.0347 16.3886 13.1588 16.3371 13.2883 16.337ZM44.1172 11.505C43.3226 11.506 42.5602 11.8192 41.9943 12.3771C41.4285 12.935 41.1045 13.6929 41.0922 14.4874L37.1641 15.3409C36.8344 14.5115 36.2433 13.8121 35.4805 13.3487L38.0855 6.86943C38.8199 6.98377 39.5707 6.82394 40.1948 6.4204C40.8189 6.01685 41.2727 5.3978 41.4698 4.68119C41.6669 3.96458 41.5935 3.20051 41.2635 2.53457C40.9335 1.86863 40.37 1.34736 39.6805 1.07009C38.9909 0.792825 38.2235 0.778939 37.5243 1.03108C36.8252 1.28322 36.2432 1.78376 35.8894 2.43733C35.5355 3.0909 35.4345 3.85181 35.6055 4.57508C35.7765 5.29835 36.2077 5.93342 36.8168 6.35928L34.2129 12.8358C33.5537 12.6889 32.8684 12.7071 32.2179 12.8888C31.5674 13.0706 30.9719 13.4102 30.4844 13.8776L28.1406 12.1093C28.4432 11.4293 28.4849 10.6618 28.258 9.95296C28.031 9.24416 27.5512 8.64364 26.91 8.26585C26.2687 7.88806 25.5109 7.75942 24.7809 7.90443C24.051 8.04945 23.3998 8.45798 22.9517 9.05218C22.5035 9.64638 22.2897 10.3847 22.3509 11.1264C22.4121 11.8682 22.7441 12.5614 23.2835 13.0742C23.823 13.5869 24.5323 13.8832 25.2762 13.9066C26.0201 13.93 26.7465 13.6789 27.3172 13.2011L29.6559 14.9647C29.3857 15.4823 29.229 16.0514 29.1963 16.6343C29.1635 17.2172 29.2555 17.8003 29.466 18.3448L27.8645 19.2847C27.3558 18.7533 26.6695 18.4276 25.9363 18.3693C25.203 18.311 24.474 18.5244 23.8878 18.9687C23.3016 19.413 22.8992 20.0574 22.7572 20.7791C22.6152 21.5008 22.7434 22.2496 23.1176 22.8829C23.4917 23.5162 24.0856 23.9898 24.7863 24.2137C25.4869 24.4376 26.2455 24.3961 26.9175 24.0971C27.5896 23.7981 28.1282 23.2625 28.431 22.5921C28.7339 21.9218 28.7797 21.1635 28.5598 20.4616L30.1566 19.5241C30.6518 20.125 31.308 20.5722 32.0482 20.8135C32.7885 21.0548 33.5822 21.0802 34.3363 20.8866L35.9633 24.6054C35.3894 25.0364 34.9877 25.6576 34.83 26.3578C34.6724 27.058 34.7692 27.7914 35.103 28.4268C35.4369 29.0621 35.986 29.5579 36.652 29.8253C37.3181 30.0927 38.0575 30.1143 38.7381 29.8862C39.4186 29.6581 39.9956 29.1952 40.366 28.5804C40.7363 27.9656 40.8757 27.239 40.7591 26.5308C40.6426 25.8226 40.2778 25.179 39.73 24.7153C39.1822 24.2515 38.4873 23.9979 37.7695 23.9999C37.5823 24.0006 37.3956 24.0185 37.2117 24.0534L35.5875 20.3405C36.1635 19.9641 36.6368 19.4502 36.9646 18.8452C37.2923 18.2401 37.4642 17.563 37.4648 16.8749C37.4648 16.8081 37.4574 16.7429 37.4543 16.6769L41.3828 15.8233C41.6142 16.3132 41.9729 16.7319 42.4214 17.0357C42.8699 17.3396 43.3918 17.5175 43.9325 17.5508C44.4732 17.5841 45.013 17.4717 45.4954 17.2252C45.9778 16.9787 46.3852 16.6072 46.675 16.1495C46.9648 15.6918 47.1264 15.1646 47.143 14.6231C47.1595 14.0817 47.0304 13.5457 46.769 13.0711C46.5077 12.5966 46.1237 12.2009 45.6573 11.9254C45.1908 11.6499 44.6589 11.5047 44.1172 11.505ZM38.5508 2.22256C38.8791 2.22256 39.2001 2.31992 39.4731 2.50234C39.7461 2.68476 39.9589 2.94404 40.0846 3.2474C40.2102 3.55075 40.2431 3.88455 40.179 4.20659C40.115 4.52863 39.9569 4.82444 39.7247 5.05662C39.4925 5.2888 39.1967 5.44691 38.8747 5.51097C38.5526 5.57503 38.2188 5.54215 37.9155 5.4165C37.6121 5.29084 37.3528 5.07806 37.1704 4.80505C36.988 4.53204 36.8906 4.21106 36.8906 3.88271C36.8911 3.44257 37.0662 3.0206 37.3774 2.70938C37.6887 2.39815 38.1106 2.22307 38.5508 2.22256ZM25.6676 23.0233C25.3392 23.0233 25.0183 22.926 24.7452 22.7436C24.4722 22.5611 24.2594 22.3018 24.1338 21.9985C24.0081 21.6951 23.9753 21.3613 24.0393 21.0393C24.1034 20.7173 24.2615 20.4215 24.4937 20.1893C24.7258 19.9571 25.0217 19.799 25.3437 19.7349C25.6657 19.6709 25.9995 19.7037 26.3029 19.8294C26.6062 19.9551 26.8655 20.1678 27.0479 20.4408C27.2304 20.7139 27.3277 21.0348 27.3277 21.3632C27.3272 21.8033 27.1521 22.2253 26.8409 22.5365C26.5297 22.8477 26.1077 23.0228 25.6676 23.0233ZM39.4297 27.0276C39.4297 27.356 39.3323 27.677 39.1499 27.95C38.9675 28.223 38.7082 28.4358 38.4048 28.5614C38.1015 28.6871 37.7677 28.7199 37.4457 28.6559C37.1236 28.5918 36.8278 28.4337 36.5956 28.2015C36.3634 27.9694 36.2053 27.6736 36.1413 27.3515C36.0772 27.0295 36.1101 26.6957 36.2357 26.3923C36.3614 26.089 36.5742 25.8297 36.8472 25.6473C37.1202 25.4648 37.4412 25.3675 37.7695 25.3675C38.2097 25.368 38.6316 25.5431 38.9429 25.8543C39.2541 26.1655 39.4292 26.5875 39.4297 27.0276ZM25.3742 12.5409C25.0459 12.5409 24.7249 12.4436 24.4519 12.2611C24.1789 12.0787 23.9661 11.8194 23.8404 11.5161C23.7148 11.2127 23.6819 10.8789 23.746 10.5569C23.81 10.2348 23.9681 9.93903 24.2003 9.70685C24.4325 9.47468 24.7283 9.31656 25.0503 9.2525C25.3724 9.18845 25.7062 9.22132 26.0095 9.34698C26.3129 9.47263 26.5722 9.68542 26.7546 9.95843C26.937 10.2314 27.0344 10.5524 27.0344 10.8808C27.0339 11.3209 26.8588 11.7429 26.5476 12.0541C26.2363 12.3653 25.8144 12.5404 25.3742 12.5409ZM34.4367 19.4159C34.0864 19.5695 33.7079 19.6481 33.3254 19.6468C32.5905 19.6457 31.8861 19.3531 31.3668 18.8331C30.8475 18.3131 30.5559 17.6082 30.5559 16.8733C30.5537 16.2714 30.7497 15.6856 31.1137 15.2062C31.3725 14.8648 31.7066 14.5879 32.0901 14.397C32.4735 14.206 32.8959 14.1062 33.3242 14.1054C33.6796 14.1036 34.0318 14.1721 34.3605 14.3069C34.7803 14.474 35.1525 14.7417 35.4444 15.0864C35.7364 15.4312 35.9391 15.8424 36.0348 16.2839C36.1703 16.9105 36.0852 17.5647 35.7938 18.1358C35.5023 18.7068 35.0225 19.1596 34.4355 19.4175L34.4367 19.4159ZM44.1172 16.1925C43.7382 16.1918 43.3708 16.0616 43.0759 15.8235C42.781 15.5853 42.5765 15.2535 42.4961 14.8831C42.4961 14.8776 42.4922 14.8729 42.4906 14.8675C42.4683 14.7575 42.4571 14.6457 42.457 14.5335C42.457 14.2051 42.5544 13.8842 42.7368 13.6112C42.9192 13.3382 43.1785 13.1254 43.4819 12.9997C43.7852 12.8741 44.119 12.8412 44.4411 12.9052C44.7631 12.9693 45.0589 13.1274 45.2911 13.3596C45.5233 13.5918 45.6814 13.8876 45.7454 14.2096C45.8095 14.5317 45.7766 14.8655 45.651 15.1688C45.5253 15.4722 45.3125 15.7314 45.0395 15.9139C44.7665 16.0963 44.4455 16.1937 44.1172 16.1937V16.1925Z" fill="white"/>
</svg>
