<svg width="50" height="50" viewBox="0 0 50 50" fill="none" xmlns="http://www.w3.org/2000/svg">
<path d="M28.2258 25.0001C28.2258 27.2234 30.0347 29.0323 32.258 29.0323C34.4813 29.0323 36.2902 27.2234 36.2902 25.0001V24.1937H28.2257V25.0001H28.2258ZM34.5396 25.8065C34.2064 26.7452 33.3097 27.4194 32.2581 27.4194C31.2065 27.4194 30.3098 26.7452 29.9767 25.8065H34.5396ZM29.8387 20.1614H31.4516C31.4516 18.3824 30.0048 16.9356 28.2258 16.9356C26.4468 16.9356 25 18.3824 25 20.1614H26.6129C26.6129 19.2719 27.3363 18.5485 28.2258 18.5485C29.1152 18.5485 29.8387 19.2719 29.8387 20.1614ZM36.2903 16.9355C34.5113 16.9355 33.0646 18.3823 33.0646 20.1613H34.6774C34.6774 19.2718 35.4008 18.5484 36.2903 18.5484C37.1799 18.5484 37.9032 19.2718 37.9032 20.1613H39.5161C39.5161 18.3823 38.0693 16.9355 36.2903 16.9355Z" fill="white"/>
<path d="M50 12.0968C50 10.7758 49.3669 9.57422 48.3097 8.825C48.3613 8.571 48.3871 8.31689 48.3871 8.06455C48.3871 6 46.8282 4.29355 44.8258 4.05967C44.2008 2.59277 42.7572 1.61289 41.129 1.61289C40.6653 1.61289 40.2089 1.696 39.7677 1.86045C38.5427 0.739453 36.6476 0.497559 35.1927 1.27979C34.4395 0.466894 33.3903 0 32.2581 0C31.1202 0 30.067 0.471777 29.313 1.29189C27.838 0.494336 25.942 0.741895 24.7211 1.86045C24.2792 1.6959 23.8235 1.61289 23.3598 1.61289C21.7315 1.61289 20.288 2.59277 19.663 4.05967C17.6598 4.29355 16.1017 6 16.1017 8.06455C16.1017 8.31699 16.1274 8.57178 16.1791 8.825C15.1219 9.57422 14.4888 10.775 14.4888 12.0968C14.4888 13.1049 14.8678 14.0604 15.5452 14.7992C15.3791 15.2428 15.2952 15.7009 15.2952 16.167C15.2952 17.5065 15.9653 18.7452 17.0589 19.492C17.4863 21.2598 19.071 22.5807 20.9678 22.5807H21.7742V23.3871C21.7742 23.6564 21.7903 23.9258 21.8146 24.1936H20.9678C20.0782 24.1936 19.3549 24.9169 19.3549 25.8064H12.7549C12.421 24.8701 11.5339 24.1936 10.4839 24.1936H8.871C7.821 24.1936 6.93389 24.8702 6.6 25.8064H4.83867C4.83867 24.9169 4.11533 24.1936 3.22578 24.1936H1.61289C0.72334 24.1936 0 24.9169 0 25.8064V48.3871C0 49.2766 0.72334 50 1.61289 50H3.22578C4.11533 50 4.83867 49.2766 4.83867 48.3871V46.7742H10.4838V48.3871C10.4838 49.2767 11.2071 50 12.0967 50H31.4515C35.4539 50 38.7096 46.7443 38.7096 42.7419V39.562C38.7096 39.5467 38.712 39.5313 38.712 39.5152V34.6758C38.712 33.5983 38.2919 32.5862 37.5306 31.825C37.4419 31.7363 37.3387 31.6678 37.2427 31.5887C40.4661 30.258 42.7419 27.0847 42.7419 23.387V22.5806H43.5483C45.454 22.5806 47.0467 21.2475 47.4652 19.4677C48.537 18.7177 49.1935 17.4895 49.1935 16.1669C49.1935 15.7 49.1096 15.2427 48.9435 14.7991C49.621 14.0604 50 13.1049 50 12.0968ZM20.9678 20.9678C19.6339 20.9678 18.5484 19.8823 18.5484 18.5484C18.5484 17.2146 19.6339 16.1291 20.9678 16.1291H21.7742V20.9678H20.9678ZM37.0992 34.6774H37.0968V39.5388C37.0839 41.7509 35.2822 43.5477 33.0669 43.5477L27.4226 43.5484V43.5477H26.6113C26.1686 43.5452 25.8089 43.1855 25.8089 42.742V39.5162C25.8089 39.0711 26.1702 38.7098 26.6153 38.7098H31.0234L32.396 40.7702L33.7379 39.8759L32.2612 37.6598L32.2604 34.6775C32.2604 33.3461 33.3419 32.263 34.6718 32.259H34.6799V32.2582H34.6815C35.3275 32.2582 35.934 32.5099 36.3904 32.9663C36.8469 33.4228 37.0993 34.03 37.0993 34.6768L37.0992 34.6774ZM17.8233 41.9355H14.8741C14.4177 41.1523 13.6516 40.5718 12.7346 40.3871C12.7427 40.3661 12.7475 40.3436 12.7547 40.3226H17.8901C17.7998 40.5758 17.7418 40.8443 17.7418 41.1282C17.7419 41.4049 17.7701 41.6742 17.8233 41.9355ZM6.6 38.7097H4.83867V33.871H11.4387C11.7726 34.8073 12.6597 35.4839 13.7097 35.4839H15.3226C16.3726 35.4839 17.2597 34.8072 17.5936 33.871H19.3549V38.7097H12.7549C12.421 37.7733 11.5339 37.0968 10.4839 37.0968H8.871C7.821 37.0968 6.93389 37.7733 6.6 38.7097ZM12.9032 33.0645C12.9032 32.6194 13.2646 32.2581 13.7097 32.2581H15.3226C15.7677 32.2581 16.129 32.6194 16.129 33.0645C16.129 33.5097 15.7677 33.871 15.3226 33.871H13.7097C13.4958 33.8709 13.2908 33.7859 13.1395 33.6347C12.9883 33.4835 12.9033 33.2784 12.9032 33.0645ZM8.871 38.7097H10.4839C10.929 38.7097 11.2903 39.071 11.2903 39.5161C11.2903 39.9612 10.929 40.3226 10.4839 40.3226H8.871C8.42588 40.3226 8.06455 39.9612 8.06455 39.5161C8.06455 39.071 8.42578 38.7097 8.871 38.7097ZM20.1572 40.3226H20.1612V40.3218H21.7741V39.5153C21.7741 39.0702 22.1355 38.7089 22.5806 38.7089H22.7192C22.8251 38.7085 22.93 38.7291 23.0279 38.7695C23.1257 38.8099 23.2146 38.8694 23.2894 38.9443L24.1958 39.85V42.7419C24.1958 43.0258 24.2539 43.2943 24.3441 43.5476H21.774C20.4401 43.5476 19.3547 42.4621 19.3547 41.1282C19.3549 40.6847 19.7146 40.325 20.1572 40.3226ZM30.4774 32.8419C30.7355 32.7129 31.0064 32.612 31.2823 32.525C30.8855 33.1492 30.6477 33.8839 30.6477 34.6767L30.6484 37.0969H27.4694C27.6951 35.2726 28.8017 33.6799 30.4774 32.8419ZM25.8468 37.2331C25.3865 37.3878 24.9837 37.6779 24.6911 38.0653L24.4298 37.804C24.3564 37.7307 24.2741 37.6726 24.1935 37.6097V29.471C25.4088 30.767 26.9846 31.6517 28.7346 32.0323C27.0572 33.2549 26.0072 35.1387 25.8468 37.2331ZM22.5807 25.8064V37.096C21.9597 37.096 21.3968 37.3355 20.9678 37.721V25.8064H22.5807ZM8.871 25.8064H10.4839C10.929 25.8064 11.2903 26.1678 11.2903 26.6129C11.2903 27.058 10.929 27.4193 10.4839 27.4193H8.871C8.42588 27.4193 8.06455 27.058 8.06455 26.6129C8.06455 26.1678 8.42578 25.8064 8.871 25.8064ZM6.6 27.4193C6.93389 28.3557 7.821 29.0322 8.871 29.0322H10.4839C11.5339 29.0322 12.421 28.3556 12.7549 27.4193H19.3549V32.258H17.5936C17.2597 31.3217 16.3726 30.6451 15.3226 30.6451H13.7097C12.6597 30.6451 11.7726 31.3217 11.4387 32.258H4.83867V27.4193H6.6ZM1.61289 48.3871V25.8064H3.22578L3.22744 48.3871H1.61289ZM4.83867 45.1613V40.3227H6.6C6.93389 41.259 7.821 41.9355 8.871 41.9355H10.4839V45.1613H4.83867ZM12.9032 48.3871H12.0968V41.9355C12.9863 41.9355 13.7097 42.6588 13.7097 43.5483V48.387H12.9032V48.3871ZM31.4517 48.3871H15.3226V43.5484H18.5693C19.3064 44.521 20.4621 45.1605 21.7742 45.1605H26.6073C26.6105 45.1605 26.613 45.1613 26.6154 45.1613L33.0671 45.1605C34.6131 45.1605 36.0154 44.5348 37.0364 43.5234C36.6532 46.2669 34.2983 48.3871 31.4517 48.3871ZM33.871 30.6451H30.6452C27.8969 30.6451 25.4444 29.1322 24.1936 26.6959V25.8063C24.1936 25.2482 23.9081 24.7556 23.4758 24.466C23.4226 24.1096 23.3871 23.7491 23.3871 23.387V14.0902C23.3871 13.1685 23.9 12.3395 24.7242 11.9266L25.2041 11.687C25.7194 13.3201 27.2308 14.516 29.0323 14.516C29.5307 14.516 30.0187 14.4257 30.4759 14.2499C31.2033 15.4016 32.4774 16.1289 33.871 16.1289C35.2645 16.1289 36.5388 15.4015 37.2661 14.2499C37.7269 14.4265 38.2162 14.5167 38.7097 14.516C39.621 14.516 40.4532 14.2007 41.129 13.6886V23.3869C41.129 27.3895 37.8733 30.6451 33.871 30.6451ZM43.5483 20.9678H42.7419V16.1291H43.5483C44.8822 16.1291 45.9677 17.2146 45.9677 18.5484C45.9678 19.8822 44.8822 20.9678 43.5483 20.9678ZM47.4661 13.9774L46.9314 14.4032L47.2637 15C47.4741 15.3774 47.5806 15.7701 47.5806 16.1669C47.5806 16.5314 47.4813 16.8766 47.3298 17.1959C46.7709 15.6387 45.2951 14.516 43.5483 14.516H42.7419V10.4838H41.129C41.129 11.8177 40.0436 12.9031 38.7097 12.9031C38.2242 12.9031 37.7564 12.7596 37.3557 12.4886L36.4888 11.9015L36.142 12.8901C35.8024 13.8619 34.8895 14.5159 33.871 14.5159C32.8524 14.5159 31.9396 13.8619 31.6 12.8901L31.2532 11.9015L30.3863 12.4886C29.9868 12.7594 29.515 12.9038 29.0323 12.9031C27.6984 12.9031 26.613 11.8177 26.613 10.4838C26.613 9.1499 27.6984 8.06445 29.0323 8.06445V6.45166C26.9888 6.45166 25.3138 7.98555 25.0533 9.95889L24.0033 10.4839C22.6283 11.1726 21.7743 12.5532 21.7743 14.0903V14.5161H20.9679C19.2082 14.5161 17.7235 15.6572 17.1743 17.2322C17.0122 16.904 16.9082 16.5451 16.9082 16.1661C16.9082 15.7693 17.0146 15.3766 17.2243 14.9992L17.5558 14.4032L17.0227 13.9782C16.4372 13.5113 16.1017 12.825 16.1017 12.0968C16.1017 11.1678 16.6274 10.3363 17.475 9.92744L18.1411 9.60645L17.8782 8.91533C17.7693 8.62988 17.7146 8.34355 17.7146 8.06533C17.7146 6.73144 18.8 5.646 20.0807 5.64355L20.8646 5.68389L21.0259 5.05C21.3984 3.59189 23.0992 2.754 24.521 3.54033L25.1161 3.86934L25.5411 3.33789C26.0072 2.754 26.6919 2.41934 27.4193 2.41934C28.1354 2.41934 28.6597 2.73789 28.9742 3.00479L29.7009 3.62168L30.188 2.80234C30.6331 2.05801 31.4065 1.61279 32.2581 1.61279C33.1049 1.61279 33.8759 2.05313 34.321 2.79023L34.8073 3.59512L35.5299 2.99268C35.8412 2.73135 36.363 2.41934 37.0694 2.41934C37.7961 2.41934 38.4808 2.754 38.9484 3.33789L39.3727 3.86855L39.9678 3.53955C41.3911 2.75166 43.0903 3.59033 43.4629 5.04922L43.6242 5.68311L44.2791 5.65566C44.3227 5.654 44.3654 5.64922 44.3549 5.64521C45.6888 5.64521 46.7742 6.73066 46.7742 8.06455C46.7742 8.34033 46.7193 8.62666 46.6097 8.91621L46.3492 9.60576L47.0129 9.92676C47.8612 10.3364 48.3871 11.1687 48.3871 12.0969C48.3871 12.8258 48.0516 13.5113 47.4661 13.9774Z" fill="white"/>
</svg>
