<svg width="50" height="50" viewBox="0 0 50 50" fill="none" xmlns="http://www.w3.org/2000/svg">
<g clip-path="url(#clip0_4342_4485)">
<path d="M18.75 32.1694V24.6093C18.75 23.1015 17.5234 21.8749 16.0156 21.8749C15.5945 21.8749 15.2 21.9788 14.8438 22.1491V17.578C14.8438 16.0702 13.6172 14.8436 12.1094 14.8436C11.6883 14.8436 11.2937 14.9475 10.9375 15.1179V12.8905C10.9375 11.3827 9.71094 10.1561 8.20312 10.1561C6.93359 10.1561 5.87187 11.0311 5.56641 12.2061C5.07052 11.8893 4.49469 11.7202 3.90625 11.7186C2.18281 11.7186 0.78125 13.1202 0.78125 14.8436V28.1249C0.78125 28.2554 0.814062 28.3843 0.876562 28.4991L5.56406 37.0929C5.6 37.1577 5.64531 37.2186 5.69766 37.271L11.8141 43.3874C12.2519 43.8279 12.4984 44.4233 12.5 45.0444V48.4374C12.5 48.6446 12.5823 48.8433 12.7288 48.9898C12.8753 49.1363 13.074 49.2186 13.2812 49.2186H22.6562C22.8635 49.2186 23.0622 49.1363 23.2087 48.9898C23.3552 48.8433 23.4375 48.6446 23.4375 48.4374V38.7319C23.4387 37.7421 23.063 36.789 22.3867 36.0663L18.75 32.1694ZM16.0156 23.4374C16.6617 23.4374 17.1875 23.9632 17.1875 24.6093V30.4952L14.8438 27.9843V24.6093C14.8438 23.9632 15.3695 23.4374 16.0156 23.4374ZM12.1094 16.4061C12.7555 16.4061 13.2812 16.9319 13.2812 17.578V26.31L12.7531 25.7444C12.5335 25.5099 12.2682 25.3228 11.9736 25.1948C11.6789 25.0667 11.3611 25.0004 11.0398 24.9999H10.9375V17.578C10.9375 16.9319 11.4633 16.4061 12.1094 16.4061ZM7.03125 12.8905C7.03125 12.2444 7.55703 11.7186 8.20312 11.7186C8.84922 11.7186 9.375 12.2444 9.375 12.8905V25.6077C9.02812 25.9202 8.76953 26.3304 8.65781 26.7999L7.03125 24.7296V14.8436V12.8905ZM21.875 47.6561H14.0625V45.0444C14.0625 44.0015 13.6562 43.0202 12.9187 42.2827L6.88203 36.246L2.34375 27.9257V14.8436C2.34375 13.9819 3.04453 13.2811 3.90625 13.2811C4.76797 13.2811 5.46875 13.9819 5.46875 14.8436V24.9999C5.46879 25.175 5.52767 25.3451 5.63594 25.4827L14.2297 36.4202L15.4578 35.4554L10.1562 28.7069V27.3436C10.1562 26.9132 10.507 26.5624 10.9375 26.5624H11.0398C11.2555 26.5624 11.4633 26.653 11.6109 26.8101L21.2453 37.1319C21.6508 37.5679 21.875 38.1358 21.875 38.7319V47.6561ZM46.0938 11.7186C45.4828 11.7186 44.9164 11.9015 44.4336 12.2061C44.1281 11.0311 43.0664 10.1561 41.7969 10.1561C40.2891 10.1561 39.0625 11.3827 39.0625 12.8905V15.1179C38.6974 14.9397 38.2969 14.8459 37.8906 14.8436C36.3828 14.8436 35.1562 16.0702 35.1562 17.578V22.1491C34.7912 21.9709 34.3906 21.8772 33.9844 21.8749C32.4766 21.8749 31.25 23.1015 31.25 24.6093V32.1694L27.6133 36.0663C26.937 36.789 26.5613 37.7421 26.5625 38.7319V48.4374C26.5625 48.6446 26.6448 48.8433 26.7913 48.9898C26.9378 49.1363 27.1365 49.2186 27.3438 49.2186H36.7188C36.9259 49.2186 37.1247 49.1363 37.2712 48.9898C37.4177 48.8433 37.5 48.6446 37.5 48.4374V45.0444C37.5 44.4272 37.75 43.8241 38.1859 43.3874L44.3023 37.271C44.3549 37.2181 44.3999 37.1581 44.4359 37.0929L49.1234 28.4991C49.1859 28.3843 49.2188 28.2554 49.2188 28.1249V14.8436C49.2188 13.1202 47.8172 11.7186 46.0938 11.7186ZM40.625 12.8905C40.625 12.2444 41.1508 11.7186 41.7969 11.7186C42.443 11.7186 42.9688 12.2444 42.9688 12.8905V24.7296L41.3422 26.7991C41.2295 26.3382 40.9794 25.9224 40.625 25.6069V17.578V12.8905ZM36.7188 17.578C36.7188 16.9319 37.2445 16.4061 37.8906 16.4061C38.5367 16.4061 39.0625 16.9319 39.0625 17.578V24.9999H38.9602C38.3125 24.9999 37.6883 25.2718 37.2469 25.7444L36.7188 26.3108V24.6093V17.578ZM32.8125 24.6093C32.8125 23.9632 33.3383 23.4374 33.9844 23.4374C34.6305 23.4374 35.1562 23.9632 35.1562 24.6093V27.9843L32.8125 30.4952V24.6093ZM47.6562 27.9257L43.118 36.2452L37.0812 42.2819C36.7175 42.644 36.4291 43.0745 36.2328 43.5487C36.0365 44.0228 35.9361 44.5312 35.9375 45.0444V47.6561H28.125V38.7319C28.125 38.1358 28.3492 37.5679 28.7555 37.1327L38.3898 26.8108C38.4628 26.7326 38.5511 26.6701 38.6492 26.6274C38.7473 26.5847 38.8531 26.5625 38.9602 26.5624H39.0625C39.493 26.5624 39.8438 26.9132 39.8438 27.3436V28.7069L34.5422 35.4546L35.7703 36.4194L44.3641 25.4819C44.4725 25.3447 44.5314 25.1748 44.5312 24.9999V14.8436C44.5312 13.9819 45.232 13.2811 46.0938 13.2811C46.9555 13.2811 47.6562 13.9819 47.6562 14.8436V27.9257ZM36.7047 7.21708C36.6452 6.18631 36.3536 5.18229 35.8517 4.27998C35.3498 3.37768 34.6506 2.60039 33.8062 2.00614C32.5908 1.15237 31.1266 0.725739 29.6428 0.79303C28.159 0.860321 26.7394 1.41774 25.6063 2.37802L25 2.89208L24.393 2.37802C23.2598 1.41774 21.8402 0.860321 20.3564 0.79303C18.8726 0.725739 17.4084 1.15237 16.193 2.00614C15.3486 2.60039 14.6494 3.37768 14.1475 4.27998C13.6457 5.18229 13.3541 6.18631 13.2945 7.21708C13.2254 8.25103 13.3909 9.28722 13.7784 10.2483C14.166 11.2093 14.7657 12.0704 15.5328 12.7671L24.4742 20.8991C24.6181 21.03 24.8055 21.1025 25 21.1025C25.1945 21.1025 25.3819 21.03 25.5258 20.8991L34.4672 12.7671C35.234 12.0702 35.8335 11.2091 36.2209 10.2481C36.6083 9.28705 36.7737 8.25095 36.7047 7.21708ZM25 19.2663L16.5844 11.6124C15.9912 11.0726 15.5275 10.4058 15.228 9.66181C14.9285 8.9178 14.8009 8.11575 14.8547 7.31552C14.9001 6.51851 15.1251 5.74207 15.5126 5.04416C15.9002 4.34626 16.4404 3.74492 17.093 3.28505C18.025 2.62948 19.1484 2.30186 20.2867 2.35361C21.4251 2.40536 22.5141 2.83355 23.3828 3.57099L24.4945 4.51317C24.7859 4.75927 25.2133 4.75927 25.5047 4.51317L26.6172 3.57021C27.4862 2.83339 28.5751 2.40561 29.7133 2.35386C30.8515 2.30212 31.9747 2.62934 32.907 3.28427C33.5596 3.74414 34.0998 4.34548 34.4874 5.04338C34.8749 5.74129 35.0999 6.51773 35.1453 7.31474C35.1993 8.11498 35.0717 8.91708 34.7722 9.66113C34.4727 10.4052 34.009 11.0719 33.4156 11.6116L25 19.2663Z" fill="#70A6B1"/>
</g>
<defs>
<clipPath id="clip0_4342_4485">
<rect width="50" height="50" fill="white"/>
</clipPath>
</defs>
</svg>
