<svg width="20" height="20" viewBox="0 0 20 20" fill="none" xmlns="http://www.w3.org/2000/svg">
<path d="M11.25 6.25H8.75C8.41848 6.25 8.10054 6.3817 7.86612 6.61612C7.6317 6.85054 7.5 7.16848 7.5 7.5V16.875C7.5 17.2065 7.6317 17.5245 7.86612 17.7589C8.10054 17.9933 8.41848 18.125 8.75 18.125H11.25C11.5815 18.125 11.8995 17.9933 12.1339 17.7589C12.3683 17.5245 12.5 17.2065 12.5 16.875V7.5C12.5 7.16848 12.3683 6.85054 12.1339 6.61612C11.8995 6.3817 11.5815 6.25 11.25 6.25ZM8.75 16.875V7.5H11.25V16.875H8.75ZM17.5 1.875H15C14.6685 1.875 14.3505 2.0067 14.1161 2.24112C13.8817 2.47554 13.75 2.79348 13.75 3.125V16.875C13.75 17.2065 13.8817 17.5245 14.1161 17.7589C14.3505 17.9933 14.6685 18.125 15 18.125H17.5C17.8315 18.125 18.1495 17.9933 18.3839 17.7589C18.6183 17.5245 18.75 17.2065 18.75 16.875V3.125C18.75 2.79348 18.6183 2.47554 18.3839 2.24112C18.1495 2.0067 17.8315 1.875 17.5 1.875ZM15 16.875V3.125H17.5V16.875H15ZM5 10.625H2.5C2.16848 10.625 1.85054 10.7567 1.61612 10.9911C1.3817 11.2255 1.25 11.5435 1.25 11.875V16.875C1.25 17.2065 1.3817 17.5245 1.61612 17.7589C1.85054 17.9933 2.16848 18.125 2.5 18.125H5C5.33152 18.125 5.64946 17.9933 5.88388 17.7589C6.1183 17.5245 6.25 17.2065 6.25 16.875V11.875C6.25 11.5435 6.1183 11.2255 5.88388 10.9911C5.64946 10.7567 5.33152 10.625 5 10.625ZM2.5 16.875V11.875H5V16.875H2.5Z" fill="#F39F5F"/>
</svg>
