<svg width="20" height="20" viewBox="0 0 20 20" fill="none" xmlns="http://www.w3.org/2000/svg">
<path d="M13.9392 19.6967H3.75734C2.90885 19.6967 2.24219 19.03 2.24219 18.1815V1.81789C2.24219 0.969401 2.90885 0.302734 3.75734 0.302734H16.2422C17.0907 0.302734 17.7573 0.969401 17.7573 1.81789V15.9694C17.7573 16.1512 17.6361 16.2724 17.4543 16.2724C17.2725 16.2724 17.1513 16.1512 17.1513 15.9694V1.81789C17.1513 1.30273 16.7573 0.908795 16.2422 0.908795H3.75734C3.24219 0.908795 2.84825 1.30273 2.84825 1.81789V18.1815C2.84825 18.6967 3.24219 19.0906 3.75734 19.0906H13.9392C14.121 19.0906 14.2422 19.2118 14.2422 19.3936C14.2422 19.5755 14.121 19.6967 13.9392 19.6967Z" fill="#F39F5F"/>
<path d="M13.9995 19.6964H13.9692C13.7874 19.6964 13.6662 19.5752 13.6662 19.3933V17.0903C13.6662 16.3024 14.3026 15.6661 15.0904 15.6661H17.4238C17.545 15.6661 17.6662 15.7267 17.6965 15.8479C17.7571 15.9691 17.7268 16.0903 17.6359 16.1812L14.2116 19.6055C14.151 19.6661 14.0904 19.6964 13.9995 19.6964ZM15.0904 16.2721C14.6359 16.2721 14.2723 16.6358 14.2723 17.0903V18.6964L16.6965 16.2721H15.0904ZM10.0298 5.30244C9.99953 5.30244 9.96922 5.30244 9.93892 5.27214L5.6965 3.84789C5.57528 3.81759 5.48438 3.69638 5.48438 3.57517C5.48438 3.45395 5.57528 3.33274 5.6965 3.30244L9.93892 1.8782C9.99953 1.84789 10.0601 1.84789 10.1207 1.8782L14.242 3.30244C14.3632 3.33274 14.4541 3.45395 14.4541 3.57517C14.4541 3.69638 14.3632 3.81759 14.242 3.84789L10.1207 5.27214C10.0904 5.30244 10.0601 5.30244 10.0298 5.30244ZM6.7268 3.57517L10.0298 4.66607L13.2116 3.57517L10.0298 2.48426L6.7268 3.57517Z" fill="#F39F5F"/>
<path d="M9.99929 7.0005C9.02959 7.0005 8.02959 6.9399 6.99929 6.81869C6.84777 6.78838 6.72656 6.66717 6.72656 6.51565V4.03081C6.72656 3.84899 6.84777 3.72778 7.02959 3.72778C7.21141 3.72778 7.33262 3.84899 7.33262 4.03081V6.24293C9.1205 6.42475 10.8781 6.45505 12.5447 6.24293V4.03081C12.5447 3.84899 12.666 3.72778 12.8478 3.72778C13.0296 3.72778 13.1508 3.84899 13.1508 4.03081V6.51565C13.1508 6.66717 13.0296 6.78838 12.8781 6.81869C11.969 6.9399 10.9993 7.0005 9.99929 7.0005ZM13.9993 6.36414C13.8175 6.36414 13.6963 6.24293 13.6963 6.06111V3.78838C13.6963 3.60656 13.8175 3.48535 13.9993 3.48535C14.1811 3.48535 14.3023 3.60656 14.3023 3.78838V6.06111C14.3023 6.24293 14.1811 6.36414 13.9993 6.36414Z" fill="#F39F5F"/>
<path d="M14.2093 6.48497H13.8153C13.6335 6.48497 13.5123 6.36375 13.5123 6.18194C13.5123 6.00012 13.6335 5.87891 13.8153 5.87891H14.2093C14.3911 5.87891 14.5123 6.00012 14.5123 6.18194C14.5123 6.36375 14.3911 6.48497 14.2093 6.48497ZM14.785 9.42436H8.57292C8.3911 9.42436 8.26989 9.30315 8.26989 9.12133C8.26989 8.93951 8.3911 8.8183 8.57292 8.8183H14.785C14.9669 8.8183 15.0881 8.93951 15.0881 9.12133C15.0881 9.30315 14.9669 9.42436 14.785 9.42436ZM14.785 11.9395H8.57292C8.3911 11.9395 8.26989 11.8183 8.26989 11.6365C8.26989 11.4547 8.3911 11.3335 8.57292 11.3335H14.785C14.9669 11.3335 15.0881 11.4547 15.0881 11.6365C15.0881 11.8183 14.9669 11.9395 14.785 11.9395ZM14.785 14.4547H8.57292C8.3911 14.4547 8.26989 14.3335 8.26989 14.1516C8.26989 13.9698 8.3911 13.8486 8.57292 13.8486H14.785C14.9669 13.8486 15.0881 13.9698 15.0881 14.1516C15.0881 14.3335 14.9669 14.4547 14.785 14.4547ZM11.6941 16.9698H8.57292C8.3911 16.9698 8.26989 16.8486 8.26989 16.6668C8.26989 16.485 8.3911 16.3638 8.57292 16.3638H11.6941C11.8759 16.3638 11.9972 16.485 11.9972 16.6668C11.9972 16.8486 11.8759 16.9698 11.6941 16.9698ZM6.33049 9.96982H5.20928C5.02746 9.96982 4.90625 9.8486 4.90625 9.66679V8.54557C4.90625 8.36376 5.02746 8.24254 5.20928 8.24254H6.33049C6.51231 8.24254 6.63352 8.36376 6.63352 8.54557V9.66679C6.63352 9.8486 6.51231 9.96982 6.33049 9.96982ZM5.51231 9.36375H6.02746V8.8486H5.51231V9.36375ZM6.33049 12.485H5.20928C5.02746 12.485 4.90625 12.3638 4.90625 12.1819V11.0607C4.90625 10.8789 5.02746 10.7577 5.20928 10.7577H6.33049C6.51231 10.7577 6.63352 10.8789 6.63352 11.0607V12.1819C6.63352 12.3638 6.51231 12.485 6.33049 12.485ZM5.51231 11.8789H6.02746V11.3638H5.51231V11.8789ZM6.33049 15.0001H5.20928C5.02746 15.0001 4.90625 14.8789 4.90625 14.6971V13.5759C4.90625 13.3941 5.02746 13.2728 5.20928 13.2728H6.33049C6.51231 13.2728 6.63352 13.3941 6.63352 13.5759V14.6971C6.63352 14.8789 6.51231 15.0001 6.33049 15.0001ZM5.51231 14.3941H6.02746V13.8789H5.51231V14.3941ZM6.33049 17.5153H5.20928C5.02746 17.5153 4.90625 17.3941 4.90625 17.2122V16.091C4.90625 15.9092 5.02746 15.788 5.20928 15.788H6.33049C6.51231 15.788 6.63352 15.9092 6.63352 16.091V17.2122C6.63352 17.3941 6.51231 17.5153 6.33049 17.5153ZM5.51231 16.9092H6.02746V16.3941H5.51231V16.9092Z" fill="#F39F5F"/>
</svg>
