<svg width="20" height="20" viewBox="0 0 20 20" fill="none" xmlns="http://www.w3.org/2000/svg">
<path fill-rule="evenodd" clip-rule="evenodd" d="M10.0013 4.11565C9.68563 3.50373 9.20764 2.99048 8.61969 2.63213C8.03175 2.27377 7.35652 2.08414 6.66797 2.08398C4.59839 2.08398 2.91797 3.7644 2.91797 5.83398C2.91797 7.90357 4.59839 9.58398 6.66797 9.58398C7.35652 9.58383 8.03175 9.3942 8.61969 9.03584C9.20764 8.67749 9.68563 8.16424 10.0013 7.55232C10.3169 8.1643 10.7949 8.6776 11.3828 9.03596C11.9708 9.39433 12.6461 9.58393 13.3346 9.58398C15.4042 9.58398 17.0846 7.90357 17.0846 5.83398C17.0846 3.7644 15.4042 2.08398 13.3346 2.08398C12.6461 2.08414 11.9709 2.27377 11.3829 2.63213C10.795 2.99048 10.317 3.50373 10.0013 4.11565ZM13.3346 2.91732C14.9442 2.91732 16.2513 4.2244 16.2513 5.83398C16.2513 7.44357 14.9442 8.75065 13.3346 8.75065C11.7251 8.75065 10.418 7.44357 10.418 5.83398C10.418 4.2244 11.7251 2.91732 13.3346 2.91732ZM6.66797 2.91732C8.27755 2.91732 9.58464 4.2244 9.58464 5.83398C9.58464 7.44357 8.27755 8.75065 6.66797 8.75065C5.05839 8.75065 3.7513 7.44357 3.7513 5.83398C3.7513 4.2244 5.05839 2.91732 6.66797 2.91732ZM10.0013 10.7298C10.518 10.5282 11.0801 10.4173 11.668 10.4173H15.0013C17.5326 10.4173 19.5846 12.4694 19.5846 15.0007V16.6673C19.5846 16.9988 19.4529 17.3168 19.2185 17.5512C18.9841 17.7856 18.6662 17.9173 18.3346 17.9173H1.66797C1.33645 17.9173 1.01851 17.7856 0.784085 17.5512C0.549665 17.3168 0.417969 16.9988 0.417969 16.6673V15.0007C0.417969 12.4694 2.47005 10.4173 5.0013 10.4173H8.33464C8.92255 10.4173 9.48464 10.5282 10.0013 10.7298ZM12.0846 15.0007V16.6673C12.0846 16.7778 12.0407 16.8838 11.9626 16.9619C11.8845 17.0401 11.7785 17.084 11.668 17.084H1.66797C1.55746 17.084 1.45148 17.0401 1.37334 16.9619C1.2952 16.8838 1.2513 16.7778 1.2513 16.6673V15.0007C1.2513 14.0061 1.64639 13.0523 2.34965 12.349C3.05291 11.6457 4.00674 11.2507 5.0013 11.2507H8.33464C9.3292 11.2507 10.283 11.6457 10.9863 12.349C11.6895 13.0523 12.0846 14.0061 12.0846 15.0007ZM12.8467 17.084H18.3346C18.4451 17.084 18.5511 17.0401 18.6293 16.9619C18.7074 16.8838 18.7513 16.7778 18.7513 16.6673V15.0007C18.7513 14.0061 18.3562 13.0523 17.653 12.349C16.9497 11.6457 15.9959 11.2507 15.0013 11.2507H11.668C11.4551 11.2507 11.2459 11.2686 11.0426 11.3027C11.6242 11.728 12.0972 12.2845 12.4231 12.9271C12.749 13.5697 12.9185 14.2802 12.918 15.0007V16.6673C12.918 16.8136 12.893 16.9536 12.8467 17.084Z" fill="#F39F5F"/>
</svg>
