<svg width="20" height="20" viewBox="0 0 20 20" fill="none" xmlns="http://www.w3.org/2000/svg">
<path d="M17.5927 14.6462C18.4506 13.2485 18.9037 11.64 18.9015 9.99999C18.9037 8.35989 18.4506 6.75117 17.5927 5.35339L17.5879 5.34559C16.7919 4.04823 15.6765 2.97667 14.3484 2.23331C13.0202 1.48994 11.5235 1.09961 10.0015 1.09961C8.4794 1.09961 6.98277 1.48994 5.65458 2.23331C4.32639 2.97667 3.21102 4.04823 2.41507 5.34559L2.41027 5.35339C1.55445 6.7521 1.10156 8.36002 1.10156 9.99979C1.10156 11.6396 1.55445 13.2475 2.41027 14.6462L2.41527 14.6542C3.21125 15.9515 4.32662 17.023 5.6548 17.7663C6.98298 18.5096 8.47959 18.8999 10.0016 18.8999C11.5237 18.8999 13.0203 18.5095 14.3484 17.7662C15.6766 17.0228 16.7919 15.9513 17.5879 14.654L17.5927 14.6462ZM11.1391 17.3744C10.9694 17.5381 10.7742 17.6729 10.5611 17.7736C10.3862 17.8567 10.195 17.8998 10.0014 17.8998C9.80774 17.8998 9.61655 17.8567 9.44167 17.7736C9.03618 17.5665 8.68907 17.261 8.43207 16.8852C7.90723 16.1267 7.51831 15.2827 7.28267 14.391C8.188 14.3353 9.09427 14.3069 10.0015 14.3058C10.9083 14.3058 11.8146 14.3342 12.7205 14.391C12.59 14.8495 12.4271 15.2981 12.2329 15.7334C11.9771 16.3456 11.6058 16.9028 11.1391 17.3744ZM2.11887 10.4998H5.70867C5.73206 11.5015 5.84065 12.4993 6.03327 13.4826C5.05193 13.569 4.07313 13.6877 3.09687 13.8386C2.52512 12.8129 2.1909 11.6719 2.11887 10.4998ZM3.09687 6.16119C4.07273 6.31239 5.05187 6.43105 6.03427 6.51719C5.84131 7.50034 5.73252 8.49815 5.70907 9.49979H2.11887C2.19093 8.32776 2.52514 7.18685 3.09687 6.16119ZM8.86387 2.62519C9.03349 2.4615 9.22873 2.32666 9.44187 2.22599C9.61675 2.14289 9.80794 2.09978 10.0016 2.09978C10.1952 2.09978 10.3864 2.14289 10.5613 2.22599C10.9668 2.43309 11.3139 2.73853 11.5709 3.11439C12.0957 3.87286 12.4846 4.71684 12.7203 5.60859C11.8149 5.66432 10.9087 5.69272 10.0015 5.69379C9.09467 5.69379 8.18833 5.66539 7.28247 5.60859C7.41292 5.15011 7.57587 4.70151 7.77007 4.26619C8.02579 3.65396 8.39717 3.09679 8.86387 2.62519ZM17.8841 9.49979H14.2943C14.2709 8.49811 14.1623 7.50025 13.9697 6.51699C14.951 6.43059 15.9298 6.31192 16.9061 6.16099C17.4778 7.18671 17.812 8.32769 17.8841 9.49979ZM7.03907 13.4048C6.84353 12.4481 6.7331 11.476 6.70907 10.4998H13.2941C13.2703 11.476 13.16 12.4482 12.9647 13.405C11.978 13.3402 10.9903 13.3071 10.0015 13.3058C9.01347 13.3058 8.026 13.3388 7.03907 13.4048ZM12.9639 6.59479C13.1594 7.55148 13.2698 8.52361 13.2939 9.49979H6.70907C6.73287 8.52356 6.8431 7.55136 7.03847 6.59459C8.02513 6.65939 9.01287 6.69245 10.0017 6.69379C10.9897 6.69379 11.9771 6.66072 12.9641 6.59459L12.9639 6.59479ZM14.2939 10.4998H17.8841C17.812 11.6718 17.4778 12.8127 16.9061 13.8384C15.9301 13.6872 14.9509 13.5685 13.9687 13.4824C14.1616 12.4992 14.2704 11.5014 14.2939 10.4998ZM16.3065 5.24079C15.4531 5.36385 14.5973 5.46132 13.7391 5.53319C13.5848 4.95879 13.3859 4.39735 13.1441 3.85399C12.9233 3.354 12.6454 2.8812 12.3161 2.44499C13.9076 2.93312 15.3042 3.91162 16.3065 5.24079ZM4.41547 4.41359C5.32845 3.49973 6.45167 2.82378 7.68667 2.44499C7.66787 2.46939 7.64867 2.49259 7.63027 2.51719C6.99546 3.43097 6.53306 4.4531 6.26587 5.53319C5.40747 5.46052 4.55107 5.36305 3.69667 5.24079C3.91699 4.94888 4.15716 4.67249 4.41547 4.41359ZM3.69667 14.7588C4.54987 14.6357 5.40567 14.5383 6.26407 14.4664C6.41831 15.0408 6.61725 15.6022 6.85907 16.1456C7.07989 16.6456 7.35773 17.1184 7.68707 17.5546C6.09554 17.0665 4.69894 16.0879 3.69667 14.7588ZM15.5879 15.586C14.6749 16.4999 13.5517 17.1758 12.3167 17.5546C12.3355 17.5302 12.3547 17.507 12.3731 17.4824C13.0079 16.5686 13.4703 15.5465 13.7375 14.4664C14.5959 14.5391 15.4523 14.6365 16.3067 14.7588C16.0863 15.0507 15.8462 15.3271 15.5879 15.586Z" fill="#F39F5F"/>
</svg>
