<svg width="60" height="60" viewBox="0 0 60 60" fill="none" xmlns="http://www.w3.org/2000/svg">
<g clip-path="url(#clip0_4271_861)">
<path d="M47.7264 29.0601C45.3092 27.8179 42.1924 28.5386 40.7786 30.6656L34.3452 40.35C34.2785 40.4496 34.1639 40.4917 34.036 40.4613C31.0858 39.7593 28.4541 39.7593 25.5012 40.4625C25.3759 40.4929 25.2613 40.4507 25.1934 40.35L18.7613 30.6667C17.3474 28.5386 14.2307 27.8191 11.8121 29.0613C9.39626 30.3046 8.57942 33.0457 9.99056 35.1714L19.4688 49.446C19.4995 49.4929 19.5061 49.5164 19.5061 49.5703V57.8812C19.5061 59.0507 20.5882 60.0023 21.918 60.0023H37.6205C38.9504 60.0023 40.0324 59.0507 40.0324 57.8812V49.5703C40.0324 49.5152 40.039 49.4917 40.0684 49.4484L49.5493 35.1714C50.9604 33.0445 50.1436 30.3046 47.7264 29.0601ZM47.7064 34.2234L38.2228 48.5039C38.0043 48.8355 37.8977 49.1847 37.8977 49.5691V57.88C37.8977 58.0125 37.7711 58.1238 37.6205 58.1238H21.9193C21.7688 58.1238 21.6422 58.0125 21.6422 57.88V49.5691C21.6422 49.1847 21.5356 48.8367 21.3157 48.5015L11.8348 34.2246C11.0166 32.9917 11.4897 31.4027 12.8901 30.682C13.3387 30.4508 13.8493 30.3291 14.3692 30.3292C15.3833 30.3292 16.372 30.7898 16.9197 31.6136L23.3518 41.2957C23.9088 42.1382 25.0001 42.5308 26.0635 42.2742C28.6619 41.6554 30.8806 41.6554 33.4764 42.273C34.5437 42.5296 35.635 42.1371 36.1907 41.2968L42.6228 31.6136C43.4423 30.3796 45.2492 29.9613 46.651 30.6808C48.0502 31.4015 48.5246 32.9917 47.7064 34.2234ZM29.7679 25.4039C25.5718 25.4039 22.1592 28.4062 22.1592 32.0953C22.1592 35.7843 25.5731 38.7867 29.7679 38.7867C33.9654 38.7867 37.3807 35.7843 37.3807 32.0953C37.3807 28.4062 33.9654 25.4039 29.7679 25.4039ZM29.7679 36.9105C26.7484 36.9105 24.2926 34.7507 24.2926 32.0953C24.2926 29.4398 26.7484 27.28 29.7679 27.28C32.7888 27.28 35.2473 29.4398 35.2473 32.0953C35.2473 34.7507 32.7888 36.9105 29.7679 36.9105ZM29.7679 18.3457C35.5191 18.3457 40.199 14.23 40.199 9.17222C40.199 4.1144 35.5191 -0.0012207 29.7679 -0.0012207C24.0181 -0.0012207 19.3409 4.1144 19.3409 9.17222C19.3409 14.23 24.0181 18.3457 29.7679 18.3457ZM29.7679 1.87495C34.3425 1.87495 38.0642 5.148 38.0642 9.17105C38.0642 13.1941 34.3425 16.4671 29.7679 16.4671C25.1947 16.4671 21.4756 13.1941 21.4756 9.17105C21.4743 5.14917 25.1947 1.87495 29.7679 1.87495ZM24.5897 8.89214C24.1726 8.52534 24.1726 7.9312 24.5897 7.5644C25.0068 7.19761 25.6824 7.19761 26.0995 7.5644L29.0084 10.1226L33.4404 6.22495C33.8575 5.85815 34.533 5.85815 34.9501 6.22495C35.3672 6.59175 35.3672 7.18589 34.9501 7.55269L29.7639 12.1136C29.5561 12.2964 29.2829 12.389 29.0097 12.389C28.7366 12.389 28.4634 12.2976 28.2555 12.1136L24.5897 8.89214ZM56.4558 15.0937C56.2213 14.4433 55.5417 14.0062 54.7595 14.0062L51.3122 14.0121L50.2502 11.1246C50.2502 11.1234 50.2489 11.121 50.2489 11.1199C50.0077 10.4742 49.3281 10.0394 48.5592 10.0394C47.7877 10.0394 47.1068 10.473 46.8643 11.1257L45.8062 14.0121L42.3536 14.0062C41.5834 14.0062 40.9052 14.4386 40.664 15.0832C40.4215 15.7324 40.6827 16.4378 41.3129 16.8375L44.1073 18.6152L43.0292 21.5074C42.796 22.1554 43.0586 22.8574 43.6768 23.2488C43.9887 23.4492 44.3538 23.55 44.7202 23.55C45.088 23.55 45.4558 23.4492 45.7689 23.2476L48.5592 21.4617L51.3442 23.2464C51.9692 23.6484 52.81 23.6507 53.4429 23.25C54.0679 22.848 54.3251 22.1437 54.0839 21.5003L53.0112 18.614L55.8108 16.8351C56.4358 16.4332 56.693 15.73 56.4558 15.0937ZM51.5441 17.23C50.9205 17.6308 50.6633 18.3351 50.9031 18.9832L51.712 21.1593L49.6026 19.807C49.2895 19.6089 48.923 19.5093 48.5579 19.5093C48.1901 19.5093 47.8237 19.6101 47.5132 19.8093L45.4051 21.1593L46.2166 18.9843L46.2206 18.9714C46.4498 18.3269 46.1887 17.6273 45.5664 17.2265L43.457 15.8847L46.0634 15.8894C46.8349 15.8894 47.5145 15.4558 47.7584 14.8031L48.5579 12.6199L49.3587 14.7984C49.5933 15.4511 50.2742 15.8882 51.0537 15.8882L53.6601 15.8835L51.5441 17.23ZM13.7683 23.2464C14.0841 23.4492 14.4532 23.5511 14.8223 23.5511C15.1861 23.5511 15.5499 23.4515 15.8577 23.2535C16.4826 22.8574 16.7451 22.1566 16.508 21.4992L15.4326 18.6164L18.2256 16.8398C18.8572 16.439 19.1184 15.7335 18.8759 15.0843C18.7593 14.7706 18.5328 14.4974 18.2287 14.304C17.9247 14.1105 17.5588 14.0067 17.1835 14.0074L13.7336 14.0132L12.6756 11.1269C12.6756 11.1246 12.6743 11.1234 12.6743 11.121C12.5577 10.8068 12.3311 10.5331 12.0269 10.339C11.7227 10.145 11.3565 10.0405 10.9806 10.0406C10.2118 10.0406 9.53217 10.4742 9.28965 11.1257L8.22763 14.0132L4.77905 14.0074C3.99952 14.0074 3.31993 14.4445 3.0894 15.0843C2.84822 15.73 3.10539 16.4343 3.73568 16.8398L6.52999 18.6152L5.45864 21.4992C5.21612 22.1449 5.47463 22.8492 6.10491 23.2546C6.40931 23.4483 6.77569 23.552 7.15136 23.551C7.52704 23.5499 7.89266 23.4441 8.19565 23.2488L10.982 21.4628L13.7683 23.2464ZM7.82787 21.1605L8.63671 18.9832C8.87657 18.3363 8.61806 17.632 7.99044 17.2277L5.87838 15.8859L8.48747 15.8906C9.26567 15.8906 9.94659 15.4523 10.1784 14.8054L10.9806 12.6222L11.7828 14.8101C12.024 15.4558 12.7049 15.8906 13.4778 15.8906L16.0815 15.8859L13.9668 17.2312C13.3499 17.6285 13.0887 18.3281 13.3179 18.9726L13.3219 18.9855L14.1334 21.1605L12.0267 19.8117C11.7233 19.616 11.3568 19.5105 10.9806 19.5105C10.6142 19.5105 10.2464 19.6101 9.92927 19.8105L7.82787 21.1605Z" fill="white"/>
</g>
<defs>
<clipPath id="clip0_4271_861">
<rect width="60" height="60" fill="white"/>
</clipPath>
</defs>
</svg>
