<svg width="58" height="60" viewBox="0 0 58 60" fill="none" xmlns="http://www.w3.org/2000/svg">
<path d="M56.5009 37.2343C56.3071 37.0523 56.1337 36.8914 55.9778 36.7468C55.3667 36.18 55.0599 35.8954 54.9087 35.6334C54.7574 35.3715 54.6645 34.9637 54.479 34.151C54.4317 33.9437 54.379 33.713 54.3183 33.4541C53.9744 31.9861 52.7318 30.9435 51.2265 30.8597C50.9884 30.8466 50.7503 30.8342 50.5122 30.8227C49.6797 30.7812 49.2619 30.7603 48.9776 30.6568C48.6934 30.5535 48.3599 30.3007 47.6956 29.7974C47.5261 29.6691 47.3375 29.5261 47.1247 29.3668C45.9177 28.4633 44.2956 28.4633 43.0886 29.3668C42.8979 29.5098 42.7077 29.6533 42.5178 29.7973C41.8533 30.3007 41.5198 30.5534 41.2355 30.6568C41.1166 30.7002 40.9736 30.7289 40.7872 30.7508C37.7124 27.9906 34.0312 26.0875 30.0727 25.1709C34.3543 23.1152 37.3175 18.7363 37.3175 13.678C37.3176 6.65285 31.6022 0.9375 24.5771 0.9375C17.5519 0.9375 11.8366 6.65285 11.8366 13.678C11.8366 18.7365 14.8 23.1157 19.0819 25.1713C15.0945 26.0953 11.3825 28.0196 8.2968 30.8101C3.86079 34.8218 1.06868 40.2922 0.435047 46.2137C0.421 46.3445 0.434642 46.4768 0.475087 46.6019C0.515531 46.7271 0.581872 46.8424 0.669793 46.9402C0.757715 47.038 0.865247 47.1163 0.985396 47.1698C1.10554 47.2233 1.23562 47.251 1.36716 47.2509L24.5754 47.2508L24.577 47.2509L24.5785 47.2508H34.0219C34.3539 48.0187 34.9694 48.6528 35.7876 49.0034C36.0319 49.108 36.2501 49.2 36.4459 49.2825C36.5457 49.3245 36.6386 49.3637 36.7259 49.4007L34.1136 55.0117C34.0242 55.2028 33.989 55.4148 34.012 55.6246C34.035 55.8343 34.1153 56.0337 34.244 56.2009C34.3721 56.3685 34.5437 56.4977 34.7403 56.5742C34.9368 56.6508 35.1506 56.6719 35.3583 56.6351L37.9947 56.1745L39.3393 58.4884C39.4449 58.671 39.5987 58.8211 39.7839 58.9221C39.9691 59.0232 40.1785 59.0714 40.3892 59.0614C40.6 59.0522 40.8042 58.9852 40.9795 58.8678C41.1548 58.7504 41.2944 58.587 41.3832 58.3956L43.9539 52.8738C44.5265 52.6991 44.8517 52.6111 45.1067 52.6111C45.3617 52.6111 45.6869 52.6991 46.2596 52.8738L48.8302 58.3955C48.9226 58.5952 49.0704 58.7641 49.256 58.8824C49.4415 59.0006 49.6571 59.0632 49.8772 59.0626C50.0791 59.0629 50.2776 59.0099 50.4526 58.9091C50.6276 58.8083 50.7729 58.6632 50.8741 58.4884L52.2187 56.1745L54.855 56.6352C55.0629 56.6719 55.2768 56.6508 55.4734 56.5741C55.6701 56.4974 55.8418 56.3681 55.9699 56.2003C56.0984 56.0331 56.1785 55.8337 56.2014 55.6241C56.2243 55.4144 56.1891 55.2025 56.0996 55.0114L53.4874 49.4007C53.5747 49.3637 53.6676 49.3246 53.7673 49.2825C53.9871 49.1901 54.2065 49.0971 54.4257 49.0034C55.8116 48.4098 56.6227 47.0051 56.4438 45.5079C56.4122 45.2439 56.3827 45.009 56.3563 44.7981C56.2526 43.971 56.2005 43.5559 56.2531 43.258C56.3057 42.9601 56.4965 42.5878 56.8769 41.8461C56.9738 41.657 57.0818 41.4464 57.2017 41.2092C57.882 39.8636 57.6004 38.2663 56.5009 37.2343ZM33.0116 41.2092C33.1315 41.4464 33.2396 41.657 33.3365 41.8463C33.7169 42.588 33.9078 42.9602 33.9603 43.2581C34.0128 43.556 33.9608 43.9711 33.857 44.7982C33.8351 44.9731 33.8111 45.1654 33.7856 45.3759H26.6891L29.054 42.7615C29.1528 42.6522 29.2245 42.5212 29.2632 42.379C29.3019 42.2369 29.3066 42.0876 29.2769 41.9433L28.072 36.1017L28.3063 36.3796C28.404 36.4954 28.5282 36.5859 28.6685 36.6432C28.8087 36.7005 28.9608 36.7229 29.1116 36.7086C29.2624 36.6943 29.4075 36.6436 29.5345 36.561C29.6614 36.4783 29.7665 36.3661 29.8406 36.2339L34.1463 28.5607C35.5674 29.2329 36.9137 30.0532 38.1626 31.008C37.0423 31.3553 36.1737 32.265 35.895 33.4545C35.8343 33.7132 35.7817 33.9441 35.7345 34.1513C35.5491 34.9639 35.4561 35.3719 35.3048 35.6338C35.1535 35.8957 34.8468 36.1803 34.2357 36.7472C34.0607 36.9091 33.8863 37.0716 33.7124 37.2347C32.6131 38.2662 32.3315 39.8636 33.0116 41.2092ZM20.2867 34.1364L16.7422 27.8197C17.4026 27.5747 18.0742 27.3611 18.7549 27.1796L23.2304 30.6461L20.2867 34.1364ZM23.6163 33.0967L24.577 31.9575L25.5375 33.0966L27.3443 41.8563L24.5768 44.916L21.8093 41.8563L23.6163 33.0967ZM25.9238 30.6461L30.3944 27.1835C31.0752 27.3662 31.7471 27.581 32.4075 27.8273L28.8673 34.1364L25.9238 30.6461ZM13.7116 13.678C13.7116 7.6868 18.5859 2.8125 24.5771 2.8125C30.5683 2.8125 35.4426 7.6868 35.4426 13.678C35.4426 19.6677 30.5709 24.5409 24.5818 24.5435H24.5723C18.5833 24.5408 13.7116 19.6677 13.7116 13.678ZM24.5771 26.4185H24.5818C25.7209 26.419 26.8584 26.5059 27.9844 26.6784L24.577 29.3176L21.1668 26.6763C22.2939 26.505 23.4323 26.4188 24.5723 26.4185H24.5771ZM15.0026 28.5512L19.3136 36.2337C19.3877 36.3658 19.4928 36.478 19.6197 36.5606C19.7467 36.6432 19.8918 36.6939 20.0426 36.7082C20.1934 36.7225 20.3454 36.7001 20.4856 36.6428C20.6259 36.5855 20.7502 36.4951 20.8478 36.3793L21.0821 36.1016L19.8772 41.9432C19.8474 42.0875 19.852 42.2368 19.8908 42.379C19.9295 42.5212 20.0012 42.6522 20.1 42.7615L22.4649 45.3759L2.4345 45.3761C3.59325 37.837 8.43532 31.644 15.0026 28.5512ZM40.2665 56.3518L39.2877 54.6674C39.1914 54.5017 39.0466 54.3695 38.8728 54.2886C38.699 54.2077 38.5046 54.182 38.3158 54.2149L36.3968 54.5502L38.28 50.5052C38.4065 50.6893 38.5549 50.919 38.7424 51.2093C38.8577 51.3878 38.9861 51.5866 39.1315 51.8092C39.7191 52.7075 40.6614 53.2451 41.6761 53.3241L40.2665 56.3518ZM51.8977 54.2149C51.7089 54.1819 51.5144 54.2076 51.3406 54.2885C51.1669 54.3694 51.022 54.5016 50.9258 54.6674L49.947 56.3517L48.5381 53.3254C49.5525 53.2461 50.4946 52.7074 51.082 51.8091C51.2274 51.5866 51.3558 51.3878 51.4711 51.2093C51.6586 50.9189 51.807 50.6893 51.9334 50.5052L53.8166 54.5502L51.8977 54.2149ZM55.5284 40.3634C55.4224 40.5727 55.3157 40.7818 55.2085 40.9905C54.2745 42.8119 54.2413 43.0007 54.496 45.0314C54.522 45.2391 54.5511 45.4704 54.5821 45.7303C54.6627 46.4043 54.3115 47.0125 53.6876 47.2796C53.4469 47.3827 53.2321 47.4732 53.0392 47.5546C51.1532 48.3495 51.0063 48.4726 49.896 50.1921C49.7825 50.3679 49.6561 50.5637 49.5128 50.7828C49.1413 51.3509 48.4812 51.5911 47.8318 51.3947C47.5812 51.319 47.3584 51.2502 47.1584 51.1884C46.1805 50.8867 45.6436 50.7359 45.1068 50.7359C44.57 50.7359 44.033 50.8868 43.0552 51.1884C42.8552 51.2502 42.6325 51.3189 42.3818 51.3947C41.7323 51.5906 41.0723 51.3509 40.7008 50.7828C40.5575 50.5637 40.4311 50.3679 40.3176 50.1921C39.2072 48.4727 39.0604 48.3495 37.1744 47.5546C36.958 47.4636 36.7418 47.372 36.526 47.2796C35.9021 47.0125 35.551 46.4043 35.6315 45.7303C35.6625 45.4704 35.6916 45.2391 35.7176 45.0314C35.9723 43.0007 35.9391 42.8119 35.005 40.9905C34.9095 40.8043 34.8032 40.5969 34.6851 40.3634C34.3789 39.7576 34.5009 39.066 34.9956 38.6016C35.1669 38.441 35.3387 38.281 35.5109 38.1214C37.0114 36.7296 37.1072 36.5636 37.5625 34.568C37.609 34.3639 37.6609 34.1367 37.7206 33.8818C37.8754 33.2209 38.4134 32.7695 39.0911 32.7319C39.3525 32.7172 39.5854 32.7057 39.7945 32.6953C41.8386 32.5935 42.0187 32.5279 43.6503 31.2918C43.817 31.1654 44.0028 31.0247 44.2123 30.8678C44.7558 30.461 45.4579 30.4611 46.0013 30.8678C46.2109 31.0246 46.3967 31.1654 46.5636 31.2919C48.1949 32.5277 48.375 32.5934 50.4191 32.6952C50.6282 32.7056 50.8611 32.7172 51.1225 32.7318C51.8002 32.7694 52.3382 33.2208 52.493 33.8817C52.5528 34.1366 52.6046 34.3639 52.6512 34.568C53.1065 36.5633 53.2023 36.7294 54.7028 38.1213C54.8563 38.2637 55.0272 38.4222 55.218 38.6013C55.7127 39.066 55.8347 39.7576 55.5284 40.3634ZM45.1067 33.9934C41.2363 33.9934 38.0875 37.1422 38.0875 41.0125C38.0875 44.8827 41.2363 48.0315 45.1067 48.0315C48.977 48.0315 52.1259 44.8828 52.1259 41.0126C52.1259 37.1423 48.9772 33.9934 45.1067 33.9934ZM45.1067 46.1566C42.2702 46.1566 39.9625 43.849 39.9625 41.0126C39.9625 38.1762 42.2702 35.8685 45.1067 35.8685C47.9432 35.8685 50.2509 38.1762 50.2509 41.0126C50.2509 43.849 47.9432 46.1566 45.1067 46.1566Z" fill="white"/>
</svg>
