<svg width="59" height="48" viewBox="0 0 59 48" fill="none" xmlns="http://www.w3.org/2000/svg">
<path d="M17.4546 12.6871C17.4546 13.0811 17.7273 13.4751 18.0909 13.5736L23.6364 15.3467L23.7273 19.0899C22.7273 23.227 25.2728 28.6448 29.0909 28.6448C32.9091 28.6448 35.4546 23.424 34.4546 19.1884L34.6364 15.3467L36.5455 14.6572V16.2332C36.5455 16.8243 36.9091 17.2183 37.4546 17.2183C38 17.2183 38.3637 16.8243 38.3637 16.2332V14.0662L39.9091 13.5736C40.2728 13.4751 40.5455 13.0811 40.5455 12.6871C40.5455 12.2931 40.3637 11.8991 40 11.7021L29.2728 6.67835C29 6.57985 28.8182 6.57985 28.5455 6.67835L17.8182 11.7021C17.6364 11.8991 17.3637 12.2931 17.4546 12.6871ZM29.0909 14.2632C30 14.2632 32.0909 14.4602 32.8182 14.9527L32.7273 17.4153C30.7273 16.8243 27.5455 16.7258 25.4546 17.4153L25.3637 14.8542C26.1819 14.3617 28.1819 14.2632 29.0909 14.2632ZM29.0909 26.7732C26.9091 26.7732 24.6364 23.227 25.5455 19.5824C27.0909 18.6959 31.2728 18.7944 32.7273 19.5824C33.6364 23.03 31.3637 26.7732 29.0909 26.7732ZM29 8.74694L37.0909 12.5886L34.1819 13.5736C33.0909 12.4901 30.5455 12.2931 29.0909 12.2931C27.6364 12.2931 25.0909 12.4901 24 13.5736L20.9091 12.5886L29 8.74694ZM38.9091 6.97387L43.1819 8.35292L43.2728 11.2095C43.0909 11.8006 43.0909 12.4901 43.0909 12.7856C43.0909 15.7407 45 18.9914 47.7273 18.9914C50.4546 18.9914 52.3637 15.7407 52.3637 12.7856C52.3637 12.1946 52.2728 11.7021 52.1819 11.308L52.2728 8.35292L53.4546 7.95891V8.94395C53.4546 9.53497 53.8182 9.92899 54.3637 9.92899C54.9091 9.92899 55.2728 9.53497 55.2728 8.94395V7.36788L56.3637 6.97387C56.7273 6.87536 57 6.48135 57 6.08733C57 5.69331 56.8182 5.2993 56.4546 5.10229L47.9091 1.06362C47.6364 0.96512 47.4546 0.96512 47.1819 1.06362L38.6364 5.10229C38.2728 5.2993 38.0909 5.69331 38.0909 6.08733C38.2728 6.48135 38.5455 6.87536 38.9091 6.97387ZM47.8182 7.46639C48.6364 7.46639 50 7.56489 50.6364 7.95891L50.5455 9.63348C49 9.14095 46.6364 9.14095 45.0909 9.63348L45 7.95891C45.6364 7.56489 47 7.46639 47.8182 7.46639ZM47.8182 17.1198C46.3637 17.1198 45 15.0512 45 12.8841C45 12.5886 45.0909 11.9976 45.1819 11.7021C46.3637 11.111 49.5455 11.2095 50.6364 11.7021C50.7273 11.9976 50.8182 12.4901 50.8182 12.8841C50.6364 14.9527 49.2728 17.1198 47.8182 17.1198ZM47.7273 3.13221L53.6364 5.89032L51.9091 6.48135C51 5.69331 49 5.49631 47.8182 5.49631C46.6364 5.49631 44.6364 5.69331 43.7273 6.48135L41.8182 5.89032L47.7273 3.13221Z" fill="white"/>
<path d="M58.1818 32.3877C57.2727 18.5971 58.2727 34.2593 57.5455 22.3403C57.3636 21.2568 57.1818 19.6807 55.4545 19.1882C54 18.6956 53.7273 18.4001 52 18.2031C51.7273 18.2031 51.3636 18.3016 51.1818 18.5971C51 18.8927 50.9091 19.1882 51 19.4837C51.1818 20.1732 51.2727 20.8627 51.3636 21.5523C51.4545 24.0149 49.9091 26.0835 47.8182 28.2505C44.8182 24.9999 43.8182 22.1433 44.5455 19.3852C44.6364 19.0897 44.5455 18.6956 44.3636 18.4986C44.1818 18.3016 43.9091 18.2031 43.6364 18.2031C41.8182 18.4001 41.5455 18.7941 40.0909 19.1882C38.4545 19.6807 38.2727 21.2568 38.0909 22.3403C37.7273 27.758 38.4545 15.9375 37.6364 29.0386C36.7273 28.7431 35.3636 28.2505 34.2727 28.152C34 28.152 33.6364 28.2505 33.4545 28.5461C33.2727 28.8416 33.1818 29.1371 33.2727 29.4326C34.6364 34.2593 32.7273 37.0174 29 40.8591C25.0909 36.6234 23.7273 32.9787 24.7273 29.4326C24.8182 29.1371 24.7273 28.7431 24.5455 28.5461C24.3636 28.2505 24.0909 28.152 23.7273 28.152C22.5455 28.2505 21.2727 28.6446 20.3636 29.0386C20.2727 27.758 20.1818 26.773 20.1818 25.7879C20.0909 21.1582 20 19.7792 18.0909 19.1882C16.6364 18.6956 16.3636 18.4001 14.6364 18.2031C14.3636 18.2031 14 18.3016 13.8182 18.5971C13.6364 18.7941 13.5455 19.1882 13.6364 19.4837C14.6364 23.2268 13.2727 25.2954 10.3636 28.349C7.36364 24.9999 6.36364 22.2418 7.09091 19.4837C7.18182 19.1882 7.09091 18.7941 6.90909 18.5971C6.81818 18.3016 6.54545 18.2031 6.18182 18.2031C4.36364 18.4001 4.09091 18.6956 2.63636 19.1882C0.727273 19.7792 0.636364 20.8627 0.363636 26.8715C0.272727 28.4475 0.181818 30.3191 0 32.7817C0 33.0772 0.090909 33.2742 0.272727 33.5698C0.454545 33.7668 0.727273 33.8653 0.909091 33.8653H17C16.9091 35.3428 16.9091 35.4413 16.2727 46.1783C16.2727 46.4738 16.3636 46.6708 16.5455 46.9663C16.7273 47.1633 17 47.2618 17.1818 47.2618H40.8182C41.0909 47.2618 41.2727 47.1633 41.4545 46.9663C41.6364 46.7693 41.7273 46.4738 41.7273 46.1783C41 34.9488 41.0909 36.0324 41 33.8653H57C57.3636 33.8653 57.8182 33.7668 58 33.4713C58.2727 32.9787 58.1818 32.6832 58.1818 32.3877ZM2.18182 27.0685C2.54545 21.3553 2.54545 21.3553 3.18182 21.1582C3.90909 20.9612 4.72727 20.5672 5.09091 20.4687C4.72727 23.6208 6.27273 26.8715 9.72727 30.5161C10.0909 30.9101 10.6364 30.9101 11 30.5161C13.9091 27.4625 16.2727 24.8029 15.7273 20.5672C16.0909 20.6657 16.8182 20.9612 17.6364 21.2568C18.2727 21.4538 18.3636 21.6508 18.5455 25.9849C18.6364 27.0685 18.6364 28.349 18.8182 29.8266C17.9091 30.4176 17.6364 31.2057 17.4545 31.9937H17.0909V29.4326C17.0909 28.8416 16.7273 28.4475 16.1818 28.4475C15.6364 28.4475 15.2727 28.8416 15.2727 29.4326V31.9937H5.63636V29.4326C5.63636 28.8416 5.27273 28.4475 4.72727 28.4475C4.18182 28.4475 3.81818 28.8416 3.81818 29.4326V31.9937H1.90909C2 29.9251 2.09091 28.349 2.18182 27.0685ZM37.0909 45.1932V41.8441C37.0909 41.2531 36.7273 40.8591 36.1818 40.8591C35.6364 40.8591 35.2727 41.2531 35.2727 41.8441V45.1932H22.9091V41.8441C22.9091 41.2531 22.5455 40.8591 22 40.8591C21.4545 40.8591 21.0909 41.2531 21.0909 41.8441V45.1932H18.2727C18.7273 37.7069 18.9091 34.5548 19.0909 32.9787C19.2727 31.7967 19.4545 31.4027 20.0909 31.2057C20.1818 31.2057 21.3636 30.6146 22.9091 30.2206C22.3636 34.2593 24.1818 38.298 28.5455 42.8291C28.9091 43.2232 29.4545 43.2232 29.8182 42.8291C33.5455 38.9875 36.4545 35.6383 35.5455 30.2206C36.8182 30.5161 38 31.0087 38.1818 31.1072C38.7273 31.4027 39 31.2057 39.2727 32.8802C39.3636 33.6683 39.2727 32.0922 40.0909 45.0947H37.0909V45.1932ZM54.3636 31.8952V29.3341C54.3636 28.7431 54 28.349 53.4545 28.349C52.9091 28.349 52.5455 28.7431 52.5455 29.3341V31.8952H43V29.3341C43 28.7431 42.6364 28.349 42.0909 28.349C41.5455 28.349 41.1818 28.7431 41.1818 29.3341V31.8952H40.8182C40.5455 30.9102 40.0909 30.1221 39.4545 29.7281C39.7273 25.9849 39.8182 24.3104 39.9091 22.5373C40.0909 21.3553 40.1818 21.1582 40.6364 21.0597C41.3636 20.8627 42.0909 20.4687 42.5455 20.3702C42.1818 23.5223 43.7273 26.773 47.1818 30.4176C47.5455 30.8116 48.0909 30.8116 48.4545 30.4176C51.1818 27.561 53.4545 24.9999 53.2727 21.4538C53.2727 21.1582 53.1818 20.7642 53.1818 20.3702C53.5455 20.4687 54.2727 20.7642 55.0909 21.0597C55.5455 21.1582 55.6364 21.3553 55.8182 22.6358C56.4545 32.9787 56.3636 31.5997 56.3636 31.8952H54.3636Z" fill="white"/>
<path d="M1.45481 6.97387L5.81845 8.35292L5.90936 11.2095C5.09118 14.6572 7.18208 19.0899 10.3639 19.0899C13.4548 19.0899 15.6366 14.8542 14.8184 11.308L14.9094 8.35292L16.0912 7.95891V8.94395C16.0912 9.53497 16.4548 9.92899 17.0003 9.92899C17.5457 9.92899 17.9094 9.53497 17.9094 8.94395V7.36788L19.0003 6.97387C19.3639 6.87536 19.6366 6.48135 19.6366 6.08733C19.6366 5.69331 19.4548 5.2993 19.0912 5.10229L10.5457 1.06362C10.273 0.96512 10.0912 0.96512 9.81845 1.06362L1.27299 5.10229C0.909357 5.2993 0.727539 5.69331 0.727539 6.08733C0.909357 6.48135 1.09118 6.87536 1.45481 6.97387ZM10.3639 7.46639C11.1821 7.46639 12.5457 7.56489 13.1821 7.95891L13.0912 9.63348C11.5457 9.14095 9.18208 9.14095 7.63663 9.63348L7.54572 7.95891C8.27299 7.56489 9.63663 7.46639 10.3639 7.46639ZM10.3639 17.1198C8.81845 17.1198 7.09118 14.6572 7.63663 11.7021C8.81845 11.111 12.0003 11.2095 13.0912 11.7021C13.8184 14.3617 12.0003 17.1198 10.3639 17.1198ZM10.273 3.13221L16.1821 5.89032L14.4548 6.48135C13.5457 5.69331 11.5457 5.49631 10.3639 5.49631C9.18208 5.49631 7.18209 5.69331 6.27299 6.48135L4.3639 5.89032L10.273 3.13221Z" fill="white"/>
</svg>
