<svg width="60" height="60" viewBox="0 0 60 60" fill="none" xmlns="http://www.w3.org/2000/svg">
<g clip-path="url(#clip0_4271_869)">
<g clip-path="url(#clip1_4271_869)">
<path d="M58.125 27.1875H35.625C35.3764 27.1875 35.1379 27.2863 34.9621 27.4621C34.7863 27.6379 34.6875 27.8764 34.6875 28.125V31.5094C32.976 30.5249 31.037 30.0046 29.0625 30H26.25V28.125C28.0963 26.7539 29.3742 24.7519 29.8406 22.5H30C30.7172 22.496 31.4181 22.2864 32.0198 21.8961C32.6214 21.5058 33.0986 20.9512 33.3946 20.2979C33.6906 19.6447 33.7931 18.9203 33.6899 18.2106C33.5868 17.5009 33.2823 16.8357 32.8125 16.2937V13.125C32.8125 9.89267 31.5285 6.79274 29.2429 4.50714C26.9573 2.22154 23.8573 0.9375 20.625 0.9375C17.3927 0.9375 14.2927 2.22154 12.0071 4.50714C9.72154 6.79274 8.4375 9.89267 8.4375 13.125V16.2937C7.96774 16.8357 7.66323 17.5009 7.56006 18.2106C7.45689 18.9203 7.5594 19.6447 7.85542 20.2979C8.15144 20.9512 8.62856 21.5058 9.23022 21.8961C9.83189 22.2864 10.5328 22.496 11.25 22.5H11.4375C11.8967 24.7477 13.1642 26.7491 15 28.125V30H12.1875C9.20381 30 6.34233 31.1853 4.23255 33.295C2.12276 35.4048 0.9375 38.2663 0.9375 41.25V58.125C0.9375 58.3736 1.03627 58.6121 1.21209 58.7879C1.3879 58.9637 1.62636 59.0625 1.875 59.0625H32.8125V57.1875H25.1719L22.5 41.4L23.6344 39.1313L25.7906 40.2094C25.9325 40.2823 26.0906 40.3178 26.25 40.3125C26.4465 40.313 26.6383 40.2517 26.7981 40.1373C26.9579 40.0229 27.0777 39.8612 27.1406 39.675L29.7281 31.875C31.5272 32.0098 33.2492 32.6608 34.6875 33.75V58.125C34.6875 58.3736 34.7863 58.6121 34.9621 58.7879C35.1379 58.9637 35.3764 59.0625 35.625 59.0625H58.125C58.3736 59.0625 58.6121 58.9637 58.7879 58.7879C58.9637 58.6121 59.0625 58.3736 59.0625 58.125V28.125C59.0625 27.8764 58.9637 27.6379 58.7879 27.4621C58.6121 27.2863 58.3736 27.1875 58.125 27.1875ZM30 20.625V16.875C30.4973 16.875 30.9742 17.0725 31.3258 17.4242C31.6775 17.7758 31.875 18.2527 31.875 18.75C31.875 19.2473 31.6775 19.7242 31.3258 20.0758C30.9742 20.4275 30.4973 20.625 30 20.625ZM9.375 18.75C9.375 18.2527 9.57254 17.7758 9.92418 17.4242C10.2758 17.0725 10.7527 16.875 11.25 16.875V20.625C10.7527 20.625 10.2758 20.4275 9.92418 20.0758C9.57254 19.7242 9.375 19.2473 9.375 18.75ZM11.25 15C10.9333 15.0049 10.6184 15.0489 10.3125 15.1312V13.125C10.3125 10.39 11.399 7.76693 13.333 5.83296C15.2669 3.89899 17.89 2.8125 20.625 2.8125C23.36 2.8125 25.9831 3.89899 27.917 5.83296C29.851 7.76693 30.9375 10.39 30.9375 13.125V15.1312C30.6316 15.0489 30.3167 15.0049 30 15C30 14.7514 29.9012 14.5129 29.7254 14.3371C29.5496 14.1613 29.3111 14.0625 29.0625 14.0625C28.3348 14.0625 27.6171 13.8931 26.9662 13.5676C26.3153 13.2422 25.7491 12.7697 25.3125 12.1875L24.1875 10.6875C24.1002 10.5711 23.9869 10.4766 23.8568 10.4115C23.7266 10.3464 23.583 10.3125 23.4375 10.3125C23.292 10.3125 23.1484 10.3464 23.0182 10.4115C22.8881 10.4766 22.7748 10.5711 22.6875 10.6875L21.5625 12.1875C21.1259 12.7697 20.5597 13.2422 19.9088 13.5676C19.2579 13.8931 18.5402 14.0625 17.8125 14.0625H12.1875C11.9389 14.0625 11.7004 14.1613 11.5246 14.3371C11.3488 14.5129 11.25 14.7514 11.25 15ZM13.125 20.625V15.9375H17.8125C18.8313 15.9375 19.8361 15.7003 20.7473 15.2447C21.6586 14.7891 22.4512 14.1275 23.0625 13.3125L23.4375 12.8156L23.8125 13.3125C24.8587 14.6983 26.4074 15.6174 28.125 15.8719V20.625C28.125 22.6141 27.3348 24.5218 25.9283 25.9283C24.5218 27.3348 22.6141 28.125 20.625 28.125C18.6359 28.125 16.7282 27.3348 15.3217 25.9283C13.9152 24.5218 13.125 22.6141 13.125 20.625ZM20.625 30C21.9161 30.0007 23.1932 29.7325 24.375 29.2125V30.6L20.625 35.1L16.875 30.6V29.2125C18.0568 29.7325 19.3339 30.0007 20.625 30ZM15.5437 38.0531L13.4906 31.875H15.4969L19.1437 36.2531L15.5437 38.0531ZM2.8125 41.25C2.80651 38.8747 3.70234 36.5857 5.319 34.8455C6.93566 33.1053 9.1526 32.0436 11.5219 31.875L14.1094 39.6375C14.1657 39.8307 14.2827 40.0006 14.4431 40.1222C14.6035 40.2438 14.7988 40.3105 15 40.3125C15.1468 40.3116 15.2913 40.2763 15.4219 40.2094L17.5781 39.1313L18.75 41.4L16.0781 57.1875H8.4375V44.0625H6.5625V57.1875H2.8125V41.25ZM17.9813 57.1875L20.4844 42.1875H20.7656L23.2687 57.1875H17.9813ZM20.9812 40.3125H20.2688L19.2563 38.2969L20.625 37.6125L21.9937 38.2969L20.9812 40.3125ZM25.6687 38.0531L22.0688 36.2531L25.7531 31.875H27.7594L25.6687 38.0531ZM42.1875 29.0625H51.5625V30.9375H42.1875V29.0625ZM57.1875 57.1875H36.5625V29.0625H40.3125V31.875C40.3125 32.1236 40.4113 32.3621 40.5871 32.5379C40.7629 32.7137 41.0014 32.8125 41.25 32.8125H52.5C52.7486 32.8125 52.9871 32.7137 53.1629 32.5379C53.3387 32.3621 53.4375 32.1236 53.4375 31.875V29.0625H57.1875V57.1875Z" fill="white"/>
<path d="M43.125 34.6875H39.375C39.1264 34.6875 38.8879 34.7863 38.7121 34.9621C38.5363 35.1379 38.4375 35.3764 38.4375 35.625V39.375C38.4375 39.6236 38.5363 39.8621 38.7121 40.0379C38.8879 40.2137 39.1264 40.3125 39.375 40.3125H43.125C43.3736 40.3125 43.6121 40.2137 43.7879 40.0379C43.9637 39.8621 44.0625 39.6236 44.0625 39.375V35.625C44.0625 35.3764 43.9637 35.1379 43.7879 34.9621C43.6121 34.7863 43.3736 34.6875 43.125 34.6875ZM42.1875 38.4375H40.3125V36.5625H42.1875V38.4375ZM43.125 42.1875H39.375C39.1264 42.1875 38.8879 42.2863 38.7121 42.4621C38.5363 42.6379 38.4375 42.8764 38.4375 43.125V46.875C38.4375 47.1236 38.5363 47.3621 38.7121 47.5379C38.8879 47.7137 39.1264 47.8125 39.375 47.8125H43.125C43.3736 47.8125 43.6121 47.7137 43.7879 47.5379C43.9637 47.3621 44.0625 47.1236 44.0625 46.875V43.125C44.0625 42.8764 43.9637 42.6379 43.7879 42.4621C43.6121 42.2863 43.3736 42.1875 43.125 42.1875ZM42.1875 45.9375H40.3125V44.0625H42.1875V45.9375ZM43.125 49.6875H39.375C39.1264 49.6875 38.8879 49.7863 38.7121 49.9621C38.5363 50.1379 38.4375 50.3764 38.4375 50.625V54.375C38.4375 54.6236 38.5363 54.8621 38.7121 55.0379C38.8879 55.2137 39.1264 55.3125 39.375 55.3125H43.125C43.3736 55.3125 43.6121 55.2137 43.7879 55.0379C43.9637 54.8621 44.0625 54.6236 44.0625 54.375V50.625C44.0625 50.3764 43.9637 50.1379 43.7879 49.9621C43.6121 49.7863 43.3736 49.6875 43.125 49.6875ZM42.1875 53.4375H40.3125V51.5625H42.1875V53.4375ZM45.9375 34.6875H55.3125V36.5625H45.9375V34.6875ZM45.9375 38.4375H55.3125V40.3125H45.9375V38.4375ZM45.9375 42.1875H55.3125V44.0625H45.9375V42.1875ZM45.9375 45.9375H55.3125V47.8125H45.9375V45.9375ZM45.9375 49.6875H55.3125V51.5625H45.9375V49.6875ZM45.9375 53.4375H55.3125V55.3125H45.9375V53.4375Z" fill="white"/>
</g>
</g>
<defs>
<clipPath id="clip0_4271_869">
<rect width="60" height="60" fill="white"/>
</clipPath>
<clipPath id="clip1_4271_869">
<rect width="60" height="60" fill="white"/>
</clipPath>
</defs>
</svg>
