<svg width="62" height="48" viewBox="0 0 62 48" fill="none" xmlns="http://www.w3.org/2000/svg">
<path d="M36.7168 7.9476C37.2031 7.9476 37.5982 7.55249 37.5982 7.06622C37.5982 6.57994 37.2031 6.18484 36.7168 6.18484H35.7822C35.7265 5.85812 35.6429 5.54153 35.5315 5.2376L36.3394 4.77159C36.7598 4.52845 36.9067 3.98898 36.6611 3.56602C36.4179 3.14306 35.8785 2.9987 35.4555 3.24437L34.645 3.71292C34.4374 3.46218 34.2043 3.22917 33.9536 3.02149L34.4222 2.21103C34.6653 1.7906 34.5209 1.25113 34.1005 1.00546C33.6775 0.762319 33.1406 0.906679 32.8949 1.32711L32.4289 2.13504C32.125 2.02361 31.8084 1.93749 31.4817 1.88431V0.949739C31.4817 0.463459 31.0866 0.0683594 30.6003 0.0683594C30.114 0.0683594 29.7189 0.463459 29.7189 0.949739V1.88431C29.3922 1.94003 29.0756 2.02361 28.7717 2.13504L28.3057 1.32711C28.0625 0.904149 27.5231 0.759789 27.1001 1.00546C26.6772 1.2486 26.5328 1.78806 26.7785 2.21103L27.247 3.02149C26.9963 3.22917 26.7633 3.46218 26.5556 3.71292L25.7451 3.24437C25.3222 3.00123 24.7852 3.14559 24.5396 3.56602C24.2964 3.98645 24.4408 4.52592 24.8612 4.77159L25.6691 5.2376C25.5577 5.54153 25.4716 5.85812 25.4184 6.18484H24.4838C23.9976 6.18484 23.6025 6.57994 23.6025 7.06622C23.6025 7.55249 23.9976 7.9476 24.4838 7.9476H25.4184C25.4741 8.27432 25.5577 8.5909 25.6691 8.89483L24.8612 9.3608C24.4382 9.604 24.2939 10.1434 24.5396 10.5664C24.7827 10.9894 25.3222 11.1337 25.7451 10.8881L26.5556 10.4195C26.7633 10.6703 26.9963 10.9033 27.247 11.1109L26.7785 11.9214C26.5353 12.3444 26.6797 12.8813 27.1001 13.127C27.5231 13.3701 28.06 13.2257 28.3057 12.8053L28.7717 11.9974C29.0756 12.1088 29.3922 12.1949 29.7189 12.2481V13.1827C29.7189 13.669 30.114 14.0641 30.6003 14.0641C31.0866 14.0641 31.4817 13.669 31.4817 13.1827V12.2481C31.8084 12.1924 32.125 12.1088 32.4289 11.9974L32.8949 12.8053C33.1381 13.2283 33.6775 13.3726 34.1005 13.127C34.5235 12.8838 34.6678 12.3444 34.4222 11.9214L33.9536 11.1109C34.2043 10.9033 34.4374 10.6703 34.645 10.4195L35.4555 10.8881C35.8785 11.1312 36.4154 10.9868 36.6611 10.5664C36.9042 10.1434 36.7598 9.6065 36.3394 9.3608L35.5315 8.89483C35.6429 8.5909 35.729 8.27432 35.7822 7.9476H36.7168Z" fill="#F39F5F"/>
<path d="M60.567 29.6971C54.443 30.8698 45.7685 29.7858 47.7693 27.7875C48.9698 26.587 51.1125 24.2468 52.9005 22.2662C53.3007 21.8255 52.7587 21.1695 52.2471 21.4734C40.4422 28.527 34.4777 19.4625 32.3958 15.2962C32.1577 14.82 31.4359 14.972 31.408 15.5013C31.0104 22.7778 33.5862 30.1859 39.1454 35.7452C43.565 40.1648 49.1521 42.7 54.914 43.356C55.4991 43.4219 55.7321 42.619 55.2028 42.3632C49.4029 39.562 41.1843 33.866 48.1998 34.3624C53.5337 34.7397 58.2724 32.3666 60.9621 30.6418C61.4459 30.3303 61.1344 29.5882 60.567 29.6971ZM44.0791 20.6782C45.4265 20.0957 47.3919 19.0648 49.5194 14.0932C49.6283 13.8374 49.3522 13.5866 49.1142 13.7335C48.0251 14.4021 45.923 15.2227 43.5194 13.7588V13.7639C41.7313 12.6343 39.2391 13.0674 38.0032 15.0809C37.2535 16.3017 37.2484 17.8973 37.9931 19.1206C39.2999 21.2734 41.9897 21.5849 44.0791 20.6782Z" fill="#F39F5F"/>
<path d="M52.2475 21.4741C51.4193 22.044 50.5582 22.5809 49.6388 23.014C49.1855 23.247 48.7093 23.4243 48.2357 23.6168C47.9976 23.708 47.752 23.7789 47.5088 23.8574C47.2657 23.941 47.0175 24.0018 46.7693 24.0626C45.7764 24.3158 44.7431 24.4501 43.7047 24.4273C42.6663 24.4045 41.6304 24.2247 40.6401 23.903C39.6549 23.5687 38.7178 23.0951 37.8668 22.5075C37.0234 21.9098 36.2484 21.2234 35.5697 20.456C34.202 18.9313 33.1535 17.1609 32.3936 15.2969C33.4346 17.0191 34.6022 18.6527 36.0002 20.0482C37.3932 21.4361 39.0319 22.5835 40.8782 23.1837C42.7144 23.8093 44.7152 23.865 46.6401 23.4851C47.6051 23.3027 48.5624 23.0292 49.4894 22.6721C50.4341 22.3403 51.3357 21.8996 52.2475 21.4741Z" fill="#F39F5F"/>
<path d="M60.5675 29.6973C59.4227 30.0747 58.2324 30.29 57.0344 30.4166C55.8364 30.5483 54.6283 30.5711 53.4228 30.5205C52.82 30.485 52.2172 30.4344 51.617 30.3558C51.0192 30.2647 50.419 30.1684 49.8289 30.0038C49.2387 29.8468 48.6537 29.6492 48.1092 29.3276C47.8483 29.1553 47.5672 28.9603 47.4355 28.6285C47.3721 28.4639 47.3924 28.274 47.4633 28.1296C47.5418 27.9852 47.6533 27.8789 47.7698 27.7852C47.6786 27.9042 47.6026 28.0359 47.5697 28.1701C47.5368 28.3044 47.557 28.4361 47.6254 28.5399C47.7647 28.7526 48.0205 28.8894 48.2789 28.9958C48.8031 29.2111 49.3806 29.3225 49.953 29.4238C50.5304 29.5125 51.1104 29.5935 51.698 29.6391C52.2831 29.6948 52.8706 29.7379 53.4582 29.7607C54.0458 29.7961 54.6359 29.8113 55.2261 29.8189C55.8162 29.8366 56.4063 29.824 56.9989 29.8265C58.1843 29.8139 59.367 29.7657 60.5675 29.6973Z" fill="#F39F5F"/>
<path d="M49.1143 13.7347C48.3545 14.378 47.3693 14.7984 46.3233 14.8618C45.8015 14.8997 45.2722 14.839 44.7631 14.7047C44.254 14.568 43.7779 14.34 43.3245 14.0842L43.8919 13.8284V13.8335L43.8007 14.3856L43.3195 14.0868C42.9142 13.836 42.4659 13.6587 41.9949 13.5701C41.5263 13.4713 41.035 13.4789 40.5563 13.5599C40.0776 13.6461 39.6065 13.8183 39.1785 14.0792C38.7429 14.3324 38.3579 14.6819 38.0059 15.0821C38.2085 14.5882 38.5403 14.1399 38.9531 13.7702C39.371 13.4055 39.8725 13.1269 40.4195 12.9698C40.9641 12.8052 41.5466 12.7748 42.1164 12.8483C42.6838 12.9318 43.241 13.1319 43.7247 13.446L43.1523 13.6992V13.6942L43.2536 13.1522L43.7196 13.4358C44.1173 13.679 44.5352 13.8715 44.9683 14.026C45.4039 14.1754 45.8572 14.2514 46.3207 14.2818C46.7842 14.302 47.2553 14.2691 47.7238 14.1703C48.1899 14.0817 48.6508 13.9196 49.1143 13.7347Z" fill="#F39F5F"/>
<path d="M55.2013 42.3646C54.2288 42.0682 53.2942 41.6681 52.3875 41.2198C51.9291 41.002 51.4884 40.7538 51.0452 40.5106C50.6045 40.2599 50.1764 39.9914 49.7459 39.7204C48.8949 39.1683 48.0768 38.5604 47.317 37.8766C46.9371 37.5347 46.5775 37.1675 46.2508 36.7673C46.0912 36.5647 45.9392 36.3545 45.8101 36.129C45.6809 35.9062 45.572 35.6605 45.5391 35.4072C45.653 35.6352 45.8101 35.8277 45.9798 36.0049C46.152 36.1822 46.3267 36.3519 46.5192 36.509C46.8915 36.8306 47.2917 37.1244 47.6919 37.4182C48.4947 37.9982 49.328 38.5427 50.1612 39.0872C50.992 39.6368 51.8379 40.1636 52.6788 40.7082C53.5196 41.2476 54.3655 41.7846 55.2013 42.3646Z" fill="#F39F5F"/>
<path d="M22.5918 19.9114C24.1393 18.3639 24.1393 15.8565 22.5918 14.309C21.0443 12.7616 18.5369 12.7616 16.992 14.309C15.4445 15.8565 15.4445 18.3639 16.992 19.9114C18.5395 21.4589 21.0468 21.4589 22.5918 19.9114ZM29.7923 15.502C29.7644 14.9726 29.0426 14.8207 28.8045 15.2968C26.7226 19.4631 20.7556 28.5276 8.95318 21.4741C8.44157 21.1676 7.90211 21.8236 8.29974 22.2668C10.0878 24.2474 12.228 26.5851 13.431 27.7881C15.4318 29.7889 6.75986 30.8704 0.633249 29.6977C0.0659241 29.5888 -0.245599 30.3309 0.24068 30.6424C2.93041 32.3697 7.6691 34.7404 13.003 34.363C20.0186 33.8666 11.7999 39.5626 6.00005 42.3638C5.46818 42.6196 5.70119 43.4225 6.28877 43.3566C12.0507 42.7006 17.6378 40.1654 22.0574 35.7458C27.6141 30.1866 30.1899 22.7784 29.7923 15.502Z" fill="#F39F5F"/>
<path d="M22.5916 14.3099C21.7482 13.6868 20.7528 13.3905 19.7904 13.4462C18.8305 13.5045 17.9162 13.9071 17.2577 14.5783C16.5941 15.2419 16.1788 16.1486 16.1256 17.111C16.0699 18.0734 16.3687 19.0663 16.9892 19.9122C16.1357 19.2942 15.581 18.2279 15.5329 17.111C15.4721 15.9966 15.9103 14.8417 16.7208 14.0414C17.126 13.6463 17.6097 13.3246 18.1365 13.1195C18.6659 12.9219 19.2307 12.8181 19.7904 12.8535C20.9073 12.9017 21.9736 13.4563 22.5916 14.3099Z" fill="#F39F5F"/>
<path d="M28.8044 15.2969C28.0446 17.1609 26.9961 18.9313 25.6284 20.456C24.9497 21.2209 24.1772 21.9098 23.3313 22.5075C22.4803 23.0976 21.5457 23.5687 20.5605 23.903C19.5702 24.2272 18.5343 24.4045 17.4959 24.4273C16.4575 24.4475 15.4242 24.3158 14.4314 24.0626C14.1806 24.0018 13.9324 23.941 13.6918 23.8574C13.4487 23.7764 13.203 23.708 12.9649 23.6168C12.4913 23.4243 12.0152 23.247 11.5618 23.014C10.6424 22.5809 9.78132 22.044 8.95312 21.4741C9.86743 21.8996 10.7665 22.3403 11.7087 22.6696C12.6382 23.0267 13.593 23.3002 14.558 23.4826C16.4828 23.8625 18.4862 23.8042 20.3199 23.1812C22.1662 22.586 23.8074 21.4361 25.2004 20.0482C26.5985 18.6552 27.766 17.0191 28.8044 15.2969Z" fill="#F39F5F"/>
<path d="M13.4286 27.7852C13.5451 27.8789 13.6591 27.9852 13.7351 28.1296C13.8085 28.274 13.8262 28.4639 13.7629 28.6285C13.6312 28.9603 13.3501 29.1553 13.0892 29.3276C12.5447 29.6492 11.9596 29.8442 11.3695 30.0038C10.1893 30.3179 8.98118 30.4521 7.77561 30.5205C7.17283 30.5433 6.57005 30.5534 5.96726 30.5382C5.36448 30.5129 4.7617 30.4875 4.16398 30.4166C2.96601 30.29 1.77311 30.0747 0.630859 29.6948C1.83136 29.7632 3.01413 29.8088 4.19944 29.824C4.79209 29.824 5.38221 29.8366 5.97233 29.8164C6.56245 29.8088 7.15257 29.7936 7.74015 29.7581C8.33027 29.7379 8.91533 29.6923 9.50038 29.6391C10.0854 29.591 10.668 29.5125 11.2454 29.4238C11.8178 29.3225 12.3953 29.2111 12.9195 28.9958C13.1779 28.8894 13.4337 28.7501 13.573 28.5399C13.6414 28.4335 13.6591 28.3044 13.6287 28.1701C13.5983 28.0359 13.5198 27.9042 13.4286 27.7852Z" fill="#F39F5F"/>
<path d="M15.4922 35.7891C15.3098 36.25 14.9958 36.6477 14.6817 37.0301C14.5145 37.2099 14.3474 37.3948 14.1726 37.5696C13.9953 37.7418 13.8155 37.9115 13.6306 38.0736C12.8936 38.727 12.0933 39.2994 11.2752 39.8363C10.4521 40.3657 9.59604 40.8418 8.71973 41.2724C7.84088 41.7004 6.93924 42.0828 5.99707 42.364C6.79994 41.7992 7.61547 41.2749 8.42846 40.7557L10.8624 39.1981C11.2676 38.9423 11.6703 38.6789 12.0705 38.4129C12.4757 38.1546 12.8658 37.8785 13.2634 37.6101C14.0485 37.0554 14.8362 36.5159 15.4922 35.7891Z" fill="#F39F5F"/>
<path d="M34.2337 47.6378H26.9648V36.9878L30.346 27.9638C30.4346 27.7282 30.7664 27.7282 30.8525 27.9638L34.2337 36.9878V47.6378Z" fill="#5D7485"/>
<path d="M29.3916 36.9883H26.9678V47.6383H29.3916V36.9883Z" fill="#5D7485"/>
<path d="M31.8134 36.9883H29.3896V47.6383H31.8134V36.9883Z" fill="#5D7485"/>
<path d="M34.2373 36.9883H31.8135V47.6383H34.2373V36.9883Z" fill="#5D7485"/>
<path d="M30.8559 27.9638L31.6487 30.0786H29.5566L30.3494 27.9638C30.4355 27.7282 30.7673 27.7282 30.8559 27.9638Z" fill="#F39F5F"/>
</svg>
