<svg width="20" height="20" viewBox="0 0 20 20" fill="none" xmlns="http://www.w3.org/2000/svg">
<path fill-rule="evenodd" clip-rule="evenodd" d="M9.375 11.25C9.375 11.0842 9.30915 10.9253 9.19194 10.8081C9.07473 10.6908 8.91576 10.625 8.75 10.625H4.375C4.20924 10.625 4.05027 10.6908 3.93306 10.8081C3.81585 10.9253 3.75 11.0842 3.75 11.25V15.625C3.75 15.7908 3.81585 15.9497 3.93306 16.0669C4.05027 16.1842 4.20924 16.25 4.375 16.25H8.75C8.91576 16.25 9.07473 16.1842 9.19194 16.0669C9.30915 15.9497 9.375 15.7908 9.375 15.625V11.25ZM16.25 11.25C16.25 11.0842 16.1842 10.9253 16.0669 10.8081C15.9497 10.6908 15.7908 10.625 15.625 10.625H11.25C11.0842 10.625 10.9253 10.6908 10.8081 10.8081C10.6908 10.9253 10.625 11.0842 10.625 11.25V15.625C10.625 15.7908 10.6908 15.9497 10.8081 16.0669C10.9253 16.1842 11.0842 16.25 11.25 16.25H15.625C15.7908 16.25 15.9497 16.1842 16.0669 16.0669C16.1842 15.9497 16.25 15.7908 16.25 15.625V11.25ZM16.25 4.375C16.25 4.20924 16.1842 4.05027 16.0669 3.93306C15.9497 3.81585 15.7908 3.75 15.625 3.75H11.25C11.0842 3.75 10.9253 3.81585 10.8081 3.93306C10.6908 4.05027 10.625 4.20924 10.625 4.375V8.75C10.625 8.91576 10.6908 9.07473 10.8081 9.19194C10.9253 9.30915 11.0842 9.375 11.25 9.375H15.625C15.7908 9.375 15.9497 9.30915 16.0669 9.19194C16.1842 9.07473 16.25 8.91576 16.25 8.75V4.375ZM9.375 4.375C9.375 4.20924 9.30915 4.05027 9.19194 3.93306C9.07473 3.81585 8.91576 3.75 8.75 3.75H4.375C4.20924 3.75 4.05027 3.81585 3.93306 3.93306C3.81585 4.05027 3.75 4.20924 3.75 4.375V8.75C3.75 8.91576 3.81585 9.07473 3.93306 9.19194C4.05027 9.30915 4.20924 9.375 4.375 9.375H8.75C8.91576 9.375 9.07473 9.30915 9.19194 9.19194C9.30915 9.07473 9.375 8.91576 9.375 8.75V4.375Z" fill="#F39F5F"/>
</svg>
