<svg width="20" height="20" viewBox="0 0 20 20" fill="none" xmlns="http://www.w3.org/2000/svg">
<g clip-path="url(#clip0_4470_3196)">
<path d="M10 20C9.89846 19.9999 9.80042 19.9629 9.72417 19.8958C9.42917 19.635 2.5 13.4533 2.5 7.5C2.5 3.36417 5.865 0 10 0C14.135 0 17.5 3.36417 17.5 7.5C17.5 13.4533 10.5708 19.635 10.2758 19.8958C10.1996 19.9629 10.1015 19.9999 10 20ZM10 0.833333C6.32417 0.833333 3.33333 3.82417 3.33333 7.5C3.33333 12.4317 8.70917 17.7983 10 19.0158C11.2908 17.7983 16.6667 12.4317 16.6667 7.5C16.6667 3.82417 13.6758 0.833333 10 0.833333Z" fill="#F39F5F"/>
<path d="M10.0007 11.6667C7.70315 11.6667 5.83398 9.79754 5.83398 7.50004C5.83398 5.20254 7.70315 3.33337 10.0007 3.33337C12.2982 3.33337 14.1673 5.20254 14.1673 7.50004C14.1673 9.79754 12.2982 11.6667 10.0007 11.6667ZM10.0007 4.16671C8.16232 4.16671 6.66732 5.66171 6.66732 7.50004C6.66732 9.33837 8.16232 10.8334 10.0007 10.8334C11.839 10.8334 13.334 9.33837 13.334 7.50004C13.334 5.66171 11.839 4.16671 10.0007 4.16671Z" fill="#F39F5F"/>
</g>
<defs>
<clipPath id="clip0_4470_3196">
<rect width="20" height="20" fill="white"/>
</clipPath>
</defs>
</svg>
