<svg width="20" height="20" viewBox="0 0 20 20" fill="none" xmlns="http://www.w3.org/2000/svg">
<path d="M16.875 3.75H3.125C2.62772 3.75 2.15081 3.94754 1.79917 4.29917C1.44754 4.65081 1.25 5.12772 1.25 5.625V14.375C1.25 14.8723 1.44754 15.3492 1.79917 15.7008C2.15081 16.0525 2.62772 16.25 3.125 16.25H16.875C17.3723 16.25 17.8492 16.0525 18.2008 15.7008C18.5525 15.3492 18.75 14.8723 18.75 14.375V5.625C18.75 5.12772 18.5525 4.65081 18.2008 4.29917C17.8492 3.94754 17.3723 3.75 16.875 3.75ZM16.875 5C16.9835 5.00412 17.089 5.03643 17.1812 5.09375L10.35 9.64375C10.2473 9.71227 10.1266 9.74884 10.0031 9.74884C9.87966 9.74884 9.75896 9.71227 9.65625 9.64375L2.84375 5.10625C2.92746 5.04848 3.024 5.012 3.125 5H16.875ZM16.875 15H3.125C2.95924 15 2.80027 14.9342 2.68306 14.8169C2.56585 14.6997 2.5 14.5408 2.5 14.375V6.375L8.9625 10.6813C9.27062 10.8868 9.63272 10.9965 10.0031 10.9965C10.3735 10.9965 10.7356 10.8868 11.0437 10.6813L17.5 6.375V14.375C17.5 14.5408 17.4342 14.6997 17.3169 14.8169C17.1997 14.9342 17.0408 15 16.875 15Z" fill="#F39F5F"/>
</svg>
