<svg width="50" height="50" viewBox="0 0 50 50" fill="none" xmlns="http://www.w3.org/2000/svg">
<path d="M40.1243 44.0859L38.5454 43.7486C38.0533 43.6419 37.5637 43.7826 37.1997 44.1362L37.0008 44.3312C36.1035 43.7756 35.3473 43.0193 34.7918 42.1219L34.9845 41.9265C35.3408 41.5649 35.4836 41.0729 35.3764 40.5773L35.0357 38.9961C34.8869 38.3087 34.2924 37.8287 33.5897 37.8287H31.688C31.2643 37.8287 30.8873 37.9951 30.5975 38.3103C30.3155 38.6174 30.1798 39.0173 30.2152 39.4386C30.3335 40.7969 30.7174 42.1188 31.345 43.3292C31.2427 43.2975 31.1344 43.2902 31.0288 43.3081C30.9231 43.3259 30.8232 43.3683 30.737 43.4319C30.6507 43.4954 30.5807 43.5784 30.5324 43.674C30.4841 43.7696 30.459 43.8752 30.459 43.9823V48.0211C30.459 48.1109 30.4767 48.1998 30.511 48.2827C30.5454 48.3656 30.5957 48.441 30.6592 48.5045C30.7227 48.5679 30.798 48.6183 30.881 48.6527C30.9639 48.687 31.0528 48.7047 31.1426 48.7047C31.2323 48.7047 31.3212 48.687 31.4042 48.6527C31.4871 48.6183 31.5625 48.5679 31.626 48.5045C31.6894 48.441 31.7398 48.3656 31.7741 48.2827C31.8085 48.1998 31.8262 48.1109 31.8262 48.0211V44.1627C33.5211 46.8006 36.3726 48.6151 39.681 48.9066C39.73 48.9112 39.7785 48.9135 39.8267 48.9135C40.1922 48.9135 40.5303 48.7814 40.8146 48.5246C41.1234 48.2412 41.2934 47.8539 41.2934 47.4342V45.5324C41.2935 44.8296 40.8134 44.235 40.1243 44.0859ZM39.9263 47.4341C39.9263 47.4738 39.9188 47.491 39.8942 47.5136C39.8579 47.5464 39.841 47.5485 39.8081 47.5452L39.8032 47.5448C35.4217 47.1599 31.9622 43.7004 31.5774 39.3213C31.5736 39.2765 31.5824 39.259 31.6043 39.2352C31.6368 39.1997 31.6557 39.1959 31.6879 39.1959H33.5896C33.6471 39.1959 33.6871 39.2285 33.6992 39.2847L34.0398 40.8659C34.0493 40.9096 34.0419 40.9351 34.0106 40.9668L33.4542 41.5315C33.3524 41.6349 33.286 41.7679 33.2648 41.9115C33.2437 42.055 33.2687 42.2015 33.3363 42.3299C34.1185 43.815 35.3139 45.0103 36.7933 45.7862C36.9213 45.8534 37.0673 45.8782 37.2104 45.8571C37.3534 45.8361 37.4861 45.7702 37.5894 45.6689L38.1546 45.1147C38.1876 45.0826 38.2122 45.0753 38.2579 45.0854L39.8369 45.4228C39.8937 45.435 39.9262 45.475 39.9262 45.5324V47.4341H39.9263ZM39.1761 37.3385C39.1761 37.1507 39.022 36.9979 38.8326 36.9979H37.8057C37.6244 36.9979 37.4505 36.9258 37.3223 36.7976C37.1941 36.6694 37.1221 36.4956 37.1221 36.3143C37.1221 36.133 37.1941 35.9591 37.3223 35.8309C37.4505 35.7027 37.6244 35.6307 37.8057 35.6307H38.8326C39.7759 35.6307 40.5433 36.3968 40.5433 37.3385C40.5433 38.3531 39.8079 39.1183 38.8326 39.1183C38.7416 39.1184 38.6543 39.1546 38.5899 39.219C38.5255 39.2834 38.4893 39.3707 38.4893 39.4617V39.8716H39.8597C40.041 39.8716 40.2148 39.9436 40.343 40.0718C40.4712 40.2 40.5433 40.3739 40.5433 40.5552C40.5433 40.7365 40.4712 40.9104 40.343 41.0385C40.2148 41.1667 40.041 41.2388 39.8597 41.2388H37.8057C37.6244 41.2388 37.4505 41.1667 37.3223 41.0385C37.1941 40.9104 37.1221 40.7365 37.1221 40.5552V39.4617C37.1221 38.5185 37.8895 37.7511 38.8326 37.7511C39.1513 37.7511 39.1761 37.4353 39.1761 37.3385ZM43.0682 39.1183H41.659C41.5601 39.1183 41.4624 39.0968 41.3726 39.0554C41.2828 39.014 41.2031 38.9537 41.1389 38.8784C41.0748 38.8032 41.0277 38.715 41.0009 38.6198C40.9741 38.5246 40.9683 38.4248 40.9839 38.3271L41.3216 36.2067C41.3501 36.0277 41.4486 35.8673 41.5953 35.7609C41.7421 35.6544 41.9252 35.6106 42.1042 35.6392C42.2832 35.6677 42.4436 35.7662 42.5501 35.9129C42.6565 36.0597 42.7003 36.2427 42.6718 36.4218L42.4601 37.7511H43.0682V36.3143C43.0682 36.2245 43.0858 36.1356 43.1202 36.0527C43.1546 35.9697 43.2049 35.8944 43.2684 35.8309C43.3319 35.7674 43.4072 35.7171 43.4902 35.6827C43.5731 35.6483 43.662 35.6307 43.7518 35.6307C43.8415 35.6307 43.9304 35.6483 44.0134 35.6827C44.0963 35.7171 44.1717 35.7674 44.2351 35.8309C44.2986 35.8944 44.349 35.9697 44.3833 36.0527C44.4177 36.1356 44.4354 36.2245 44.4354 36.3143V40.5552C44.4354 40.6449 44.4177 40.7338 44.3833 40.8168C44.349 40.8997 44.2986 40.9751 44.2351 41.0385C44.1717 41.102 44.0963 41.1524 44.0134 41.1867C43.9304 41.2211 43.8415 41.2388 43.7518 41.2388C43.662 41.2388 43.5731 41.2211 43.4902 41.1867C43.4072 41.1524 43.3319 41.102 43.2684 41.0385C43.2049 40.9751 43.1546 40.8997 43.1202 40.8168C43.0858 40.7338 43.0682 40.6449 43.0682 40.5552V39.1183ZM19.5493 43.9821V48.0209C19.5493 48.2022 19.4773 48.3761 19.3491 48.5043C19.2209 48.6325 19.047 48.7045 18.8657 48.7045C18.6844 48.7045 18.5105 48.6325 18.3823 48.5043C18.2542 48.3761 18.1821 48.2022 18.1821 48.0209V43.9821C18.1821 43.8008 18.2542 43.627 18.3823 43.4988C18.5105 43.3706 18.6844 43.2985 18.8657 43.2985C19.047 43.2985 19.2209 43.3706 19.3491 43.4988C19.4773 43.627 19.5493 43.8008 19.5493 43.9821ZM25.6837 43.9821C25.6837 44.3586 25.3765 44.6658 25 44.6658C24.6235 44.6658 24.319 44.3586 24.319 43.9821C24.319 43.6057 24.6235 43.2984 25 43.2984C25.3765 43.2984 25.6837 43.6057 25.6837 43.9821ZM25.6837 40.9454C25.6837 41.3219 25.3765 41.6291 25 41.6291C24.6235 41.6291 24.319 41.3219 24.319 40.9454C24.319 40.5689 24.6235 40.2617 25 40.2617C25.3765 40.2617 25.6837 40.5689 25.6837 40.9454ZM25.6837 47.0217C25.6837 47.3981 25.3765 47.7054 25 47.7054C24.6235 47.7054 24.319 47.3981 24.319 47.0217C24.319 46.6452 24.6235 46.338 25 46.338C25.3765 46.338 25.6837 46.6451 25.6837 47.0217ZM49.2188 29.2526V21.3577C49.2188 21.2011 49.165 21.0493 49.0665 20.9276C48.9679 20.8058 48.8306 20.7217 48.6774 20.6891L44.1378 19.723L42.4807 15.7204L45.0087 11.8282C45.094 11.6969 45.1316 11.5402 45.1153 11.3844C45.0989 11.2286 45.0295 11.0832 44.9187 10.9725L39.3354 5.38906C39.2246 5.27831 39.0793 5.20894 38.9235 5.19255C38.7678 5.17616 38.6111 5.21375 38.4798 5.29902L34.585 7.82715L30.5823 6.16768L29.6189 1.62813C29.5864 1.47488 29.5022 1.33746 29.3805 1.23885C29.2588 1.14024 29.1069 1.08643 28.9502 1.08643H21.0525C20.8959 1.08642 20.7441 1.14018 20.6224 1.23871C20.5007 1.33724 20.4165 1.47457 20.3839 1.62773L19.4179 6.16758L15.4151 7.82705L11.5231 5.29912C11.3918 5.21378 11.2351 5.17615 11.0793 5.19253C10.9236 5.2089 10.7781 5.27828 10.6674 5.38906L5.08389 10.9726C4.97314 11.0833 4.90378 11.2287 4.88741 11.3845C4.87103 11.5403 4.90864 11.697 4.99395 11.8283L7.52207 15.7205L5.86504 19.723L1.32266 20.6891C1.16947 20.7216 1.03212 20.8058 0.933569 20.9275C0.835019 21.0492 0.781248 21.2011 0.78125 21.3577V29.2526C0.781266 29.4092 0.835043 29.5611 0.933591 29.6828C1.03214 29.8045 1.16948 29.8887 1.32266 29.9213L5.86504 30.8873L7.52207 34.8898L4.99395 38.782C4.90863 38.9134 4.87101 39.0701 4.88738 39.2258C4.90375 39.3816 4.97312 39.527 5.08389 39.6378L10.6674 45.2213C10.7309 45.2848 10.8063 45.3352 10.8892 45.3696C10.9722 45.4039 11.0612 45.4216 11.151 45.4215C11.2794 45.4215 11.4087 45.3853 11.5228 45.3114L13.9495 43.7373V48.021C13.9495 48.2023 14.0215 48.3762 14.1497 48.5044C14.2779 48.6326 14.4518 48.7046 14.6331 48.7046C14.8144 48.7046 14.9883 48.6326 15.1165 48.5044C15.2447 48.3762 15.3167 48.2023 15.3167 48.021V39.1406C15.3167 37.0484 17.7523 35.7525 20.4351 35.1152L21.7488 39.4815C21.7819 39.5914 21.842 39.6912 21.9238 39.7717C22.0055 39.8522 22.1062 39.9108 22.2166 39.9422C22.3269 39.9735 22.4434 39.9766 22.5552 39.9511C22.6671 39.9257 22.7708 39.8724 22.8566 39.7964L25.1549 37.7617L27.4506 39.7961C27.5365 39.8721 27.6401 39.9254 27.752 39.9509C27.8638 39.9763 27.9803 39.9733 28.0907 39.9419C28.201 39.9106 28.3017 39.852 28.3835 39.7715C28.4653 39.691 28.5255 39.5913 28.5586 39.4814L29.8647 35.1403C30.8115 35.3599 31.6603 35.6475 32.3848 35.9961C32.3475 36.1682 32.378 36.348 32.47 36.4981C32.562 36.6482 32.7084 36.757 32.8787 36.8018C33.049 36.8466 33.2299 36.824 33.3839 36.7386C33.5379 36.6533 33.653 36.5118 33.7053 36.3437C34.6532 33.3092 37.4291 31.2704 40.6127 31.2704C44.6043 31.2704 47.8517 34.5178 47.8517 38.5094C47.8517 41.6937 45.813 44.4696 42.7786 45.4167C42.6055 45.4707 42.461 45.5912 42.3768 45.7518C42.2926 45.9124 42.2756 46.0998 42.3296 46.2729C42.3836 46.446 42.5042 46.5905 42.6648 46.6747C42.8253 46.7589 43.0128 46.7759 43.1858 46.7219C46.7943 45.5956 49.2188 42.2952 49.2188 38.5094C49.2188 35.1494 47.283 32.2334 44.4684 30.8169L48.6774 29.9212C48.8306 29.8886 48.9679 29.8045 49.0665 29.6828C49.165 29.5611 49.2188 29.4092 49.2188 29.2526ZM22.7502 38.0646L21.7834 34.8514C21.9477 34.8257 22.1115 34.8024 22.2745 34.7814L24.1747 36.8035L22.7502 38.0646ZM19.2299 29.0646H18.6664C17.8481 29.0646 17.1825 28.3977 17.1825 27.5778C17.1825 26.7794 17.8164 26.1263 18.6073 26.0951L18.6075 26.0953C18.6746 27.0783 18.883 28.0742 19.207 28.9937C19.2142 29.0174 19.2215 29.0411 19.2299 29.0646ZM26.3231 32.2064C26.2218 32.2063 26.1247 32.166 26.053 32.0943C25.9814 32.0227 25.9411 31.9255 25.941 31.8242C25.941 31.617 26.116 31.442 26.3231 31.442H27.4913C27.6984 31.442 27.8734 31.617 27.8734 31.8242C27.8734 32.0314 27.6984 32.2064 27.4913 32.2064H26.3231ZM30.0576 24.7268H29.7226C27.4907 24.7268 25.8396 24.0048 24.0472 22.9209C23.951 22.8627 23.842 22.8292 23.7298 22.8232C23.6176 22.8172 23.5056 22.839 23.4038 22.8866L19.9507 24.5017V23.8463C19.9507 21.0605 22.2171 18.7942 25.0027 18.7942C27.79 18.7942 30.0576 21.0606 30.0576 23.8463V24.7268ZM30.1657 30.4317H30.7884V30.4928C30.7882 30.6645 30.7199 30.8292 30.5984 30.9507C30.477 31.0722 30.3123 31.1405 30.1405 31.1407H29.722C29.8822 30.9123 30.0303 30.6757 30.1657 30.4317ZM31.3309 29.0646H30.7843C30.7887 29.0524 30.7919 29.0402 30.796 29.028C31.1493 28.0336 31.3374 27.0132 31.4001 26.1L31.4021 26.0956C32.1874 26.1329 32.8146 26.7835 32.8146 27.5777C32.8147 28.3976 32.1491 29.0646 31.3309 29.0646ZM31.9594 24.7975C31.7865 24.7584 31.6078 24.7352 31.4248 24.7292V23.8464C31.4248 20.3067 28.5439 17.4271 25.0027 17.4271C21.4631 17.4271 18.5835 20.3068 18.5835 23.8464V24.7289C18.4036 24.7339 18.2246 24.756 18.0489 24.7949V23.8464C18.0489 20.012 21.1684 16.8925 25.0028 16.8925C28.8388 16.8925 31.9595 20.0119 31.9595 23.8464V24.7975H31.9594ZM23.6553 24.2783C25.86 25.5646 27.6401 26.0939 29.7226 26.0939H30.0311C29.9088 27.7095 29.3637 29.2939 28.5451 30.4312C28.2517 30.2087 27.8872 30.0749 27.4913 30.0749H26.3231C25.3586 30.0749 24.5738 30.8597 24.5738 31.8243C24.5738 32.0025 24.601 32.1745 24.6507 32.3366C21.4843 32.0919 20.1499 28.58 19.9718 26.0012L23.6553 24.2783ZM25.0056 33.7176C25.439 33.7176 25.8661 33.6669 26.2785 33.5714C26.2936 33.5718 26.3081 33.5736 26.3231 33.5736H27.0568V33.8235L25.1547 35.85L23.2503 33.8233V33.4444C23.8014 33.6251 24.3879 33.7176 25.0056 33.7176ZM27.5572 38.064L26.1349 36.8035L28.0028 34.8135C28.1755 34.8351 28.3458 34.8587 28.514 34.8842L27.5572 38.064ZM32.8867 34.7224C31.6546 34.1449 30.1352 33.7252 28.4241 33.4904V33.3016C28.725 33.1116 28.9612 32.8348 29.1015 32.5078H30.1406C31.2518 32.5078 32.1557 31.6038 32.1557 30.4927V30.3094C33.3268 29.9544 34.182 28.8644 34.182 27.5777C34.182 26.7821 33.8541 26.0619 33.3267 25.5442V23.8462C33.3267 19.258 29.5926 15.5251 25.0028 15.5251C20.4146 15.5251 16.6817 19.2579 16.6817 23.8462V25.5336C16.1479 26.052 15.8152 26.7766 15.8152 27.5776C15.8152 29.1513 17.0942 30.4315 18.6663 30.4315H19.8389V30.418C19.9036 30.5367 19.9713 30.6538 20.0419 30.7692C20.5604 31.6104 21.1793 32.2786 21.8831 32.7647V33.4543C19.8033 33.7395 18.0061 34.2985 16.6587 35.085C16.4604 35.2008 16.2672 35.3254 16.0798 35.4582C13.1521 32.8881 11.4827 29.2183 11.4827 25.3051C11.4827 17.8517 17.5465 11.7878 25 11.7878C32.455 11.7878 38.52 17.8516 38.52 25.3051C38.52 27.1039 38.1729 28.8458 37.489 30.4876C36.7685 30.7689 36.0892 31.1462 35.4697 31.6093C34.3764 32.4257 33.4867 33.5044 32.8867 34.7224ZM47.8516 28.6992L43.5015 29.6249C43.393 29.648 43.2917 29.6971 43.2065 29.7681C43.1212 29.8391 43.0545 29.9297 43.0121 30.0322L42.9338 30.2217C42.1782 30.01 41.3972 29.9029 40.6126 29.9034C40.1066 29.9034 39.6077 29.9481 39.1188 30.0333C39.6284 28.5166 39.8871 26.9319 39.8871 25.3054C39.8871 17.098 33.2088 10.4209 24.9999 10.4209C16.7926 10.4209 10.1154 17.098 10.1154 25.3054C10.1154 29.5562 11.9038 33.5465 15.0469 36.3703C14.3244 37.1821 13.9494 38.1182 13.9494 39.1408V42.1079L11.2428 43.8636L6.44199 39.0627L8.86436 35.3332C8.92475 35.2402 8.96161 35.1339 8.97177 35.0235C8.98192 34.913 8.96507 34.8018 8.92266 34.6993L6.99043 30.0321C6.948 29.9296 6.88126 29.839 6.79599 29.7681C6.71072 29.6972 6.60947 29.6481 6.50098 29.625L2.14844 28.6991V21.9112L6.50117 20.9855C6.60966 20.9625 6.71092 20.9134 6.79619 20.8424C6.88146 20.7715 6.94819 20.6809 6.99062 20.5784L8.92285 15.9112C8.96526 15.8088 8.98212 15.6975 8.97196 15.5871C8.96181 15.4767 8.92494 15.3704 8.86455 15.2773L6.44219 11.5479L11.2428 6.74727L14.9723 9.16963C15.0653 9.23005 15.1717 9.26691 15.2822 9.27705C15.3927 9.28719 15.5039 9.2703 15.6064 9.22783L20.2736 7.29287C20.376 7.25043 20.4666 7.18372 20.5374 7.09851C20.6083 7.01329 20.6574 6.91212 20.6805 6.80371L21.6062 2.45361H28.3967L29.3198 6.80332C29.3429 6.91181 29.3919 7.01306 29.4628 7.09835C29.5337 7.18364 29.6243 7.2504 29.7268 7.29287L34.3939 9.22783C34.4964 9.27032 34.6077 9.28722 34.7181 9.2771C34.8286 9.26698 34.9349 9.23013 35.0279 9.16973L38.7604 6.74717L43.561 11.5479L41.1387 15.2773C41.0783 15.3704 41.0414 15.4767 41.0313 15.5871C41.0211 15.6975 41.038 15.8088 41.0804 15.9112L43.0126 20.5784C43.055 20.6809 43.1217 20.7715 43.207 20.8424C43.2922 20.9133 43.3935 20.9625 43.502 20.9855L47.8516 21.9111V28.6992Z" fill="#5866EB"/>
</svg>
