<svg width="50" height="50" viewBox="0 0 50 50" fill="none" xmlns="http://www.w3.org/2000/svg">
<g clip-path="url(#clip0_4264_669)">
<path d="M1.37893 17.2655C1.75852 17.4483 2.18801 17.5406 2.64767 17.5406C2.91095 17.5406 3.184 17.5105 3.46369 17.4495C5.14249 17.0833 6.08927 15.7932 5.76661 14.3118V14.3115L3.91984 5.84513L11.6842 4.15148L13.0529 10.4259C12.6158 10.3431 12.1236 10.3546 11.593 10.4701C9.87686 10.8443 8.93838 12.0822 9.2585 13.5497C9.52813 14.7864 10.5475 15.5334 11.8536 15.5334C12.1118 15.5334 12.3819 15.504 12.6593 15.4437C14.3381 15.0775 15.2852 13.787 14.9622 12.3058V12.3054L12.5013 1.02307C12.3489 0.322677 11.6542 -0.122928 10.953 0.0300992L2.86779 1.79357C2.70094 1.82951 2.54287 1.89814 2.40269 1.99551C2.26251 2.09288 2.14301 2.21705 2.05109 2.36086C1.95826 2.50424 1.89484 2.66463 1.86452 2.83273C1.83419 3.00083 1.83756 3.17327 1.87443 3.34005L3.85734 12.432C3.42013 12.3492 2.92765 12.3603 2.39738 12.4759C1.63029 12.6434 1.0009 12.9855 0.577854 13.465C0.0759019 14.0342 -0.107301 14.7766 0.0629135 15.5555C0.231859 16.3303 0.699143 16.9374 1.37893 17.2655ZM12.347 14.0124C12.014 14.0849 10.9092 14.2443 10.6897 13.2377C10.4957 12.348 11.3681 12.0185 11.9056 11.9014C12.086 11.8621 12.2798 11.8347 12.4687 11.8347C12.9489 11.8347 13.3986 12.0112 13.5311 12.6174V12.6178C13.7508 13.6241 12.6804 13.9395 12.347 14.0124ZM11.1053 1.49601L11.3723 2.72013L3.60783 4.41398L3.34084 3.19025L11.1053 1.49601ZM1.67648 14.4345C1.88898 14.1937 2.25598 14.0064 2.70988 13.9072C2.89035 13.868 3.0841 13.8405 3.27297 13.8405C3.75324 13.8405 4.20294 14.0175 4.33537 14.6232V14.6236C4.5547 15.6304 3.48468 15.9459 3.15129 16.0183C2.71379 16.1137 2.31008 16.0881 2.01486 15.9458C1.7383 15.8127 1.56779 15.5826 1.49416 15.2435C1.42209 14.914 1.48 14.6568 1.67648 14.4345ZM49.8888 36.6446C49.8204 36.488 49.7216 36.3466 49.5982 36.2285C49.4748 36.1104 49.3291 36.0179 49.1698 35.9564L41.4553 32.9588C40.7866 32.6991 40.0321 33.0317 39.7723 33.7001L36.4004 42.3796C36.077 42.0611 35.6592 41.7963 35.1619 41.603C34.4298 41.3188 33.7165 41.2562 33.0984 41.4221C32.3657 41.619 31.8034 42.1369 31.5146 42.8801C31.2274 43.6194 31.2815 44.3838 31.6669 45.0324C32.0051 45.6019 32.5709 46.0535 33.3029 46.3377C33.7435 46.509 34.1761 46.591 34.5839 46.591C35.6588 46.591 36.558 46.0192 36.9563 44.9946L40.0942 36.9174L47.5016 39.7955L45.1735 45.788C44.85 45.4699 44.4326 45.2051 43.9349 45.0117C42.2976 44.3754 40.8316 44.8889 40.2876 46.2889C40.0003 47.0281 40.0545 47.7923 40.4402 48.4412C40.7786 49.0107 41.3443 49.4619 42.0759 49.7465C42.5165 49.9174 42.9495 49.9998 43.3573 49.9998C44.4323 49.9998 45.3314 49.4276 45.7293 48.403L49.911 37.6395C49.9732 37.4804 50.0033 37.3106 49.9995 37.1398C49.9956 36.969 49.958 36.8007 49.8888 36.6446ZM33.8332 44.9721C33.4155 44.81 33.0931 44.5658 32.926 44.2843C32.7693 44.02 32.754 43.7342 32.8798 43.4107C33.0019 43.096 33.1923 42.914 33.4788 42.8369C33.5792 42.8099 33.6901 42.7965 33.8088 42.7965C34.0563 42.7965 34.3386 42.8545 34.6312 42.9686C35.0588 43.1346 35.3846 43.3714 35.549 43.6358C35.7016 43.8811 35.7146 44.1443 35.5906 44.4639C35.2175 45.4241 34.1513 45.0957 33.8332 44.9721ZM40.6245 35.5517L41.0781 34.384L48.4858 37.2622L48.0322 38.4298L40.6245 35.5517ZM42.6062 48.3808C42.1885 48.2187 41.8665 47.9742 41.6995 47.6927C41.5422 47.4287 41.5274 47.143 41.6529 46.8196C41.8375 46.3446 42.2034 46.2004 42.5799 46.2004C42.8758 46.2004 43.1787 46.2897 43.4041 46.3774C43.8319 46.5434 44.1576 46.7802 44.3221 47.0446C44.4746 47.2899 44.4876 47.5531 44.3636 47.8724C43.9906 48.8329 42.9244 48.5044 42.6062 48.3809V48.3808ZM21.5106 46.6502C17.0069 49.9232 10.1531 48.8524 5.56749 44.1595C2.89299 41.4225 1.39797 37.8306 1.46701 34.305C1.52199 31.4879 2.59162 28.953 4.47872 27.167C5.82267 25.8967 7.53663 25.04 9.43555 24.6889C12.0158 24.2126 14.3005 22.9667 16.0422 21.0864C16.1076 21.0159 16.1585 20.9332 16.1919 20.843C16.2253 20.7528 16.2406 20.6569 16.237 20.5608C16.2333 20.4647 16.2108 20.3702 16.1706 20.2828C16.1305 20.1954 16.0735 20.1168 16.0029 20.0514C15.9324 19.986 15.8497 19.9351 15.7595 19.9016C15.6693 19.8682 15.5734 19.8528 15.4773 19.8565C15.3812 19.8601 15.2867 19.8827 15.1993 19.9229C15.1119 19.9631 15.0333 20.0201 14.968 20.0907C13.4418 21.738 11.4371 22.8297 9.16963 23.2485C6.99229 23.6507 5.02238 24.6375 3.47209 26.1027C1.29729 28.1611 0.0651596 31.0636 0.00256211 34.2765C-0.0740979 38.1922 1.57268 42.1675 4.51994 45.1834C7.60225 48.3377 11.631 49.9998 15.4601 49.9998C17.9545 49.9998 20.365 49.2938 22.3716 47.8354C22.5262 47.7202 22.6292 47.5488 22.6582 47.3582C22.6873 47.1677 22.6401 46.9733 22.5268 46.8173C22.4135 46.6614 22.2433 46.5563 22.053 46.525C21.8628 46.4937 21.6679 46.5387 21.5106 46.6501V46.6502Z" fill="#F92596"/>
<path d="M34.1588 31.9224C35.6895 30.3912 36.4212 28.4185 36.2735 26.2175C36.1568 24.4708 35.4938 22.615 34.3521 20.8178L39.0262 16.1437C39.0942 16.0757 39.1482 15.995 39.185 15.9062C39.2218 15.8174 39.2408 15.7222 39.2408 15.626C39.2408 15.5298 39.2219 15.4346 39.1851 15.3458C39.1483 15.2569 39.0944 15.1762 39.0264 15.1082C38.9584 15.0402 38.8777 14.9863 38.7889 14.9495C38.7 14.9127 38.6048 14.8937 38.5087 14.8937C38.4125 14.8937 38.3173 14.9126 38.2285 14.9494C38.1396 14.9862 38.0589 15.0401 37.9909 15.1081L25.0309 28.0676C24.7481 27.3676 24.3268 26.732 23.7923 26.1988C23.2494 25.656 22.615 25.2386 21.9238 24.9602L37.1787 9.70397L40.2866 12.8118L40.2 12.8984C40.0975 13.0008 40.0277 13.1313 39.9994 13.2734C39.9712 13.4155 39.9857 13.5628 40.0411 13.6966C40.0966 13.8304 40.1905 13.9448 40.311 14.0252C40.4315 14.1056 40.5732 14.1485 40.718 14.1484C40.9053 14.1484 41.093 14.0771 41.2356 13.9341L41.4212 13.7491C41.5374 13.7857 41.6592 13.8051 41.7827 13.8051C41.7954 13.8051 41.8079 13.8048 41.8205 13.8044C41.9862 13.799 42.149 13.7597 42.299 13.6891C42.449 13.6184 42.5829 13.5178 42.6926 13.3935L43.4699 12.5108L44.3035 13.3443C44.3714 13.4125 44.4522 13.4665 44.5411 13.5034C44.63 13.5403 44.7253 13.5592 44.8216 13.5591C45.0089 13.5591 45.1966 13.4874 45.3395 13.3443C45.4075 13.2763 45.4615 13.1956 45.4983 13.1067C45.5351 13.0179 45.5541 12.9227 45.5541 12.8265C45.5541 12.7303 45.5351 12.6351 45.4983 12.5462C45.4615 12.4574 45.4075 12.3766 45.3395 12.3087L44.4401 11.4091L45.6634 10.0198L46.534 10.8904C46.6019 10.9585 46.6827 11.0125 46.7716 11.0492C46.8605 11.086 46.9557 11.1049 47.0519 11.1048C47.1968 11.1047 47.3384 11.0617 47.4588 10.9813C47.5793 10.9008 47.6732 10.7864 47.7286 10.6525C47.7841 10.5187 47.7986 10.3714 47.7704 10.2293C47.7421 10.0873 47.6724 9.95673 47.57 9.85426L46.6335 8.91813L47.8477 7.53952L48.4783 8.17048C48.5463 8.23856 48.627 8.29255 48.7159 8.32934C48.8048 8.36612 48.9001 8.38498 48.9964 8.38483C49.1412 8.3848 49.2828 8.34183 49.4033 8.26134C49.5237 8.18085 49.6176 8.06645 49.673 7.93262C49.7285 7.79878 49.743 7.65152 49.7148 7.50943C49.6866 7.36734 49.6168 7.23681 49.5144 7.13434L48.8175 6.43786L49.6964 5.43991C50.1182 4.96081 50.0953 4.2318 49.644 3.78014L46.2188 0.355046C45.7672 -0.0966144 45.0382 -0.119564 44.5591 0.302311L43.5607 1.18171L42.8634 0.484733C42.726 0.347437 42.5397 0.270361 42.3454 0.270462C42.1511 0.270563 41.9649 0.347832 41.8276 0.48527C41.6903 0.622709 41.6132 0.809059 41.6133 1.00333C41.6134 1.19759 41.6907 1.38386 41.8281 1.52116L42.4591 2.15173L41.0808 3.3652L40.1359 2.42067C40.0679 2.35265 39.9872 2.29869 39.8983 2.26187C39.8095 2.22506 39.7143 2.20611 39.6181 2.20611C39.5219 2.20611 39.4267 2.22506 39.3378 2.26187C39.249 2.29869 39.1683 2.35265 39.1003 2.42067C39.0322 2.48866 38.9783 2.56939 38.9414 2.65825C38.9046 2.74711 38.8857 2.84235 38.8857 2.93854C38.8857 3.03473 38.9046 3.12997 38.9414 3.21883C38.9783 3.30769 39.0322 3.38842 39.1003 3.45641L39.9796 4.33532L38.5899 5.55895L37.6907 4.65993C37.6227 4.59191 37.542 4.53794 37.4531 4.50113C37.3643 4.46431 37.2691 4.44536 37.1729 4.44536C37.0767 4.44536 36.9815 4.46431 36.8926 4.50113C36.8038 4.53794 36.723 4.59191 36.6551 4.65993C36.587 4.72792 36.5331 4.80864 36.4963 4.89749C36.4594 4.98634 36.4405 5.08158 36.4405 5.17775C36.4405 5.27393 36.4594 5.36916 36.4963 5.45801C36.5331 5.54686 36.587 5.62758 36.6551 5.69557L37.4885 6.52907L36.6054 7.30651C36.4813 7.41631 36.3809 7.55028 36.3103 7.70023C36.2397 7.85017 36.2005 8.01295 36.195 8.17858C36.1911 8.30933 36.2085 8.43983 36.2465 8.56501L29.1812 15.6306C25.0636 12.9847 20.9171 12.9691 18.2555 15.631C17.5705 16.3146 17.046 16.9821 16.6519 17.6715C16.6042 17.7549 16.5733 17.847 16.5611 17.9424C16.5489 18.0378 16.5556 18.1347 16.5809 18.2275C16.6062 18.3203 16.6494 18.4072 16.7083 18.4833C16.7672 18.5594 16.8404 18.6231 16.9239 18.6709C17.0074 18.7187 17.0995 18.7495 17.1949 18.7617C17.2904 18.7739 17.3873 18.7671 17.4801 18.7418C17.5729 18.7165 17.6598 18.6731 17.7359 18.6142C17.8119 18.5553 17.8756 18.482 17.9233 18.3984C18.2521 17.8241 18.6988 17.258 19.2909 16.667C22.2022 13.7552 26.1909 15.5341 28.1166 16.6953L20.2411 24.5711C20.1016 24.5602 19.9618 24.5545 19.8218 24.554C18.3223 24.554 16.9121 25.138 15.8515 26.1988C14.7907 27.2593 14.2066 28.6696 14.2066 30.1695C14.2066 31.6694 14.7906 33.0798 15.8515 34.1402C16.9121 35.2007 18.3223 35.7851 19.8218 35.7851C21.3218 35.7851 22.7321 35.2007 23.7926 34.1403C24.853 33.0798 25.4371 31.6695 25.4371 30.1696C25.4371 30.0288 25.4302 29.8891 25.42 29.7504L33.2862 21.884C34.4352 23.82 36.1686 27.8411 33.1226 30.8871C32.641 31.3693 32.0929 31.7801 31.4949 32.107C28.1646 33.9286 25.9617 36.9265 25.2922 40.5486C25.0134 42.0607 24.4304 43.4279 23.5592 44.6128C23.3196 44.9389 23.3894 45.3974 23.7152 45.637C23.8407 45.7295 23.9926 45.7794 24.1485 45.7793C24.2635 45.7795 24.3769 45.7525 24.4795 45.7006C24.5821 45.6487 24.671 45.5734 24.739 45.4806C25.7427 44.1157 26.4134 42.546 26.7326 40.8144C27.3205 37.6341 29.2614 34.9982 32.1979 33.3919C32.9182 32.998 33.5784 32.5031 34.1587 31.9224H34.1588ZM45.3498 1.55778L48.4408 4.6488L41.77 12.2245L37.7749 8.22858L45.3498 1.55778ZM22.7564 33.1042C21.9725 33.8882 20.9303 34.32 19.8218 34.32C18.7133 34.32 17.6711 33.8882 16.8872 33.1042C16.1032 32.3203 15.6714 31.2781 15.6714 30.1696C15.6714 29.0606 16.1032 28.0184 16.8872 27.2345C17.6707 26.4506 18.7133 26.0187 19.8218 26.0187C20.9303 26.0187 21.9725 26.4506 22.7564 27.2345C23.54 28.0184 23.9719 29.0606 23.9719 30.1696C23.9719 31.2781 23.5404 32.3203 22.7564 33.1042ZM6.23054 32.6967C5.24216 33.6851 5.24216 35.2938 6.23054 36.2822L13.7093 43.7613C14.2036 44.2553 14.8528 44.5025 15.5017 44.5025C16.1511 44.5025 16.8003 44.2553 17.2947 43.7609C18.283 42.7726 18.283 41.1642 17.2947 40.1755L9.81599 32.6964C9.33718 32.2176 8.70056 31.9541 8.02341 31.9541C7.34626 31.9541 6.70974 32.218 6.23054 32.6967ZM16.2586 41.2116C16.676 41.6289 16.676 42.3079 16.2586 42.7253C15.8416 43.1425 15.1627 43.1429 14.7449 42.7253L7.26658 35.2466C6.84929 34.8292 6.84929 34.1499 7.26658 33.7325C7.36575 33.6328 7.48369 33.5538 7.6136 33.4999C7.74351 33.4461 7.8828 33.4186 8.02341 33.4189C8.30916 33.4189 8.5781 33.5302 8.78025 33.7324L16.2586 41.2116Z" fill="#F92596"/>
<path d="M36.8161 15.4625C36.9123 15.4626 37.0076 15.4438 37.0965 15.407C37.1854 15.3702 37.2662 15.3162 37.3341 15.2481C37.6199 14.962 37.6199 14.4981 37.3341 14.2124L35.7716 12.6495C35.6341 12.5123 35.4478 12.4352 35.2536 12.4352C35.0593 12.4352 34.873 12.5123 34.7355 12.6495C34.6675 12.7175 34.6135 12.7983 34.5767 12.8872C34.5399 12.9761 34.5209 13.0713 34.5209 13.1675C34.5209 13.2638 34.5399 13.359 34.5767 13.4479C34.6135 13.5368 34.6675 13.6176 34.7355 13.6856L36.298 15.2481C36.366 15.3162 36.4467 15.3702 36.5357 15.407C36.6246 15.4438 36.7199 15.4626 36.8161 15.4625ZM34.6512 17.6273C34.7961 17.6274 34.9377 17.5845 35.0582 17.5041C35.1787 17.4237 35.2727 17.3093 35.3281 17.1755C35.3836 17.0417 35.3981 16.8944 35.3698 16.7523C35.3416 16.6102 35.2718 16.4797 35.1693 16.3773L33.6068 14.8143C33.4694 14.6771 33.2831 14.6 33.0889 14.6C32.8947 14.6 32.7085 14.6771 32.5711 14.8143C32.503 14.8824 32.449 14.9631 32.4122 15.052C32.3754 15.1409 32.3564 15.2362 32.3564 15.3324C32.3564 15.4286 32.3754 15.5239 32.4122 15.6128C32.449 15.7017 32.503 15.7824 32.5711 15.8505L34.1336 17.413C34.2015 17.481 34.2821 17.535 34.371 17.5718C34.4598 17.6086 34.5551 17.6275 34.6512 17.6273ZM32.4868 19.7922C32.6316 19.792 32.7731 19.749 32.8935 19.6685C33.0139 19.5879 33.1077 19.4735 33.1631 19.3397C33.2185 19.2059 33.2329 19.0587 33.2047 18.9166C33.1764 18.7746 33.1067 18.6441 33.0044 18.5417L31.4419 16.9792C31.3739 16.9111 31.2931 16.8572 31.2043 16.8204C31.1154 16.7835 31.0202 16.7646 30.924 16.7646C30.8279 16.7646 30.7326 16.7835 30.6438 16.8204C30.5549 16.8572 30.4742 16.9111 30.4062 16.9792C30.3382 17.0472 30.2842 17.1279 30.2474 17.2167C30.2105 17.3056 30.1916 17.4008 30.1916 17.497C30.1916 17.5932 30.2105 17.6885 30.2474 17.7773C30.2842 17.8662 30.3382 17.9469 30.4062 18.0149L31.9687 19.5778C32.0367 19.6459 32.1174 19.6999 32.2063 19.7367C32.2952 19.7735 32.3906 19.7923 32.4868 19.7922ZM30.3219 21.957C30.4668 21.957 30.6084 21.914 30.7288 21.8335C30.8493 21.753 30.9432 21.6386 30.9986 21.5048C31.0541 21.371 31.0686 21.2237 31.0404 21.0816C31.0121 20.9395 30.9424 20.809 30.84 20.7065L29.2775 19.144C29.2095 19.076 29.1288 19.022 29.0399 18.9852C28.9511 18.9483 28.8558 18.9294 28.7596 18.9294C28.6634 18.9294 28.5682 18.9483 28.4793 18.9852C28.3905 19.022 28.3097 19.076 28.2418 19.144C28.1737 19.212 28.1197 19.2927 28.0829 19.3816C28.0461 19.4704 28.0271 19.5657 28.0271 19.6619C28.0271 19.7581 28.0461 19.8533 28.0829 19.9422C28.1197 20.031 28.1737 20.1118 28.2418 20.1798L29.8043 21.7426C29.8722 21.8107 29.9529 21.8647 30.0417 21.9015C30.1305 21.9383 30.2258 21.9571 30.3219 21.957ZM26.0769 21.3089C26.0089 21.3769 25.9549 21.4576 25.9181 21.5465C25.8813 21.6354 25.8623 21.7307 25.8623 21.8269C25.8623 21.9231 25.8813 22.0184 25.9181 22.1073C25.9549 22.1962 26.0089 22.277 26.0769 22.345L27.6394 23.9075C27.7074 23.9756 27.7881 24.0296 27.877 24.0664C27.9659 24.1032 28.0613 24.122 28.1575 24.1218C28.3023 24.1217 28.4438 24.0787 28.5642 23.9981C28.6846 23.9176 28.7784 23.8032 28.8338 23.6694C28.8892 23.5356 28.9036 23.3884 28.8754 23.2463C28.8471 23.1043 28.7774 22.9738 28.6751 22.8714L27.1126 21.3089C27.0446 21.2408 26.9638 21.1869 26.875 21.1501C26.7861 21.1132 26.6909 21.0943 26.5947 21.0943C26.4986 21.0943 26.4033 21.1132 26.3145 21.1501C26.2256 21.1869 26.1449 21.2408 26.0769 21.3089ZM40.7834 7.47487C40.7154 7.40684 40.6346 7.35288 40.5458 7.31607C40.4569 7.27925 40.3617 7.2603 40.2655 7.2603C40.1694 7.2603 40.0741 7.27925 39.9853 7.31607C39.8964 7.35288 39.8157 7.40684 39.7477 7.47487C39.6797 7.54286 39.6257 7.62358 39.5889 7.71243C39.5521 7.80128 39.5331 7.89651 39.5331 7.99269C39.5331 8.08886 39.5521 8.1841 39.5889 8.27295C39.6257 8.3618 39.6797 8.44252 39.7477 8.51051C39.8157 8.57854 39.8964 8.6325 39.9853 8.66931C40.0741 8.70613 40.1694 8.72508 40.2655 8.72508C40.3617 8.72508 40.4569 8.70613 40.5458 8.66931C40.6346 8.6325 40.7154 8.57854 40.7834 8.51051C40.8514 8.44252 40.9053 8.3618 40.9422 8.27295C40.979 8.1841 40.9979 8.08886 40.9979 7.99269C40.9979 7.89651 40.979 7.80128 40.9422 7.71243C40.9053 7.62358 40.8514 7.54286 40.7834 7.47487ZM42.5401 9.21627C42.4721 9.14824 42.3913 9.09426 42.3024 9.05744C42.2135 9.02062 42.1182 9.00167 42.022 9.00167C41.9258 9.00167 41.8305 9.02062 41.7417 9.05744C41.6528 9.09426 41.572 9.14824 41.504 9.21627C41.2182 9.50202 41.2182 9.96588 41.504 10.2519C41.572 10.32 41.6528 10.3739 41.7417 10.4107C41.8305 10.4476 41.9258 10.4665 42.022 10.4665C42.1182 10.4665 42.2135 10.4476 42.3024 10.4107C42.3913 10.3739 42.4721 10.32 42.5401 10.2519C42.8257 9.96579 42.8257 9.50192 42.5401 9.21627ZM42.9814 5.2734C42.9134 5.20536 42.8327 5.15139 42.7438 5.11457C42.655 5.07774 42.5597 5.05879 42.4635 5.05879C42.3673 5.05879 42.2721 5.07774 42.1832 5.11457C42.0944 5.15139 42.0137 5.20536 41.9457 5.2734C41.8776 5.34139 41.8237 5.42212 41.7869 5.51097C41.75 5.59982 41.7311 5.69505 41.7311 5.79122C41.7311 5.8874 41.75 5.98263 41.7869 6.07148C41.8237 6.16033 41.8776 6.24106 41.9457 6.30905C42.0137 6.37708 42.0944 6.43106 42.1832 6.46788C42.2721 6.50471 42.3673 6.52366 42.4635 6.52366C42.5597 6.52366 42.655 6.50471 42.7438 6.46788C42.8327 6.43106 42.9134 6.37708 42.9814 6.30905C43.0494 6.24106 43.1034 6.16033 43.1402 6.07148C43.177 5.98263 43.196 5.8874 43.196 5.79122C43.196 5.69505 43.177 5.59982 43.1402 5.51097C43.1034 5.42212 43.0494 5.34139 42.9814 5.2734ZM44.7392 7.01676C44.6712 6.94872 44.5905 6.89475 44.5016 6.85793C44.4128 6.8211 44.3175 6.80215 44.2213 6.80215C44.1252 6.80215 44.0299 6.8211 43.9411 6.85793C43.8522 6.89475 43.7715 6.94872 43.7035 7.01676C43.6355 7.08475 43.5815 7.16548 43.5447 7.25433C43.5079 7.34318 43.4889 7.43841 43.4889 7.53458C43.4889 7.63076 43.5079 7.72599 43.5447 7.81484C43.5815 7.90369 43.6355 7.98442 43.7035 8.05241C43.7715 8.12044 43.8522 8.17442 43.9411 8.21124C44.0299 8.24807 44.1252 8.26702 44.2213 8.26702C44.3175 8.26702 44.4128 8.24807 44.5016 8.21124C44.5905 8.17442 44.6712 8.12044 44.7392 8.05241C44.8072 7.98442 44.8612 7.90369 44.898 7.81484C44.9348 7.72599 44.9538 7.63076 44.9538 7.53458C44.9538 7.43841 44.9348 7.34318 44.898 7.25433C44.8612 7.16548 44.8072 7.08475 44.7392 7.01676ZM45.1805 3.07418C45.1125 3.00616 45.0318 2.9522 44.943 2.91538C44.8541 2.87857 44.7589 2.85962 44.6627 2.85962C44.5665 2.85962 44.4713 2.87857 44.3824 2.91538C44.2936 2.9522 44.2129 3.00616 44.1449 3.07418C44.0768 3.14217 44.0229 3.22291 43.986 3.31177C43.9492 3.40062 43.9303 3.49587 43.9303 3.59205C43.9303 3.68824 43.9492 3.78349 43.986 3.87234C44.0229 3.9612 44.0768 4.04193 44.1449 4.10993C44.2129 4.17795 44.2936 4.23191 44.3824 4.26873C44.4713 4.30554 44.5665 4.32449 44.6627 4.32449C44.7589 4.32449 44.8541 4.30554 44.943 4.26873C45.0318 4.23191 45.1125 4.17795 45.1805 4.10993C45.2486 4.04193 45.3025 3.9612 45.3394 3.87234C45.3762 3.78349 45.3951 3.68824 45.3951 3.59205C45.3951 3.49587 45.3762 3.40062 45.3394 3.31177C45.3025 3.22291 45.2486 3.14217 45.1805 3.07418ZM46.938 4.81715C46.8701 4.74911 46.7893 4.69514 46.7005 4.65832C46.6116 4.62149 46.5164 4.60254 46.4202 4.60254C46.324 4.60254 46.2287 4.62149 46.1399 4.65832C46.051 4.69514 45.9703 4.74911 45.9023 4.81715C45.8343 4.88514 45.7803 4.96588 45.7435 5.05473C45.7066 5.14359 45.6877 5.23884 45.6877 5.33502C45.6877 5.43121 45.7066 5.52645 45.7435 5.61531C45.7803 5.70417 45.8343 5.7849 45.9023 5.85289C45.9703 5.92093 46.051 5.97491 46.1399 6.01173C46.2287 6.04855 46.324 6.06751 46.4202 6.06751C46.5164 6.06751 46.6116 6.04855 46.7005 6.01173C46.7893 5.97491 46.8701 5.92093 46.938 5.85289C47.0061 5.7849 47.0601 5.70417 47.0969 5.61531C47.1337 5.52645 47.1527 5.43121 47.1527 5.33502C47.1527 5.23884 47.1337 5.14359 47.0969 5.05473C47.0601 4.96588 47.0061 4.88514 46.938 4.81715Z" fill="#F92596"/>
</g>
<defs>
<clipPath id="clip0_4264_669">
<rect width="50" height="50" fill="white"/>
</clipPath>
</defs>
</svg>
