<svg width="190" height="52" viewBox="0 0 190 52" fill="none" xmlns="http://www.w3.org/2000/svg">
<path d="M36.7159 8.9476C37.2022 8.9476 37.5973 8.55249 37.5973 8.06622C37.5973 7.57994 37.2022 7.18484 36.7159 7.18484H35.7813C35.7256 6.85812 35.642 6.54153 35.5306 6.2376L36.3385 5.77159C36.7589 5.52845 36.9058 4.98898 36.6602 4.56602C36.417 4.14306 35.8776 3.9987 35.4546 4.24437L34.6441 4.71292C34.4365 4.46218 34.2034 4.22917 33.9527 4.02149L34.4213 3.21103C34.6644 2.7906 34.52 2.25113 34.0996 2.00546C33.6766 1.76232 33.1397 1.90668 32.894 2.32711L32.428 3.13504C32.1241 3.02361 31.8075 2.93749 31.4808 2.88431V1.94974C31.4808 1.46346 31.0857 1.06836 30.5994 1.06836C30.1131 1.06836 29.718 1.46346 29.718 1.94974V2.88431C29.3913 2.94003 29.0747 3.02361 28.7708 3.13504L28.3048 2.32711C28.0616 1.90415 27.5222 1.75979 27.0992 2.00546C26.6763 2.2486 26.5319 2.78806 26.7776 3.21103L27.2461 4.02149C26.9954 4.22917 26.7624 4.46218 26.5547 4.71292L25.7442 4.24437C25.3213 4.00123 24.7843 4.14559 24.5387 4.56602C24.2955 4.98645 24.4399 5.52592 24.8603 5.77159L25.6682 6.2376C25.5568 6.54153 25.4707 6.85812 25.4175 7.18484H24.4829C23.9967 7.18484 23.6016 7.57994 23.6016 8.06622C23.6016 8.55249 23.9967 8.9476 24.4829 8.9476H25.4175C25.4732 9.27432 25.5568 9.5909 25.6682 9.89483L24.8603 10.3608C24.4373 10.604 24.293 11.1434 24.5387 11.5664C24.7818 11.9894 25.3213 12.1337 25.7442 11.8881L26.5547 11.4195C26.7624 11.6703 26.9954 11.9033 27.2461 12.1109L26.7776 12.9214C26.5344 13.3444 26.6788 13.8813 27.0992 14.127C27.5222 14.3701 28.0591 14.2257 28.3048 13.8053L28.7708 12.9974C29.0747 13.1088 29.3913 13.1949 29.718 13.2481V14.1827C29.718 14.669 30.1131 15.0641 30.5994 15.0641C31.0857 15.0641 31.4808 14.669 31.4808 14.1827V13.2481C31.8075 13.1924 32.1241 13.1088 32.428 12.9974L32.894 13.8053C33.1372 14.2283 33.6766 14.3726 34.0996 14.127C34.5226 13.8838 34.6669 13.3444 34.4213 12.9214L33.9527 12.1109C34.2034 11.9033 34.4365 11.6703 34.6441 11.4195L35.4546 11.8881C35.8776 12.1312 36.4145 11.9868 36.6602 11.5664C36.9033 11.1434 36.7589 10.6065 36.3385 10.3608L35.5306 9.89483C35.642 9.5909 35.7281 9.27432 35.7813 8.9476H36.7159Z" fill="#F5C748"/>
<path d="M60.5661 30.6971C54.4421 31.8698 45.7676 30.7858 47.7684 28.7875C48.9689 27.587 51.1116 25.2468 52.8996 23.2662C53.2998 22.8255 52.7578 22.1695 52.2462 22.4734C40.4413 29.527 34.4768 20.4625 32.3949 16.2962C32.1568 15.82 31.435 15.972 31.4071 16.5013C31.0095 23.7778 33.5853 31.1859 39.1445 36.7452C43.5641 41.1648 49.1512 43.7 54.9131 44.356C55.4982 44.4219 55.7312 43.619 55.2019 43.3632C49.402 40.562 41.1834 34.866 48.1989 35.3624C53.5328 35.7397 58.2715 33.3666 60.9612 31.6418C61.445 31.3303 61.1335 30.5882 60.5661 30.6971ZM44.0782 21.6782C45.4256 21.0957 47.391 20.0648 49.5185 15.0932C49.6274 14.8374 49.3513 14.5866 49.1133 14.7335C48.0242 15.4021 45.9221 16.2227 43.5185 14.7588V14.7639C41.7304 13.6343 39.2382 14.0674 38.0023 16.0809C37.2526 17.3017 37.2475 18.8973 37.9922 20.1206C39.299 22.2734 41.9888 22.5849 44.0782 21.6782Z" fill="#F5C748"/>
<path d="M52.2484 22.4741C51.4202 23.044 50.5591 23.5809 49.6397 24.014C49.1864 24.247 48.7102 24.4243 48.2366 24.6168C47.9985 24.708 47.7529 24.7789 47.5097 24.8574C47.2666 24.941 47.0184 25.0018 46.7702 25.0626C45.7773 25.3158 44.744 25.4501 43.7056 25.4273C42.6672 25.4045 41.6313 25.2247 40.641 24.903C39.6558 24.5687 38.7187 24.0951 37.8677 23.5075C37.0243 22.9098 36.2493 22.2234 35.5706 21.456C34.2029 19.9313 33.1544 18.1609 32.3945 16.2969C33.4355 18.0191 34.6031 19.6527 36.0011 21.0482C37.3941 22.4361 39.0328 23.5835 40.8791 24.1837C42.7153 24.8093 44.7161 24.865 46.641 24.4851C47.606 24.3027 48.5633 24.0292 49.4903 23.6721C50.435 23.3403 51.3366 22.8996 52.2484 22.4741Z" fill="#F5C748"/>
<path d="M60.5665 30.6973C59.4217 31.0747 58.2314 31.29 57.0334 31.4166C55.8354 31.5483 54.6273 31.5711 53.4218 31.5205C52.819 31.485 52.2162 31.4344 51.616 31.3558C51.0182 31.2647 50.418 31.1684 49.8279 31.0038C49.2377 30.8468 48.6527 30.6492 48.1082 30.3276C47.8473 30.1553 47.5662 29.9603 47.4345 29.6285C47.3711 29.4639 47.3914 29.274 47.4623 29.1296C47.5408 28.9852 47.6523 28.8789 47.7688 28.7852C47.6776 28.9042 47.6016 29.0359 47.5687 29.1701C47.5358 29.3044 47.556 29.4361 47.6244 29.5399C47.7637 29.7526 48.0195 29.8894 48.2779 29.9958C48.8021 30.2111 49.3796 30.3225 49.952 30.4238C50.5294 30.5125 51.1094 30.5935 51.697 30.6391C52.2821 30.6948 52.8696 30.7379 53.4572 30.7607C54.0448 30.7961 54.6349 30.8113 55.2251 30.8189C55.8152 30.8366 56.4053 30.824 56.9979 30.8265C58.1833 30.8139 59.366 30.7657 60.5665 30.6973Z" fill="#F5C748"/>
<path d="M55.2013 43.3646C54.2288 43.0682 53.2942 42.6681 52.3875 42.2198C51.9291 42.002 51.4884 41.7538 51.0452 41.5106C50.6045 41.2599 50.1764 40.9914 49.7459 40.7204C48.8949 40.1683 48.0768 39.5604 47.317 38.8766C46.9371 38.5347 46.5775 38.1675 46.2508 37.7673C46.0912 37.5647 45.9392 37.3545 45.8101 37.129C45.6809 36.9062 45.572 36.6605 45.5391 36.4072C45.653 36.6352 45.8101 36.8277 45.9798 37.0049C46.152 37.1822 46.3267 37.3519 46.5192 37.509C46.8915 37.8306 47.2917 38.1244 47.6919 38.4182C48.4947 38.9982 49.328 39.5427 50.1612 40.0872C50.992 40.6368 51.8379 41.1636 52.6788 41.7082C53.5196 42.2476 54.3655 42.7846 55.2013 43.3646Z" fill="#F5C748"/>
<path d="M22.5918 20.9114C24.1393 19.3639 24.1393 16.8565 22.5918 15.309C21.0443 13.7616 18.5369 13.7616 16.992 15.309C15.4445 16.8565 15.4445 19.3639 16.992 20.9114C18.5395 22.4589 21.0468 22.4589 22.5918 20.9114ZM29.7923 16.502C29.7644 15.9726 29.0426 15.8207 28.8045 16.2968C26.7226 20.4631 20.7556 29.5276 8.95318 22.4741C8.44157 22.1676 7.90211 22.8236 8.29974 23.2668C10.0878 25.2474 12.228 27.5851 13.431 28.7881C15.4318 30.7889 6.75986 31.8704 0.633249 30.6977C0.0659241 30.5888 -0.245599 31.3309 0.24068 31.6424C2.93041 33.3697 7.6691 35.7404 13.003 35.363C20.0186 34.8666 11.7999 40.5626 6.00005 43.3638C5.46818 43.6196 5.70119 44.4225 6.28877 44.3566C12.0507 43.7006 17.6378 41.1654 22.0574 36.7458C27.6141 31.1866 30.1899 23.7784 29.7923 16.502Z" fill="#F5C748"/>
<path d="M13.4286 28.7852C13.5451 28.8789 13.6591 28.9852 13.7351 29.1296C13.8085 29.274 13.8262 29.4639 13.7629 29.6285C13.6312 29.9603 13.3501 30.1553 13.0892 30.3276C12.5447 30.6492 11.9596 30.8442 11.3695 31.0038C10.1893 31.3179 8.98118 31.4521 7.77561 31.5205C7.17283 31.5433 6.57005 31.5534 5.96726 31.5382C5.36448 31.5129 4.7617 31.4875 4.16398 31.4166C2.96601 31.29 1.77311 31.0747 0.630859 30.6948C1.83136 30.7632 3.01413 30.8088 4.19944 30.824C4.79209 30.824 5.38221 30.8366 5.97233 30.8164C6.56245 30.8088 7.15257 30.7936 7.74015 30.7581C8.33027 30.7379 8.91533 30.6923 9.50038 30.6391C10.0854 30.591 10.668 30.5125 11.2454 30.4238C11.8178 30.3225 12.3953 30.2111 12.9195 29.9958C13.1779 29.8894 13.4337 29.7501 13.573 29.5399C13.6414 29.4335 13.6591 29.3044 13.6287 29.1701C13.5983 29.0359 13.5198 28.9042 13.4286 28.7852Z" fill="#F5C748"/>
<path d="M15.4912 36.7891C15.3088 37.25 14.9948 37.6477 14.6807 38.0301C14.5135 38.2099 14.3464 38.3948 14.1716 38.5696C13.9943 38.7418 13.8145 38.9115 13.6296 39.0736C12.8926 39.727 12.0923 40.2994 11.2742 40.8363C10.4511 41.3657 9.59506 41.8418 8.71875 42.2724C7.8399 42.7004 6.93826 43.0828 5.99609 43.364C6.79896 42.7992 7.61449 42.2749 8.42748 41.7557L10.8614 40.1981C11.2666 39.9423 11.6693 39.6789 12.0695 39.4129C12.4747 39.1546 12.8648 38.8785 13.2624 38.6101C14.0475 38.0554 14.8352 37.5159 15.4912 36.7891Z" fill="#F5C748"/>
<path d="M34.2337 48.6378H26.9648V37.9878L30.346 28.9638C30.4346 28.7282 30.7664 28.7282 30.8525 28.9638L34.2337 37.9878V48.6378Z" fill="white"/>
<path d="M29.3925 37.9883H26.9688V48.6383H29.3925V37.9883Z" fill="white"/>
<path d="M31.8144 37.9883H29.3906V48.6383H31.8144V37.9883Z" fill="white"/>
<path d="M34.2383 37.9883H31.8145V48.6383H34.2383V37.9883Z" fill="white"/>
<path d="M30.8559 28.9638L31.6487 31.0786H29.5566L30.3494 28.9638C30.4355 28.7282 30.7673 28.7282 30.8559 28.9638Z" fill="#F5C748"/>
<g filter="url(#filter0_d_1_213)">
<path d="M163.688 23.9344C163.381 23.4352 163.227 22.9552 163.227 22.4944C163.227 21.8031 163.458 21.2271 163.919 20.7663C164.034 20.1902 164.303 19.6526 164.725 19.1534C165.147 18.6157 165.608 18.2125 166.107 17.9437C166.645 17.6365 167.068 17.5213 167.375 17.5981C167.644 17.1756 168.181 16.7916 168.988 16.446C169.794 16.062 170.543 15.87 171.234 15.87C171.388 15.87 171.618 15.9084 171.925 15.9852C172.348 15.5243 172.905 15.2939 173.596 15.2939C174.134 15.2939 174.518 15.4475 174.748 15.7548C175.247 15.4091 175.9 15.2363 176.706 15.2363C177.667 15.2363 178.511 15.4667 179.241 15.9276C180.009 16.3884 180.451 17.0028 180.566 17.7709C181.257 18.0013 181.776 18.3661 182.121 18.8653C182.505 19.3262 182.736 19.979 182.812 20.8239C183.312 21.3231 183.676 21.9183 183.907 22.6096C184.137 23.2624 184.253 23.9344 184.253 24.6257C184.253 25.5089 184.099 26.2194 183.792 26.757C184.061 27.141 184.291 27.7171 184.483 28.4851C184.675 29.2532 184.771 30.002 184.771 30.7317C184.771 31.0389 184.733 31.4229 184.656 31.8837C184.925 32.4598 185.059 32.8438 185.059 33.0358C185.059 33.151 185.001 33.4198 184.886 33.8422C184.925 33.9958 184.963 34.1879 185.001 34.4183C185.04 34.6103 185.059 34.8599 185.059 35.1671C185.059 35.7431 184.848 36.2616 184.425 36.7224C184.579 37.1448 184.656 37.6633 184.656 38.2777C184.656 39.0841 184.464 39.737 184.08 40.2362C184.157 40.3898 184.195 40.6394 184.195 40.9851C184.195 41.7915 183.869 42.4635 183.216 43.0012C183.062 43.5388 182.774 43.9612 182.352 44.2685C181.929 44.5373 181.468 44.6717 180.969 44.6717C180.47 44.6717 180.067 44.5181 179.759 44.2108C178.761 44.6333 177.955 44.8445 177.34 44.8445C177.033 44.8445 176.802 44.8253 176.649 44.7869C175.65 45.0941 174.806 45.2477 174.114 45.2477C173.615 45.2477 172.924 45.1517 172.041 44.9597C171.503 45.2669 170.985 45.4205 170.485 45.4205C170.024 45.4205 169.602 45.2861 169.218 45.0173C169.026 45.0557 168.738 45.0749 168.354 45.0749C166.856 45.0749 165.704 44.4029 164.898 43.0588C163.438 42.2139 162.709 40.9467 162.709 39.257C162.709 38.8345 162.728 38.5081 162.766 38.2777C162.421 38.0473 162.248 37.5673 162.248 36.8376C162.248 36.3384 162.344 35.8968 162.536 35.5127C162.382 34.8215 162.306 34.3799 162.306 34.1879C162.306 33.0742 162.843 32.0757 163.919 31.1925C164.341 30.3092 164.821 29.714 165.359 29.4068C165.935 29.0996 166.645 28.8691 167.49 28.7155C167.72 28.0627 168.258 27.6211 169.103 27.3907C169.948 27.1602 170.773 27.0834 171.58 27.1602C171.81 27.0066 172.137 26.8722 172.559 26.757C172.981 26.6034 173.404 26.5266 173.826 26.5266C174.287 26.5266 174.69 26.6034 175.036 26.757C175.113 26.6802 175.305 26.6418 175.612 26.6418C175.842 26.6418 176.073 26.661 176.303 26.6994C176.534 26.7378 176.687 26.7954 176.764 26.8722C177.302 26.181 177.935 25.8354 178.665 25.8354C178.895 25.8354 179.126 25.893 179.356 26.0082V25.8354C179.356 25.1825 179.491 24.7217 179.759 24.4529C179.375 24.3377 178.953 24.0112 178.492 23.4736C178.07 22.8976 177.82 22.3792 177.743 21.9183C177.129 21.6495 176.706 21.2079 176.476 20.5934C176.015 20.9391 175.478 21.1119 174.863 21.1119C174.441 21.1119 174.038 20.9967 173.653 20.7663C173.001 20.9583 172.578 21.0351 172.386 20.9967C171.849 21.3807 171.253 21.5727 170.601 21.5727C170.024 22.3408 169.352 22.6864 168.584 22.6096C168.239 23.224 167.759 23.7616 167.144 24.2225C166.568 24.6833 165.973 24.9137 165.359 24.9137C164.667 24.9137 164.111 24.5873 163.688 23.9344ZM166.856 36.78C167.317 37.2408 167.548 37.6825 167.548 38.1049C167.548 38.4121 167.471 38.7961 167.317 39.257C167.471 39.257 167.682 39.353 167.951 39.545C168.258 39.6986 168.431 39.8714 168.469 40.0634C168.776 39.9482 169.16 39.8906 169.621 39.8906C170.466 39.8906 171.023 40.0826 171.292 40.4666C171.714 40.313 172.156 40.2362 172.617 40.2362C173.346 40.2362 173.922 40.4474 174.345 40.8699C174.652 40.5626 175.151 40.313 175.842 40.121C176.572 39.929 177.225 39.833 177.801 39.833C178.147 39.1417 178.761 38.7385 179.644 38.6233C179.721 38.3545 179.932 38.0089 180.278 37.5865C180.124 37.356 179.99 37.0488 179.875 36.6648C179.759 36.2808 179.702 35.8968 179.702 35.5127C179.702 34.7063 179.894 34.111 180.278 33.727C179.855 33.1894 179.644 32.5558 179.644 31.8261C179.644 31.3269 179.721 30.9045 179.875 30.5588C179.567 30.7509 179.222 30.8469 178.838 30.8469C178.492 30.8469 178.204 30.7124 177.974 30.4436C177.628 30.7893 177.148 30.9621 176.534 30.9621C176.15 30.9621 175.766 30.8661 175.382 30.674C174.959 31.0965 174.441 31.3077 173.826 31.3077C173.634 31.3077 173.346 31.2309 172.962 31.0773C172.386 31.6533 171.868 31.8261 171.407 31.5957C171.177 32.1333 170.869 32.4982 170.485 32.6902C170.14 32.8822 169.64 32.9782 168.988 32.9782C168.834 33.4006 168.565 33.7462 168.181 34.015C167.836 34.2839 167.471 34.3799 167.087 34.3031C167.279 34.5719 167.375 34.8791 167.375 35.2247C167.375 35.8008 167.202 36.3192 166.856 36.78Z" fill="#014132"/>
</g>
<g filter="url(#filter1_d_1_213)">
<path d="M159.411 39.4873C159.526 39.8713 159.584 40.2554 159.584 40.6394C159.584 41.4074 159.276 41.9259 158.662 42.1947C158.739 42.7707 158.508 43.3468 157.971 43.9228C157.433 44.4988 156.934 44.7868 156.473 44.7868C156.281 45.1325 155.705 45.4589 154.745 45.7661C153.785 46.0733 152.902 46.2269 152.095 46.2269C151.519 46.2269 151.078 46.1117 150.77 45.8813C150.233 46.1501 149.465 46.2845 148.466 46.2845C147.583 46.2845 146.776 46.1501 146.047 45.8813C145.356 45.6125 144.933 45.2093 144.78 44.6716C144.012 44.7868 143.147 44.5564 142.187 43.9804C141.266 43.4044 140.671 42.8091 140.402 42.1947C139.71 42.0027 139.134 41.6379 138.674 41.1002C138.251 40.5626 138.021 39.929 137.982 39.1993C137.752 38.8537 137.637 38.5081 137.637 38.1624C137.637 37.6248 137.81 37.1448 138.155 36.7224C138.539 36.2999 138.981 36.0887 139.48 36.0887C139.979 36.0887 140.459 36.3959 140.92 37.0104C141.611 36.9336 142.226 37.164 142.763 37.7016C143.339 38.2393 143.627 38.7769 143.627 39.3145C143.743 39.3145 144.031 39.3529 144.492 39.4297C144.991 39.4681 145.432 39.6025 145.816 39.8329C146.2 40.0634 146.469 40.3898 146.623 40.8122C147.314 40.8122 147.986 40.9082 148.639 41.1002C149.33 41.2538 149.733 41.4458 149.849 41.6763C150.156 41.4842 150.597 41.3306 151.174 41.2154C151.788 41.0618 152.306 40.985 152.729 40.985C152.844 40.8314 153.132 40.6778 153.593 40.5242C154.054 40.3706 154.438 40.2746 154.745 40.2362C154.553 39.9674 154.457 39.5641 154.457 39.0265C154.457 38.2201 154.707 37.644 155.206 37.2984C154.745 37.1448 154.38 36.9144 154.111 36.6072C153.842 36.2615 153.727 35.8775 153.766 35.4551C153.458 35.5319 153.228 35.5703 153.074 35.5703C152.345 35.5703 151.75 35.2823 151.289 34.7062C150.521 34.783 149.753 34.6102 148.985 34.1878C148.255 33.7654 147.717 33.2086 147.372 32.5173C147.103 32.6325 146.815 32.6901 146.508 32.6901C145.855 32.6901 145.164 32.4981 144.434 32.1141C143.743 31.6917 143.301 31.2884 143.109 30.9044C142.571 31.058 141.938 30.8852 141.208 30.386C140.478 29.8868 140.114 29.3299 140.114 28.7155C139.653 28.4851 139.288 28.1011 139.019 27.5634C138.75 26.9874 138.616 26.469 138.616 26.0081C138.616 25.6625 138.693 25.4321 138.846 25.3169C138.654 24.9329 138.558 24.5488 138.558 24.1648C138.558 23.4736 138.789 22.8783 139.25 22.3791C139.134 21.9567 139.077 21.5727 139.077 21.227C139.077 20.5742 139.211 20.0366 139.48 19.6141C139.787 19.1533 140.152 18.9613 140.574 19.0381C140.498 18.4237 140.632 17.886 140.978 17.4252C141.362 16.9644 141.823 16.638 142.36 16.446C142.936 16.2155 143.435 16.1387 143.858 16.2155C144.088 15.8699 144.396 15.6011 144.78 15.4091C145.164 15.2171 145.548 15.1211 145.932 15.1211C146.584 15.1211 147.045 15.3131 147.314 15.6971C147.352 15.5051 147.487 15.3515 147.717 15.2363C147.986 15.1211 148.293 15.0635 148.639 15.0635C148.946 15.0635 149.253 15.1211 149.561 15.2363C149.868 15.3515 150.098 15.4859 150.252 15.6395C150.482 15.4091 150.886 15.2939 151.462 15.2939C151.922 15.2939 152.383 15.3899 152.844 15.5819C153.305 15.7355 153.612 15.9659 153.766 16.2731C153.996 16.1579 154.246 16.1003 154.515 16.1003C154.975 16.1003 155.398 16.2731 155.782 16.6188C156.204 16.926 156.492 17.3292 156.646 17.8284C157.222 17.7516 157.817 17.9436 158.432 18.4045C159.046 18.8653 159.276 19.3261 159.123 19.787C160.16 20.363 160.678 21.1502 160.678 22.1487C160.678 22.7631 160.467 23.3008 160.044 23.7616C159.622 24.2224 159.084 24.4528 158.432 24.4528C157.856 24.4144 157.375 24.2608 156.991 23.992C156.607 23.7232 156.377 23.3968 156.3 23.0128C155.801 22.9359 155.321 22.7439 154.86 22.4367C154.438 22.0911 154.207 21.6495 154.169 21.1118C153.439 21.1886 152.882 21.1118 152.498 20.8814C152.153 20.651 151.846 20.2862 151.577 19.787C151.308 19.979 150.962 20.075 150.54 20.075C150.117 20.075 149.657 19.9598 149.157 19.7294C148.889 19.9598 148.543 20.1518 148.121 20.3054C147.737 20.459 147.352 20.5358 146.968 20.5358C146.546 20.5358 146.181 20.4398 145.874 20.2478C145.951 20.7086 145.836 21.0734 145.528 21.3423C145.221 21.6111 144.799 21.7071 144.261 21.6303C144.376 21.8991 144.434 22.1871 144.434 22.4943C144.434 23.1856 144.127 23.7616 143.512 24.2224C143.935 24.4144 144.242 24.7409 144.434 25.2017C144.626 25.6241 144.703 26.0465 144.664 26.469L145.125 26.4114C146.277 26.4114 147.007 26.7762 147.314 27.5058L147.775 27.4482C148.389 27.4482 148.965 27.6018 149.503 27.909C150.079 28.2163 150.501 28.7347 150.77 29.4643C151.385 29.4259 151.98 29.5027 152.556 29.6947C153.132 29.8484 153.535 30.1556 153.766 30.6164C154.073 30.5012 154.361 30.4436 154.63 30.4436C155.283 30.4436 155.859 30.6356 156.358 31.0196C156.895 31.4036 157.183 31.8453 157.222 32.3445C157.568 32.3445 157.875 32.5365 158.144 32.9205C158.451 33.3046 158.566 33.7462 158.489 34.2454C158.758 34.207 159.008 34.3606 159.238 34.7062C159.468 35.0135 159.584 35.3783 159.584 35.8007C159.584 36.0311 159.526 36.2423 159.411 36.4343C159.948 36.8184 160.217 37.3368 160.217 37.9896C160.217 38.3353 160.14 38.6425 159.987 38.9113C159.872 39.1801 159.68 39.3721 159.411 39.4873Z" fill="#014132"/>
</g>
<g filter="url(#filter2_d_1_213)">
<path d="M128.465 42.8851C128.388 43.2308 128.1 43.5188 127.601 43.7492C127.102 43.9796 126.564 44.0948 125.988 44.0948C125.719 44.0948 125.527 44.0756 125.412 44.0372C125.22 44.3444 124.817 44.6516 124.202 44.9589C123.588 45.2661 123.05 45.4197 122.589 45.4197C122.359 45.4197 122.148 45.3621 121.956 45.2469C121.572 45.3237 121.245 45.3621 120.977 45.3621C120.439 45.3621 119.901 45.2661 119.364 45.0741C118.864 44.8821 118.48 44.6324 118.212 44.3252C117.559 44.402 116.944 44.3252 116.368 44.0948C115.831 43.826 115.523 43.4804 115.447 43.058C115.024 43.1348 114.544 42.9619 114.007 42.5395C113.507 42.1171 113.238 41.5411 113.2 40.8114C112.624 40.5042 112.202 40.0434 111.933 39.4289C111.664 38.8145 111.53 38.1617 111.53 37.4704C111.53 36.9712 111.587 36.5872 111.702 36.3183C111.395 36.0495 111.146 35.4927 110.954 34.6479C110.762 33.7646 110.666 32.8429 110.666 31.8829C110.666 30.7308 110.8 29.886 111.069 29.3483C110.877 28.9643 110.781 28.5227 110.781 28.0235C110.781 27.601 110.838 27.1978 110.954 26.8138C111.107 26.4298 111.318 26.1225 111.587 25.8921C111.472 25.7001 111.414 25.5273 111.414 25.3737C111.414 25.1049 111.51 24.8169 111.702 24.5097C111.894 24.2024 112.106 23.972 112.336 23.8184C112.298 23.204 112.451 22.6471 112.797 22.1479C113.181 21.6103 113.565 21.2839 113.949 21.1687C113.911 20.7846 114.045 20.3238 114.352 19.7862C114.659 19.2485 115.063 18.8069 115.562 18.4613C116.099 18.1157 116.637 17.9621 117.175 18.0005C117.943 16.9252 118.999 16.3876 120.343 16.3876C120.919 16.3876 121.361 16.4644 121.668 16.618C122.09 16.426 122.609 16.33 123.223 16.33C123.838 16.33 124.51 16.4836 125.239 16.7908C125.47 16.6756 125.758 16.618 126.103 16.618C126.487 16.618 126.852 16.6948 127.198 16.8484C127.582 16.9636 127.831 17.1364 127.947 17.3668C127.908 17.2132 127.889 16.9828 127.889 16.6756C127.889 16.0611 128.043 15.5235 128.35 15.0627C128.081 14.6019 127.947 14.141 127.947 13.6802C127.947 13.4498 127.966 13.277 128.004 13.1618C127.966 12.9698 127.889 12.7202 127.774 12.4129C127.659 12.0673 127.601 11.7793 127.601 11.5489C127.601 11.2417 127.678 10.9344 127.831 10.6272C127.639 10.2432 127.543 9.85918 127.543 9.47516C127.543 9.05273 127.659 8.64951 127.889 8.26549C127.62 7.72786 127.486 7.17102 127.486 6.59499C127.486 5.82694 127.697 5.1357 128.119 4.52127C128.58 3.90683 129.195 3.59961 129.963 3.59961C130.616 3.59961 131.172 3.84922 131.633 4.34845C132.132 4.80928 132.382 5.34691 132.382 5.96135C132.382 6.19177 132.363 6.36458 132.324 6.47978C132.9 6.94061 133.188 7.57425 133.188 8.38069C133.188 8.80312 133.054 9.24475 132.785 9.70557C132.9 9.97439 132.958 10.2624 132.958 10.5696C132.958 10.992 132.862 11.3953 132.67 11.7793C132.862 12.1633 132.958 12.5665 132.958 12.989C132.958 13.5266 132.824 13.9874 132.555 14.3714C132.939 14.8323 133.131 15.2739 133.131 15.6963C133.131 16.0035 133.016 16.33 132.785 16.6756C132.9 16.906 132.958 17.194 132.958 17.5396C132.958 17.8085 132.9 18.0965 132.785 18.4037C133.092 18.8261 133.246 19.2869 133.246 19.7862C133.246 20.1702 133.15 20.5542 132.958 20.9382C133.188 21.3223 133.304 21.7831 133.304 22.3207C133.304 23.204 133.092 23.8184 132.67 24.164C133.054 24.6249 133.246 25.3161 133.246 26.2378C133.246 26.7754 133.169 27.313 133.016 27.8506C132.9 28.3883 132.785 28.7723 132.67 29.0027C133.054 29.5787 133.246 30.3084 133.246 31.1916C133.246 31.6141 133.15 32.0173 132.958 32.4013C133.38 32.8237 133.592 33.4574 133.592 34.3022C133.592 35.2239 133.4 35.9727 133.016 36.5488C133.4 37.048 133.592 37.7584 133.592 38.6801C133.592 39.2945 133.496 39.8514 133.304 40.3506C133.15 40.8114 132.939 41.1186 132.67 41.2722C132.708 41.5411 132.804 41.9443 132.958 42.4819C133.15 43.3268 133.246 43.8644 133.246 44.0948C133.246 44.7092 133.054 45.2085 132.67 45.5925C132.209 46.0533 131.672 46.2837 131.057 46.2837C130.558 46.2837 130.097 46.1109 129.675 45.7653C129.291 45.3813 129.06 44.8821 128.983 44.2676C128.791 44.0756 128.657 43.826 128.58 43.5188C128.503 43.1732 128.465 42.9619 128.465 42.8851ZM121.265 40.6386C121.38 40.3698 121.725 40.2354 122.301 40.2354C122.57 40.2354 122.801 40.2546 122.993 40.293C123.185 40.3314 123.338 40.3506 123.453 40.3506C123.492 40.0818 123.722 39.8514 124.145 39.6593C124.606 39.4289 125.047 39.3137 125.47 39.3137C125.738 39.3137 125.969 39.3713 126.161 39.4865C126.122 39.1025 126.199 38.7953 126.391 38.5649C126.583 38.3345 126.833 38.1233 127.14 37.9312C127.486 37.7008 127.735 37.528 127.889 37.4128C127.812 37.2592 127.774 36.9136 127.774 36.376C127.774 35.2239 127.908 34.5134 128.177 34.2446C127.908 33.9758 127.774 33.4382 127.774 32.6317C127.774 31.7101 127.908 30.9036 128.177 30.2124C127.947 29.7132 127.831 28.8683 127.831 27.6778C127.831 26.5258 127.908 25.7577 128.062 25.3737C127.716 24.6825 127.543 23.8952 127.543 23.012C127.543 22.3207 127.62 21.8215 127.774 21.5143C127.543 21.6679 127.198 21.6871 126.737 21.5719C126.314 21.4183 125.969 21.2071 125.7 20.9382C125.546 21.1687 125.239 21.2839 124.778 21.2839C124.471 21.2839 124.164 21.2455 123.857 21.1687C123.549 21.0534 123.338 20.9382 123.223 20.823C122.609 21.0918 122.013 21.2263 121.437 21.2263C121.284 21.2263 121.053 21.1879 120.746 21.1111C120.247 21.6487 119.863 22.0327 119.594 22.2631C119.325 22.4935 118.96 22.6279 118.5 22.6663C118.384 22.9352 118.269 23.2616 118.154 23.6456C118.039 23.9912 117.904 24.2792 117.751 24.5097C117.597 24.7401 117.328 24.9321 116.944 25.0857C116.867 25.5849 116.675 25.9881 116.368 26.2954C116.407 26.449 116.426 26.6602 116.426 26.929C116.426 27.313 116.33 27.7354 116.138 28.1963C116.253 28.4651 116.311 29.0603 116.311 29.982C116.311 31.7485 116.157 32.8045 115.85 33.1502C115.888 33.3038 116.023 33.6686 116.253 34.2446C116.483 34.8207 116.599 35.3775 116.599 35.9151C116.599 36.3376 116.522 36.7216 116.368 37.0672C117.136 37.3744 117.616 37.912 117.808 38.6801C118.192 38.7953 118.557 39.0449 118.903 39.4289C119.824 39.3905 120.612 39.7938 121.265 40.6386Z" fill="#014132"/>
</g>
<g filter="url(#filter3_d_1_213)">
<path d="M103.307 5.21369C102.808 5.4441 102.405 5.77052 102.098 6.19294C101.79 6.61537 101.637 7.057 101.637 7.51782C101.637 8.13226 101.886 8.7467 102.386 9.36113C102.309 9.86036 102.578 10.3404 103.192 10.8012C103.806 11.262 104.478 11.4925 105.208 11.4925C105.707 11.4925 106.149 11.3581 106.533 11.0892C107.608 10.5132 108.146 9.78356 108.146 8.9003C108.146 8.32427 107.915 7.67143 107.455 6.94179C107.493 6.17374 107.263 5.57851 106.763 5.15608C106.303 4.69526 105.746 4.46484 105.093 4.46484C104.363 4.46484 103.768 4.71446 103.307 5.21369ZM107.051 30.6744C107.359 30.7896 107.589 31.1544 107.743 31.7689C107.935 32.3833 108.031 33.0553 108.031 33.785C108.031 34.6298 107.896 35.1867 107.627 35.4555C107.858 36.0315 107.973 36.5883 107.973 37.126C107.973 37.8172 107.8 38.3933 107.455 38.8541C107.723 39.5069 107.858 40.275 107.858 41.1582C107.858 41.8879 107.743 42.4831 107.512 42.9439C107.627 43.2895 107.685 43.616 107.685 43.9232C107.685 44.6144 107.435 45.1713 106.936 45.5937C106.437 45.9777 105.842 46.1697 105.151 46.1697C104.498 46.1697 103.941 45.9777 103.48 45.5937C103.019 45.1713 102.808 44.6144 102.846 43.9232C102.654 43.6928 102.501 43.3279 102.386 42.8287C102.27 42.3295 102.213 41.8111 102.213 41.2734C102.213 40.275 102.424 39.6221 102.846 39.3149C102.539 38.8157 102.386 38.0668 102.386 37.0684C102.386 36.0699 102.52 35.3403 102.789 34.8794C102.635 34.7258 102.52 34.361 102.443 33.785C102.366 33.2089 102.328 32.5753 102.328 31.8841C102.328 31.2312 102.366 30.6552 102.443 30.156C102.52 29.6183 102.635 29.2727 102.789 29.1191C102.558 28.8887 102.443 28.2551 102.443 27.2182C102.443 26.0277 102.578 25.1637 102.846 24.626C102.654 24.3188 102.482 23.9156 102.328 23.4164C102.174 22.9171 102.098 22.4563 102.098 22.0339C102.098 21.6499 102.136 21.381 102.213 21.2274C101.906 20.229 101.752 19.4225 101.752 18.8081C101.752 18.1553 101.906 17.4832 102.213 16.792C102.136 16.2159 102.27 15.7743 102.616 15.4671C102.962 15.1599 103.461 15.0063 104.114 15.0063C105.88 15.0063 106.763 16.0815 106.763 18.2321C107.109 18.4625 107.359 18.7889 107.512 19.2113C107.704 19.5953 107.8 20.037 107.8 20.5362C107.8 21.3426 107.608 22.0339 107.224 22.6099C107.378 22.8403 107.493 23.186 107.57 23.6468C107.685 24.1076 107.743 24.5684 107.743 25.0293C107.743 25.6437 107.647 26.0661 107.455 26.2965C107.608 26.4886 107.685 26.8918 107.685 27.5062C107.685 28.0822 107.608 28.6967 107.455 29.3495C107.339 30.0024 107.205 30.444 107.051 30.6744Z" fill="#014132"/>
</g>
<g filter="url(#filter4_d_1_213)">
<path d="M98.9551 42.3671C99.1087 42.5207 99.2239 42.7703 99.3007 43.1159C99.4159 43.4231 99.4735 43.7687 99.4735 44.1528C99.4735 44.7672 99.3391 45.3048 99.0703 45.7657C98.8015 46.1881 98.3599 46.3993 97.7454 46.3993C97.4382 46.3993 97.035 46.3033 96.5357 46.1113C95.9981 45.8809 95.5373 45.5352 95.1533 45.0744C94.7692 44.6136 94.5388 44.1336 94.462 43.6343C93.9244 43.3271 93.5212 42.9431 93.2523 42.4823C93.0219 42.0214 92.8683 41.3494 92.7915 40.4661C92.4459 40.3509 92.0811 40.0629 91.6971 39.6021C91.3514 39.1413 91.1402 38.6996 91.0634 38.2772C90.6026 38.1236 90.1802 37.8164 89.7961 37.3556C89.4121 36.8947 89.2201 36.3955 89.2201 35.8579C88.4137 35.6659 87.7416 35.2434 87.204 34.5906C86.6664 33.9378 86.3975 33.2465 86.3975 32.5169C86.3975 32.2865 86.4167 32.1136 86.4551 31.9984C85.7255 31.9216 85.0727 31.5184 84.4966 30.7888C83.9206 30.0207 83.671 29.2719 83.7478 28.5422C83.3254 28.427 82.9221 28.1582 82.5381 27.7358C82.1925 27.3134 81.9429 26.8141 81.7893 26.2381C81.7509 26.4685 81.5589 26.7181 81.2132 26.9869C80.8676 27.2558 80.5988 27.3902 80.4068 27.3902C80.2148 27.7742 79.9076 28.139 79.4851 28.4846C79.0627 28.7918 78.6595 28.9839 78.2755 29.0607C78.1603 29.4831 77.8914 29.8095 77.469 30.0399C77.085 30.2319 76.6242 30.3471 76.0865 30.3855C76.4322 31.0384 76.605 31.9984 76.605 33.2657C76.605 34.4562 76.4706 35.4546 76.2017 36.2611C76.5474 36.8371 76.7202 37.6244 76.7202 38.6228C76.7202 39.4677 76.605 40.0629 76.3745 40.4085C76.3745 40.5621 76.4129 40.8886 76.4898 41.3878C76.5666 41.8486 76.605 42.3094 76.605 42.7703C76.605 44.9976 75.7025 46.1113 73.8976 46.1113C73.0912 46.1113 72.5151 45.8425 72.1695 45.3048C71.8239 44.7672 71.6511 44.1144 71.6511 43.3463C71.6511 42.5015 71.7855 41.8486 72.0543 41.3878C71.8239 40.6197 71.7087 39.9861 71.7087 39.4869C71.7087 38.9108 71.8047 38.4884 71.9967 38.2196C71.5743 37.7972 71.363 37.0867 71.363 36.0883C71.363 35.3202 71.4591 34.6482 71.6511 34.0722C71.4207 33.0737 71.3054 32.3825 71.3054 31.9984C71.3054 31.4992 71.3823 31 71.5359 30.5007C71.075 29.8095 70.8446 29.0607 70.8446 28.2542C70.8446 27.4094 71.075 26.7181 71.5359 26.1805C70.9598 25.8349 70.6718 25.278 70.6718 24.51C70.6718 23.9724 70.8446 23.3195 71.1902 22.5515C70.9598 22.0906 70.8446 21.649 70.8446 21.2266C70.8446 20.881 70.9406 20.4778 71.1326 20.0169C70.8254 19.6713 70.6718 19.0185 70.6718 18.0584C70.6718 16.8295 70.9022 15.8695 71.363 15.1782C71.0942 14.871 70.883 14.4294 70.7294 13.8534C70.5758 13.2389 70.499 12.6053 70.499 11.9524C70.499 11.0308 70.6142 10.3396 70.8446 9.87873C70.5758 9.18748 70.4414 8.53465 70.4414 7.92021C70.4414 7.03696 70.7102 6.34572 71.2478 5.84649C71.8239 5.30885 72.4767 5.04004 73.2064 5.04004C73.8976 5.04004 74.4736 5.25125 74.9345 5.67368C75.3953 6.0961 75.6257 6.71054 75.6257 7.51698L75.5681 8.09302C75.9905 8.51544 76.2017 9.11068 76.2017 9.87873C76.2017 10.6084 76.0481 11.242 75.7409 11.7796C75.9329 11.9716 76.0289 12.4133 76.0289 13.1045C76.0289 14.103 75.8177 14.7366 75.3953 15.0054C75.6257 15.351 75.7409 15.7735 75.7409 16.2727C75.7409 16.9255 75.5873 17.5976 75.2801 18.2888C75.7025 18.8265 75.9137 19.3641 75.9137 19.9017C75.9137 20.3241 75.7985 20.689 75.5681 20.9962C75.7217 21.1882 75.7985 21.4378 75.7985 21.745C75.7985 21.9754 75.7409 22.2635 75.6257 22.6091C75.5489 22.9547 75.4913 23.2427 75.4529 23.4731C75.7601 23.7035 75.9137 24.0876 75.9137 24.6252C75.9137 24.8556 75.8561 25.1244 75.7409 25.4316C75.9713 24.9324 76.4129 24.606 77.0658 24.4524C77.1426 23.838 77.4114 23.3579 77.8722 23.0123C78.3331 22.6283 78.8515 22.4747 79.4275 22.5515C79.4659 21.8986 79.6963 21.3034 80.1188 20.7658C80.5412 20.2281 81.194 19.9593 82.0773 19.9593C82.2693 19.3449 82.6341 18.7881 83.1718 18.2888C83.7094 17.7896 84.151 17.5784 84.4966 17.6552C84.9959 16.8871 85.3991 16.3687 85.7063 16.0999C86.0519 15.8311 86.5704 15.5815 87.2616 15.351C87.3 14.8902 87.5688 14.4102 88.068 13.911C88.5673 13.3733 89.0665 13.0277 89.5657 12.8741C89.6425 12.5669 89.9498 12.1829 90.4874 11.722C91.025 11.2612 91.4858 10.954 91.8699 10.8004C91.7931 10.3396 92.0235 9.82112 92.5611 9.24509C93.1371 8.63065 93.7132 8.34263 94.2892 8.38104C94.4812 7.7666 94.7692 7.30577 95.1533 6.99855C95.5757 6.69134 96.0173 6.53773 96.4781 6.53773C97.0926 6.53773 97.6494 6.74894 98.1486 7.17137C98.6479 7.55539 98.8975 7.99701 98.8975 8.49624C98.8975 9.07228 98.6095 9.59071 98.0334 10.0515C97.8798 11.5492 97.1886 12.5669 95.9597 13.1045C95.8829 13.5269 95.6525 13.9302 95.2685 14.3142C94.8844 14.6982 94.4428 14.9286 93.9436 15.0054C93.8668 15.4279 93.4828 15.9463 92.7915 16.5607C92.1387 17.1368 91.505 17.444 90.8906 17.4824C90.6986 18.0968 90.2954 18.7305 89.6809 19.3833C89.0665 19.9977 88.4905 20.3049 87.9528 20.3049C87.4536 21.1114 87.0504 21.649 86.7432 21.9178C86.4359 22.1867 85.8599 22.5707 85.0151 23.0699C86.0519 23.4155 86.4935 24.1068 86.3399 25.1436C86.916 25.374 87.396 25.7581 87.78 26.2957C88.164 26.8333 88.2985 27.371 88.1833 27.9086C88.8361 28.139 89.4889 28.6766 90.1418 29.5215C90.7946 30.3279 91.0826 31.0384 91.0058 31.6528C91.505 31.8064 92.0427 32.1712 92.6187 32.7473C93.1947 33.3233 93.5212 33.9186 93.598 34.533C93.9436 34.6866 94.3276 35.0322 94.75 35.5698C95.1725 36.0691 95.4221 36.4915 95.4989 36.8371C96.0365 37.0291 96.4781 37.4516 96.8238 38.1044C97.1694 38.7572 97.3614 39.4293 97.3998 40.1205C97.707 40.2741 98.0142 40.5813 98.3214 41.0422C98.6287 41.503 98.8399 41.9446 98.9551 42.3671Z" fill="#014132"/>
</g>
<g filter="url(#filter5_d_1_213)">
<path fill-rule="evenodd" clip-rule="evenodd" d="M159.54 40.0585C159.511 39.8683 159.468 39.6781 159.411 39.488C159.546 39.4304 159.661 39.3536 159.757 39.2576C159.853 39.1616 159.93 39.0463 159.987 38.9119C160.141 38.6431 160.218 38.3359 160.218 37.9903C160.218 37.9437 160.216 37.8978 160.214 37.8526C160.19 37.4639 160.065 37.1258 159.84 36.8382C159.724 36.6905 159.581 36.556 159.411 36.435C159.46 36.3542 159.498 36.27 159.526 36.1825C159.565 36.0619 159.584 35.9348 159.584 35.8014C159.584 35.3789 159.469 35.0141 159.238 34.7069C159.181 34.621 159.123 34.5469 159.063 34.4848C158.949 34.3656 158.83 34.29 158.707 34.258C158.707 34.2346 158.707 34.2114 158.707 34.1885C158.707 32.7323 159.146 31.4561 159.854 30.3704L158.867 28.9879L160.65 29.3445C160.773 29.2086 160.901 29.0765 161.033 28.9484C161.325 28.4377 161.68 27.9226 162.116 27.4517C161.542 27.025 161.055 26.4912 160.667 25.8909L160.644 25.8566L160.623 25.8219C160.288 25.2781 160 24.6591 159.821 23.976C159.899 23.9113 159.974 23.8401 160.045 23.7622C160.386 23.3899 160.59 22.9675 160.655 22.495C160.671 22.3826 160.679 22.2674 160.679 22.1493C160.679 21.4788 160.445 20.9035 159.977 20.4235C160.145 19.9506 160.374 19.4973 160.665 19.0723C160.959 18.2599 161.396 17.5272 161.934 16.8802C162.584 16.0638 163.383 15.3316 164.359 14.7976C164.664 14.6249 165.125 14.3852 165.693 14.209C166.3 13.7421 166.946 13.4094 167.505 13.1656C168.571 12.6662 169.744 12.3165 170.985 12.2746C171.805 11.8788 172.698 11.6943 173.597 11.6943C173.985 11.6943 174.426 11.7327 174.885 11.8381C175.501 11.6939 176.118 11.6367 176.708 11.6367C178.257 11.6367 179.772 12.0138 181.131 12.8634C182.069 13.4332 182.879 14.2129 183.432 15.1951C184.012 15.5846 184.544 16.0765 184.991 16.6879C185.623 17.4909 185.994 18.3884 186.202 19.2691C186.679 19.9319 187.05 20.6608 187.313 21.4414C187.335 21.5029 187.356 21.5646 187.376 21.6263L187.944 21.2716L187.539 22.181C187.749 22.9782 187.854 23.7957 187.854 24.6263C187.854 25.2458 187.802 25.8984 187.664 26.5523C187.789 26.9132 187.891 27.2711 187.977 27.6125C188.234 28.6421 188.372 29.6845 188.372 30.7323C188.372 30.9472 188.363 31.1647 188.346 31.3822C188.35 31.3931 188.354 31.4041 188.357 31.415C188.443 31.6595 188.66 32.2922 188.66 33.0364C188.66 33.3905 188.609 33.7179 188.57 33.9189C188.642 34.3643 188.66 34.7978 188.66 35.1677C188.66 35.9626 188.503 36.7081 188.218 37.389C188.246 37.6907 188.257 37.9883 188.257 38.2783C188.257 39.1311 188.129 40.0286 187.796 40.8941C187.796 40.9266 187.796 40.9572 187.796 40.9857C187.796 42.5488 187.242 43.9367 186.276 45.0359C185.868 45.8641 185.268 46.6006 184.47 47.1807L184.38 47.2464L184.286 47.3064C183.287 47.9417 182.156 48.2725 180.97 48.2725C180.509 48.2725 180.038 48.2181 179.574 48.0993C178.851 48.3075 178.096 48.4453 177.341 48.4453C177.233 48.4453 177.109 48.444 176.972 48.4387C176.021 48.6875 175.055 48.8485 174.115 48.8485C173.589 48.8485 173.026 48.7918 172.453 48.7016C171.843 48.9013 171.184 49.0213 170.486 49.0213C169.799 49.0213 169.134 48.9026 168.509 48.6749C168.456 48.6755 168.405 48.6757 168.355 48.6757C165.843 48.6757 163.757 47.5766 162.326 45.6767C160.861 44.6146 159.866 43.1885 159.405 41.5108C159.524 41.2692 159.584 40.9789 159.584 40.64C159.584 40.4462 159.569 40.2523 159.54 40.0585ZM162.768 38.2783C162.729 38.5087 162.71 38.8351 162.71 39.2576C162.71 39.8521 162.8 40.3944 162.981 40.8844C163.274 41.6802 163.806 42.3379 164.576 42.8578C164.68 42.9275 164.787 42.9947 164.899 43.0594C165.103 43.3987 165.328 43.6952 165.576 43.9489C165.857 44.2365 166.166 44.4691 166.503 44.6466C167.047 44.9325 167.664 45.0755 168.355 45.0755C168.739 45.0755 169.027 45.0563 169.219 45.0179C169.603 45.2867 170.026 45.4211 170.486 45.4211C170.986 45.4211 171.504 45.2675 172.042 44.9603C172.656 45.0938 173.177 45.1809 173.606 45.2216C173.793 45.2394 173.963 45.2483 174.115 45.2483C174.43 45.2483 174.777 45.2165 175.155 45.1528C175.608 45.0766 176.106 44.9548 176.65 44.7875C176.804 44.8259 177.034 44.8451 177.341 44.8451C177.956 44.8451 178.762 44.6339 179.761 44.2114C180.068 44.5187 180.471 44.6723 180.97 44.6723C181.469 44.6723 181.93 44.5379 182.353 44.2691C182.775 43.9618 183.063 43.5394 183.217 43.0018C183.87 42.4641 184.196 41.7921 184.196 40.9857C184.196 40.64 184.158 40.3904 184.081 40.2368C184.465 39.7376 184.657 39.0847 184.657 38.2783C184.657 38.1594 184.654 38.044 184.648 37.9323C184.643 37.8222 184.634 37.7155 184.623 37.6124C184.587 37.2795 184.521 36.9831 184.426 36.723C184.849 36.2622 185.06 35.7437 185.06 35.1677C185.06 34.8605 185.041 34.6109 185.003 34.4189C184.986 34.3205 184.97 34.2292 184.953 34.1448C184.931 34.0315 184.909 33.9309 184.887 33.8428C184.893 33.8233 184.898 33.8041 184.903 33.7853C185.008 33.3959 185.06 33.1463 185.06 33.0364C185.06 32.8444 184.926 32.4604 184.657 31.8843C184.734 31.4235 184.772 31.0395 184.772 30.7323C184.772 30.1219 184.705 29.4981 184.571 28.8608C184.544 28.7363 184.515 28.6113 184.484 28.4857C184.292 27.7177 184.062 27.1416 183.793 26.7576C184.047 26.3122 184.196 25.7481 184.24 25.0654C184.249 24.9241 184.254 24.7778 184.254 24.6263C184.254 24.2893 184.226 23.9569 184.172 23.6291C184.114 23.2844 184.026 22.9448 183.908 22.6102C183.817 22.3381 183.706 22.0809 183.574 21.8386C183.37 21.4653 183.116 21.1272 182.814 20.8245C182.737 19.9796 182.506 19.3268 182.122 18.8659C181.777 18.3667 181.258 18.0019 180.567 17.7715C180.452 17.0034 180.01 16.389 179.242 15.9282C178.983 15.7645 178.709 15.6299 178.421 15.5243C178.14 15.4215 177.846 15.3463 177.537 15.2987C177.271 15.2575 176.994 15.2369 176.708 15.2369C175.901 15.2369 175.248 15.4097 174.749 15.7554C174.519 15.4482 174.135 15.2945 173.597 15.2945C172.906 15.2945 172.349 15.5249 171.927 15.9858C171.619 15.909 171.389 15.8706 171.235 15.8706C170.544 15.8706 169.795 16.0626 168.989 16.4466C168.182 16.7922 167.645 17.1762 167.376 17.5987C167.069 17.5219 166.646 17.6371 166.109 17.9443C165.609 18.2131 165.149 18.6163 164.726 19.154C164.304 19.6532 164.035 20.1908 163.92 20.7669C163.459 21.2277 163.228 21.8037 163.228 22.495C163.228 22.9558 163.382 23.4358 163.689 23.935C164.112 24.5879 164.668 24.9143 165.36 24.9143C165.69 24.9143 166.016 24.8476 166.335 24.7141C166.542 24.6276 166.747 24.513 166.95 24.3704C167.015 24.3242 167.08 24.2751 167.145 24.2231C167.76 23.7622 168.24 23.2246 168.586 22.6102C169.354 22.687 170.026 22.3414 170.602 21.5733C171.254 21.5733 171.85 21.3813 172.387 20.9973C172.579 21.0357 173.002 20.9589 173.655 20.7669C174.039 20.9973 174.442 21.1125 174.864 21.1125C174.952 21.1125 175.038 21.109 175.123 21.1019C175.631 21.0596 176.082 20.8903 176.477 20.5941C176.642 21.0342 176.906 21.3857 177.268 21.6485C177.411 21.7526 177.57 21.8427 177.744 21.9189C177.765 22.0398 177.797 22.1647 177.841 22.2935C177.868 22.3745 177.901 22.4571 177.938 22.5413C177.962 22.5968 177.989 22.6531 178.017 22.71C178.139 22.9524 178.297 23.2071 178.493 23.4742C178.512 23.4961 178.531 23.5177 178.549 23.5389C178.589 23.5834 178.628 23.6264 178.666 23.6679C179.06 24.091 179.425 24.3528 179.761 24.4535C179.497 24.7169 179.363 25.1648 179.358 25.797C179.357 25.8099 179.357 25.8229 179.357 25.836V26.0088C179.339 25.9995 179.32 25.9907 179.302 25.9822C179.125 25.9006 178.947 25.8532 178.77 25.8399C178.735 25.8373 178.701 25.836 178.666 25.836C178.368 25.836 178.086 25.8936 177.821 26.0088C177.662 26.0776 177.508 26.167 177.361 26.277C177.16 26.4267 176.97 26.6145 176.791 26.8405C176.782 26.8512 176.774 26.862 176.765 26.8728C176.749 26.8562 176.728 26.8405 176.705 26.8257C176.667 26.8023 176.621 26.7812 176.565 26.7623C176.493 26.7378 176.406 26.717 176.304 26.7C176.074 26.6616 175.844 26.6424 175.613 26.6424C175.529 26.6424 175.453 26.6453 175.386 26.6511C175.209 26.6664 175.093 26.7019 175.037 26.7576C174.842 26.6707 174.628 26.6084 174.395 26.5707C174.217 26.5417 174.028 26.5272 173.827 26.5272C173.405 26.5272 172.983 26.604 172.56 26.7576C172.417 26.7965 172.286 26.8376 172.165 26.8809C172.111 26.9003 172.059 26.9201 172.009 26.9404C171.842 27.0088 171.699 27.0823 171.581 27.1608C171.243 27.1286 170.901 27.1234 170.556 27.1452C170.148 27.1711 169.735 27.2348 169.317 27.3363C169.246 27.3536 169.175 27.3719 169.104 27.3913C168.962 27.4299 168.829 27.4745 168.705 27.525C168.481 27.6158 168.286 27.7258 168.118 27.855C167.822 28.0825 167.613 28.3696 167.491 28.7161C166.646 28.8697 165.936 29.1002 165.36 29.4074C165.078 29.5683 164.812 29.8082 164.562 30.1271C164.335 30.4171 164.121 30.7724 163.92 31.1931C162.961 31.9807 162.43 32.8599 162.326 33.8307C162.313 33.9486 162.307 34.0678 162.307 34.1885C162.307 34.3805 162.384 34.8221 162.537 35.5133C162.345 35.8974 162.249 36.339 162.249 36.8382C162.249 36.867 162.249 36.8955 162.25 36.9235C162.252 37.054 162.261 37.176 162.275 37.2897C162.335 37.7698 162.499 38.0993 162.768 38.2783ZM175.555 30.7545C175.498 30.7301 175.44 30.7034 175.383 30.6746C175.341 30.7165 175.298 30.7563 175.254 30.794C174.857 31.1368 174.381 31.3083 173.827 31.3083C173.635 31.3083 173.347 31.2315 172.963 31.0779C172.432 31.6096 171.949 31.7977 171.515 31.6423C171.479 31.6294 171.444 31.614 171.408 31.5963C171.354 31.7228 171.295 31.8397 171.233 31.9471C171.029 32.2961 170.78 32.5439 170.486 32.6908C170.446 32.7135 170.402 32.7349 170.357 32.7549C170.02 32.9042 169.564 32.9788 168.989 32.9788C168.835 33.4012 168.566 33.7468 168.182 34.0156C167.837 34.2845 167.472 34.3805 167.088 34.3037C167.28 34.5725 167.376 34.8797 167.376 35.2253C167.376 35.3731 167.364 35.5172 167.342 35.6574C167.335 35.6993 167.327 35.7409 167.318 35.7821C167.241 36.1406 167.088 36.4734 166.857 36.7806C167.052 36.9754 167.206 37.1667 167.318 37.3546C167.434 37.5489 167.507 37.7395 167.535 37.9264C167.544 37.9865 167.549 38.0462 167.549 38.1055C167.549 38.4127 167.472 38.7967 167.318 39.2576C167.421 39.2576 167.549 39.3002 167.702 39.3856C167.779 39.4282 167.862 39.4816 167.952 39.5456C168.186 39.6627 168.342 39.7911 168.42 39.9306C168.445 39.974 168.461 40.0184 168.47 40.064C168.693 39.9806 168.956 39.9274 169.259 39.9043C169.264 39.9039 169.269 39.9035 169.275 39.9032C169.385 39.8952 169.501 39.8912 169.622 39.8912C170.127 39.8912 170.529 39.9598 170.829 40.0969C171.03 40.1893 171.185 40.3127 171.293 40.4672C171.715 40.3136 172.157 40.2368 172.618 40.2368C173.346 40.2368 173.921 40.447 174.343 40.8673C174.344 40.8683 174.345 40.8694 174.346 40.8705C174.653 40.5632 175.152 40.3136 175.844 40.1216C176.573 39.9296 177.226 39.8336 177.802 39.8336C178.148 39.1424 178.762 38.7391 179.645 38.6239C179.722 38.3551 179.933 38.0095 180.279 37.5871C180.125 37.3566 179.991 37.0494 179.876 36.6654C179.761 36.2814 179.703 35.8974 179.703 35.5133C179.703 35.0591 179.764 34.672 179.886 34.3517C179.98 34.1034 180.111 33.8954 180.279 33.7276C180.197 33.623 180.123 33.5147 180.056 33.4028C179.83 33.0201 179.697 32.5949 179.658 32.1271C179.65 32.0289 179.645 31.9287 179.645 31.8267C179.645 31.3275 179.722 30.9051 179.876 30.5594C179.569 30.7515 179.223 30.8475 178.839 30.8475C178.651 30.8475 178.481 30.8079 178.327 30.7287C178.254 30.6912 178.185 30.6447 178.12 30.5894C178.069 30.5464 178.021 30.498 177.975 30.4442C177.916 30.5035 177.852 30.5576 177.785 30.6067C177.461 30.844 177.044 30.9627 176.535 30.9627C176.389 30.9627 176.243 30.9488 176.097 30.921C176.061 30.9142 176.024 30.9064 175.988 30.8979C175.844 30.8636 175.7 30.8159 175.555 30.7545ZM173.66 34.9052C173.715 34.9074 173.771 34.9085 173.827 34.9085C174.553 34.9085 175.258 34.7818 175.917 34.5306C175.998 34.539 176.079 34.5459 176.161 34.5511C176.119 34.887 176.103 35.211 176.103 35.5133C176.103 35.7752 176.117 36.035 176.144 36.2922C176.099 36.3273 176.055 36.3632 176.011 36.3998C175.647 36.4644 175.285 36.5457 174.927 36.6399L174.904 36.6462L174.88 36.6527C174.687 36.7062 174.484 36.7682 174.275 36.8411C173.722 36.6987 173.162 36.6366 172.618 36.6366C172.393 36.6366 172.169 36.6464 171.945 36.6661C171.601 36.5416 171.26 36.4571 170.938 36.4005C170.962 36.3778 170.986 36.3549 171.009 36.3318C171.394 36.2268 171.785 36.0797 172.166 35.8756C172.622 35.639 173.012 35.35 173.347 35.0316C173.454 34.9925 173.558 34.9501 173.66 34.9052Z" fill="white"/>
</g>
<g filter="url(#filter6_d_1_213)">
<path fill-rule="evenodd" clip-rule="evenodd" d="M159.584 40.64C159.584 40.256 159.526 39.872 159.411 39.4879C159.68 39.3727 159.872 39.1807 159.987 38.9119C160.106 38.7032 160.179 38.4713 160.206 38.2163C160.214 38.1428 160.217 38.0675 160.217 37.9902C160.217 37.3374 159.949 36.819 159.411 36.435C159.526 36.2429 159.584 36.0317 159.584 35.8013C159.584 35.4589 159.508 35.1544 159.357 34.8876C159.321 34.8253 159.282 34.765 159.238 34.7069C159.102 34.5026 158.959 34.3654 158.81 34.2953C158.706 34.2467 158.599 34.2303 158.489 34.246C158.546 33.8767 158.498 33.539 158.345 33.2327C158.291 33.1249 158.224 33.0211 158.144 32.9211C157.992 32.7051 157.829 32.5499 157.654 32.4554C157.517 32.3819 157.373 32.3451 157.222 32.3451C157.185 31.8704 156.923 31.4478 156.435 31.0773C156.41 31.0581 156.384 31.0391 156.358 31.0202C155.859 30.6362 155.283 30.4442 154.63 30.4442C154.361 30.4442 154.073 30.5018 153.766 30.617C153.535 30.1562 153.132 29.849 152.556 29.6954C151.98 29.5033 151.385 29.4265 150.77 29.4649C150.502 28.7353 150.079 28.2169 149.503 27.9096C148.966 27.6024 148.389 27.4488 147.775 27.4488L147.314 27.5064C147.144 27.1013 146.843 26.8086 146.412 26.6284C146.371 26.6114 146.329 26.5954 146.286 26.5804C145.971 26.4705 145.594 26.4144 145.154 26.412C145.145 26.412 145.135 26.412 145.125 26.412L144.664 26.4696C144.689 26.2043 144.667 25.9391 144.601 25.6739C144.583 25.6047 144.563 25.5355 144.539 25.4663C144.515 25.3954 144.487 25.3246 144.457 25.2537C144.449 25.2366 144.442 25.2194 144.434 25.2023C144.3 24.8795 144.109 24.6227 143.861 24.4318C143.755 24.3502 143.639 24.2806 143.512 24.223C143.681 24.0966 143.826 23.9614 143.949 23.8176C144.05 23.6985 144.136 23.5734 144.205 23.4424C144.219 23.4169 144.232 23.3911 144.244 23.3651C144.253 23.3467 144.261 23.3282 144.269 23.3095C144.33 23.1707 144.374 23.0256 144.401 22.8742C144.42 22.7704 144.43 22.6635 144.433 22.5537C144.434 22.5342 144.434 22.5146 144.434 22.4949C144.434 22.4044 144.429 22.3156 144.419 22.2284C144.395 22.0197 144.343 21.8205 144.261 21.6309C144.354 21.6442 144.444 21.6523 144.53 21.6552C144.581 21.657 144.631 21.6569 144.68 21.655C144.803 21.6502 144.918 21.6337 145.026 21.6056C145.218 21.5553 145.386 21.4677 145.529 21.3429C145.556 21.3186 145.582 21.2935 145.607 21.2677C145.693 21.1774 145.76 21.0775 145.808 20.9681C145.898 20.7621 145.92 20.5222 145.874 20.2484C145.983 20.3165 146.099 20.3725 146.223 20.4164C146.407 20.4821 146.607 20.5208 146.824 20.5325C146.871 20.5351 146.92 20.5364 146.969 20.5364C147.201 20.5364 147.434 20.5082 147.667 20.4518C147.818 20.4152 147.969 20.3665 148.121 20.306C148.543 20.1524 148.889 19.9604 149.158 19.73C149.213 19.7557 149.268 19.7799 149.323 19.8028C149.367 19.8212 149.411 19.8386 149.455 19.8552C149.684 19.9425 149.905 20.0039 150.117 20.0393C150.262 20.0635 150.403 20.0756 150.54 20.0756C150.682 20.0756 150.816 20.0647 150.941 20.0429C151.059 20.0223 151.169 19.9919 151.272 19.9517C151.36 19.9174 151.441 19.8761 151.518 19.8276C151.538 19.8147 151.557 19.8014 151.577 19.7876C151.752 20.1136 151.944 20.3823 152.153 20.5937C152.263 20.706 152.379 20.8021 152.499 20.882C152.514 20.8913 152.53 20.9003 152.546 20.909C152.858 21.0802 153.277 21.1568 153.802 21.1386C153.833 21.1376 153.865 21.1362 153.896 21.1344C153.984 21.1296 154.075 21.1223 154.169 21.1124C154.172 21.1608 154.177 21.2084 154.184 21.2553C154.21 21.4386 154.259 21.6101 154.333 21.7696C154.449 22.022 154.625 22.2446 154.86 22.4373C155.321 22.7445 155.801 22.9365 156.3 23.0134C156.377 23.3974 156.608 23.7238 156.992 23.9926C157.376 24.2614 157.856 24.415 158.432 24.4534C159.085 24.4534 159.622 24.223 160.045 23.7622C160.467 23.3014 160.678 22.7637 160.678 22.1493C160.678 21.2281 160.237 20.4866 159.354 19.925C159.293 19.8864 159.231 19.8486 159.166 19.8116C159.152 19.8036 159.137 19.7955 159.123 19.7876C159.277 19.3267 159.046 18.8659 158.432 18.4051C158.133 18.1814 157.84 18.0211 157.551 17.9241C157.244 17.8212 156.942 17.7895 156.646 17.829C156.582 17.6226 156.496 17.4325 156.386 17.2589C156.231 17.0127 156.03 16.7995 155.782 16.6194C155.398 16.2738 154.975 16.1009 154.515 16.1009C154.248 16.1009 154.001 16.1575 153.772 16.2706M158.849 14.5648C158.608 14.2948 158.34 14.0456 158.048 13.8194C157.174 13.0803 156.069 12.5748 154.801 12.5082C154.566 12.3887 154.334 12.2915 154.115 12.2128C153.284 11.8821 152.393 11.6943 151.462 11.6943C151.205 11.6943 150.878 11.7063 150.512 11.7574C149.918 11.5688 149.291 11.4639 148.639 11.4639C148.161 11.4639 147.659 11.5153 147.152 11.6415C146.723 11.555 146.308 11.5215 145.932 11.5215C144.926 11.5215 143.994 11.7774 143.17 12.1896C142.867 12.341 142.578 12.5161 142.306 12.7141C141.892 12.7989 141.505 12.919 141.154 13.0528L141.01 12.9628L141.033 13.099C139.909 13.5236 138.96 14.2229 138.212 15.121L138.153 15.1919L138.098 15.2657C137.777 15.6929 137.528 16.1455 137.344 16.6139C136.981 16.942 136.7 17.2947 136.485 17.6177L136.463 17.6496L136.443 17.6819C135.71 18.8332 135.477 20.0946 135.477 21.2276C135.477 21.3613 135.481 21.494 135.488 21.6256C135.137 22.4154 134.958 23.2734 134.958 24.1654C134.958 24.5492 134.996 24.9223 135.065 25.2826C135.023 25.5876 135.016 25.8415 135.016 26.0087C135.016 27.1556 135.345 28.2038 135.757 29.0865L135.777 29.1306L135.799 29.1741C136.093 29.7613 136.476 30.3207 136.958 30.8113C137.285 31.5381 137.76 32.1417 138.271 32.6284C137.148 32.8935 136.206 33.5149 135.491 34.3012L135.428 34.3706L135.369 34.4432C134.506 35.4982 134.037 36.7807 134.037 38.1631C134.037 38.9478 134.214 39.6628 134.49 40.2928C134.683 41.3802 135.126 42.4128 135.843 43.3251L135.89 43.3855L135.94 43.4438C136.53 44.1321 137.225 44.6859 138.003 45.0962C138.674 45.9165 139.5 46.5471 140.279 47.034L140.307 47.0513L140.335 47.0682C141.089 47.5204 141.949 47.914 142.887 48.1288C143.464 48.6342 144.116 48.994 144.742 49.2373L144.772 49.249L144.802 49.2602C145.981 49.6943 147.215 49.8854 148.466 49.8854C149.161 49.8854 149.914 49.8373 150.666 49.6823C151.179 49.7929 151.669 49.8277 152.095 49.8277C153.354 49.8277 154.612 49.5893 155.842 49.1956C156.449 49.0014 157.088 48.7545 157.672 48.4237C157.84 48.3284 158.045 48.2037 158.264 48.0438C159.312 47.6297 160.097 46.922 160.603 46.3799C161.169 45.7734 161.703 44.9936 162.01 44.0675C162.17 43.8744 162.317 43.6655 162.451 43.4403C162.877 42.7202 163.079 41.9717 163.151 41.2786C163.093 41.1622 163.041 41.0425 162.994 40.9195C162.959 40.8282 162.928 40.735 162.899 40.64C162.892 40.6146 162.884 40.5892 162.877 40.5635C162.836 40.4159 162.803 40.2639 162.777 40.1076C162.732 39.8372 162.71 39.5539 162.71 39.2575C162.71 38.9508 162.72 38.6947 162.74 38.4892C162.748 38.4117 162.757 38.3414 162.767 38.2783C162.703 38.2353 162.644 38.1837 162.592 38.1235C162.557 38.083 162.524 38.0386 162.495 37.9902C162.331 37.7245 162.249 37.3405 162.249 36.8382C162.249 36.826 162.249 36.8139 162.249 36.8018C162.252 36.4751 162.297 36.1733 162.383 35.8964C162.393 35.8644 162.404 35.8327 162.415 35.8013C162.45 35.702 162.49 35.6059 162.537 35.5133C162.385 34.8319 162.309 34.3931 162.306 34.1968C162.306 34.1939 162.306 34.1911 162.306 34.1884C162.306 33.8157 162.367 33.4559 162.487 33.109C162.392 32.9425 162.287 32.779 162.172 32.6192C162.069 32.4725 161.941 32.3077 161.788 32.1374C161.609 31.6538 161.355 31.1912 161.025 30.7618C160.769 30.4115 160.436 30.0452 160.025 29.7225C159.6 29.0588 159.053 28.5294 158.502 28.1278C158.469 28.1027 158.435 28.078 158.402 28.0537H158.432C160.043 28.0537 161.561 27.4361 162.698 26.1949C163.233 25.6121 163.641 24.9499 163.908 24.231C163.832 24.1412 163.758 24.0425 163.689 23.935C163.382 23.4358 163.228 22.9558 163.228 22.4949C163.228 22.3763 163.235 22.2611 163.248 22.1493C163.314 21.6094 163.538 21.1486 163.919 20.7668C163.946 20.6341 163.981 20.5035 164.023 20.3749C163.717 19.3562 163.152 18.4915 162.429 17.7892C161.967 16.7187 161.152 15.9448 160.592 15.5249C160.088 15.1472 159.503 14.8051 158.849 14.5648ZM154.438 26.5594C154.247 26.3922 154.064 26.2091 153.892 26.0097C153.533 25.8444 153.19 25.6506 152.863 25.4329L152.717 25.3352L152.58 25.2237C152.306 24.9995 152.057 24.7543 151.835 24.4906C151.438 24.372 151.037 24.2035 150.646 23.9692L150.573 23.9251L150.501 23.8776C150.4 23.8096 150.301 23.7392 150.206 23.6665C149.995 23.6547 149.788 23.6321 149.585 23.6003C149.524 23.6246 149.463 23.648 149.403 23.6705C149.398 23.6721 149.394 23.6737 149.39 23.6753L149.322 24.0182C149.992 24.1682 150.637 24.4166 151.246 24.7591C151.888 25.1089 152.426 25.5504 152.87 26.0514C153.115 26.1057 153.358 26.1714 153.598 26.2484C153.883 26.3303 154.164 26.4336 154.438 26.5594ZM159.584 40.64C159.584 40.6979 159.582 40.7545 159.578 40.8096L159.584 40.64ZM159.578 40.8096C159.536 41.4848 159.23 41.9468 158.662 42.1953C158.716 42.6009 158.618 43.0066 158.367 43.4122C158.262 43.5826 158.13 43.753 157.971 43.9234C157.433 44.4994 156.934 44.7874 156.473 44.7874C156.281 45.1331 155.705 45.4595 154.745 45.7667C153.785 46.0739 152.902 46.2275 152.095 46.2275C151.519 46.2275 151.078 46.1123 150.77 45.8819C150.4 46.0672 149.92 46.1886 149.331 46.2462C149.065 46.2721 148.777 46.2851 148.466 46.2851C148.351 46.2851 148.237 46.2828 148.124 46.2783C147.374 46.2478 146.681 46.1156 146.047 45.8819C145.356 45.6131 144.933 45.2099 144.78 44.6722C144.012 44.7874 143.148 44.557 142.188 43.981C141.63 43.6328 141.193 43.2776 140.874 42.9153C140.666 42.6783 140.508 42.4383 140.402 42.1953C140.273 42.1595 140.148 42.1177 140.027 42.0699C139.5 41.8613 139.049 41.5383 138.674 41.1008C138.251 40.5632 138.021 39.9296 137.982 39.1999C137.752 38.8543 137.637 38.5087 137.637 38.1631C137.637 37.6254 137.81 37.1454 138.155 36.723C138.539 36.3005 138.981 36.0893 139.48 36.0893C139.979 36.0893 140.459 36.3965 140.92 37.011C141.611 36.9342 142.226 37.1646 142.764 37.7022C143.34 38.2399 143.628 38.7775 143.628 39.3151C143.743 39.3151 144.031 39.3535 144.492 39.4303C144.991 39.4687 145.432 39.6031 145.817 39.8336C146.184 40.054 146.446 40.3622 146.602 40.7584C146.609 40.7763 146.616 40.7945 146.623 40.8128C146.896 40.8128 147.167 40.8278 147.434 40.8579C147.843 40.9038 148.244 40.9848 148.639 41.1008C149.267 41.2403 149.657 41.4113 149.809 41.614C149.825 41.6347 149.838 41.6556 149.849 41.6769C149.96 41.607 150.09 41.5423 150.237 41.4826C150.495 41.3782 150.807 41.2894 151.174 41.216C151.189 41.2122 151.205 41.2083 151.22 41.2045C151.814 41.0586 152.317 40.9856 152.729 40.9856C152.843 40.8338 153.126 40.6819 153.577 40.53C153.583 40.5283 153.588 40.5265 153.593 40.5248C153.809 40.4529 154.008 40.3935 154.19 40.3469C154.397 40.2939 154.582 40.2572 154.745 40.2368C154.61 40.0476 154.522 39.7919 154.482 39.4696C154.465 39.3339 154.457 39.1864 154.457 39.0271C154.457 39.0155 154.457 39.0039 154.457 38.9924C154.459 38.7987 154.475 38.6185 154.506 38.4518C154.508 38.4453 154.509 38.4389 154.51 38.4325C154.512 38.4228 154.514 38.413 154.516 38.4033C154.58 38.0914 154.698 37.8284 154.868 37.6143C154.964 37.4937 155.076 37.3886 155.206 37.299C155.059 37.2502 154.923 37.1937 154.796 37.1294C154.666 37.0637 154.547 36.99 154.437 36.9083C154.396 36.8772 154.356 36.845 154.317 36.8117C154.268 36.7698 154.222 36.7261 154.178 36.6805C154.155 36.6568 154.133 36.6325 154.111 36.6078C154.08 36.5671 154.05 36.5259 154.023 36.4842C153.818 36.1712 153.732 35.8284 153.766 35.4557C153.459 35.5325 153.228 35.5709 153.075 35.5709C152.704 35.5709 152.368 35.4965 152.066 35.3478C152.031 35.3301 151.995 35.3114 151.96 35.2916C151.711 35.1503 151.488 34.9554 151.289 34.7069C150.521 34.7837 149.753 34.6108 148.985 34.1884C148.255 33.766 147.717 33.2092 147.372 32.5179C147.103 32.6331 146.815 32.6907 146.508 32.6907C145.855 32.6907 145.164 32.4987 144.434 32.1147C143.743 31.6923 143.301 31.289 143.109 30.905C142.617 31.0456 142.045 30.9128 141.392 30.5068C141.332 30.4691 141.27 30.429 141.208 30.3866C141.025 30.2615 140.865 30.1327 140.728 30.0004C140.319 29.6046 140.114 29.1765 140.114 28.7161C139.653 28.4857 139.288 28.1017 139.019 27.564C138.751 26.988 138.616 26.4696 138.616 26.0087C138.616 25.9896 138.616 25.9709 138.617 25.9525C138.625 25.638 138.701 25.4263 138.847 25.3175C138.654 24.9335 138.558 24.5494 138.558 24.1654C138.558 23.8758 138.599 23.6031 138.68 23.3472C138.792 22.9923 138.982 22.6698 139.25 22.3797C139.135 21.9573 139.077 21.5733 139.077 21.2276C139.077 20.5748 139.211 20.0372 139.48 19.6148C139.48 19.6147 139.48 19.6149 139.48 19.6148C139.643 19.3705 139.822 19.2015 140.018 19.1083C140.191 19.0259 140.376 19.0027 140.575 19.0387C140.51 18.5243 140.594 18.0637 140.826 17.657C140.853 17.6092 140.882 17.5622 140.914 17.5159C140.934 17.4855 140.956 17.4555 140.978 17.4258C141.181 17.1823 141.405 16.9764 141.651 16.808C141.87 16.6576 142.107 16.5371 142.36 16.4466C142.936 16.2162 143.436 16.1393 143.858 16.2162C144.088 15.8705 144.396 15.6017 144.78 15.4097C144.807 15.396 144.834 15.3828 144.862 15.3701C144.951 15.3285 145.041 15.2921 145.131 15.261C145.398 15.1681 145.665 15.1217 145.932 15.1217C146.585 15.1217 147.045 15.3137 147.314 15.6977C147.353 15.5057 147.487 15.3521 147.717 15.2369C147.855 15.1779 148.003 15.134 148.161 15.1052C148.311 15.0778 148.47 15.0641 148.639 15.0641C148.946 15.0641 149.254 15.1217 149.561 15.2369C149.868 15.3521 150.098 15.4865 150.252 15.6401C150.482 15.4097 150.886 15.2945 151.462 15.2945C151.529 15.2945 151.597 15.2966 151.664 15.3007C152.058 15.3247 152.451 15.4187 152.844 15.5825C153.305 15.7361 153.612 15.9665 153.766 16.2738" fill="white"/>
</g>
<g filter="url(#filter7_d_1_213)">
<path fill-rule="evenodd" clip-rule="evenodd" d="M133.087 18.9422C133.194 19.2103 133.247 19.4919 133.247 19.7868C133.247 20.1708 133.151 20.5548 132.959 20.9388C133.19 21.3229 133.305 21.7837 133.305 22.3213C133.305 23.1918 133.1 23.8012 132.69 24.1495C132.684 24.1546 132.677 24.1596 132.671 24.1646C132.678 24.173 132.685 24.1816 132.692 24.1902C133.062 24.6508 133.247 25.3336 133.247 26.2384C133.247 26.776 133.171 27.3136 133.017 27.8513C132.902 28.3889 132.787 28.7729 132.671 29.0033C133.055 29.5794 133.247 30.309 133.247 31.1923C133.247 31.6147 133.151 32.0179 132.959 32.4019C133.382 32.8244 133.593 33.458 133.593 34.3028C133.593 35.2245 133.401 35.9733 133.017 36.5494C133.401 37.0486 133.593 37.759 133.593 38.6807C133.593 39.2951 133.497 39.852 133.305 40.3512C133.151 40.812 132.94 41.1192 132.671 41.2729C132.71 41.5417 132.806 41.9449 132.959 42.4825C133.151 43.3274 133.247 43.865 133.247 44.0954C133.247 44.7099 133.055 45.2091 132.671 45.5931C132.211 46.0539 131.673 46.2843 131.058 46.2843C130.849 46.2843 130.647 46.254 130.451 46.1933C130.444 46.1913 130.438 46.1892 130.431 46.1871C130.318 46.1506 130.206 46.1037 130.097 46.0466C130.019 46.0056 129.942 45.9594 129.866 45.9078C129.802 45.8643 129.738 45.817 129.676 45.7659C129.292 45.3819 129.062 44.8827 128.985 44.2682C128.793 44.0762 128.658 43.8266 128.582 43.5194C128.505 43.1738 128.466 42.9625 128.466 42.8857C128.392 43.2194 128.121 43.4994 127.653 43.7256C127.637 43.7338 127.62 43.7418 127.602 43.7498C127.578 43.7609 127.554 43.7717 127.53 43.7823C127.274 43.8939 127.008 43.9757 126.732 44.0276C126.602 44.0522 126.469 44.0701 126.334 44.0813C126.221 44.0907 126.106 44.0954 125.989 44.0954C125.721 44.0954 125.529 44.0762 125.413 44.0378C125.366 44.1129 125.307 44.188 125.235 44.2631C125.194 44.3052 125.15 44.3473 125.101 44.3894C125.098 44.3926 125.094 44.3957 125.09 44.3989C124.873 44.5858 124.577 44.7726 124.204 44.9595C123.828 45.1471 123.482 45.2775 123.164 45.3505C122.961 45.397 122.77 45.4203 122.591 45.4203C122.36 45.4203 122.149 45.3627 121.957 45.2475C121.573 45.3243 121.247 45.3627 120.978 45.3627C120.762 45.3627 120.546 45.3472 120.33 45.3162C120.008 45.2701 119.687 45.1896 119.365 45.0747C118.866 44.8827 118.482 44.6331 118.213 44.3258C117.56 44.4026 116.946 44.3258 116.37 44.0954C115.832 43.8266 115.525 43.481 115.448 43.0586C115.447 43.0587 115.446 43.0588 115.446 43.059C115.024 43.1348 114.545 42.9618 114.008 42.5401C113.509 42.1177 113.24 41.5417 113.201 40.812C112.625 40.5048 112.203 40.044 111.934 39.4295C111.89 39.3282 111.849 39.2258 111.812 39.1223C111.766 38.9935 111.725 38.8629 111.691 38.7308C111.584 38.3261 111.531 37.9062 111.531 37.471C111.531 36.9718 111.589 36.5878 111.704 36.319C111.396 36.0501 111.147 35.4933 110.955 34.6485C110.763 33.7652 110.667 32.8436 110.667 31.8835C110.667 30.7314 110.801 29.8866 111.07 29.3489C110.878 28.9649 110.782 28.5233 110.782 28.0241C110.782 27.6016 110.84 27.1984 110.955 26.8144C111.108 26.4304 111.32 26.1232 111.589 25.8927C111.473 25.7007 111.416 25.5279 111.416 25.3743C111.416 25.1055 111.512 24.8175 111.704 24.5103C111.896 24.203 112.107 23.9726 112.337 23.819C112.299 23.2046 112.453 22.6477 112.798 22.1485C113.182 21.6109 113.566 21.2845 113.95 21.1693C113.912 20.7852 114.046 20.3244 114.353 19.7868C114.661 19.2491 115.064 18.8075 115.563 18.4619C116.101 18.1163 116.638 17.9627 117.176 18.0011C117.944 16.9258 119 16.3882 120.344 16.3882C120.92 16.3882 121.362 16.465 121.669 16.6186C122.092 16.4266 122.61 16.3306 123.224 16.3306C123.563 16.3306 123.919 16.3772 124.293 16.4706C124.31 16.4749 124.327 16.4793 124.345 16.4837C124.542 16.535 124.744 16.5992 124.95 16.6762C125.025 16.7041 125.101 16.7337 125.177 16.7651C125.198 16.7737 125.219 16.7825 125.241 16.7914C125.338 16.7427 125.446 16.7043 125.564 16.6762C125.576 16.6733 125.588 16.6705 125.601 16.6678C125.752 16.635 125.92 16.6186 126.105 16.6186C126.239 16.6186 126.371 16.628 126.501 16.6468C126.556 16.6549 126.612 16.6647 126.666 16.6762C126.849 16.7146 127.026 16.7722 127.199 16.849C127.464 16.9285 127.665 17.0355 127.802 17.1699C127.864 17.2302 127.912 17.2961 127.948 17.3674C127.93 17.2953 127.916 17.2063 127.906 17.1004C127.896 16.9806 127.89 16.8392 127.89 16.6762C127.89 16.0618 128.044 15.5241 128.351 15.0633C128.292 14.9627 128.24 14.8621 128.194 14.7615C128.183 14.7361 128.171 14.7107 128.161 14.6852C128.132 14.6179 128.107 14.5506 128.084 14.4832C128.049 14.3817 128.021 14.2801 128 14.1786C127.965 14.0127 127.948 13.8467 127.948 13.6808C127.948 13.5289 127.956 13.402 127.973 13.3001C127.982 13.2475 127.992 13.2016 128.005 13.1624C127.967 12.9704 127.89 12.7208 127.775 12.4135C127.66 12.0679 127.602 11.7799 127.602 11.5495C127.602 11.2423 127.679 10.9351 127.833 10.6278C127.641 10.2438 127.545 9.85979 127.545 9.47576C127.545 9.05334 127.66 8.65011 127.89 8.26609C127.621 7.72846 127.487 7.17163 127.487 6.59559C127.487 5.82755 127.698 5.13631 128.121 4.52187C128.582 3.90743 129.196 3.60021 129.964 3.60021C130.617 3.60021 131.174 3.84983 131.635 4.34906C132.134 4.80989 132.383 5.34752 132.383 5.96195C132.383 6.19237 132.364 6.36518 132.326 6.48039C132.902 6.94121 133.19 7.57485 133.19 8.3813C133.19 8.80372 133.055 9.24535 132.787 9.70618C132.902 9.97499 132.959 10.263 132.959 10.5702C132.959 10.9927 132.863 11.3959 132.671 11.7799C132.863 12.1639 132.959 12.5671 132.959 12.9896C132.959 13.2884 132.918 13.5635 132.835 13.8148C132.768 14.0157 132.676 14.2015 132.556 14.3721C132.94 14.8329 133.132 15.2745 133.132 15.6969C133.132 16.0042 133.017 16.3306 132.787 16.6762C132.902 16.9066 132.959 17.1946 132.959 17.5402C132.959 17.8091 132.902 18.0971 132.787 18.4043C132.912 18.5772 133.012 18.7565 133.087 18.9422ZM136.64 24.3309C136.848 23.6044 136.905 22.8978 136.905 22.3213C136.905 21.8443 136.858 21.3529 136.749 20.8611C136.813 20.5141 136.848 20.1554 136.848 19.7868C136.848 19.1368 136.743 18.5123 136.546 17.9241C136.555 17.798 136.56 17.67 136.56 17.5402C136.56 17.3852 136.554 17.2228 136.541 17.0548C136.66 16.6387 136.732 16.1847 136.732 15.6969C136.732 15.1101 136.632 14.5695 136.468 14.0786C136.531 13.7149 136.56 13.3501 136.56 12.9896C136.56 12.6951 136.539 12.4039 136.499 12.1171L137.058 10.9994L136.509 11.3651C136.543 11.1034 136.56 10.8382 136.56 10.5702C136.56 10.4008 136.552 10.2312 136.538 10.0619C136.695 9.541 136.79 8.97875 136.79 8.3813C136.79 7.26178 136.515 6.16933 135.935 5.21091C135.758 3.85587 135.106 2.69453 134.181 1.80185C133.08 0.662576 131.617 0 129.964 0C128.063 0 126.381 0.840752 125.241 2.36175L125.196 2.4211L125.154 2.48224C124.306 3.71573 123.887 5.12253 123.887 6.59559C123.887 7.1575 123.952 7.70682 124.076 8.23935C123.99 8.63851 123.944 9.05165 123.944 9.47576C123.944 9.89418 123.989 10.2998 124.07 10.6901C124.026 10.9684 124.002 11.2552 124.002 11.5495C124.002 11.9923 124.062 12.4113 124.145 12.7872C123.843 12.7502 123.536 12.7304 123.224 12.7304C122.708 12.7304 122.167 12.7725 121.62 12.8815C121.156 12.8079 120.718 12.788 120.344 12.788C118.449 12.788 116.744 13.4169 115.395 14.6216C114.75 14.8046 114.154 15.0881 113.616 15.4335L113.565 15.4668L113.514 15.5018C112.564 16.1597 111.796 17.0057 111.228 18.0006C111.058 18.2973 110.881 18.6478 110.73 19.0427C110.376 19.3872 110.092 19.7431 109.869 20.0559L109.853 20.0775L109.838 20.0992C109.377 20.765 109.059 21.4903 108.886 22.2505C108.802 22.3684 108.723 22.4861 108.651 22.6021C108.271 23.2096 107.909 24.0204 107.831 24.9889C107.8 25.0503 107.771 25.1119 107.743 25.1737C107.739 25.2979 107.732 25.4134 107.72 25.5203C107.707 25.6325 107.69 25.7351 107.667 25.8281C107.619 26.0288 107.549 26.1848 107.456 26.296C107.61 26.488 107.687 26.8912 107.687 27.5056C107.687 27.6751 107.68 27.8479 107.667 28.0241C107.663 28.0742 107.659 28.1246 107.654 28.1752C107.618 28.5516 107.552 28.9429 107.456 29.3489C107.434 29.477 107.41 29.5969 107.386 29.7086C107.306 30.0808 107.218 30.3629 107.121 30.555C107.117 30.6028 107.113 30.6506 107.109 30.6981C107.389 30.8352 107.6 31.1919 107.744 31.7683C107.756 31.8065 107.768 31.8449 107.779 31.8835C107.948 32.4665 108.032 33.1001 108.032 33.7844C108.032 34.5338 107.927 35.0566 107.715 35.3527C107.706 35.3661 107.696 35.379 107.686 35.3914C107.668 35.4141 107.649 35.4353 107.629 35.4549C107.808 35.9027 107.918 36.3389 107.958 36.7635C107.969 36.8812 107.974 36.998 107.975 37.1138C107.975 37.1177 107.975 37.1215 107.975 37.1254C107.975 37.244 107.97 37.3592 107.96 37.471C107.953 37.5437 107.944 37.6149 107.933 37.6846C107.96 38.7825 108.191 39.8549 108.636 40.8726C108.964 41.6219 109.415 42.2918 109.981 42.859C110.313 43.7637 110.869 44.6004 111.682 45.2885L111.732 45.3307L111.784 45.371C112.164 45.6702 112.668 46.0069 113.272 46.2637C113.748 46.7313 114.278 47.0747 114.76 47.3155L114.893 47.3825L115.033 47.4381C115.673 47.6943 116.33 47.8518 116.993 47.9182C117.351 48.1284 117.716 48.2978 118.073 48.4349L118.113 48.4505L118.154 48.4652C119.056 48.7873 120.003 48.9629 120.978 48.9629C121.205 48.9629 121.43 48.9508 121.652 48.9299C121.961 48.9905 122.275 49.0205 122.591 49.0205C123.817 49.0205 124.925 48.6242 125.814 48.1796C126.052 48.0605 126.329 47.9126 126.62 47.7293C126.774 47.9306 126.944 48.1252 127.13 48.3117L127.257 48.4386L127.396 48.5523C128.398 49.3717 129.649 49.8846 131.058 49.8846C132.69 49.8846 134.127 49.2294 135.217 48.1388C136.367 46.9888 136.848 45.528 136.848 44.0954C136.848 43.6298 136.768 43.1588 136.72 42.8865C136.671 42.6174 136.609 42.3122 136.536 41.9786C136.597 41.8352 136.649 41.6976 136.693 41.569C137.046 40.6239 137.193 39.6467 137.193 38.6807C137.193 37.9967 137.124 37.2515 136.922 36.5067C137.117 35.7693 137.193 35.022 137.193 34.3028C137.193 33.5633 137.095 32.7369 136.805 31.9248C136.833 31.6834 136.848 31.439 136.848 31.1923C136.848 30.3954 136.748 29.5736 136.501 28.7715C136.505 28.753 136.509 28.7347 136.513 28.7166C136.733 27.9092 136.848 27.0806 136.848 26.2384C136.848 25.6501 136.796 24.9962 136.64 24.3309ZM123.765 39.8815C123.821 39.8384 123.884 39.7969 123.955 39.7568C123.991 39.7363 124.029 39.7162 124.069 39.6965C124.094 39.6841 124.12 39.672 124.146 39.66C124.607 39.4295 125.049 39.3143 125.471 39.3143C125.74 39.3143 125.97 39.3719 126.162 39.4871C126.124 39.1031 126.201 38.7959 126.393 38.5655C126.569 38.3541 126.793 38.1588 127.067 37.9797C127.091 37.9637 127.116 37.9477 127.141 37.9319C127.487 37.7014 127.737 37.5286 127.89 37.4134C127.835 37.3029 127.8 37.0931 127.784 36.7838C127.778 36.6632 127.775 36.5274 127.775 36.3766C127.775 36.3392 127.775 36.3023 127.775 36.2659C127.784 35.1789 127.918 34.5053 128.178 34.2452C127.909 33.9764 127.775 33.4388 127.775 32.6323C127.775 31.7107 127.909 30.9042 128.178 30.213C127.948 29.7138 127.833 28.8689 127.833 27.6784C127.833 26.5264 127.909 25.7583 128.063 25.3743C128.034 25.3156 128.006 25.2561 127.979 25.196C127.818 24.8357 127.701 24.4505 127.63 24.0404C127.573 23.7136 127.545 23.371 127.545 23.0126C127.545 22.7026 127.56 22.4313 127.591 22.1986C127.629 21.9123 127.69 21.6844 127.775 21.5149C127.545 21.6685 127.199 21.6877 126.738 21.5725C126.664 21.5454 126.592 21.5165 126.522 21.4858C126.196 21.3425 125.923 21.1602 125.701 20.9388C125.657 21.0047 125.601 21.0611 125.532 21.1081C125.36 21.2257 125.109 21.2845 124.78 21.2845C124.556 21.2845 124.331 21.264 124.107 21.2231C124.024 21.208 123.941 21.19 123.858 21.1693C123.551 21.0541 123.34 20.9388 123.224 20.8236C122.61 21.0925 122.015 21.2269 121.439 21.2269C121.285 21.2269 121.055 21.1885 120.747 21.1117C120.248 21.6493 119.864 22.0333 119.595 22.2637C119.327 22.4941 118.962 22.6285 118.501 22.6669C118.386 22.9358 118.271 23.2622 118.155 23.6462C118.04 23.9918 117.906 24.2798 117.752 24.5103C117.598 24.7407 117.33 24.9327 116.946 25.0863C116.869 25.5855 116.677 25.9887 116.37 26.296C116.408 26.4496 116.427 26.6608 116.427 26.9296C116.427 27.3136 116.331 27.736 116.139 28.1969C116.254 28.4657 116.312 29.0609 116.312 29.9826C116.312 31.7491 116.158 32.8051 115.851 33.1508C115.89 33.3044 116.024 33.6692 116.254 34.2452C116.485 34.8213 116.6 35.3781 116.6 35.9157C116.6 36.2677 116.547 36.5931 116.44 36.8918C116.419 36.9515 116.395 37.0102 116.37 37.0678C116.443 37.0971 116.513 37.1284 116.581 37.1618C117.226 37.4795 117.636 37.9858 117.81 38.6807C117.926 38.7156 118.041 38.7628 118.153 38.8224C118.191 38.8425 118.229 38.8639 118.267 38.8868C118.298 38.9057 118.329 38.9255 118.359 38.9463C118.546 39.0723 118.728 39.2334 118.904 39.4295C119.268 39.4144 119.612 39.4682 119.934 39.591C120.154 39.6747 120.364 39.7904 120.564 39.9382C120.813 40.1222 121.047 40.3559 121.266 40.6392C121.332 40.4845 121.475 40.3744 121.694 40.3087C121.855 40.2602 122.058 40.236 122.303 40.236C122.572 40.236 122.802 40.2552 122.994 40.2936C123.186 40.332 123.34 40.3512 123.455 40.3512C123.479 40.1788 123.583 40.0223 123.765 39.8815ZM124.337 34.3162C124.212 33.731 124.175 33.1511 124.175 32.6323C124.175 31.812 124.252 30.9906 124.434 30.1883C124.268 29.3284 124.232 28.4475 124.232 27.6784C124.232 27.0348 124.253 26.4257 124.308 25.8801C124.314 25.8203 124.321 25.7572 124.328 25.6914C124.244 25.4151 124.175 25.136 124.12 24.8548C123.738 24.8201 123.362 24.7558 122.992 24.6637C122.723 24.7202 122.449 24.763 122.171 24.7906C122.092 24.8634 122.014 24.9324 121.938 24.9972C121.737 25.1701 121.528 25.3211 121.316 25.4527C121.164 25.8057 120.977 26.1626 120.748 26.5073C120.525 26.8406 120.274 27.124 120.012 27.3653C119.985 27.7313 119.926 28.0846 119.845 28.4226C119.847 28.4491 119.85 28.4743 119.852 28.4981C119.896 28.9549 119.912 29.4606 119.912 29.9826C119.912 30.9427 119.872 31.8435 119.76 32.6177C119.737 32.7742 119.709 32.9392 119.675 33.1091C119.961 33.876 120.148 34.6903 120.191 35.5393C120.311 35.6894 120.424 35.8461 120.529 36.0091C121.085 36.1483 121.605 36.363 122.085 36.6391C122.11 36.6383 122.136 36.6376 122.161 36.6371C122.32 36.5452 122.466 36.4711 122.591 36.4128C123.01 36.2071 123.463 36.0327 123.943 35.9095C124.024 35.8267 124.106 35.7468 124.19 35.6699C124.211 35.2124 124.255 34.7538 124.337 34.3162Z" fill="white"/>
</g>
<g filter="url(#filter8_d_1_213)">
<path fill-rule="evenodd" clip-rule="evenodd" d="M107.565 28.8059C107.534 28.9843 107.497 29.1657 107.454 29.3501C107.439 29.4337 107.424 29.5138 107.408 29.5905C107.386 29.7037 107.362 29.8093 107.338 29.9074C107.251 30.2618 107.155 30.5177 107.05 30.675C107.142 30.7093 107.227 30.7658 107.304 30.8444C107.488 31.0297 107.634 31.3381 107.742 31.7695C107.934 32.3839 108.03 33.0559 108.03 33.7856C108.03 34.6304 107.895 35.1873 107.626 35.4561C107.857 36.0321 107.972 36.589 107.972 37.1266C107.972 37.8178 107.799 38.3939 107.454 38.8547C107.722 39.5075 107.857 40.2756 107.857 41.1588C107.857 41.8885 107.742 42.4837 107.511 42.9445C107.626 43.2902 107.684 43.6166 107.684 43.9238C107.684 44.615 107.434 45.1719 106.935 45.5943C106.436 45.9783 105.841 46.1703 105.149 46.1703C104.497 46.1703 103.94 45.9783 103.479 45.5943C103.018 45.1719 102.807 44.615 102.845 43.9238C102.653 43.6934 102.5 43.3286 102.384 42.8293C102.269 42.3301 102.212 41.8117 102.212 41.274C102.212 40.2756 102.423 39.6227 102.845 39.3155C102.538 38.8163 102.384 38.0674 102.384 37.069C102.384 36.0705 102.519 35.3409 102.788 34.8801C102.634 34.7264 102.519 34.3616 102.442 33.7856C102.399 33.461 102.368 33.1181 102.349 32.7569C102.334 32.4772 102.327 32.1864 102.327 31.8847C102.327 31.6644 102.331 31.4529 102.34 31.2502C102.357 30.8519 102.391 30.4874 102.442 30.1566C102.519 29.6189 102.634 29.2733 102.788 29.1197C102.557 28.8893 102.442 28.2557 102.442 27.2188C102.442 26.0283 102.576 25.1643 102.845 24.6266C102.653 24.3194 102.48 23.9162 102.327 23.417C102.173 22.9177 102.096 22.4569 102.096 22.0345C102.096 21.6505 102.135 21.3817 102.212 21.228C101.904 20.2296 101.751 19.4231 101.751 18.8087C101.751 18.1559 101.904 17.4838 102.212 16.7926C102.135 16.2165 102.269 15.7749 102.615 15.4677C102.96 15.1605 103.46 15.0069 104.113 15.0069C104.388 15.0069 104.643 15.0331 104.875 15.0855C106.133 15.3687 106.762 16.4178 106.762 18.2327C107.108 18.4631 107.358 18.7895 107.511 19.2119C107.703 19.5959 107.799 20.0376 107.799 20.5368C107.799 21.3432 107.607 22.0345 107.223 22.6105C107.377 22.8409 107.492 23.1866 107.569 23.6474C107.684 24.1082 107.742 24.569 107.742 25.0299C107.742 25.6443 107.646 26.0667 107.454 26.2971C107.607 26.4892 107.684 26.8924 107.684 27.5068C107.684 27.9201 107.644 28.3531 107.565 28.8059ZM111.206 26.3262C111.109 26.4725 111.024 26.6356 110.952 26.8156C110.885 27.0395 110.837 27.2699 110.809 27.5068C110.801 27.5776 110.794 27.6489 110.789 27.7208C110.783 27.8212 110.779 27.9226 110.779 28.0252C110.779 28.5245 110.875 28.9661 111.067 29.3501C110.996 29.493 110.934 29.6576 110.881 29.8438C110.872 29.8785 110.862 29.9139 110.853 29.9501C110.838 30.0112 110.823 30.0744 110.81 30.1398C110.766 30.3515 110.732 30.5857 110.708 30.8424C110.702 30.9042 110.697 30.9673 110.692 31.0317C110.686 31.1283 110.68 31.2279 110.675 31.3304C110.668 31.5065 110.664 31.6912 110.664 31.8847C110.664 32.536 110.708 33.1696 110.797 33.7856C110.815 33.9124 110.835 34.0385 110.857 34.1639C110.885 34.3271 110.917 34.489 110.952 34.6496C111.071 35.1726 111.212 35.5853 111.375 35.8875C111.415 35.9625 111.457 36.0307 111.5 36.0921C111.534 36.3386 111.557 36.5886 111.567 36.8415C111.554 36.9306 111.545 37.0256 111.538 37.1266C111.532 37.2349 111.528 37.3501 111.528 37.4722C111.528 37.5897 111.532 37.7061 111.54 37.8214C111.498 38.2674 111.413 38.7162 111.276 39.1585C111.403 39.8204 111.457 40.4916 111.457 41.1588C111.457 41.793 111.4 42.4726 111.236 43.155C111.267 43.4053 111.284 43.6618 111.284 43.9238C111.284 45.6051 110.62 47.1928 109.261 48.3426L109.197 48.3968L109.13 48.4479C107.94 49.3638 106.553 49.7705 105.149 49.7705C103.734 49.7705 102.341 49.3322 101.174 48.36L101.109 48.3056L101.046 48.2482C100.091 47.373 99.5424 46.2896 99.3358 45.1503C99.3432 45.1258 99.3502 45.1011 99.3569 45.0762C99.4342 44.7909 99.4728 44.4836 99.4728 44.1542C99.4728 44.009 99.4646 43.8693 99.4481 43.7351C99.4389 43.66 99.4271 43.5866 99.4128 43.515C99.3849 43.376 99.3473 43.2434 99.3 43.1173C99.2232 42.7717 99.108 42.5221 98.9544 42.3685C98.8805 42.0974 98.767 41.8185 98.614 41.5316C98.612 41.4458 98.611 41.36 98.611 41.274C98.611 40.6914 98.6564 39.8303 98.9406 38.9389C98.8203 38.2858 98.7838 37.6461 98.7838 37.069C98.7838 36.4291 98.8228 35.6817 98.9838 34.9212C98.9361 34.6913 98.9006 34.4684 98.873 34.2614C98.7717 33.5014 98.7262 32.7062 98.7262 31.8847C98.7262 31.1054 98.7711 30.3464 98.8804 29.6282C98.9057 29.4532 98.9373 29.2661 98.9782 29.0724C98.8721 28.4674 98.8414 27.8253 98.8414 27.2188C98.8414 26.4977 98.8786 25.6943 99.0236 24.8965C98.974 24.7551 98.9282 24.6146 98.8854 24.4757C98.6502 23.7112 98.4958 22.8889 98.4958 22.0345C98.4958 21.8884 98.4968 21.6668 98.5193 21.3985C98.2992 20.5351 98.1502 19.654 98.1502 18.8087C98.1502 17.8805 98.3162 16.9871 98.6036 16.141C98.6767 15.022 99.0973 13.8269 100.127 12.864C99.6026 12.2905 99.1164 11.5424 98.8944 10.6255C98.7202 10.3236 98.5652 10.0038 98.4364 9.66707C98.597 9.47919 98.7155 9.28292 98.7921 9.07824C98.8237 8.99373 98.8482 8.90779 98.8655 8.82042C98.8864 8.71493 98.8968 8.60735 98.8968 8.49769C98.8968 8.14203 98.7701 7.81561 98.5167 7.51843C98.4145 7.39846 98.2915 7.28325 98.1479 7.17281C98.1158 7.14562 98.0835 7.11931 98.0508 7.09388C98.1369 5.94615 98.5671 4.92486 99.1844 4.076C99.7343 3.31991 100.418 2.71437 101.195 2.25971C102.31 1.31417 103.676 0.865234 105.092 0.865234C106.649 0.865234 108.082 1.43749 109.204 2.50948C110.275 3.46574 110.825 4.67572 110.997 5.90762C111.426 6.77713 111.745 7.78842 111.745 8.90091C111.745 11.1711 110.491 12.7555 109.06 13.7558C109.744 14.6784 110.091 15.7146 110.249 16.7137C110.479 17.0518 110.669 17.412 110.82 17.7869C111.234 18.6903 111.399 19.6316 111.399 20.5368C111.399 21.2947 111.299 22.0574 111.073 22.7979C111.081 22.8372 111.088 22.8758 111.095 22.9138C111.258 23.6068 111.342 24.3139 111.342 25.0299C111.342 25.3242 111.332 25.7627 111.248 26.2659C111.233 26.2857 111.22 26.3058 111.206 26.3262ZM106.532 11.0898C107.607 10.5138 108.145 9.78416 108.145 8.90091C108.145 8.32488 107.914 7.67204 107.454 6.94239C107.492 6.17435 107.262 5.57911 106.762 5.15669C106.301 4.69586 105.745 4.46545 105.092 4.46545C104.362 4.46545 103.767 4.71506 103.306 5.21429C102.807 5.4447 102.404 5.77112 102.096 6.19355C101.789 6.61597 101.636 7.0576 101.636 7.51843C101.636 8.13287 101.885 8.7473 102.384 9.36174C102.308 9.86097 102.576 10.341 103.191 10.8018L103.141 10.8688M103.191 10.8018C103.601 11.1093 104.037 11.3142 104.498 11.4165C104.728 11.4676 104.964 11.4931 105.207 11.4931C105.217 11.4931 105.227 11.493 105.236 11.4929C105.724 11.4877 106.155 11.3534 106.532 11.0898" fill="white"/>
</g>
<g filter="url(#filter9_d_1_213)">
<path fill-rule="evenodd" clip-rule="evenodd" d="M96.5364 46.1119C97.0356 46.3039 97.4388 46.3999 97.746 46.3999C98.3605 46.3999 98.8021 46.1887 99.0709 45.7663C99.3397 45.3054 99.4741 44.7678 99.4741 44.1534C99.4741 43.7693 99.4165 43.4237 99.3013 43.1165C99.2245 42.7709 99.1093 42.5213 98.9557 42.3677C98.8405 41.9452 98.6293 41.5036 98.3221 41.0428C98.0148 40.582 97.7076 40.2747 97.4004 40.1211C97.362 39.4299 97.17 38.7578 96.8244 38.105C96.4788 37.4522 96.0371 37.0297 95.4995 36.8377C95.4227 36.4921 95.1731 36.0697 94.7507 35.5705C94.3282 35.0328 93.9442 34.6872 93.5986 34.5336C93.5218 33.9192 93.1954 33.3239 92.6193 32.7479C92.0433 32.1719 91.5057 31.807 91.0064 31.6534C91.0517 31.2911 90.9701 30.8953 90.7617 30.4662C90.6167 30.1677 90.4102 29.853 90.1424 29.5221C89.8929 29.1993 89.6435 28.9213 89.3941 28.6882C88.9907 28.3113 88.5873 28.0516 88.1839 27.9092C88.2991 27.3716 88.1647 26.8339 87.7806 26.2963C87.7308 26.2265 87.6793 26.1593 87.6262 26.0947C87.5524 26.0048 87.4754 25.9199 87.3953 25.8401C87.3791 25.824 87.3629 25.8081 87.3465 25.7924C87.0522 25.5108 86.7168 25.2948 86.3406 25.1442C86.4942 24.1074 86.0525 23.4161 85.0157 23.0705C85.8605 22.5713 86.4366 22.1873 86.7438 21.9184C87.0251 21.6723 87.3868 21.2009 87.829 20.5041C87.8698 20.4398 87.9113 20.3736 87.9534 20.3055C88.4911 20.3055 89.0671 19.9983 89.6816 19.3839C90.296 18.7311 90.6992 18.0974 90.8912 17.483C91.5057 17.4446 92.1393 17.1374 92.7921 16.5613C93.4834 15.9469 93.8674 15.4285 93.9442 15.006C94.4434 14.9292 94.8851 14.6988 95.2691 14.3148C95.6531 13.9308 95.8835 13.5275 95.9603 13.1051C97.1892 12.5675 97.8804 11.5498 98.034 10.0521C98.6101 9.59131 98.8981 9.07288 98.8981 8.49685C98.8981 7.99762 98.6485 7.55599 98.1493 7.17197C97.65 6.74954 97.0932 6.53833 96.4788 6.53833C96.0179 6.53833 95.5763 6.69194 95.1539 6.99916C94.7699 7.30638 94.4818 7.7672 94.2898 8.38164C93.7138 8.34324 93.1378 8.63126 92.5617 9.24569C92.0241 9.82173 91.7937 10.3402 91.8705 10.801C91.4865 10.9546 91.0256 11.2618 90.488 11.7226C89.9504 12.1835 89.6431 12.5675 89.5663 12.8747C89.0671 13.0283 88.5679 13.3739 88.0687 13.9116C87.5694 14.4108 87.3006 14.8908 87.2622 15.3517C86.571 15.5821 86.0525 15.8317 85.7069 16.1005C85.3997 16.3693 84.9965 16.8877 84.4972 17.6558C84.1516 17.579 83.71 17.7902 83.1724 18.2894C82.6347 18.7887 82.2699 19.3455 82.0779 19.9599C81.1946 19.9599 80.5418 20.2287 80.1194 20.7664C79.7999 21.173 79.5902 21.6127 79.4904 22.0853C79.485 22.111 79.4798 22.1368 79.4751 22.1627C79.4516 22.2901 79.4359 22.4199 79.4281 22.5521C79.3981 22.5481 79.3681 22.5447 79.3384 22.5419C79.2632 22.535 79.189 22.532 79.1159 22.5331C79.1131 22.5331 79.1104 22.5332 79.1076 22.5332C79.0164 22.5349 78.9268 22.5429 78.8388 22.557C78.8241 22.5594 78.8095 22.5619 78.7949 22.5646C78.5381 22.6123 78.2946 22.7136 78.0646 22.8687C77.9996 22.9125 77.9357 22.9605 77.8729 23.0129C77.8404 23.0372 77.8089 23.0623 77.7784 23.0879C77.7119 23.1438 77.6499 23.2028 77.5924 23.265C77.5857 23.2723 77.579 23.2796 77.5724 23.287C77.4421 23.4324 77.3358 23.5947 77.2537 23.7738C77.1889 23.9148 77.1392 24.0664 77.1043 24.2284C77.0887 24.3011 77.076 24.376 77.0664 24.453C76.8809 24.4966 76.7124 24.5542 76.561 24.6258C76.4475 24.6794 76.3436 24.7409 76.2493 24.8103C76.0266 24.9739 75.8574 25.1812 75.7415 25.4323C75.8567 25.125 75.9143 24.8562 75.9143 24.6258C75.9143 24.6203 75.9143 24.6148 75.9143 24.6093C75.9137 24.5021 75.9068 24.4012 75.8939 24.3064C75.8428 23.9332 75.696 23.6556 75.4535 23.4737C75.4919 23.2433 75.5495 22.9553 75.6263 22.6097C75.7415 22.2641 75.7991 21.976 75.7991 21.7456C75.7991 21.4995 75.7498 21.2903 75.6512 21.1181C75.6267 21.0754 75.5992 21.035 75.5687 20.9968C75.6739 20.8566 75.755 20.7044 75.8122 20.5401C75.8347 20.4755 75.8535 20.4089 75.8686 20.3405C75.8939 20.2257 75.9087 20.1056 75.913 19.9803C75.9139 19.9545 75.9143 19.9285 75.9143 19.9023C75.9143 19.3647 75.7031 18.8271 75.2807 18.2894C75.5879 17.5982 75.7415 16.9261 75.7415 16.2733C75.7415 15.9287 75.6866 15.6208 75.5769 15.3494C75.5378 15.2527 75.4917 15.1606 75.4386 15.0732C75.4249 15.0505 75.4106 15.0281 75.3959 15.006C75.4066 14.9992 75.4171 14.9922 75.4275 14.9849C75.5367 14.9088 75.6311 14.8069 75.7105 14.6795C75.9232 14.3383 76.0295 13.8136 76.0295 13.1051C76.0295 12.4139 75.9335 11.9723 75.7415 11.7802C76.0487 11.2426 76.2024 10.609 76.2024 9.87933C76.2024 9.11129 75.9911 8.51605 75.5687 8.09362L75.6263 7.51759C75.6263 6.71114 75.3959 6.09671 74.9351 5.67428C74.4742 5.25186 73.8982 5.04064 73.207 5.04064C72.4773 5.04064 71.8245 5.30946 71.2485 5.84709C70.7108 6.34632 70.442 7.03756 70.442 7.92081C70.442 8.53525 70.5764 9.18809 70.8452 9.87933C70.6148 10.3402 70.4996 11.0314 70.4996 11.9531C70.4996 12.5611 70.5662 13.1525 70.6995 13.7273C70.7093 13.7696 70.7195 13.8118 70.73 13.854C70.8836 14.43 71.0948 14.8716 71.3637 15.1788C71.3336 15.2239 71.3046 15.27 71.2765 15.3174C70.8738 15.9963 70.6724 16.9102 70.6724 18.059C70.6724 19.0191 70.826 19.6719 71.1333 20.0175C70.9412 20.4784 70.8452 20.8816 70.8452 21.2272C70.8452 21.6496 70.9604 22.0913 71.1909 22.5521C70.8452 23.3201 70.6724 23.973 70.6724 24.5106C70.6724 25.0303 70.8043 25.4533 71.068 25.7796C71.1941 25.9355 71.3502 26.0693 71.5365 26.1811C71.339 26.4115 71.1838 26.6701 71.0709 26.957C71.0475 27.0167 71.0258 27.0776 71.006 27.1397C70.9054 27.4551 70.852 27.8021 70.8458 28.1805C70.8454 28.2051 70.8452 28.2299 70.8452 28.2548C70.8452 29.0613 71.0756 29.8101 71.5365 30.5014C71.3829 31.0006 71.3061 31.4998 71.3061 31.999C71.3061 32.3831 71.4213 33.0743 71.6517 34.0728C71.4597 34.6488 71.3637 35.3208 71.3637 36.0889C71.3637 37.0873 71.5749 37.7978 71.9973 38.2202C71.8053 38.489 71.7093 38.9115 71.7093 39.4875C71.7093 39.9867 71.8245 40.6204 72.0549 41.3884C71.7861 41.8492 71.6517 42.5021 71.6517 43.3469C71.6517 44.115 71.8245 44.7678 72.1701 45.3054L69.1417 47.2523C68.3533 46.0259 68.0515 44.6646 68.0515 43.3469C68.0515 42.6854 68.1076 41.9442 68.2949 41.1964C68.1811 40.6341 68.1091 40.058 68.1091 39.4875C68.1091 39.2464 68.1184 38.9623 68.1524 38.6515C67.8419 37.7437 67.7635 36.8325 67.7635 36.0889C67.7635 35.3968 67.8195 34.6985 67.9542 34.011C67.8129 33.3068 67.7058 32.5985 67.7058 31.999C67.7058 31.6675 67.7253 31.3387 67.7633 31.0131C67.4231 30.1454 67.245 29.2196 67.245 28.2548C67.245 27.6945 67.3032 27.1281 67.4322 26.5708C67.187 25.9094 67.0722 25.2083 67.0722 24.5106C67.0722 23.8089 67.1934 23.1287 67.3787 22.491C67.2933 22.0874 67.245 21.6653 67.245 21.2272C67.245 20.8956 67.2752 20.5744 67.3267 20.2667C67.1027 19.4237 67.0722 18.6211 67.0722 18.059C67.0722 17.1646 67.162 16.2281 67.4115 15.3156C67.3506 15.1339 67.2977 14.9552 67.2514 14.7816L67.2441 14.7544L67.2373 14.7271C67.0101 13.8184 66.8994 12.8912 66.8994 11.9531C66.8994 11.3248 66.9379 10.6126 67.0824 9.89221C66.929 9.25484 66.8418 8.59576 66.8418 7.92081C66.8418 6.25861 67.3791 4.52904 68.7953 3.212C69.9793 2.10836 71.4904 1.44043 73.207 1.44043C74.6959 1.44043 76.1707 1.92303 77.3678 3.02036C78.6495 4.1952 79.1389 5.7138 79.2155 7.11342C79.643 8.02138 79.8026 8.98531 79.8026 9.87933C79.8026 10.5502 79.7253 11.2291 79.549 11.8961C79.6119 12.3232 79.6298 12.7378 79.6298 13.1051C79.6298 13.8157 79.5598 14.6417 79.2907 15.4554C79.3258 15.7315 79.3417 16.0052 79.3417 16.2733C79.3417 16.4969 79.3321 16.7184 79.3135 16.9377C79.4482 16.8753 79.5844 16.8187 79.7215 16.7674C80.0203 16.3626 80.3571 15.9906 80.7226 15.6512C81.1244 15.2781 81.6473 14.8586 82.2844 14.5424C82.6089 14.1207 82.9613 13.7191 83.3362 13.3911L83.4145 13.3225L83.4966 13.2587C83.8194 13.0076 84.1655 12.7922 84.5193 12.6058C84.8151 12.139 85.1529 11.7415 85.4749 11.4142C85.9144 10.9473 86.4343 10.4886 87.0417 10.1089C87.0422 10.1084 87.0426 10.1078 87.0431 10.1072C87.3837 9.68143 87.7729 9.30811 88.145 8.98916C88.3313 8.82948 88.5302 8.66672 88.7405 8.50706C89.0859 7.77489 89.553 7.19285 89.9298 6.7892L89.9352 6.78336C90.4154 6.27118 91.0418 5.74044 91.8059 5.35366C92.1042 4.93481 92.4662 4.53878 92.9048 4.18787L92.9694 4.13619L93.0363 4.08754C93.9885 3.39506 95.1576 2.93812 96.4788 2.93812C97.9735 2.93812 99.3192 3.46887 100.412 4.37126C101.032 4.86224 101.615 5.51593 102.006 6.32593C101.76 6.70775 101.637 7.10497 101.637 7.51759C101.637 7.84401 101.707 8.17043 101.848 8.49685C101.972 8.78487 102.151 9.07288 102.385 9.3609C102.372 9.45065 102.369 9.53978 102.377 9.62829C102.198 10.4499 101.831 11.1617 101.371 11.7604C100.961 13.2905 100.115 14.6337 98.8038 15.5996C98.5174 16.0804 98.175 16.5004 97.8148 16.8605C97.4149 17.2605 96.9648 17.6063 96.4698 17.8838C96.0863 18.3958 95.634 18.8521 95.184 19.2522L95.1741 19.2609C94.6735 19.7026 94.0861 20.1265 93.4158 20.4546C93.0821 20.9629 92.7016 21.428 92.3032 21.8514L92.2658 21.8911L92.2273 21.9296C91.7294 22.4275 91.0584 22.9861 90.2251 23.382C90.1962 23.4212 90.1671 23.4602 90.1377 23.499C90.3426 23.7209 90.5335 23.9563 90.7103 24.2037C91.0437 24.6705 91.3265 25.1955 91.5239 25.7662C92.0796 26.2348 92.5575 26.7631 92.9667 27.2891C93.404 27.8337 93.8749 28.5305 94.2017 29.35C94.5569 29.6235 94.8778 29.9149 95.1651 30.2022C95.7553 30.7924 96.2991 31.5068 96.6785 32.3463C97.0207 32.6687 97.3072 33.0005 97.5411 33.2949C97.7752 33.5747 98.0408 33.9183 98.2867 34.318C99.0454 34.9142 99.6058 35.6642 100.006 36.4205C100.319 37.0114 100.565 37.6306 100.734 38.2739C100.964 38.5401 101.157 38.8048 101.318 39.0457C101.661 39.5603 101.969 40.1243 102.204 40.7355C102.214 40.7514 102.223 40.7673 102.232 40.7832C102.231 40.7901 102.231 40.7969 102.23 40.8038C102.218 40.9507 102.213 41.1072 102.213 41.2732C102.213 41.342 102.213 41.4105 102.215 41.4787C102.22 41.6582 102.232 41.8356 102.25 42.0108C102.265 42.1581 102.285 42.3038 102.309 42.448C102.331 42.5761 102.356 42.7029 102.385 42.8285C102.501 43.3277 102.654 43.6925 102.846 43.923C102.842 44.0015 102.841 44.0783 102.843 44.1534C102.851 44.4591 102.913 44.736 103.029 44.9842C102.93 45.8674 102.665 46.7506 102.181 47.5803L102.146 47.6404L102.108 47.6991C101.023 49.4051 99.2697 50.0001 97.746 50.0001C96.7852 50.0001 95.8963 49.723 95.244 49.4721L95.1806 49.4477L95.1182 49.421C94.0448 48.961 93.1262 48.2655 92.3881 47.3798C92.0089 46.9247 91.6729 46.4143 91.411 45.8503C90.9263 45.4138 90.4942 44.8987 90.1432 44.2969L90.0847 44.1967L90.0328 44.0929C89.7775 43.5823 89.5973 43.0388 89.4689 42.4942C89.2648 42.2927 89.0862 42.0927 88.9319 41.9075L88.8729 41.8366L88.8175 41.7628C88.59 41.4595 88.3709 41.1262 88.1766 40.7638C87.7409 40.4326 87.3603 40.0561 87.031 39.661C86.7294 39.299 86.4653 38.9039 86.2498 38.4792C85.5641 38.0566 84.9521 37.5194 84.4255 36.8799C83.8273 36.1535 83.3527 35.3194 83.0739 34.3941C82.5352 33.9942 82.068 33.5225 81.6715 33.0202L81.6438 32.9852L81.6171 32.9495C81.3608 32.6078 81.1228 32.2391 80.9157 31.8457C80.8579 31.8791 80.7994 31.912 80.74 31.9443C80.5697 32.1472 80.385 32.3351 80.1885 32.5077C80.2006 32.764 80.2058 33.0175 80.2058 33.2663C80.2058 34.195 80.1393 35.1138 79.976 35.9957C80.2344 36.8804 80.321 37.7827 80.321 38.6234C80.321 39.2155 80.2868 40.0325 80.0546 40.8762C80.1549 41.5038 80.2058 42.1359 80.2058 42.7709C80.2058 44.2774 79.9157 46.0749 78.7259 47.5433C77.4187 49.1564 75.5794 49.7121 73.8982 49.7121C72.2316 49.7121 70.3255 49.0937 69.1417 47.2523L72.1701 45.3054C72.5157 45.8431 73.0918 46.1119 73.8982 46.1119C75.7031 46.1119 76.6056 44.9982 76.6056 42.7709C76.6056 42.3101 76.5672 41.8492 76.4904 41.3884C76.4136 40.8892 76.3752 40.5627 76.3752 40.4091C76.6056 40.0635 76.7208 39.4683 76.7208 38.6234C76.7208 38.3517 76.708 38.0956 76.6824 37.8551C76.6807 37.8396 76.679 37.8241 76.6773 37.8087C76.6061 37.1865 76.4478 36.6708 76.2024 36.2617C76.4175 35.6162 76.5466 34.8477 76.5895 33.9562C76.6002 33.7339 76.6056 33.5039 76.6056 33.2663C76.6056 31.999 76.4328 31.039 76.0871 30.3861C76.6248 30.3477 77.0856 30.2325 77.4696 30.0405C77.8216 29.8485 78.0669 29.5899 78.2056 29.2646C78.2334 29.1995 78.2569 29.1317 78.2761 29.0613C78.4961 29.0173 78.7223 28.9355 78.9549 28.8159C79.1284 28.7267 79.3053 28.6165 79.4857 28.4852C79.9082 28.1396 80.2154 27.7748 80.4074 27.3908C80.5994 27.3908 80.8682 27.2564 81.2138 26.9875C81.4392 26.8123 81.5992 26.6452 81.694 26.4863C81.7445 26.4014 81.7765 26.3189 81.7899 26.2387C81.8145 26.3311 81.8416 26.4215 81.8712 26.5099C82.026 26.9729 82.2485 27.3817 82.5387 27.7364C82.9227 28.1588 83.326 28.4276 83.7484 28.5428C83.7156 28.8548 83.7424 29.1703 83.8289 29.4893C83.8796 29.6762 83.9508 29.8643 84.0424 30.0536C84.0844 30.1403 84.1306 30.2272 84.1812 30.3144C84.2725 30.4719 84.3779 30.6302 84.4972 30.7894C84.801 31.1741 85.126 31.4681 85.4725 31.6713C85.7831 31.8535 86.1108 31.9627 86.4558 31.999C86.4174 32.1143 86.3982 32.2871 86.3982 32.5175C86.3982 32.5267 86.3982 32.5359 86.3983 32.5451C86.405 33.2646 86.6738 33.9466 87.2046 34.5912C87.7422 35.244 88.4143 35.6665 89.2207 35.8585C89.2207 36.3961 89.4127 36.8953 89.7968 37.3562C90.1808 37.817 90.6032 38.1242 91.064 38.2778C91.1408 38.7002 91.3521 39.1419 91.6977 39.6027C92.0817 40.0635 92.4465 40.3515 92.7921 40.4667C92.8689 41.35 93.0225 42.022 93.253 42.4829C93.5218 42.9437 93.925 43.3277 94.4626 43.6349C94.5394 44.1342 94.7699 44.6142 95.1539 45.075C95.5379 45.5358 95.9987 45.8815 96.5364 46.1119Z" fill="white"/>
</g>
<defs>
<filter id="filter0_d_1_213" x="161.248" y="15.2363" width="24.811" height="32.1841" filterUnits="userSpaceOnUse" color-interpolation-filters="sRGB">
<feFlood flood-opacity="0" result="BackgroundImageFix"/>
<feColorMatrix in="SourceAlpha" type="matrix" values="0 0 0 0 0 0 0 0 0 0 0 0 0 0 0 0 0 0 127 0" result="hardAlpha"/>
<feOffset dy="1"/>
<feGaussianBlur stdDeviation="0.5"/>
<feComposite in2="hardAlpha" operator="out"/>
<feColorMatrix type="matrix" values="0 0 0 0 0 0 0 0 0 0 0 0 0 0 0 0 0 0 0.3 0"/>
<feBlend mode="normal" in2="BackgroundImageFix" result="effect1_dropShadow_1_213"/>
<feBlend mode="normal" in="SourceGraphic" in2="effect1_dropShadow_1_213" result="shape"/>
</filter>
<filter id="filter1_d_1_213" x="136.637" y="15.0635" width="25.041" height="33.2209" filterUnits="userSpaceOnUse" color-interpolation-filters="sRGB">
<feFlood flood-opacity="0" result="BackgroundImageFix"/>
<feColorMatrix in="SourceAlpha" type="matrix" values="0 0 0 0 0 0 0 0 0 0 0 0 0 0 0 0 0 0 127 0" result="hardAlpha"/>
<feOffset dy="1"/>
<feGaussianBlur stdDeviation="0.5"/>
<feComposite in2="hardAlpha" operator="out"/>
<feColorMatrix type="matrix" values="0 0 0 0 0 0 0 0 0 0 0 0 0 0 0 0 0 0 0.3 0"/>
<feBlend mode="normal" in2="BackgroundImageFix" result="effect1_dropShadow_1_213"/>
<feBlend mode="normal" in="SourceGraphic" in2="effect1_dropShadow_1_213" result="shape"/>
</filter>
<filter id="filter2_d_1_213" x="109.666" y="3.59961" width="24.926" height="44.6841" filterUnits="userSpaceOnUse" color-interpolation-filters="sRGB">
<feFlood flood-opacity="0" result="BackgroundImageFix"/>
<feColorMatrix in="SourceAlpha" type="matrix" values="0 0 0 0 0 0 0 0 0 0 0 0 0 0 0 0 0 0 127 0" result="hardAlpha"/>
<feOffset dy="1"/>
<feGaussianBlur stdDeviation="0.5"/>
<feComposite in2="hardAlpha" operator="out"/>
<feColorMatrix type="matrix" values="0 0 0 0 0 0 0 0 0 0 0 0 0 0 0 0 0 0 0.3 0"/>
<feBlend mode="normal" in2="BackgroundImageFix" result="effect1_dropShadow_1_213"/>
<feBlend mode="normal" in="SourceGraphic" in2="effect1_dropShadow_1_213" result="shape"/>
</filter>
<filter id="filter3_d_1_213" x="100.637" y="4.46484" width="8.50903" height="43.7048" filterUnits="userSpaceOnUse" color-interpolation-filters="sRGB">
<feFlood flood-opacity="0" result="BackgroundImageFix"/>
<feColorMatrix in="SourceAlpha" type="matrix" values="0 0 0 0 0 0 0 0 0 0 0 0 0 0 0 0 0 0 127 0" result="hardAlpha"/>
<feOffset dy="1"/>
<feGaussianBlur stdDeviation="0.5"/>
<feComposite in2="hardAlpha" operator="out"/>
<feColorMatrix type="matrix" values="0 0 0 0 0 0 0 0 0 0 0 0 0 0 0 0 0 0 0.3 0"/>
<feBlend mode="normal" in2="BackgroundImageFix" result="effect1_dropShadow_1_213"/>
<feBlend mode="normal" in="SourceGraphic" in2="effect1_dropShadow_1_213" result="shape"/>
</filter>
<filter id="filter4_d_1_213" x="69.4414" y="5.04004" width="31.0321" height="43.3594" filterUnits="userSpaceOnUse" color-interpolation-filters="sRGB">
<feFlood flood-opacity="0" result="BackgroundImageFix"/>
<feColorMatrix in="SourceAlpha" type="matrix" values="0 0 0 0 0 0 0 0 0 0 0 0 0 0 0 0 0 0 127 0" result="hardAlpha"/>
<feOffset dy="1"/>
<feGaussianBlur stdDeviation="0.5"/>
<feComposite in2="hardAlpha" operator="out"/>
<feColorMatrix type="matrix" values="0 0 0 0 0 0 0 0 0 0 0 0 0 0 0 0 0 0 0.3 0"/>
<feBlend mode="normal" in2="BackgroundImageFix" result="effect1_dropShadow_1_213"/>
<feBlend mode="normal" in="SourceGraphic" in2="effect1_dropShadow_1_213" result="shape"/>
</filter>
<filter id="filter5_d_1_213" x="157.707" y="11.6367" width="31.953" height="39.3845" filterUnits="userSpaceOnUse" color-interpolation-filters="sRGB">
<feFlood flood-opacity="0" result="BackgroundImageFix"/>
<feColorMatrix in="SourceAlpha" type="matrix" values="0 0 0 0 0 0 0 0 0 0 0 0 0 0 0 0 0 0 127 0" result="hardAlpha"/>
<feOffset dy="1"/>
<feGaussianBlur stdDeviation="0.5"/>
<feComposite in2="hardAlpha" operator="out"/>
<feColorMatrix type="matrix" values="0 0 0 0 0 0 0 0 0 0 0 0 0 0 0 0 0 0 0.3 0"/>
<feBlend mode="normal" in2="BackgroundImageFix" result="effect1_dropShadow_1_213"/>
<feBlend mode="normal" in="SourceGraphic" in2="effect1_dropShadow_1_213" result="shape"/>
</filter>
<filter id="filter6_d_1_213" x="133.037" y="11.4639" width="31.986" height="40.4214" filterUnits="userSpaceOnUse" color-interpolation-filters="sRGB">
<feFlood flood-opacity="0" result="BackgroundImageFix"/>
<feColorMatrix in="SourceAlpha" type="matrix" values="0 0 0 0 0 0 0 0 0 0 0 0 0 0 0 0 0 0 127 0" result="hardAlpha"/>
<feOffset dy="1"/>
<feGaussianBlur stdDeviation="0.5"/>
<feComposite in2="hardAlpha" operator="out"/>
<feColorMatrix type="matrix" values="0 0 0 0 0 0 0 0 0 0 0 0 0 0 0 0 0 0 0.3 0"/>
<feBlend mode="normal" in2="BackgroundImageFix" result="effect1_dropShadow_1_213"/>
<feBlend mode="normal" in="SourceGraphic" in2="effect1_dropShadow_1_213" result="shape"/>
</filter>
<filter id="filter7_d_1_213" x="106.109" y="0" width="32.084" height="51.8845" filterUnits="userSpaceOnUse" color-interpolation-filters="sRGB">
<feFlood flood-opacity="0" result="BackgroundImageFix"/>
<feColorMatrix in="SourceAlpha" type="matrix" values="0 0 0 0 0 0 0 0 0 0 0 0 0 0 0 0 0 0 127 0" result="hardAlpha"/>
<feOffset dy="1"/>
<feGaussianBlur stdDeviation="0.5"/>
<feComposite in2="hardAlpha" operator="out"/>
<feColorMatrix type="matrix" values="0 0 0 0 0 0 0 0 0 0 0 0 0 0 0 0 0 0 0.3 0"/>
<feBlend mode="normal" in2="BackgroundImageFix" result="effect1_dropShadow_1_213"/>
<feBlend mode="normal" in="SourceGraphic" in2="effect1_dropShadow_1_213" result="shape"/>
</filter>
<filter id="filter8_d_1_213" x="97.0508" y="0.865234" width="15.6938" height="50.9053" filterUnits="userSpaceOnUse" color-interpolation-filters="sRGB">
<feFlood flood-opacity="0" result="BackgroundImageFix"/>
<feColorMatrix in="SourceAlpha" type="matrix" values="0 0 0 0 0 0 0 0 0 0 0 0 0 0 0 0 0 0 127 0" result="hardAlpha"/>
<feOffset dy="1"/>
<feGaussianBlur stdDeviation="0.5"/>
<feComposite in2="hardAlpha" operator="out"/>
<feColorMatrix type="matrix" values="0 0 0 0 0 0 0 0 0 0 0 0 0 0 0 0 0 0 0.3 0"/>
<feBlend mode="normal" in2="BackgroundImageFix" result="effect1_dropShadow_1_213"/>
<feBlend mode="normal" in="SourceGraphic" in2="effect1_dropShadow_1_213" result="shape"/>
</filter>
<filter id="filter9_d_1_213" x="65.8418" y="1.44043" width="38.1872" height="50.5596" filterUnits="userSpaceOnUse" color-interpolation-filters="sRGB">
<feFlood flood-opacity="0" result="BackgroundImageFix"/>
<feColorMatrix in="SourceAlpha" type="matrix" values="0 0 0 0 0 0 0 0 0 0 0 0 0 0 0 0 0 0 127 0" result="hardAlpha"/>
<feOffset dy="1"/>
<feGaussianBlur stdDeviation="0.5"/>
<feComposite in2="hardAlpha" operator="out"/>
<feColorMatrix type="matrix" values="0 0 0 0 0 0 0 0 0 0 0 0 0 0 0 0 0 0 0.3 0"/>
<feBlend mode="normal" in2="BackgroundImageFix" result="effect1_dropShadow_1_213"/>
<feBlend mode="normal" in="SourceGraphic" in2="effect1_dropShadow_1_213" result="shape"/>
</filter>
</defs>
</svg>
