<svg width="30" height="30" viewBox="0 0 30 30" fill="none" xmlns="http://www.w3.org/2000/svg">
<g clip-path="url(#clip0_25_738)">
<path d="M29.2 12.6874C28.6993 12.0841 28.306 11.3991 28.0375 10.6624C27.8328 10.0365 27.5821 9.42646 27.2875 8.83744C26.953 8.12914 26.7457 7.36754 26.675 6.58744C26.5793 5.75519 26.2049 4.97981 25.6125 4.38745C25.0201 3.79509 24.2448 3.42061 23.4125 3.32494C22.6324 3.25423 21.8708 3.04691 21.1625 2.71244C20.5755 2.41349 19.9651 2.16266 19.3375 1.96244C18.5996 1.6967 17.9141 1.30321 17.3125 0.799941C16.6498 0.289345 15.8366 0.0124512 15 0.0124512C14.1634 0.0124512 13.3503 0.289345 12.6875 0.799941C12.0888 1.30436 11.4024 1.69419 10.6625 1.94994C10.0398 2.15763 9.4339 2.41254 8.85001 2.71244C8.13667 3.04519 7.37129 3.25239 6.58751 3.32494C5.75526 3.42061 4.97988 3.79509 4.38752 4.38745C3.79515 4.97981 3.42068 5.75519 3.32501 6.58744C3.25246 7.37122 3.04526 8.13661 2.71251 8.84994C2.41578 9.4337 2.16502 10.0397 1.96251 10.6624C1.69398 11.3991 1.30075 12.0841 0.800009 12.6874C0.281739 13.3468 0 14.1612 0 14.9999C0 15.8386 0.281739 16.653 0.800009 17.3124C1.30075 17.9158 1.69398 18.6008 1.96251 19.3374C2.16719 19.9634 2.41787 20.5734 2.71251 21.1624C3.04697 21.8707 3.2543 22.6323 3.32501 23.4124C3.42068 24.2447 3.79515 25.0201 4.38752 25.6124C4.97988 26.2048 5.75526 26.5793 6.58751 26.6749C7.36761 26.7457 8.12921 26.953 8.83751 27.2874C9.42455 27.5864 10.0349 27.8372 10.6625 28.0374C11.4005 28.3032 12.0859 28.6967 12.6875 29.1999C13.3469 29.7182 14.1613 30 15 30C15.8387 30 16.6531 29.7182 17.3125 29.1999C17.9112 28.6955 18.5976 28.3057 19.3375 28.0499C19.9602 27.8423 20.5661 27.5873 21.15 27.2874C21.8633 26.9547 22.6287 26.7475 23.4125 26.6749C24.2448 26.5793 25.0201 26.2048 25.6125 25.6124C26.2049 25.0201 26.5793 24.2447 26.675 23.4124C26.7476 22.6287 26.9548 21.8633 27.2875 21.1499C27.5842 20.5662 27.835 19.9602 28.0375 19.3374C28.306 18.6008 28.6993 17.9158 29.2 17.3124C29.7183 16.653 30 15.8386 30 14.9999C30 14.1612 29.7183 13.3468 29.2 12.6874ZM19.6338 13.3837L16.4014 16.6162C15.6975 17.318 14.7441 17.7122 13.7501 17.7123C12.7562 17.7124 11.8027 17.3185 11.0986 16.6168L10.3663 15.8837C10.1386 15.6479 10.0126 15.3322 10.0154 15.0044C10.0183 14.6767 10.1497 14.3632 10.3815 14.1314C10.6132 13.8997 10.9268 13.7682 11.2545 13.7653C11.5823 13.7625 11.898 13.8885 12.1338 14.1162L12.8663 14.8486C13.1008 15.0828 13.4187 15.2144 13.7501 15.2142C14.0816 15.2141 14.3994 15.0824 14.6338 14.8479L17.8663 11.6162C18.102 11.3885 18.4178 11.2625 18.7455 11.2653C19.0733 11.2682 19.3868 11.3997 19.6185 11.6314C19.8503 11.8632 19.9818 12.1767 19.9846 12.5044C19.9874 12.8322 19.8615 13.1479 19.6338 13.3837Z" fill="#F39F5F"/>
</g>
<defs>
<clipPath id="clip0_25_738">
<rect width="30" height="30" fill="white"/>
</clipPath>
</defs>
</svg>
