<svg width="60" height="60" viewBox="0 0 60 60" fill="none" xmlns="http://www.w3.org/2000/svg">
<path d="M26.7188 15.9375C26.4406 15.9375 26.1687 16.02 25.9375 16.1745C25.7062 16.329 25.526 16.5486 25.4195 16.8056C25.3131 17.0626 25.2853 17.3453 25.3395 17.6181C25.3938 17.8909 25.5277 18.1415 25.7244 18.3381C25.921 18.5348 26.1716 18.6687 26.4444 18.723C26.7172 18.7772 26.9999 18.7494 27.2569 18.643C27.5139 18.5365 27.7335 18.3563 27.888 18.125C28.0425 17.8938 28.125 17.6219 28.125 17.3438C28.1246 16.9709 27.9763 16.6135 27.7127 16.3498C27.449 16.0862 27.0916 15.9379 26.7188 15.9375Z" fill="#7581FD"/>
<path d="M35.1562 15.9375C34.8781 15.9375 34.6062 16.02 34.375 16.1745C34.1437 16.329 33.9635 16.5486 33.857 16.8056C33.7506 17.0626 33.7228 17.3453 33.777 17.6181C33.8313 17.8909 33.9652 18.1415 34.1619 18.3381C34.3585 18.5348 34.6091 18.6687 34.8819 18.723C35.1547 18.7772 35.4374 18.7494 35.6944 18.643C35.9514 18.5365 36.171 18.3563 36.3255 18.125C36.48 17.8938 36.5625 17.6219 36.5625 17.3438C36.5621 16.9709 36.4138 16.6135 36.1502 16.3498C35.8865 16.0862 35.5291 15.9379 35.1562 15.9375Z" fill="#7581FD"/>
<path d="M30.9375 21.5625C30.6889 21.5622 30.4506 21.4634 30.2749 21.2876C30.0991 21.1118 30.0003 20.8736 30 20.625H28.125C28.125 21.3709 28.4213 22.0863 28.9488 22.6137C29.4762 23.1412 30.1916 23.4375 30.9375 23.4375C31.6834 23.4375 32.3988 23.1412 32.9262 22.6137C33.4537 22.0863 33.75 21.3709 33.75 20.625H31.875C31.8747 20.8736 31.7759 21.1118 31.6001 21.2876C31.4244 21.4634 31.1861 21.5622 30.9375 21.5625Z" fill="#7581FD"/>
<path d="M57.7935 35.8477C57.6896 35.7597 57.5677 35.6954 57.4365 35.6592C57.3053 35.6231 57.1677 35.6158 57.0334 35.6381L48.5576 37.0508C47.9999 37.1432 47.4661 37.3454 46.9873 37.6459L46.3412 36.0146C46.0863 35.3597 45.7226 34.7524 45.2654 34.2185L45.51 32.0017C45.5727 31.4367 45.6057 30.8689 45.6089 30.3005C45.6075 28.2231 45.183 26.1678 44.3614 24.2598C43.5555 22.3706 43.1898 20.3229 43.2921 18.2715L43.4516 15.0265C43.4613 14.822 43.4714 14.6105 43.4714 14.4006C43.4666 11.0786 42.1442 7.89426 39.7945 5.54607C37.4447 3.19787 34.2594 1.87763 30.9375 1.875C29.2397 1.87532 27.5598 2.22059 25.9995 2.88988C24.4392 3.55916 23.0312 4.53849 21.8609 5.76843C20.6906 6.99837 19.7824 8.45328 19.1914 10.0449C18.6005 11.6364 18.3391 13.3315 18.423 15.0272L18.582 18.2616C18.5913 18.5031 18.6 18.7311 18.6 18.9568C18.6032 20.78 18.2334 22.5845 17.5133 24.2595C16.4655 26.699 16.0698 29.369 16.3649 32.0077L16.6088 34.1939C16.3251 34.5254 16.0763 34.8852 15.8663 35.2676L14.5864 32.0684C14.4483 31.7225 14.2416 31.4083 13.9789 31.1444C13.7161 30.8805 13.4027 30.6725 13.0575 30.5329C12.7123 30.3933 12.3424 30.3249 11.9701 30.332C11.5977 30.339 11.2307 30.4212 10.891 30.5738C10.5513 30.7264 10.246 30.946 9.99335 31.2197C9.74074 31.4933 9.54609 31.8151 9.4211 32.1659C9.29611 32.5167 9.24337 32.8891 9.26603 33.2608C9.2887 33.6325 9.38632 33.9958 9.55301 34.3288L9.73313 34.6875H7.89035C7.16276 34.6866 6.44526 34.5172 5.7941 34.1926L4.85988 33.7255C4.54543 33.5683 4.19601 33.494 3.8448 33.5098C3.49358 33.5256 3.15224 33.631 2.85318 33.8158C2.55412 34.0006 2.30727 34.2588 2.13606 34.5659C1.96486 34.873 1.875 35.2187 1.875 35.5703V38.2161C1.87322 38.7388 2.01793 39.2515 2.29273 39.6962C2.56753 40.1408 2.96142 40.4995 3.42973 40.7317L4.95563 41.4947C5.86725 41.9491 6.87174 42.1863 7.89035 42.1875H8.4375V44.9638L7.76402 53.7188C7.72083 54.281 7.79429 54.8461 7.97978 55.3786C8.16527 55.9111 8.4588 56.3995 8.84194 56.8132C9.22509 57.2269 9.6896 57.557 10.2063 57.7827C10.723 58.0085 11.2808 58.125 11.8447 58.125C11.9141 58.125 11.9831 58.1232 12.0517 58.1197C12.1114 58.1225 12.1711 58.1249 12.2305 58.1249C13.0042 58.125 13.7593 57.8873 14.3934 57.4439C15.0275 57.0006 15.5099 56.373 15.7754 55.6462L20.055 47.6892C20.3099 48.8753 20.8247 49.9901 21.5625 50.9531V58.125H23.4375V50.625C23.4375 50.4057 23.3606 50.1934 23.2202 50.0249C22.1381 48.7233 21.6164 47.0455 21.7696 45.3598C21.9229 43.674 22.7386 42.1179 24.0377 41.0327L22.8373 39.5923C22.41 39.9484 22.0198 40.3467 21.6725 40.7812C21.6372 40.8177 21.6048 40.8569 21.5756 40.8984L21.5735 40.8973L21.5569 40.9264C21.5527 40.933 21.5493 40.9403 21.5452 40.947C21.0212 41.6373 20.6098 42.4064 20.3264 43.2254L15.9375 51.3867V39.9969L17.2697 36.6797C17.4927 36.1137 17.8284 35.599 18.2563 35.1666C18.6955 34.7202 19.2188 34.3653 19.7959 34.1222C20.373 33.879 20.9925 33.7525 21.6187 33.75H24.756L30.1145 43.5739C30.1951 43.7218 30.3141 43.8452 30.459 43.9312C30.6038 44.0171 30.7691 44.0625 30.9375 44.0625C31.1059 44.0625 31.2712 44.0171 31.416 43.9312C31.5609 43.8452 31.6799 43.7218 31.7605 43.5739L33.75 39.9266V52.5C33.75 52.7167 33.8251 52.9268 33.9625 53.0944C34.0999 53.262 34.2911 53.3768 34.5036 53.4193L38.4375 54.2061V58.125H40.3125V54.581L43.8994 55.2974C43.9228 55.3015 44.0314 55.3125 44.0625 55.3125H45.8361L46.0161 55.6479C46.2857 56.3746 46.7711 57.0014 47.4073 57.4442C48.0435 57.887 48.7999 58.1246 49.575 58.125C49.7821 58.1261 49.9889 58.109 50.1929 58.0739C50.8547 57.9615 51.4749 57.6757 51.9903 57.2457C52.5058 56.8157 52.8981 56.2569 53.1274 55.626L55.6207 55.2104C56.0425 55.1411 56.4278 54.9292 56.7121 54.6101C56.9965 54.291 57.1628 53.8839 57.1832 53.457L57.3707 53.4193C57.5833 53.377 57.7747 53.2622 57.9123 53.0946C58.0498 52.927 58.125 52.7168 58.125 52.5V36.5625C58.1249 36.4264 58.0952 36.292 58.038 36.1686C57.9807 36.0451 57.8973 35.9356 57.7935 35.8477ZM26.7857 33.5561C27.1838 33.3796 27.5223 33.0914 27.76 32.7265C27.9977 32.3616 28.1245 31.9355 28.125 31.5V28.6309C29.9558 29.2064 31.9192 29.2064 33.75 28.6309V31.5C33.7506 31.9354 33.8774 32.3613 34.1151 32.7262C34.3528 33.091 34.6912 33.3791 35.0892 33.5556L33.9609 35.625H27.9141L26.7857 33.5561ZM30.9375 27.1875C28.9491 27.1853 27.0427 26.3944 25.6367 24.9883C24.2306 23.5823 23.4397 21.6759 23.4375 19.6875V15.4903C25.1256 14.2706 26.5133 12.682 27.495 10.8454C30.6701 13.3869 34.4327 15.0903 38.4375 15.7992V19.6875C38.4353 21.6759 37.6444 23.5823 36.2383 24.9883C34.8323 26.3944 32.9259 27.1853 30.9375 27.1875ZM43.6072 35.1826L43.6246 35.2004C44.0494 35.6279 44.3806 36.1392 44.5972 36.7016L45 37.7184C44.4935 37.3779 43.9197 37.1501 43.3175 37.0505L35.9855 35.8284L37.119 33.75H40.2469C40.8747 33.7493 41.4962 33.8759 42.0738 34.1221C42.6514 34.3683 43.173 34.7291 43.6072 35.1826ZM44.1553 40.3125L39.8897 39.4595L35.6241 38.6064V37.6689L43.0083 38.8993C43.4033 38.964 43.7756 39.1274 44.0906 39.3745C44.4055 39.6215 44.6529 39.9442 44.8097 40.3125H44.1553ZM48.8663 38.8999L56.25 37.6691V38.6066L51.8406 39.4886L47.7197 40.3125H47.0653C47.2221 39.9444 47.4694 39.6219 47.7842 39.375C48.099 39.128 48.4711 38.9646 48.8659 38.8999H48.8663ZM5.7941 39.8176L4.2682 39.0547C4.11211 38.9773 3.98083 38.8577 3.88924 38.7095C3.79765 38.5613 3.74942 38.3904 3.75 38.2161V35.5703C3.74923 35.5382 3.75707 35.5064 3.77271 35.4784C3.78836 35.4503 3.81123 35.427 3.83895 35.4108C3.8658 35.3932 3.89691 35.3831 3.92899 35.3817C3.96108 35.3802 3.99296 35.3874 4.02129 35.4026L4.95563 35.8697C5.86725 36.3241 6.87174 36.5613 7.89035 36.5625H11.25C11.4098 36.5625 11.567 36.5216 11.7065 36.4438C11.8461 36.366 11.9635 36.2538 12.0475 36.1178C12.1315 35.9819 12.1793 35.8267 12.1865 35.6671C12.1937 35.5075 12.1599 35.3486 12.0885 35.2057L11.2303 33.4891C11.1709 33.3705 11.139 33.24 11.1368 33.1073C11.1346 32.9746 11.1623 32.8431 11.2177 32.7226C11.2732 32.602 11.355 32.4955 11.4572 32.4108C11.5593 32.3261 11.6792 32.2654 11.8079 32.2332C12.0158 32.182 12.2352 32.2074 12.4258 32.3048C12.6164 32.4023 12.7655 32.5652 12.8456 32.7638L14.0625 35.8056V40.3125H7.89035C7.16276 40.3116 6.44526 40.1422 5.7941 39.8176ZM14.0625 42.1875V44.0625H10.3125V42.1875H14.0625ZM9.63363 53.8622L10.2431 45.9375H14.0625V54.0322C14.0616 54.5921 13.8491 55.131 13.4676 55.5408C13.0861 55.9507 12.5637 56.2011 12.0053 56.2419C11.97 56.2417 11.9348 56.2435 11.8998 56.2472C11.8813 56.2472 11.8634 56.25 11.8447 56.25C11.5392 56.25 11.2369 56.1869 10.9569 56.0646C10.6768 55.9423 10.4251 55.7634 10.2175 55.5392C10.0099 55.315 9.85084 55.0503 9.75037 54.7617C9.6499 54.4731 9.61015 54.1669 9.63363 53.8622ZM21.5775 40.8996C21.5962 40.8745 21.6161 40.8503 21.6371 40.8272C21.6179 40.8517 21.5993 40.8765 21.5803 40.9011L21.5775 40.8996ZM18.3359 32.7607L18.2284 31.7973C17.9694 29.4818 18.3167 27.1388 19.2362 24.998C20.0569 23.0896 20.4785 21.0336 20.475 18.9562C20.475 18.6943 20.4652 18.4375 20.4551 18.1789L20.2957 14.9347C20.2252 13.515 20.4394 12.0954 20.9258 10.7597C21.4121 9.42397 22.1608 8.19905 23.1277 7.15703C24.0947 6.11502 25.2603 5.27698 26.556 4.69224C27.8516 4.1075 29.2512 3.78789 30.6723 3.75222C32.0934 3.71654 33.5072 3.96553 34.8306 4.48452C36.154 5.00351 37.3602 5.78201 38.3782 6.7742C39.3961 7.76639 40.2053 8.95221 40.7581 10.2618C41.3109 11.5715 41.5961 12.9785 41.5969 14.4C41.5969 14.5652 41.5883 14.7456 41.5793 14.9352L41.42 18.1768C41.3037 20.5129 41.7201 22.8448 42.6379 24.9961C43.3596 26.6713 43.7327 28.4759 43.7344 30.3C43.7312 30.8012 43.7018 31.3019 43.6463 31.8L43.5397 32.7661C42.54 32.1837 41.4039 31.8763 40.2469 31.875H36C35.901 31.8737 35.8063 31.8338 35.7363 31.7637C35.6662 31.6937 35.6263 31.599 35.625 31.5V27.8012C37.0492 26.9786 38.232 25.7959 39.0548 24.3718C39.8775 22.9477 40.3113 21.3322 40.3125 19.6875V15C40.3125 14.7743 40.2311 14.5562 40.0832 14.3857C39.9354 14.2152 39.731 14.1038 39.5075 14.0719C35.3891 13.4844 31.5155 11.7624 28.3201 9.09855L27.7877 8.65477C27.6791 8.56426 27.5515 8.49949 27.4143 8.4653C27.2771 8.4311 27.134 8.42838 26.9956 8.45732C26.8572 8.48627 26.7272 8.54613 26.6152 8.63244C26.5032 8.71874 26.4122 8.82926 26.349 8.9557L25.9857 9.68227C25.0673 11.5171 23.6868 13.081 21.98 14.2199C21.8516 14.3055 21.7463 14.4215 21.6734 14.5576C21.6006 14.6937 21.5625 14.8456 21.5625 15V19.6875C21.5637 21.3322 21.9975 22.9477 22.8202 24.3718C23.643 25.7959 24.8258 26.9786 26.25 27.8012V31.5C26.2487 31.599 26.2088 31.6937 26.1387 31.7637C26.0687 31.8338 25.9741 31.8737 25.875 31.875H21.6187C20.4659 31.8786 19.3341 32.184 18.3359 32.7607ZM30.9375 41.1671L28.9372 37.5H32.9378L30.9375 41.1671ZM35.625 40.5186L43.125 42.0186V53.2314L35.625 51.7314V40.5186ZM45 42.1875H46.875V53.4375H45V42.1875ZM49.8713 56.2266C49.7734 56.2431 49.6743 56.251 49.575 56.25C49.2412 56.2497 48.9133 56.1624 48.6236 55.9967C48.3338 55.8311 48.0923 55.5928 47.9227 55.3054C47.9404 55.3034 47.9578 55.3004 47.9753 55.2974C47.9822 55.2961 47.9891 55.2956 47.996 55.2943H47.9975L48.004 55.293L49.9311 54.9076C50.1408 55.283 50.4746 55.5737 50.8752 55.7297C50.5962 55.9897 50.2472 56.1624 49.8713 56.2266ZM55.3125 53.3609L51.5625 53.9859V50.5014C51.5624 50.4344 51.5861 50.3695 51.6294 50.3184C51.6727 50.2673 51.7328 50.2332 51.7989 50.2223L54.9832 49.6916C54.9991 49.689 55.0152 49.6876 55.0313 49.6875C55.106 49.688 55.1776 49.718 55.2302 49.7711C55.2829 49.8241 55.3125 49.8959 55.3125 49.9706L55.3132 53.3606L55.3125 53.3609ZM54.6748 47.8421L51.4905 48.3728C50.9861 48.4555 50.5276 48.7152 50.1972 49.1052C49.8668 49.4952 49.6861 49.9902 49.6875 50.5014V53.0443L48.75 53.2318V42.0186L56.25 40.5186V48.192C55.7902 47.8755 55.2253 47.75 54.6748 47.8421Z" fill="#7581FD"/>
</svg>
