<svg width="60" height="60" viewBox="0 0 60 60" fill="none" xmlns="http://www.w3.org/2000/svg">
<g clip-path="url(#clip0_21_706)">
<path d="M21.8143 36.6599C21.6848 37.0174 21.3475 37.2395 20.9879 37.2395C20.8884 37.2395 20.7874 37.2225 20.6885 37.1868C16.0655 35.5112 10.8676 34.9291 7.32117 34.736C6.83648 34.7095 6.465 34.2952 6.49136 33.8106C6.51773 33.3258 6.93211 32.9569 7.41679 32.9808C11.0815 33.1805 16.4626 33.7855 21.2875 35.5342C21.7438 35.6995 21.9797 36.2036 21.8143 36.6599ZM21.2876 31.6875C17.3993 30.2775 12.6023 29.387 7.4155 29.1124C6.93117 29.0856 6.51703 29.4589 6.49136 29.9436C6.4657 30.4284 6.83789 30.8421 7.32258 30.8678C12.3389 31.1334 16.9607 31.9883 20.6884 33.3401C20.7873 33.3759 20.8884 33.3929 20.9879 33.3929C21.3473 33.3929 21.6846 33.1707 21.8142 32.8134C21.9797 32.3571 21.7439 31.853 21.2876 31.6875ZM21.2877 27.8409C17.3277 26.4047 12.5303 25.5068 7.4141 25.2441C6.92929 25.2195 6.51609 25.5919 6.49125 26.0767C6.4664 26.5615 6.83918 26.9746 7.32386 26.9995C12.2685 27.2535 16.8898 28.1157 20.6883 29.4934C20.7872 29.5293 20.8884 29.5463 20.9879 29.5463C21.3472 29.5463 21.6846 29.3241 21.8142 28.9668C21.9797 28.5105 21.744 28.0064 21.2877 27.8409ZM21.2875 23.9941C17.2542 22.5321 12.4564 21.6268 7.41269 21.3758C6.92836 21.3527 6.51527 21.7252 6.49125 22.21C6.46711 22.6949 6.84058 23.1074 7.32539 23.1315C12.1968 23.3738 16.8176 24.2435 20.6885 25.6466C20.7874 25.6826 20.8886 25.6995 20.9879 25.6995C21.3473 25.6995 21.6847 25.4773 21.8143 25.1198C21.9797 24.6635 21.7439 24.1595 21.2875 23.9941ZM7.32679 19.2635C12.1918 19.4977 16.6875 20.351 20.6887 21.8C20.7875 21.8359 20.8886 21.8528 20.9879 21.8528C21.3475 21.8528 21.6848 21.6305 21.8143 21.2729C21.9797 20.8165 21.7436 20.3126 21.2872 20.1473C17.1205 18.6384 12.452 17.7504 7.41117 17.5079C6.92554 17.485 6.51433 17.8587 6.49101 18.3436C6.46781 18.8283 6.84187 19.2402 7.32679 19.2635ZM21.2869 16.3002C17.0422 14.7654 12.3734 13.8703 7.40988 13.6396C6.92601 13.6195 6.51363 13.992 6.49113 14.4768C6.46863 14.9617 6.8434 15.373 7.32832 15.3956C12.1154 15.618 16.6106 16.4786 20.6892 17.9532C20.7879 17.989 20.8888 18.0059 20.988 18.0059C21.3477 18.0059 21.6853 17.7834 21.8147 17.4255C21.9796 16.9691 21.7433 16.4652 21.2869 16.3002ZM41.9209 32.9808C38.2563 33.1805 32.8751 33.7855 28.0504 35.5342C27.594 35.6995 27.3581 36.2036 27.5235 36.6599C27.653 37.0174 27.9903 37.2395 28.3499 37.2395C28.4493 37.2395 28.5504 37.2225 28.6493 37.1868C33.2722 35.5112 38.4702 34.9291 42.0165 34.736C42.5012 34.7095 42.8727 34.2952 42.8463 33.8106C42.82 33.3259 42.4058 32.9575 41.9209 32.9808ZM41.9223 29.1125C36.7355 29.3871 31.9385 30.2775 28.0502 31.6876C27.5939 31.8531 27.3581 32.3572 27.5236 32.8134C27.6532 33.1709 27.9905 33.3929 28.3499 33.3929C28.4494 33.3929 28.5505 33.3758 28.6494 33.3401C32.3771 31.9883 36.999 31.1334 42.0152 30.8678C42.4999 30.8421 42.8721 30.4284 42.8464 29.9436C42.8208 29.4589 42.4071 29.0852 41.9223 29.1125ZM28.3499 29.5464C28.4494 29.5464 28.5505 29.5293 28.6495 29.4935C32.4479 28.1159 37.0692 27.2536 42.0138 26.9996C42.4986 26.9747 42.8714 26.5616 42.8464 26.0768C42.8216 25.592 42.4098 25.2199 41.9236 25.2442C36.8074 25.5069 32.01 26.4048 28.0501 27.8411C27.5938 28.0065 27.358 28.5107 27.5235 28.967C27.6532 29.3242 27.9905 29.5464 28.3499 29.5464ZM59.6962 18.5115C59.6884 18.5251 56.9722 23.2295 56.9722 23.2295L57.9864 25.3289C58.1129 25.5909 58.1016 25.8987 57.9561 26.1507L55.5116 30.3848C55.3541 30.6578 55.0632 30.8243 54.7506 30.8243C54.7338 30.8243 54.7172 30.8238 54.7004 30.8229C54.369 30.804 54.0765 30.6 53.9442 30.2954L53.0571 28.253L50.8446 28.5059C50.5145 28.5446 50.1919 28.3923 50.0098 28.1147C49.8277 27.8372 49.8176 27.4807 49.9835 27.1932L52.4282 22.9591C52.5737 22.7072 52.8344 22.5435 53.1246 22.5221L55.4497 22.3507L57.5103 18.7818L53.4005 18.2741L49.9107 24.3184C49.7527 24.5921 49.4614 24.7579 49.1498 24.7579C49.1407 24.7579 49.1314 24.7567 49.1223 24.7564V41.7127C49.1223 42.8266 48.2161 43.7329 47.1021 43.7329H46.8356V48.334C46.8356 49.9099 45.5535 51.1922 43.9775 51.1922H30.7289L32.7246 55.2512H35.5207C36.7976 55.2512 37.8364 56.29 37.8364 57.567C37.8364 58.8439 36.7976 59.8828 35.5207 59.8828H13.7878C12.5109 59.8828 11.472 58.8439 11.472 57.567C11.472 56.29 12.5108 55.2512 13.7878 55.2512H16.5838L18.5796 51.1922H5.33086C3.7548 51.1922 2.47265 49.91 2.47265 48.334V43.7329H2.20617C1.0923 43.7329 0.185974 42.8266 0.185974 41.7127V16.0316C0.185974 14.9177 1.09219 14.0115 2.20617 14.0115H2.80922V10.6121C2.80922 10.1407 3.18117 9.75316 3.65226 9.73394C10.6303 9.44965 17.6992 10.8639 24.6688 13.9363C25.8914 13.3972 27.1246 12.9056 28.3508 12.4684C28.3311 12.2865 28.3662 12.0995 28.4613 11.9345L31.951 5.89008L28.6573 1.52555C28.4447 1.24395 28.4211 0.862383 28.5976 0.556641C28.774 0.251133 29.1161 0.0809765 29.4666 0.123867L47.8717 2.39707C48.1079 2.42625 48.3221 2.55 48.4655 2.73996L59.6367 17.5426C59.8493 17.8243 59.8727 18.2058 59.6962 18.5115ZM31.31 2.12262L41.0073 14.972L54.7475 16.6691L46.4667 11.8882C46.0464 11.6455 45.9023 11.108 46.145 10.6876C46.3876 10.267 46.9252 10.1234 47.3456 10.3659L55.6267 15.147L47.2867 4.09594L31.31 2.12262ZM28.0509 16.3002C28.9051 15.9913 29.7866 15.7086 30.6814 15.45C30.2096 14.966 29.766 14.4745 29.3546 13.9778C28.0847 14.4182 26.8037 14.9207 25.5332 15.476V40.4427C31.8888 37.3002 40.9516 36.8097 44.7709 36.7509V23.8822C43.9673 23.6456 43.1552 23.3665 42.3415 23.0496C42.2411 23.0967 42.1302 23.1258 42.0125 23.1316C37.1413 23.3739 32.5203 24.2436 28.6494 25.6467C28.5505 25.6827 28.4494 25.6996 28.35 25.6996C27.9906 25.6996 27.6532 25.4774 27.5236 25.12C27.3581 24.6635 27.594 24.1596 28.0505 23.9943C31.3235 22.8079 35.1001 21.9881 39.103 21.5871C38.6146 21.3349 38.1288 21.0698 37.6474 20.7919C37.1391 20.4984 36.6409 20.1934 36.1535 19.8789C33.4897 20.3167 30.9654 20.9614 28.6492 21.8002C28.5504 21.836 28.4493 21.8529 28.35 21.8529C27.9905 21.8529 27.6531 21.6307 27.5236 21.273C27.3582 20.8166 27.5944 20.3127 28.0507 20.1475C29.9552 19.4578 31.9911 18.8941 34.1235 18.4629C33.4386 17.947 32.7839 17.413 32.1653 16.8642C30.9637 17.1797 29.7818 17.5437 28.6488 17.9534C28.5502 17.9891 28.4493 18.006 28.35 18.006C27.9903 18.006 27.6527 17.7836 27.5234 17.4257C27.3582 16.9691 27.5945 16.4652 28.0509 16.3002ZM4.56691 36.7508C8.38019 36.8094 17.4211 37.2982 23.7753 40.4276V15.4624C17.395 12.678 10.9386 11.334 4.56691 11.4645V36.7508ZM35.5208 57.009H13.7878C13.4853 57.009 13.2298 57.2645 13.2298 57.567C13.2298 57.8694 13.4853 58.125 13.7878 58.125H35.5207C35.8232 58.125 36.0786 57.8694 36.0786 57.567C36.0786 57.2645 35.8233 57.009 35.5208 57.009ZM28.7701 51.1922H20.5385L18.5427 55.2512H30.7659L28.7701 51.1922ZM45.078 43.733H44.2274V47.7048C44.2274 48.1903 43.8339 48.5837 43.3485 48.5837H5.96004C5.47465 48.5837 5.08113 48.1903 5.08113 47.7048V43.733H4.23047V48.3341C4.23047 48.9409 4.72406 49.4345 5.33086 49.4345H43.9779C44.5846 49.4345 45.0782 48.9409 45.0782 48.3341V43.733H45.078ZM6.83894 43.733V46.8259H23.6504C22.1082 46.4578 20.8519 45.2651 20.4146 43.733H6.83894ZM42.4696 46.8258V43.7329H28.894C28.4568 45.265 27.2004 46.4577 25.6581 46.8258H42.4696ZM47.3647 41.7127V24.5052C47.0878 24.4541 46.8093 24.3977 46.5286 24.3356V37.6228C46.5286 38.1083 46.1351 38.5017 45.6497 38.5017C37.1814 38.5017 29.5114 40.055 25.1324 42.6568L25.1236 42.6421C25.1119 42.6496 25.101 42.6581 25.0888 42.665C24.9539 42.7417 24.8039 42.78 24.6541 42.78C24.4987 42.78 24.3435 42.7388 24.2052 42.6567C19.8262 40.0549 12.1562 38.5016 3.68789 38.5016C3.2025 38.5016 2.80898 38.1082 2.80898 37.6227V15.7692H2.20594C2.06379 15.7692 1.94355 15.8893 1.94355 16.0315V41.7127C1.94355 41.8549 2.06367 41.975 2.20594 41.975H21.1412C21.5961 41.975 21.9759 42.3223 22.0166 42.7754C22.1379 44.1277 23.2963 45.1869 24.654 45.1869C26.0118 45.1869 27.1703 44.1277 27.2916 42.7754C27.3322 42.3223 27.7119 41.975 28.167 41.975H47.1022C47.2446 41.9752 47.3647 41.8549 47.3647 41.7127ZM51.5061 18.04L40.4223 16.6709C40.1861 16.6417 39.9718 16.5179 39.8285 16.328L33.101 7.41363L30.2732 12.3117C32.2389 14.8634 35.1477 17.3187 38.5263 19.2693C41.9051 21.22 45.4856 22.5114 48.6783 22.9379L51.5061 18.04ZM56.2012 25.6746L55.447 24.1134L53.718 24.2409L52.3784 26.5614L53.5042 26.4326C53.5378 26.4287 53.5712 26.4268 53.6044 26.4268C53.951 26.4268 54.2695 26.6319 54.4102 26.9557L54.8616 27.9949L56.2012 25.6746Z" fill="#FF9C9C"/>
</g>
<defs>
<clipPath id="clip0_21_706">
<rect width="60" height="60" fill="white"/>
</clipPath>
</defs>
</svg>
