<svg width="60" height="60" viewBox="0 0 60 60" fill="none" xmlns="http://www.w3.org/2000/svg">
<g clip-path="url(#clip0_21_662)">
<path d="M22.9688 26.953V33.9842C22.9688 34.295 23.0923 34.5931 23.312 34.8129L25.6558 37.1566C25.8756 37.3763 26.1736 37.4999 26.4844 37.4999H33.5156C33.8264 37.4999 34.1244 37.3763 34.3442 37.1566L36.688 34.8129C36.9077 34.5931 37.0312 34.295 37.0312 33.9842V26.953C37.0312 25.1591 37.1508 24.7733 40.2569 20.6991C41.9798 18.4393 42.8906 15.739 42.8906 12.8906C42.8906 5.78271 37.1079 0 30 0C22.8921 0 17.1094 5.78271 17.1094 12.8906C17.1094 15.739 18.0201 18.4393 19.7431 20.6991C22.8492 24.7731 22.9688 25.159 22.9688 26.953ZM34.6875 28.1249V30.4686H25.3125V28.1249H34.6875ZM33.0301 35.1561H26.9698L25.3124 33.4989V32.8124H34.6874V33.4989L33.0301 35.1561ZM30 2.34374C35.8155 2.34374 40.5468 7.07505 40.5468 12.8906C40.5468 15.2212 39.8021 17.43 38.3932 19.2781C35.7645 22.7258 34.9414 23.9509 34.7419 25.7812H31.1719V15.7198L33.1724 13.7193C33.63 13.2617 33.63 12.5197 33.1724 12.0619C32.7146 11.6043 31.9728 11.6043 31.515 12.0619L29.9999 13.5771L28.4848 12.0619C28.027 11.6043 27.2852 11.6043 26.8274 12.0619C26.3698 12.5196 26.3698 13.2616 26.8274 13.7193L28.8279 15.7198V25.7812H25.2579C25.0583 23.9507 24.2353 22.7257 21.6066 19.2781C20.1978 17.43 19.4529 15.2212 19.4529 12.8906C19.4532 7.07505 24.1845 2.34374 30 2.34374Z" fill="#FF73BB"/>
<path d="M10.6642 14.0625H13.0079C13.655 14.0625 14.1798 13.5379 14.1798 12.8906C14.1798 12.2434 13.655 11.7188 13.0079 11.7188H10.6642C10.017 11.7188 9.49228 12.2434 9.49228 12.8906C9.49228 13.5379 10.017 14.0625 10.6642 14.0625Z" fill="#FF73BB"/>
<path d="M12.6686 4.23744L14.6983 5.40931C14.8828 5.51583 15.0843 5.56658 15.2831 5.56658C15.6881 5.56658 16.0819 5.35634 16.2991 4.98052C16.6228 4.42001 16.4307 3.7033 15.8702 3.37962L13.8405 2.20775C13.2801 1.88408 12.5634 2.07626 12.2397 2.63665C11.9162 3.19704 12.1081 3.91376 12.6686 4.23744Z" fill="#FF73BB"/>
<path d="M14.6984 20.3718L12.6688 21.5437C12.1082 21.8673 11.9162 22.5839 12.2398 23.1444C12.457 23.5204 12.8507 23.7305 13.2559 23.7305C13.4546 23.7305 13.6562 23.6799 13.8406 23.5734L15.8703 22.4015C16.4308 22.0778 16.6229 21.3612 16.2992 20.8006C15.9756 20.2402 15.2589 20.0482 14.6984 20.3718Z" fill="#FF73BB"/>
<path d="M45.8203 12.8906C45.8203 13.5379 46.345 14.0625 46.9921 14.0625H49.336C49.9831 14.0625 50.5079 13.5379 50.5079 12.8906C50.5079 12.2434 49.9831 11.7188 49.336 11.7188H46.9921C46.345 11.7188 45.8203 12.2434 45.8203 12.8906Z" fill="#FF73BB"/>
<path d="M44.7168 5.56665C44.9156 5.56665 45.1171 5.5159 45.3016 5.40938L47.3313 4.23751C47.8918 3.91383 48.0839 3.19723 47.7602 2.63672C47.4365 2.07633 46.72 1.88426 46.1594 2.20782L44.1297 3.37969C43.5692 3.70337 43.3771 4.41997 43.7008 4.98059C43.918 5.35641 44.3117 5.56665 44.7168 5.56665Z" fill="#FF73BB"/>
<path d="M44.1297 22.4015L46.1594 23.5734C46.3439 23.6799 46.5454 23.7305 46.7442 23.7305C47.1492 23.7305 47.543 23.5204 47.7602 23.1445C48.0839 22.584 47.8918 21.8674 47.3313 21.5437L45.3016 20.3718C44.7412 20.0481 44.0246 20.2403 43.7008 20.8007C43.3771 21.3612 43.5692 22.0778 44.1297 22.4015Z" fill="#FF73BB"/>
<path d="M58.8281 49.4532V45.8494C58.8281 45.2022 58.3034 44.6775 57.6563 44.6775C52.9409 44.6775 49.9964 43.3237 47.3986 42.1291C46.6397 41.7801 45.9229 41.4504 45.2054 41.1761C41.7588 39.8579 38.6233 39.7285 35.8861 40.7915C33.6541 41.6582 31.68 43.3243 30 45.755C28.32 43.3243 26.3459 41.6582 24.1139 40.7915C21.3768 39.7286 18.2411 39.8579 14.7946 41.1761C14.0771 41.4506 13.3604 41.7801 12.6015 42.1291C10.0037 43.3237 7.05923 44.6775 2.34375 44.6775C1.69664 44.6775 1.17188 45.2022 1.17188 45.8494V49.453C0.524768 49.453 0.00012207 49.9777 0.00012207 50.6249V55.8983C0.00012207 56.5455 0.524886 57.0702 1.17199 57.0702H25.2764C26.1559 58.831 27.9885 59.9999 30 59.9999C32.0115 59.9999 33.8441 58.831 34.7236 57.0702H58.828C59.4751 57.0702 59.9999 56.5455 59.9999 55.8983V50.6249C59.9999 49.9778 59.4752 49.4532 58.8281 49.4532ZM44.3681 43.3653C45.0138 43.6122 45.6965 43.9261 46.4194 44.2586C48.8907 45.395 51.92 46.7877 56.4844 46.9952V49.4533H34.001C32.9248 49.4533 31.9801 49.66 31.1719 50.0705V48.2786C34.3724 42.8014 38.692 41.1944 44.3681 43.3653ZM13.5807 44.2585C14.3036 43.9261 14.9864 43.6121 15.6319 43.3653C21.3081 41.1944 25.6275 42.8015 28.8281 48.2785V50.0704C28.02 49.6599 27.0754 49.4532 25.999 49.4532H3.51562V46.995C8.08005 46.7877 11.1096 45.3948 13.5807 44.2585ZM57.6561 54.7266H33.9314C33.413 54.7266 32.9562 55.0672 32.8083 55.564C32.4415 56.7959 31.2868 57.6562 30 57.6562C28.7132 57.6562 27.5585 56.796 27.1917 55.564C27.0438 55.0671 26.587 54.7266 26.0686 54.7266H2.34386V51.7969H25.999C27.416 51.7969 28.3648 52.2973 28.985 53.3717C29.1943 53.7342 29.5813 53.9576 29.9999 53.9576C30.4185 53.9576 30.8054 53.7342 31.0147 53.3717C31.635 52.2974 32.5839 51.7969 34.0008 51.7969H57.6559V54.7266H57.6561Z" fill="#FF73BB"/>
</g>
<defs>
<clipPath id="clip0_21_662">
<rect width="60" height="60" fill="white"/>
</clipPath>
</defs>
</svg>
