<svg width="60" height="60" viewBox="0 0 60 60" fill="none" xmlns="http://www.w3.org/2000/svg">
<path fill-rule="evenodd" clip-rule="evenodd" d="M27.2591 15.2596C26.5082 15.2596 25.7741 15.4823 25.1497 15.8995C24.5253 16.3167 24.0386 16.9097 23.7512 17.6035C23.4639 18.2973 23.3887 19.0607 23.5352 19.7972C23.6817 20.5337 24.0433 21.2103 24.5743 21.7413C25.1053 22.2723 25.7818 22.6339 26.5184 22.7804C27.2549 22.9269 28.0183 22.8517 28.7121 22.5643C29.4059 22.2769 29.9989 21.7903 30.4161 21.1659C30.8333 20.5415 31.056 19.8074 31.056 19.0565C31.056 18.5579 30.9578 18.0641 30.767 17.6035C30.5761 17.1428 30.2965 16.7242 29.9439 16.3717C29.5913 16.0191 29.1728 15.7394 28.7121 15.5486C28.2514 15.3578 27.7577 15.2596 27.2591 15.2596ZM45.143 36.583C45.3198 36.4123 45.5566 36.3178 45.8024 36.3199C46.0482 36.322 46.2834 36.4206 46.4572 36.5944C46.631 36.7683 46.7296 37.0034 46.7317 37.2492C46.7339 37.495 46.6394 37.7318 46.4686 37.9086L40.2253 44.1519C40.0495 44.3277 39.8111 44.4264 39.5625 44.4264C39.3139 44.4264 39.0755 44.3277 38.8997 44.1519L35.778 41.0303C35.6073 40.8535 35.5128 40.6167 35.5149 40.3709C35.5171 40.125 35.6156 39.8899 35.7895 39.7161C35.9633 39.5423 36.1984 39.4437 36.4442 39.4415C36.69 39.4394 36.9269 39.5339 37.1037 39.7047L39.5625 42.1634L45.143 36.583ZM41.1234 30.8438C39.2398 30.8438 37.3985 31.4023 35.8323 32.4488C34.2662 33.4953 33.0455 34.9827 32.3247 36.7229C31.6038 38.4631 31.4152 40.378 31.7827 42.2255C32.1502 44.0729 33.0572 45.7698 34.3892 47.1018C35.7211 48.4337 37.418 49.3407 39.2655 49.7082C41.1129 50.0757 43.0278 49.8871 44.768 49.1662C46.5082 48.4454 47.9956 47.2247 49.0421 45.6586C50.0886 44.0924 50.6471 42.2511 50.6471 40.3675C50.6471 37.8416 49.6437 35.4193 47.8576 33.6332C46.0716 31.8472 43.6492 30.8438 41.1233 30.8438H41.1234ZM46.532 34.959C45.4623 33.8893 44.0995 33.1607 42.6157 32.8656C41.132 32.5704 39.5941 32.7218 38.1964 33.3007C36.7988 33.8796 35.6041 34.8599 34.7637 36.1178C33.9232 37.3756 33.4746 38.8544 33.4746 40.3672C33.4746 41.88 33.9232 43.3589 34.7637 44.6167C35.6041 45.8746 36.7988 46.8549 38.1964 47.4338C39.5941 48.0127 41.132 48.1641 42.6157 47.8689C44.0995 47.5737 45.4623 46.8452 46.532 45.7754C47.9662 44.341 48.7719 42.3957 48.7719 40.3672C48.7719 38.3388 47.9662 36.3935 46.532 34.959ZM41.7452 23.0826C41.5752 22.9309 41.3556 22.8466 41.1278 22.8455C40.8999 22.8445 40.6796 22.9267 40.5081 23.0767C38.9781 24.4178 37.2912 25.5685 35.4844 26.5038C34.2225 25.1097 32.6273 24.0587 30.8484 23.4492C31.7117 22.7437 32.3481 21.7995 32.678 20.7345C33.008 19.6696 33.0169 18.531 32.7036 17.461C34.3655 16.2274 36.3374 15.4797 38.3994 15.3014C40.4614 15.123 42.5324 15.521 44.3814 16.451C46.2304 17.3809 47.7847 18.8063 48.871 20.568C49.9572 22.3297 50.5327 24.3586 50.5332 26.4283L50.4732 28.0619C47.2586 27.0062 44.29 25.3127 41.7452 23.0828V23.0826ZM52.3059 28.587C53.8165 28.9587 55.3582 29.1897 56.9114 29.2771C57.1382 29.2896 57.3527 29.3842 57.5149 29.5433C57.6771 29.7023 57.7759 29.9149 57.7929 30.1415H57.7939C58.3022 36.8288 56.7463 42.4273 54.1377 46.8608C50.8969 52.3687 46.0232 56.0699 41.4565 57.8269C41.2394 57.9103 40.9989 57.9093 40.7825 57.824C38.5587 56.9513 36.4758 55.7554 34.601 54.2748C32.3871 55.686 30.0395 56.8758 27.5924 57.8269C27.3754 57.9103 27.1351 57.9092 26.9188 57.8241C14.7241 53.1688 2.10938 40.3938 2.10938 26.428C2.10967 23.6497 2.99664 20.9441 4.6412 18.7048C6.28575 16.4655 8.60204 14.8096 11.2529 13.9779C10.1383 13.1564 9.31148 12.004 8.89041 10.6849C8.46934 9.3658 8.47552 7.94744 8.90805 6.63207C9.34058 5.3167 10.1774 4.17149 11.2991 3.35973C12.4209 2.54797 13.7703 2.11112 15.155 2.11147C16.5396 2.11183 17.8888 2.54937 19.0102 3.3617C20.1315 4.17403 20.9677 5.31967 21.3996 6.63526C21.8314 7.95085 21.8369 9.36921 21.4151 10.6881C20.9934 12.0069 20.166 13.159 19.0509 13.9799C20.3343 14.3818 21.5476 14.9801 22.6477 15.7535C23.1732 15.0213 23.8656 14.4248 24.6675 14.0133C25.4694 13.6019 26.3577 13.3872 27.259 13.3872C28.1603 13.3872 29.0486 13.6019 29.8505 14.0133C30.6524 14.4248 31.3447 15.0213 31.8703 15.7535C32.9705 14.98 34.1838 14.3817 35.4673 13.9798C34.3522 13.1589 33.5248 12.0068 33.103 10.6879C32.6813 9.36906 32.6867 7.95069 33.1186 6.63509C33.5505 5.31949 34.3867 4.17384 35.5081 3.36152C36.6294 2.54919 37.9786 2.11166 39.3633 2.11133C40.748 2.111 42.0974 2.54787 43.2191 3.35966C44.3409 4.17145 45.1777 5.3167 45.6102 6.63209C46.0427 7.94748 46.0488 9.36585 45.6277 10.6849C45.2066 12.004 44.3797 13.1565 43.265 13.9779C45.9158 14.8096 48.232 16.4657 49.8764 18.7049C51.5209 20.9442 52.4078 23.6498 52.408 26.428C52.408 27.1194 52.3729 27.8717 52.3057 28.587H52.3059ZM33.0989 53.0049C32.2583 53.5214 31.4129 53.9999 30.5626 54.4402C29.457 55.0128 28.3525 55.519 27.2596 55.9532C21.1481 53.5273 15.0164 49.043 10.5703 43.4372C6.59484 38.4243 3.98438 32.5248 3.98438 26.428C3.98438 23.4661 5.161 20.6255 7.2554 18.5311C9.3498 16.4367 12.1904 15.2601 15.1523 15.2601C17.5528 15.253 19.8907 16.0253 21.8146 17.461C21.5014 18.5306 21.5102 19.6689 21.8398 20.7336C22.1694 21.7983 22.8052 22.7424 23.668 23.4481C21.4755 24.1979 19.5723 25.6145 18.2247 27.4995C16.8771 29.3846 16.1525 31.6438 16.1524 33.961V37.7695C16.1524 38.0182 16.2512 38.2566 16.427 38.4325C16.6028 38.6083 16.8413 38.707 17.0899 38.707H24.9705C26.0997 44.2127 28.9454 49.2186 33.0986 53.0053L33.0989 53.0049ZM24.6445 36.832H18.0274V33.961C18.0277 32.1458 18.5629 30.3709 19.5662 28.8582C20.5695 27.3455 21.9964 26.162 23.6685 25.4557C25.3406 24.7493 27.1838 24.5515 28.9678 24.8868C30.7517 25.2222 32.3973 26.0758 33.6988 27.3412C33.6129 27.3772 33.5269 27.4129 33.441 27.448C30.8725 28.4971 28.1483 29.1143 25.3785 29.2746C25.1435 29.2767 24.9179 29.367 24.7464 29.5276C24.5749 29.6882 24.4701 29.9075 24.4527 30.1418C24.2761 32.3723 24.3404 34.6153 24.6445 36.832ZM48.1025 29.177C45.5794 28.1463 43.2266 26.7403 41.1237 25.0064C36.9006 28.4875 31.7216 30.607 26.2697 31.0854C26.0025 36.3666 27.0962 41.4565 29.7205 45.9164C31.1582 48.3592 33.0065 50.5356 35.1841 52.35C35.2325 52.3828 35.2777 52.4202 35.319 52.4615C37.0685 53.9087 39.0251 55.0854 41.1237 55.9521C45.2448 54.2794 49.5963 50.8963 52.5268 45.9165C54.8517 41.9656 56.2768 37.004 55.9777 31.0855C53.2717 30.8485 50.6169 30.2052 48.1027 29.1771L48.1025 29.177ZM15.1533 3.98639C13.907 3.98639 12.7117 4.48148 11.8304 5.36276C10.9492 6.24403 10.4541 7.43929 10.4541 8.68561C10.4541 11.2675 12.5037 13.3504 15.1533 13.3848C15.7704 13.3848 16.3815 13.2633 16.9516 13.0271C17.5217 12.791 18.0398 12.4448 18.4761 12.0085C18.9125 11.5721 19.2586 11.0541 19.4948 10.4839C19.731 9.91378 19.8525 9.30271 19.8525 8.68561C19.8525 8.06849 19.731 7.45743 19.4948 6.88729C19.2586 6.31716 18.9125 5.79912 18.4761 5.36276C18.0398 4.92639 17.5217 4.58025 16.9516 4.34409C16.3815 4.10794 15.7704 3.98639 15.1533 3.98639ZM39.3628 13.3848C40.2923 13.3853 41.2011 13.11 41.9742 12.5939C42.7472 12.0779 43.3499 11.3441 43.7059 10.4855C44.0619 9.62683 44.1553 8.6819 43.9742 7.7702C43.7932 6.85849 43.3458 6.02096 42.6887 5.36354C42.0316 4.70612 41.1943 4.25835 40.2826 4.07684C39.371 3.89534 38.426 3.98827 37.5672 4.34388C36.7084 4.69949 35.9744 5.3018 35.4579 6.07463C34.9415 6.84746 34.6658 7.75609 34.6658 8.68561C34.6659 9.93157 35.1608 11.1265 36.0416 12.0077C36.9225 12.8889 38.1173 13.3841 39.3633 13.3846L39.3628 13.3848Z" fill="#3AC9FF"/>
</svg>
