<svg width="26" height="26" viewBox="0 0 26 26" fill="none" xmlns="http://www.w3.org/2000/svg">
<g clip-path="url(#clip0_104_77)">
<path d="M20.4348 10.462L24.5447 8.48311C25.0497 8.23996 25.6562 8.45226 25.8993 8.95723C26.1424 9.46219 25.9302 10.0687 25.4252 10.3118L21.3153 12.2907C20.8215 12.5316 20.2046 12.3266 19.9606 11.8165C19.7175 11.3116 19.9298 10.7051 20.4348 10.462ZM15.2864 10.7239C15.6827 11.1202 16.3252 11.1202 16.7215 10.7239L23.3685 4.07693C23.7648 3.68065 23.7648 3.03808 23.3685 2.64179C22.9722 2.24546 22.3296 2.24546 21.9333 2.64179L15.2864 9.28876C14.8901 9.68504 14.8901 10.3276 15.2864 10.7239ZM25.0121 23.662C25.0123 23.6618 25.0126 23.6615 25.0131 23.661C25.0128 23.6613 25.0125 23.6617 25.0121 23.662ZM25.0121 23.662L25.012 23.6621C25.012 23.6621 25.0121 23.6621 25.0121 23.662ZM24.8188 18.3029C22.1968 15.7624 19.5246 14.4635 16.7872 17.0388C16.7852 17.0408 16.7833 17.0426 16.7814 17.0446L15.4093 18.4063C14.5519 17.923 12.8329 16.7802 11.0314 14.9788C9.22975 13.1771 8.08672 11.4576 7.60388 10.6011L8.96569 9.22899C8.96762 9.22706 8.96955 9.22508 8.97143 9.22316C11.5464 6.48369 10.2485 3.81572 7.70734 1.19159C7.00935 0.46783 6.07157 0.0492736 5.06671 0.0129944C4.0616 -0.0231327 3.09637 0.326721 2.34795 0.998471C-2.57568 6.34563 0.995318 14.649 6.15443 19.8559C6.15763 19.8592 6.16093 19.8624 6.16417 19.8656C6.88205 20.5825 7.69729 21.292 8.58738 21.9744C9.03211 22.3155 9.66911 22.2314 10.0102 21.7866C10.3512 21.3418 10.2671 20.7048 9.82234 20.3638C8.99847 19.7321 8.24726 19.0783 7.58957 18.4206C7.58647 18.4175 7.58338 18.4145 7.58028 18.4114C4.13583 14.963 2.06868 10.7289 2.05051 7.08309C2.04102 5.19174 2.61002 3.61306 3.69607 2.51576L3.70383 2.50875C4.44149 1.8467 5.55828 1.88693 6.24632 2.60049C8.8737 5.32514 8.68343 6.61146 7.52249 7.80197L5.64135 9.69722C5.34634 9.99446 5.26419 10.4424 5.43458 10.825C6.98936 14.2768 11.8126 19.0623 15.1854 20.5757C15.5681 20.7461 16.0159 20.664 16.3132 20.369L18.2081 18.4881C19.3988 17.3269 20.6852 17.1364 23.41 19.7639C24.1235 20.452 24.1638 21.5688 23.5012 22.307L23.4944 22.3145C22.3971 23.4004 20.8196 23.9704 18.9273 23.9597C17.432 23.9523 15.7003 23.5424 13.9198 22.7743C13.4053 22.5524 12.808 22.7896 12.586 23.3043C12.364 23.8189 12.6013 24.416 13.1159 24.638C15.1741 25.5258 17.1259 25.9804 18.9172 25.9894C21.3588 26.005 23.5259 25.1521 25.0121 23.6622C25.6837 22.9139 26.0337 21.9484 25.9974 20.9436C25.9611 19.9387 25.5426 19.0009 24.8188 18.3029ZM14.1937 6.04961C14.6875 6.29057 15.3044 6.08558 15.5483 5.57549L17.5272 1.46553C17.7703 0.960568 17.558 0.35407 17.0531 0.110974C16.5479 -0.132224 15.9416 0.0801237 15.6985 0.58509L13.7196 4.69505C13.4765 5.20001 13.6887 5.80646 14.1937 6.04961Z" fill="white"/>
</g>
<defs>
<clipPath id="clip0_104_77">
<rect width="26" height="26" fill="white"/>
</clipPath>
</defs>
</svg>
