<svg width="20" height="20" viewBox="0 0 20 20" fill="none" xmlns="http://www.w3.org/2000/svg">
<path d="M9.42656 0.937698L7.45745 4.80286C7.23573 5.23864 6.75832 5.4816 6.27496 5.40514L1.991 4.72726C0.348938 4.46732 -0.66705 6.46022 0.508641 7.63592L3.57614 10.7026C3.92188 11.0483 4.00598 11.5775 3.78341 12.0133L1.8143 15.8785C1.05911 17.36 2.6417 18.9417 4.12321 18.1865L7.98753 16.2174C8.42332 15.9957 8.95255 16.079 9.29829 16.4247L12.3658 19.4914C13.5415 20.667 15.5352 19.6511 15.2744 18.009L14.5957 13.725C14.5192 13.2417 14.7622 12.7651 15.198 12.5425L19.0623 10.5734C20.5438 9.81823 20.1938 7.60872 18.5509 7.34878L14.2669 6.67088C13.7836 6.59443 13.4056 6.21555 13.3291 5.73305L12.6504 1.44908C12.3904 -0.193828 10.1809 -0.542958 9.42656 0.937698Z" fill="#385469"/>
<path d="M3.37417 14.2143C3.37417 14.2143 1.55966 16.9666 2.84154 17.5766L3.37417 14.2143Z" fill="#385469"/>
<path d="M3.37417 14.2143C3.37417 14.2143 1.55966 16.9666 2.84154 17.5766" stroke="white" stroke-width="0.2651" stroke-miterlimit="10" stroke-linecap="round" stroke-linejoin="round"/>
<path d="M4.70868 5.78241C4.70868 5.78241 1.29374 4.66788 0.678711 5.78071L4.70868 5.78241Z" fill="#385469"/>
<path d="M4.70868 5.78241C4.70868 5.78241 1.29374 4.66788 0.678711 5.78071" stroke="white" stroke-width="0.2651" stroke-miterlimit="10" stroke-linecap="round" stroke-linejoin="round"/>
<path d="M11.1104 0.742396C11.1104 0.742396 9.63313 0.137565 8.81763 3.61367L11.1104 0.742396Z" fill="#385469"/>
<path d="M11.1104 0.742396C11.1104 0.742396 9.63313 0.137565 8.81763 3.61367" stroke="white" stroke-width="0.2651" stroke-miterlimit="10" stroke-linecap="round" stroke-linejoin="round"/>
</svg>
