<svg width="20" height="12" viewBox="0 0 20 12" fill="none" xmlns="http://www.w3.org/2000/svg">
<path opacity="0.9" d="M10.4774 0.235759C10.4487 0.324553 10.3906 0.402212 10.3481 0.413602C10.304 0.42543 10.2773 0.456726 10.2855 0.487308C10.2933 0.516281 10.3488 0.527283 10.4093 0.511075C10.5025 0.486104 10.5283 0.517135 10.5826 0.719945C10.6417 0.940461 10.6355 0.962843 10.5004 1.01457C10.4053 1.05212 10.3572 1.10813 10.3643 1.18041C10.3684 1.24142 10.334 1.34206 10.2881 1.40612C10.1503 1.59142 10.2829 1.6939 10.5608 1.61943C10.7685 1.5638 10.7948 1.57054 10.7965 1.66842C10.7974 1.73719 10.7445 1.80139 10.6604 1.83426C10.5511 1.87737 10.5243 1.92768 10.5305 2.08819C10.5331 2.19616 10.5645 2.33956 10.5969 2.40161C10.647 2.49688 10.6947 2.50481 10.9023 2.44917C11.1802 2.3747 11.2364 2.43384 11.0421 2.59804C10.8851 2.73154 10.887 2.90872 11.0482 2.96732C11.1125 2.9915 11.144 3.01756 11.1162 3.025C10.9858 3.06166 7.91168 4.06651 6.70981 4.46619C4.75651 5.11551 0.833326 6.46345 0.706254 6.532C0.568169 6.60523 0.554488 6.75036 0.680957 6.82344C0.755772 6.86722 0.865923 6.85323 1.09007 6.7742C1.37014 6.675 1.36162 6.68245 0.982544 6.86339C0.458749 7.11242 0.329631 7.21258 0.386933 7.32834C0.446732 7.44688 0.615811 7.39122 2.1474 6.73758C2.85508 6.43582 3.69855 6.10458 4.02449 6L4.61674 5.81025L3.82602 6.12908C3.13976 6.40613 1.19348 7.27784 0.66909 7.54429C0.534616 7.61137 0.49592 7.66314 0.517484 7.74362C0.554144 7.88044 0.574967 7.87314 2.06437 7.19285C2.75096 6.87777 3.76743 6.44669 4.31999 6.23307C5.4431 5.80102 8.64137 4.72323 9.27788 4.5613L9.68833 4.45822L9.37386 4.59251C8.9089 4.79301 5.09656 6.27342 2.9412 7.09074C1.48743 7.64244 1.01343 7.84191 0.868238 7.96707C0.658096 8.14414 0.511023 8.43887 0.605637 8.49115C0.675888 8.53099 2.90595 7.7178 6.77699 6.24064C8.52089 5.57497 9.57131 5.19862 9.73593 5.17866L9.99066 5.14836L9.69975 5.26599C9.54024 5.33116 7.89002 5.94758 6.03486 6.63616C4.17969 7.32474 2.34991 8.00998 1.97038 8.15653C1.58964 8.30512 1.13439 8.46334 0.949641 8.51284C0.601404 8.60615 0.351684 8.799 0.55334 8.81915C0.605497 8.82415 1.91439 8.35957 3.46221 7.78612C7.37991 6.33269 8.39981 6.00592 5.658 7.08045C4.87004 7.38992 4.01935 7.73344 3.75873 7.8464C3.50019 7.96054 2.67453 8.27321 1.92784 8.54056C-0.077056 9.25891 -0.0191519 9.23305 0.00737745 9.41053C0.0361536 9.60294 0.137448 9.60168 0.658264 9.40692C0.997443 9.27981 1.08418 9.26347 1.14154 9.32056C1.20139 9.38043 1.26549 9.35808 1.65892 9.1457C2.26821 8.81682 2.25557 8.82193 5.04588 7.85C9.12032 6.4322 9.55641 6.31362 6.35338 7.49793C3.60956 8.51261 1.19343 9.46192 1.13023 9.55303C1.10246 9.59325 0.971685 9.66107 0.838575 9.70709C0.602555 9.78758 0.598944 9.79373 0.648112 9.97722L0.698573 10.1655L1.20074 10.0189L1.70128 9.87272L1.79547 10.0804C1.84657 10.1926 1.92581 10.2922 1.9673 10.2966C2.01041 10.3005 3.02504 9.94758 4.21786 9.51411C6.92925 8.52882 9.53328 7.6137 10.483 7.31265C10.882 7.18674 11.3173 7.03905 11.4471 6.98703C11.6258 6.915 11.6737 6.91078 11.6405 6.96972C11.6144 7.01638 10.5804 7.42112 9.0488 7.98331C4.41496 9.68729 1.45554 10.8063 1.40231 10.8758C1.37367 10.9128 1.38279 11.0449 1.42211 11.1655C1.47902 11.3452 1.51605 11.3853 1.61269 11.3732C1.6774 11.3662 3.98267 10.5329 6.72821 9.52463C9.47376 8.51639 11.8504 7.65528 12.0049 7.61045C12.1953 7.55597 12.3339 7.5499 12.4415 7.5918C12.62 7.663 12.8204 7.92675 12.8739 8.15911C12.8934 8.2453 12.9699 8.35419 13.044 8.40163C13.118 8.44907 13.2257 8.55652 13.2842 8.64433C13.38 8.78601 13.3799 8.80503 13.2818 8.83131C13.2213 8.84752 13.1686 8.89958 13.1644 8.94903C13.1502 9.08567 13.3241 9.17882 13.4552 9.10573C13.548 9.05325 13.5864 9.07229 13.6851 9.21836C13.7964 9.38521 13.8133 9.38931 14.0026 9.31099C14.1649 9.24334 14.213 9.24599 14.2566 9.324C14.3255 9.44357 14.5385 9.3951 14.5539 9.25641C14.5598 9.19965 14.5225 9.14579 14.4566 9.12205C14.363 9.08674 14.3887 9.04535 14.6664 8.79326C14.8395 8.63475 15.1033 8.45537 15.2469 8.39619C15.3938 8.33613 15.5499 8.26496 15.6012 8.23397C15.6964 8.1774 15.6742 8.01601 15.561 7.95319C15.5073 7.92273 15.5326 7.87973 15.6473 7.80415C15.7367 7.74567 15.8553 7.68457 15.9125 7.66924C16.0073 7.64383 16.0209 7.58327 15.9608 7.4441C15.9464 7.41 16.0319 7.33016 16.1541 7.26293C16.6041 7.01985 16.6276 6.99631 16.6024 6.82365C16.5893 6.73571 16.6193 6.6121 16.671 6.54994C17.3887 5.67101 17.6968 5.36246 17.9657 5.25419C18.266 5.13232 18.4251 4.94133 18.3311 4.81297C18.2785 4.74081 18.4646 4.45458 18.584 4.4226C18.6134 4.41472 18.7131 4.29655 18.8004 4.16448C19.113 3.69602 19.8075 2.82849 19.886 2.80746C20.0593 2.76102 19.9105 2.618 19.5482 2.48219C19.2502 2.37055 19.1583 2.30891 19.1336 2.2034C19.1057 2.07976 19.0863 2.07287 18.9091 2.13072C18.7592 2.17951 18.6556 2.16585 18.4477 2.06976C17.522 1.63636 15.0026 0.905416 12.5916 0.369704C12.1629 0.274089 11.7682 0.167665 11.7189 0.134281C11.6697 0.100897 11.5567 0.0914751 11.4685 0.115131C11.3704 0.141416 11.2479 0.122478 11.1557 0.0661021C10.9221 -0.0731576 10.5509 0.0194087 10.4774 0.235759ZM11.6237 0.472056C11.704 0.497116 11.707 0.508383 11.6411 0.550193C11.4719 0.657641 11.0153 0.811026 11.0024 0.762738C10.992 0.724108 11.0869 0.665927 11.5053 0.455461C11.5192 0.448299 11.5722 0.45652 11.6237 0.472056ZM12.5141 0.623361C12.6987 0.658424 12.8568 0.705763 12.8633 0.729907C12.8698 0.754051 12.7899 0.796146 12.6869 0.823745C12.5349 0.864486 12.4896 0.852465 12.4502 0.757784C12.4151 0.672322 12.3594 0.647567 12.2468 0.665651C12.1629 0.679507 12.0991 0.663819 12.1086 0.633684C12.1321 0.551472 12.1321 0.551472 12.5141 0.623361ZM13.3624 0.846334C13.3658 0.859211 13.3198 0.883621 13.2593 0.899829C13.1988 0.916038 13.1398 0.892159 13.1273 0.845481C13.1096 0.779487 13.1296 0.768963 13.2304 0.791986C13.2995 0.807969 13.3589 0.833458 13.3624 0.846334ZM13.8571 0.946665C13.8601 0.957933 13.8104 0.981608 13.7515 0.997379C13.691 1.01359 13.6486 0.999082 13.6588 0.96529C13.6753 0.909116 13.8429 0.893548 13.8571 0.946665ZM12.1821 2.11143C12.0246 2.17777 11.7935 2.25695 11.6738 2.28732L11.4554 2.34236L11.663 2.24708C11.7767 2.19417 12.0078 2.11499 12.1713 2.07119L12.4721 1.99058L12.1821 2.11143ZM16.1386 1.52225C16.811 1.71646 17.5822 1.97904 17.5926 2.01767C17.6133 2.09493 17.3817 2.07418 17.3359 1.99501C17.2999 1.93222 17.2121 1.9057 17.0753 1.91821C16.9606 1.92824 16.861 1.90317 16.8498 1.86132C16.8131 1.72451 16.5872 1.73156 15.869 1.88949C15.1954 2.0372 15.151 2.0543 15.1388 2.15934C15.1225 2.32071 15.0567 2.37627 14.8102 2.43715L14.5915 2.49059L14.7608 2.39002C14.8577 2.33301 14.9303 2.24453 14.9299 2.18425C14.9306 2.10817 15.0015 2.04603 15.1745 1.97209C15.3111 1.91305 15.4421 1.83309 15.4728 1.79038C15.5461 1.69137 15.473 1.46426 15.365 1.45353C15.3165 1.44926 15.2828 1.41515 15.2931 1.38136C15.319 1.29505 15.4164 1.31207 16.1386 1.52225ZM15.0065 1.54785C14.9788 1.59495 13.8057 2.06282 12.9741 2.35983C11.6881 2.81828 11.9882 2.64988 13.4106 2.11177C14.8811 1.5573 15.0318 1.50485 15.0065 1.54785ZM11.9801 2.71762C11.9328 2.74408 11.8319 2.77285 11.7618 2.77954C11.6918 2.78623 11.7313 2.76358 11.8518 2.72955C11.9707 2.69596 12.0289 2.69073 11.9801 2.71762ZM14.2095 2.64123C14.1145 2.67879 13.9559 2.72128 13.8548 2.7363C13.7536 2.75131 13.8295 2.72063 14.0257 2.66806C14.2235 2.61505 14.3046 2.60368 14.2095 2.64123ZM13.2884 2.96395C13.0701 3.04489 12.7408 3.15035 12.5622 3.19649L12.2344 3.28089L12.6083 3.14619C12.8161 3.07153 13.1371 2.96826 13.3345 2.91364L13.6884 2.81536L13.2884 2.96395ZM12.0161 3.40148C11.9807 3.42648 11.9104 3.44532 11.8526 3.44529C11.7948 3.44526 11.8208 3.4245 11.9139 3.39952C12.0076 3.37616 12.0515 3.37648 12.0161 3.40148ZM5.02803 5.67762C4.99268 5.70262 4.92238 5.72145 4.86454 5.72142C4.80628 5.71978 4.83269 5.70063 4.92588 5.67566C5.01907 5.65069 5.06296 5.65101 5.02803 5.67762ZM9.99163 4.34762C9.95628 4.37262 9.88598 4.39146 9.82814 4.39143C9.76988 4.38979 9.79629 4.37064 9.88948 4.34567C9.98103 4.32114 10.0249 4.32145 9.99163 4.34762ZM18.3215 2.27262C18.437 2.3176 18.4362 2.32126 18.3373 2.38397C18.2788 2.42037 18.1776 2.42851 18.1001 2.40097C17.9707 2.35628 17.9694 2.35145 18.059 2.29985C18.109 2.27091 18.1644 2.24226 18.1787 2.23671C18.193 2.23115 18.2568 2.24684 18.3215 2.27262ZM11.497 4.13231C11.4318 4.19636 11.0722 4.33238 10.9399 4.34197C10.828 4.34952 11.138 4.18538 11.3496 4.12521C11.4947 4.08461 11.5439 4.08522 11.497 4.13231ZM17.0765 2.94953C17.0489 2.99663 16.1948 3.36693 14.2754 4.16243C13.2866 4.57231 12.4625 4.91043 12.4478 4.91438C12.433 4.91832 12.421 4.87325 12.4197 4.80975C12.4193 4.7426 12.475 4.67591 12.559 4.64303C12.6541 4.60548 12.6888 4.55824 12.6671 4.49678C12.6479 4.44498 12.6551 4.39992 12.6829 4.39247C12.7091 4.38546 13.2207 4.2087 13.8131 3.99993C14.4059 3.79278 15.3207 3.48557 15.8378 3.32285C16.3545 3.15852 16.8504 3.0015 16.9374 2.97301C17.0227 2.94497 17.0866 2.93476 17.0765 2.94953ZM19.2199 2.59087L19.6129 2.72363L19.508 2.85525C19.4124 2.97576 19.3993 2.97926 19.3589 2.90038C19.2843 2.75301 19.1417 2.73085 18.8928 2.8286C18.6663 2.9186 18.6589 2.91714 18.6294 2.76116C18.6088 2.658 18.6336 2.58062 18.6979 2.53925C18.7532 2.50372 18.804 2.47112 18.813 2.46528C18.8207 2.46148 19.0003 2.51687 19.2199 2.59087ZM11.249 4.58003C11.2357 4.60255 11.1887 4.61687 11.1473 4.61246C11.0984 4.60658 11.1068 4.59224 11.1713 4.5715C11.2249 4.55544 11.261 4.55955 11.249 4.58003ZM7.56674 6.31713C7.51951 6.34358 7.41858 6.37235 7.35016 6.37861C7.28011 6.3853 7.3196 6.36265 7.43852 6.32906C7.55907 6.29503 7.61561 6.29023 7.56674 6.31713ZM15.5251 4.18297C15.5118 4.2055 15.4649 4.21981 15.4234 4.2154C15.3749 4.21113 15.3829 4.19519 15.4474 4.17445C15.5005 4.15677 15.5383 4.16045 15.5251 4.18297ZM19.1192 3.32689C19.0138 3.4569 18.9381 3.50134 18.8429 3.49237C18.6971 3.47795 18.6146 3.51039 15.9069 4.62063C13.7696 5.49868 13.6835 5.53039 13.6641 5.45796C13.6507 5.40806 15.828 4.48306 17.5211 3.81722C19.4597 3.0545 19.3025 3.10182 19.1192 3.32689ZM15.1891 4.33511C15.1537 4.36011 15.0834 4.37894 15.0256 4.37891C14.9678 4.37888 14.9937 4.35812 15.0869 4.33315C15.1789 4.31023 15.2244 4.3101 15.1891 4.33511ZM14.7942 4.49613C14.7441 4.52507 14.6623 4.54698 14.6029 4.54739C14.5471 4.54853 14.5882 4.52543 14.6912 4.49783C14.7959 4.4698 14.843 4.46924 14.7942 4.49613ZM14.1261 4.78211C13.6829 4.98539 13.5167 5.04544 13.5545 4.98357C13.5862 4.93194 14.0753 4.72327 14.325 4.65463C14.4296 4.6266 14.3381 4.6839 14.1261 4.78211ZM13.3764 5.10374C13.3632 5.12627 13.3162 5.14058 13.2747 5.13617C13.2262 5.1319 13.2342 5.11596 13.2988 5.09522C13.3519 5.07754 13.388 5.08166 13.3764 5.10374ZM13.0034 5.28131C12.775 5.4098 12.6001 5.45667 12.6213 5.38543C12.6315 5.35164 12.7546 5.2945 12.8977 5.2596C13.1279 5.2031 13.139 5.2053 13.0034 5.28131ZM11.6087 5.92244C11.5954 5.94496 11.5484 5.95928 11.507 5.95487C11.4581 5.94899 11.4665 5.93466 11.531 5.91391C11.5841 5.89624 11.6203 5.90035 11.6087 5.92244ZM11.2327 6.08874C11.1434 6.1282 11.0539 6.18667 11.0241 6.22572C10.9954 6.26272 10.496 6.45866 9.91369 6.65953C7.86352 7.36587 7.68264 7.39708 9.36657 6.7561C10.3 6.40077 11.1367 6.0903 11.2266 6.06621L11.3901 6.0224L11.2327 6.08874ZM16.2061 4.97865C16.1929 5.00118 16.1459 5.01549 16.1044 5.01108C16.0555 5.0052 16.064 4.99087 16.1285 4.97013C16.1816 4.95245 16.2194 4.95613 16.2061 4.97865ZM15.8162 5.14524C15.7825 5.1698 15.722 5.18601 15.6805 5.1816C15.639 5.17719 15.665 5.15643 15.7418 5.13584C15.8175 5.1173 15.8499 5.12068 15.8162 5.14524ZM15.4483 5.30248C15.4134 5.32909 15.3431 5.34793 15.2848 5.34629C15.227 5.34626 15.253 5.32549 15.3461 5.30052C15.4377 5.27599 15.4832 5.27587 15.4483 5.30248ZM7.5005 7.48902C7.43812 7.5178 7.32368 7.54847 7.25526 7.55473C7.18358 7.56186 7.23658 7.53731 7.37227 7.50095C7.50961 7.46415 7.56615 7.45935 7.5005 7.48902ZM15.026 5.47256C14.9907 5.49756 14.9204 5.5164 14.8625 5.51637C14.8047 5.51634 14.8307 5.49558 14.9239 5.47061C15.017 5.44564 15.0614 5.44756 15.026 5.47256ZM6.88813 7.7083C6.8409 7.73476 6.73996 7.76353 6.66991 7.77023C6.59986 7.77692 6.63935 7.75426 6.7599 7.72024C6.87839 7.68504 6.93656 7.6798 6.88813 7.7083ZM10.8339 6.67347C10.6437 6.74858 10.1283 6.91773 9.67976 7.05517C9.23077 7.19101 8.97615 7.26096 9.10797 7.21011C9.52631 7.05144 10.622 6.68711 10.9048 6.61133C11.1599 6.54299 11.1558 6.54752 10.8339 6.67347ZM14.6593 5.62775C14.624 5.65275 14.5537 5.67159 14.4958 5.67156C14.438 5.67153 14.464 5.65076 14.5572 5.62579C14.6491 5.60287 14.693 5.60319 14.6593 5.62775ZM6.3563 7.90774C6.30907 7.9342 6.20813 7.96297 6.13972 7.96922C6.06967 7.97592 6.10916 7.95326 6.22808 7.91967C6.34863 7.88564 6.4068 7.88041 6.3563 7.90774ZM14.2644 5.78877C14.2143 5.81772 14.1326 5.83962 14.0731 5.84003C14.0173 5.84117 14.0585 5.81808 14.1615 5.79048C14.2661 5.76244 14.3116 5.76232 14.2644 5.78877ZM5.79918 8.1174C5.7368 8.14619 5.62235 8.17686 5.55394 8.18311C5.48225 8.19024 5.53525 8.16569 5.67095 8.12933C5.80665 8.09297 5.86482 8.08773 5.79918 8.1174ZM13.5946 6.07519C13.1735 6.26912 12.9302 6.35502 12.9639 6.29769C12.9915 6.25059 13.5602 6.01197 13.7935 5.94771C13.8982 5.91968 13.8083 5.97654 13.5946 6.07519ZM5.26898 8.3164C5.2066 8.34519 5.09216 8.37585 5.02374 8.38211C4.95206 8.38924 5.00506 8.36469 5.14076 8.32833C5.27645 8.29197 5.33299 8.28717 5.26898 8.3164ZM8.67614 7.40345C8.56472 7.44538 8.38488 7.49357 8.26741 7.51297C8.15322 7.53149 8.24219 7.4973 8.46617 7.43728C8.69016 7.37727 8.78593 7.36196 8.67614 7.40345ZM4.79154 8.50298C4.72752 8.53221 4.60327 8.56551 4.51851 8.57614C4.43047 8.58765 4.48347 8.5631 4.63552 8.52236C4.78877 8.47957 4.85675 8.47171 4.79154 8.50298ZM7.73765 7.71357C7.67527 7.74236 7.56083 7.77303 7.49242 7.77929C7.42073 7.78642 7.47373 7.76186 7.60943 7.7255C7.74469 7.68753 7.80123 7.68274 7.73765 7.71357ZM3.98731 8.82371C3.77325 8.92075 3.3161 9.09154 2.97708 9.19964L2.35704 9.39683L3.12246 9.08822C4.05024 8.71196 4.59319 8.5475 3.98731 8.82371ZM3.4495 9.38013C3.41415 9.40513 3.34384 9.42397 3.28601 9.42394C3.22818 9.42391 3.25415 9.40315 3.34734 9.37818C3.4389 9.35364 3.48322 9.35557 3.4495 9.38013ZM16.5923 6.24324C16.5487 6.29633 16.4693 6.34004 16.4135 6.34118C16.3594 6.34188 16.0467 6.45672 15.7163 6.597C15.3876 6.73685 14.778 6.95365 14.3609 7.0775L13.603 7.30301L14.4275 6.99926C14.8786 6.83183 15.5258 6.58593 15.8605 6.45486C16.7206 6.11397 16.6928 6.12142 16.5923 6.24324ZM13.2469 7.83143C13.2611 7.88455 13.1083 7.95484 13.0659 7.91444C13.0401 7.89028 13.0696 7.8565 13.1301 7.84029C13.1902 7.82248 13.2439 7.82016 13.2469 7.83143ZM15.2871 7.64361C15.237 7.67255 15.1553 7.69445 15.0958 7.69486C15.04 7.696 15.0811 7.67291 15.1841 7.64531C15.2888 7.61727 15.3359 7.61671 15.2871 7.64361ZM14.8648 7.81369C14.8147 7.84263 14.733 7.86453 14.6735 7.86494C14.6177 7.86608 14.6589 7.84299 14.7619 7.81539C14.8665 7.78735 14.9136 7.78679 14.8648 7.81369ZM14.4172 7.994C14.3532 8.02323 14.2289 8.05652 14.1442 8.06716C14.0578 8.07823 14.1091 8.05412 14.2612 8.01338C14.4132 7.97264 14.4812 7.96477 14.4172 7.994ZM13.8041 8.21695C13.7253 8.25012 13.5896 8.28648 13.5049 8.29711C13.4201 8.30775 13.4862 8.27969 13.6497 8.23589C13.8111 8.19091 13.8828 8.18378 13.8041 8.21695ZM15.0074 8.11706C14.9745 8.17074 14.0474 8.56923 13.7977 8.63787C13.4237 8.7398 13.5642 8.59693 13.9863 8.44587C14.2104 8.36683 14.4443 8.27829 14.5026 8.25403C14.6939 8.17001 15.0303 8.07815 15.0074 8.11706ZM14.1324 8.95187C13.9185 9.1541 13.8249 9.17747 13.9963 8.98662C14.0731 8.90049 14.1673 8.82694 14.2135 8.81629C14.2585 8.80768 14.2207 8.86955 14.1324 8.95187Z" fill="white"/>
</svg>
