<svg width="13" height="12" viewBox="0 0 13 12" fill="none" xmlns="http://www.w3.org/2000/svg">
<path d="M4.56156 12.0001C4.50174 12.0001 4.4423 11.9722 4.40501 11.9205C4.34674 11.8409 4.35762 11.7294 4.43065 11.6626L4.55185 11.5519L4.01422 11.8619C3.92682 11.9127 3.81494 11.8867 3.75745 11.8048C3.69996 11.7212 3.71589 11.6082 3.79397 11.5437L5.04869 10.5123L3.48126 11.4175C3.39191 11.4695 3.27693 11.4419 3.2206 11.3545C3.16428 11.2671 3.18681 11.1514 3.27149 11.0911L4.3211 10.3445L3.10834 11.0445C3.01822 11.0977 2.90245 11.0686 2.84652 10.9797C2.79097 10.8911 2.81544 10.7745 2.90207 10.7155L3.99402 9.9743L2.75445 10.6902C2.67093 10.7396 2.56333 10.7182 2.50351 10.6405C2.44407 10.5632 2.45107 10.4537 2.52021 10.3849L3.11649 9.78939L2.31549 10.2513C2.23314 10.2991 2.12748 10.2796 2.06727 10.2054C2.00706 10.1312 2.01017 10.024 2.07426 9.95333L2.80262 9.14765L1.79379 9.72996C1.70756 9.78046 1.59607 9.75599 1.53819 9.67402C1.48031 9.59205 1.49429 9.47979 1.57043 9.41414L1.74834 9.26147L1.4807 9.41569C1.39757 9.46464 1.29035 9.44366 1.23053 9.36713C1.17071 9.29099 1.17615 9.18222 1.24374 9.11269L1.89013 8.44297L1.01338 8.94914C0.929475 8.99809 0.821095 8.97711 0.76205 8.89864C0.703004 8.82134 0.710385 8.71179 0.779919 8.64303L1.34707 8.08325L0.58802 8.52144C0.50489 8.57 0.397676 8.54941 0.337853 8.47288C0.278419 8.39675 0.283469 8.28798 0.350672 8.21883L0.992406 7.55261L0.291238 7.95739C0.212381 8.00401 0.111771 7.98769 0.0500058 7.91932C-0.0113706 7.85134 -0.0168088 7.74956 0.0367984 7.67537L0.502171 7.03207L0.491294 7.03828C0.398453 7.09189 0.279196 7.06043 0.225977 6.96719C0.171982 6.87435 0.203835 6.75548 0.297065 6.70187L1.09496 6.24115C1.17382 6.19493 1.27443 6.21085 1.33619 6.27922C1.39757 6.3472 1.40301 6.44898 1.3494 6.52318L0.884414 7.16609L1.99074 6.52745C2.07387 6.47889 2.18109 6.49948 2.24091 6.57601C2.30034 6.65215 2.29529 6.76092 2.22809 6.83007L1.58636 7.49628L2.46389 6.98972C2.5474 6.94 2.65578 6.96176 2.71522 7.04023C2.77426 7.11753 2.76688 7.22708 2.69735 7.29584L2.1302 7.85561L2.89313 7.41509C2.97587 7.36615 3.08348 7.38712 3.1433 7.46365C3.20312 7.53979 3.19768 7.64856 3.13009 7.7181L2.48331 8.3882L3.36278 7.88048C3.44979 7.82998 3.56089 7.85484 3.61838 7.93641C3.67626 8.01838 3.66228 8.13065 3.58614 8.1963L3.40862 8.34896L3.67782 8.19358C3.75978 8.14541 3.86544 8.16483 3.92604 8.23942C3.98625 8.31361 3.98315 8.42083 3.91905 8.49153L3.1903 9.29721L4.20224 8.71334C4.28575 8.6644 4.39413 8.68576 4.45318 8.76307C4.51261 8.84037 4.50562 8.94992 4.43648 9.01868L3.84058 9.61381L8.41545 6.97263C8.50635 6.9198 8.62134 6.94855 8.67727 7.03751C8.73282 7.12608 8.70835 7.24262 8.62172 7.30166L7.53132 8.04169L7.67583 7.95817C7.7644 7.90573 7.87938 7.93408 7.93648 8.0211C7.99281 8.10851 7.97028 8.22427 7.8856 8.28448L6.83792 9.02994L6.89775 8.99537C6.98476 8.94409 7.09703 8.97012 7.15452 9.05248C7.21201 9.136 7.19608 9.24904 7.118 9.31352L5.86212 10.3457L5.90252 10.3224C5.98798 10.2726 6.09752 10.2952 6.15618 10.376C6.21445 10.4556 6.20357 10.5671 6.13054 10.6339L5.50007 11.2104C5.51017 11.2213 5.51989 11.2337 5.52727 11.2473C5.58126 11.3401 5.54941 11.459 5.45618 11.5126L4.65829 11.9733C4.62799 11.9912 4.59458 11.9994 4.56117 11.9994L4.56156 12.0001Z" fill="#F39F5F"/>
<path d="M4.75662 8.49776C4.69252 8.49776 4.62998 8.46591 4.59269 8.40803C4.53675 8.32023 4.56006 8.20447 4.64513 8.14465L7.10523 6.42025L5.84818 7.1459C5.75767 7.19874 5.64308 7.16999 5.58714 7.08181C5.5312 6.99402 5.55451 6.87786 5.64036 6.81843L7.88215 5.25835L6.79136 5.88805C6.7024 5.94011 6.58742 5.91214 6.53148 5.8259C6.47477 5.73888 6.49652 5.62351 6.58004 5.56291L9.44919 3.47957L7.94741 4.34624C7.85845 4.39868 7.74308 4.37032 7.68637 4.28292C7.63043 4.19512 7.65335 4.07936 7.73842 4.01915L8.8296 3.25193L8.72161 3.31408C8.63343 3.36536 8.52039 3.33895 8.46328 3.25465C8.40657 3.16996 8.42444 3.05537 8.50485 2.99282L9.78443 1.9968L9.65274 2.07255C9.56884 2.1215 9.46046 2.09974 9.40141 2.02205C9.34236 1.94436 9.34975 1.83481 9.41967 1.76605L10.3827 0.81703C10.359 0.801103 10.3391 0.779348 10.324 0.753321C10.27 0.660478 10.3019 0.541608 10.3951 0.488L11.1941 0.026503C11.2777 -0.0232205 11.386 -0.00107798 11.4455 0.0770035C11.5045 0.154697 11.4971 0.264244 11.4272 0.333002L10.7738 0.976689L12.0251 0.254532C12.1132 0.202867 12.2263 0.229671 12.2834 0.313968C12.3401 0.398653 12.3222 0.51325 12.2418 0.575793L10.9607 1.57298L12.396 0.744387C12.4865 0.691944 12.6008 0.720302 12.6571 0.807707C12.713 0.8955 12.6901 1.01126 12.605 1.07147L11.5173 1.83636L12.4722 1.28513C12.5607 1.2323 12.6761 1.26105 12.7321 1.34728C12.7888 1.4343 12.767 1.54968 12.6835 1.61028L9.81512 3.69323L11.6844 2.61407C11.7733 2.56124 11.8895 2.5896 11.9454 2.67817C12.0014 2.76596 11.9781 2.88211 11.8922 2.94155L9.64769 4.50318L10.7408 3.87231C10.8309 3.81948 10.9451 3.84822 11.0019 3.93602C11.0578 4.02381 11.0345 4.13957 10.9494 4.1994L8.49164 5.92263L9.74636 5.19814C9.83881 5.14337 9.95807 5.176 10.0117 5.26923C10.0657 5.36207 10.0338 5.48094 9.94059 5.53455L4.85334 8.47212C4.82304 8.48999 4.78925 8.49815 4.75623 8.49815L4.75662 8.49776Z" fill="#F39F5F"/>
</svg>
