<svg width="30" height="30" viewBox="0 0 30 30" fill="none" xmlns="http://www.w3.org/2000/svg">
<g clip-path="url(#clip0_201_457)">
<path d="M29.2 12.6877C28.6993 12.0843 28.306 11.3993 28.0375 10.6627C27.8328 10.0367 27.5821 9.4267 27.2875 8.83769C26.953 8.12938 26.7457 7.36779 26.675 6.58769C26.5793 5.75544 26.2049 4.98005 25.6125 4.38769C25.0201 3.79533 24.2448 3.42085 23.4125 3.32519C22.6324 3.25447 21.8708 3.04715 21.1625 2.71269C20.5755 2.41373 19.9651 2.16291 19.3375 1.96269C18.5996 1.69695 17.9141 1.30345 17.3125 0.800185C16.6498 0.289589 15.8366 0.0126953 15 0.0126953C14.1634 0.0126953 13.3503 0.289589 12.6875 0.800185C12.0888 1.3046 11.4024 1.69444 10.6625 1.95019C10.0398 2.15787 9.4339 2.41278 8.85001 2.71269C8.13667 3.04543 7.37129 3.25264 6.58751 3.32519C5.75526 3.42085 4.97988 3.79533 4.38752 4.38769C3.79515 4.98005 3.42068 5.75544 3.32501 6.58769C3.25246 7.37146 3.04526 8.13685 2.71251 8.85019C2.41578 9.43394 2.16502 10.0399 1.96251 10.6627C1.69398 11.3993 1.30075 12.0843 0.800009 12.6877C0.281739 13.3471 0 14.1615 0 15.0002C0 15.8389 0.281739 16.6533 0.800009 17.3127C1.30075 17.916 1.69398 18.601 1.96251 19.3377C2.16719 19.9637 2.41787 20.5737 2.71251 21.1627C3.04697 21.871 3.2543 22.6326 3.32501 23.4127C3.42068 24.2449 3.79515 25.0203 4.38752 25.6127C4.97988 26.205 5.75526 26.5795 6.58751 26.6752C7.36761 26.7459 8.12921 26.9532 8.83751 27.2877C9.42455 27.5866 10.0349 27.8375 10.6625 28.0377C11.4005 28.3034 12.0859 28.6969 12.6875 29.2002C13.3469 29.7185 14.1613 30.0002 15 30.0002C15.8387 30.0002 16.6531 29.7185 17.3125 29.2002C17.9112 28.6958 18.5976 28.3059 19.3375 28.0502C19.9602 27.8425 20.5661 27.5876 21.15 27.2877C21.8633 26.9549 22.6287 26.7477 23.4125 26.6752C24.2448 26.5795 25.0201 26.205 25.6125 25.6127C26.2049 25.0203 26.5793 24.2449 26.675 23.4127C26.7476 22.6289 26.9548 21.8635 27.2875 21.1502C27.5842 20.5664 27.835 19.9604 28.0375 19.3377C28.306 18.601 28.6993 17.916 29.2 17.3127C29.7183 16.6533 30 15.8389 30 15.0002C30 14.1615 29.7183 13.3471 29.2 12.6877ZM19.6338 13.3839L16.4014 16.6164C15.6975 17.3183 14.7441 17.7124 13.7501 17.7126C12.7562 17.7127 11.8027 17.3187 11.0986 16.6171L10.3663 15.8839C10.1386 15.6482 10.0126 15.3324 10.0154 15.0047C10.0183 14.6769 10.1497 14.3634 10.3815 14.1317C10.6132 13.8999 10.9268 13.7684 11.2545 13.7656C11.5823 13.7627 11.898 13.8887 12.1338 14.1164L12.8663 14.8488C13.1008 15.0831 13.4187 15.2146 13.7501 15.2145C14.0816 15.2144 14.3994 15.0826 14.6338 14.8482L17.8663 11.6164C18.102 11.3887 18.4178 11.2627 18.7455 11.2656C19.0733 11.2684 19.3868 11.3999 19.6185 11.6317C19.8503 11.8634 19.9818 12.1769 19.9846 12.5047C19.9874 12.8324 19.8615 13.1482 19.6338 13.3839Z" fill="#F39F5F"/>
</g>
<defs>
<clipPath id="clip0_201_457">
<rect width="30" height="30" fill="white"/>
</clipPath>
</defs>
</svg>
