<svg width="24" height="24" viewBox="0 0 24 24" fill="none" xmlns="http://www.w3.org/2000/svg">
<path d="M23.36 10.14C22.9594 9.65731 22.6448 9.10932 22.43 8.51999C22.2663 8.0192 22.0657 7.53121 21.83 7.05999C21.5624 6.49335 21.3966 5.88407 21.34 5.25999C21.2635 4.59419 20.9639 3.97389 20.49 3.5C20.0161 3.02611 19.3958 2.72652 18.73 2.64999C18.1059 2.59342 17.4967 2.42756 16.93 2.15999C16.4604 1.92083 15.9721 1.72017 15.47 1.55999C14.8796 1.3474 14.3313 1.0326 13.85 0.629992C13.3198 0.221515 12.6693 0 12 0C11.3307 0 10.6802 0.221515 10.15 0.629992C9.67107 1.03352 9.12191 1.34539 8.53001 1.54999C8.03186 1.71614 7.54712 1.92007 7.08001 2.15999C6.50934 2.42619 5.89703 2.59195 5.27001 2.64999C4.60421 2.72652 3.9839 3.02611 3.51001 3.5C3.03612 3.97389 2.73654 4.59419 2.66001 5.25999C2.60197 5.88701 2.43621 6.49932 2.17001 7.06999C1.93263 7.537 1.73202 8.0218 1.57001 8.51999C1.35519 9.10932 1.0406 9.65731 0.640008 10.14C0.225391 10.6675 0 11.319 0 11.99C0 12.661 0.225391 13.3125 0.640008 13.84C1.0406 14.3227 1.35519 14.8707 1.57001 15.46C1.73375 15.9608 1.9343 16.4488 2.17001 16.92C2.43758 17.4866 2.60344 18.0959 2.66001 18.72C2.73654 19.3858 3.03612 20.0061 3.51001 20.48C3.9839 20.9539 4.60421 21.2535 5.27001 21.33C5.89409 21.3866 6.50337 21.5524 7.07001 21.82C7.53964 22.0592 8.02791 22.2598 8.53001 22.42C9.12037 22.6326 9.66873 22.9474 10.15 23.35C10.6775 23.7646 11.329 23.99 12 23.99C12.671 23.99 13.3225 23.7646 13.85 23.35C14.3289 22.9465 14.8781 22.6346 15.47 22.43C15.9682 22.2638 16.4529 22.0599 16.92 21.82C17.4907 21.5538 18.103 21.388 18.73 21.33C19.3958 21.2535 20.0161 20.9539 20.49 20.48C20.9639 20.0061 21.2635 19.3858 21.34 18.72C21.398 18.093 21.5638 17.4807 21.83 16.91C22.0674 16.443 22.268 15.9582 22.43 15.46C22.6448 14.8707 22.9594 14.3227 23.36 13.84C23.7746 13.3125 24 12.661 24 11.99C24 11.319 23.7746 10.6675 23.36 10.14ZM15.707 10.697L13.1211 13.283C12.558 13.8445 11.7953 14.1598 11.0001 14.1599C10.2049 14.16 9.44213 13.8448 8.87891 13.2835L8.29301 12.697C8.11085 12.5084 8.01006 12.2558 8.01233 11.9936C8.01461 11.7314 8.11978 11.4806 8.30519 11.2952C8.4906 11.1098 8.74141 11.0046 9.00361 11.0023C9.2658 11 9.5184 11.1008 9.70701 11.283L10.293 11.8689C10.4806 12.0563 10.7349 12.1615 11.0001 12.1614C11.2653 12.1613 11.5195 12.0559 11.707 11.8684L14.293 9.28299C14.4816 9.10083 14.7342 9.00004 14.9964 9.00232C15.2586 9.0046 15.5094 9.10977 15.6948 9.29517C15.8802 9.48058 15.9854 9.73139 15.9877 9.99359C15.99 10.2558 15.8892 10.5084 15.707 10.697Z" fill="#F39F5F"/>
</svg>
