<svg width="28" height="28" viewBox="0 0 28 28" fill="none" xmlns="http://www.w3.org/2000/svg">
<g clip-path="url(#clip0_178_2795)">
<path d="M18.9629 9.03696C17.7036 7.77771 15.9259 6.96289 13.9999 6.96289C12.074 6.96289 10.2962 7.74067 9.03696 9.03696C7.77771 10.2962 6.96289 12.074 6.96289 13.9999C6.96289 15.9259 7.77771 17.7036 9.03696 18.9629C10.2962 20.2222 12.074 21.037 13.9999 21.037C15.9259 21.037 17.7036 20.2592 18.9629 18.9629C20.2222 17.7036 21.037 15.9259 21.037 13.9999C21.037 12.074 20.2592 10.2962 18.9629 9.03696ZM17.6296 17.6296C16.7036 18.5555 15.4073 19.111 13.9999 19.111C12.5925 19.111 11.2962 18.5555 10.3703 17.6296C9.44437 16.7036 8.88882 15.4073 8.88882 13.9999C8.88882 12.5925 9.44437 11.2962 10.3703 10.3703C11.2962 9.44437 12.5925 8.88882 13.9999 8.88882C15.4073 8.88882 16.7036 9.44437 17.6296 10.3703C18.5555 11.2962 19.111 12.5925 19.111 13.9999C19.111 15.4073 18.5555 16.7036 17.6296 17.6296Z" fill="#F39F5F"/>
<path d="M27.037 13.0371H24.1851C23.6666 13.0371 23.2222 13.4816 23.2222 14.0001C23.2222 14.5186 23.6666 14.963 24.1851 14.963H27.037C27.5555 14.963 27.9999 14.5186 27.9999 14.0001C27.9999 13.4816 27.5555 13.0371 27.037 13.0371Z" fill="#F39F5F"/>
<path d="M14.0001 23.2222C13.4816 23.2222 13.0371 23.6666 13.0371 24.1851V27.037C13.0371 27.5555 13.4816 27.9999 14.0001 27.9999C14.5186 27.9999 14.963 27.5555 14.963 27.037V24.1851C14.963 23.6666 14.5186 23.2222 14.0001 23.2222Z" fill="#F39F5F"/>
<path d="M23.8889 22.5555L21.8518 20.5185C21.5185 20.1481 20.8889 20.1481 20.5185 20.5185C20.1481 20.8889 20.1481 21.4815 20.5185 21.8518L22.5555 23.8889C22.9259 24.2592 23.5185 24.2592 23.8889 23.8889C24.2592 23.5185 24.2592 22.9259 23.8889 22.5555Z" fill="#F39F5F"/>
<path d="M14.0001 0C13.4816 0 13.0371 0.444444 13.0371 0.962963V3.81481C13.0371 4.33333 13.4816 4.77778 14.0001 4.77778C14.5186 4.77778 14.963 4.33333 14.963 3.81481V0.962963C14.963 0.444444 14.5186 0 14.0001 0Z" fill="#F39F5F"/>
<path d="M23.926 4.11127C23.5556 3.7409 22.963 3.7409 22.5926 4.11127L20.5556 6.14831C20.1852 6.51868 20.1852 7.11127 20.5556 7.48164C20.8889 7.85201 21.5186 7.85201 21.8889 7.48164L23.926 5.44461C24.2963 5.07424 24.2963 4.48164 23.926 4.11127Z" fill="#F39F5F"/>
<path d="M3.81481 13.0371H0.962963C0.444444 13.0371 0 13.4816 0 14.0001C0 14.5186 0.407407 14.963 0.962963 14.963H3.81481C4.33333 14.963 4.77778 14.5186 4.77778 14.0001C4.77778 13.4816 4.33333 13.0371 3.81481 13.0371Z" fill="#F39F5F"/>
<path d="M7.44454 20.5185C7.1112 20.1481 6.48157 20.1481 6.1112 20.5185L4.07416 22.5555C3.70379 22.9259 3.70379 23.5185 4.07416 23.8889C4.44453 24.2592 5.03713 24.2592 5.4075 23.8889L7.44454 21.8518C7.81491 21.4815 7.81491 20.8889 7.44454 20.5185Z" fill="#F39F5F"/>
<path d="M7.44454 6.14831L5.4075 4.11127C5.03713 3.7409 4.44453 3.7409 4.07416 4.11127C3.70379 4.48164 3.70379 5.07424 4.07416 5.44461L6.1112 7.48164C6.48157 7.85201 7.07416 7.85201 7.44454 7.48164C7.81491 7.11127 7.81491 6.51868 7.44454 6.14831Z" fill="#F39F5F"/>
</g>
<defs>
<clipPath id="clip0_178_2795">
<rect width="28" height="28" fill="white"/>
</clipPath>
</defs>
</svg>
