<svg width="50" height="45" viewBox="0 0 50 45" fill="none" xmlns="http://www.w3.org/2000/svg">
<path d="M13.0477 29.908C12.333 29.3433 11.4373 29.0322 10.5255 29.0322C9.28645 29.0322 8.13259 29.5828 7.35976 30.543C6.684 31.3835 6.37804 32.435 6.49864 33.5037C6.61939 34.5746 7.15363 35.5339 8.00276 36.205C8.71744 36.7699 9.61287 37.0809 10.5244 37.0809C11.7644 37.0809 12.9185 36.5293 13.6907 35.5682C14.3658 34.7291 14.6715 33.6787 14.5513 32.6106C14.4309 31.5396 13.897 30.5797 13.0477 29.908ZM12.2519 34.4116C11.8317 34.9349 11.2019 35.2352 10.5244 35.2352C10.0194 35.2352 9.54318 35.0698 9.14754 34.7571C8.68744 34.3934 8.39825 33.8749 8.33287 33.2968C8.26796 32.721 8.43317 32.1537 8.79789 31.7002C9.2183 31.1778 9.84807 30.8782 10.5255 30.8782C11.031 30.8782 11.5074 31.0435 11.9029 31.3561C12.3628 31.7197 12.6519 32.2386 12.7169 32.817C12.7817 33.3923 12.6168 33.9584 12.2519 34.4116Z" fill="#F39F5F"/>
<path d="M29.2781 20.4546C29.8869 20.4546 30.4756 20.3212 31.0292 20.0574C32.0079 19.5892 32.743 18.77 33.0988 17.7508C33.4528 16.738 33.3891 15.6481 32.9199 14.6828C32.2488 13.2993 30.8154 12.4053 29.2684 12.4053C28.6583 12.4053 28.0684 12.5391 27.5149 12.8032C26.5365 13.2699 25.8011 14.0885 25.4447 15.108C25.0901 16.1216 25.1536 17.2116 25.6236 18.1773C26.2969 19.5607 27.7313 20.4546 29.2781 20.4546ZM27.1869 15.7173C27.3798 15.1659 27.7785 14.7225 28.3096 14.4692C28.6129 14.3246 28.9353 14.2512 29.2682 14.2512C30.1129 14.2512 30.8943 14.7368 31.2592 15.4892C31.5122 16.0098 31.5465 16.5966 31.3561 17.1421C31.1634 17.6939 30.7642 18.1378 30.2338 18.3916C29.9315 18.5357 29.6099 18.6087 29.2779 18.6087C28.4325 18.6087 27.6495 18.1223 27.2831 17.3696C27.0303 16.8498 26.9962 16.2631 27.1869 15.7173Z" fill="#F39F5F"/>
<path d="M19.2338 13.9321C19.5307 13.9991 19.8345 14.0331 20.1367 14.0331C22.0368 14.0331 23.6601 12.7481 24.0847 10.9063C24.3233 9.86195 24.1398 8.78685 23.5685 7.87866C22.9924 6.96338 22.092 6.32716 21.034 6.08749C20.7359 6.01981 20.4308 5.98535 20.1272 5.98535C18.2284 5.98535 16.6067 7.27181 16.1835 9.11327C15.9429 10.1568 16.1252 11.2321 16.6967 12.1409C17.2732 13.0574 18.1745 13.6936 19.2338 13.9321ZM17.9825 9.52738C18.2119 8.52888 19.0939 7.83143 20.1272 7.83143C20.2932 7.83143 20.4607 7.85035 20.6254 7.88773C21.2026 8.01849 21.6928 8.36444 22.006 8.86192C22.3146 9.35217 22.4137 9.9321 22.2854 10.4933C22.0591 11.4748 21.1554 12.1872 20.1366 12.1872C19.9711 12.1872 19.8042 12.1684 19.6399 12.1314C19.0626 12.0014 18.5723 11.6557 18.2593 11.1583C17.9513 10.6683 17.853 10.0893 17.9825 9.52738Z" fill="#F39F5F"/>
<path d="M11.8995 16.2347C12.7477 15.5626 13.281 14.6026 13.4016 13.5315C13.5217 12.4636 13.2167 11.4133 12.5413 10.5726C11.7672 9.61289 10.6124 9.0625 9.37333 9.0625C8.46252 9.0625 7.56771 9.37262 6.85288 9.93639C6.00452 10.6065 5.47089 11.565 5.34983 12.6353C5.22892 13.7045 5.53473 14.7567 6.21142 15.5988C6.98486 16.5596 8.13979 17.1107 9.38026 17.1107C10.2918 17.1106 11.1866 16.7995 11.8995 16.2347ZM7.65001 14.4415C7.28451 13.9868 7.11915 13.4189 7.18437 12.8423C7.2496 12.265 7.53848 11.7472 7.99689 11.385C8.39238 11.073 8.86847 10.9081 9.37349 10.9081C10.0516 10.9081 10.6827 11.2081 11.1034 11.7297C11.4672 12.1829 11.6321 12.7494 11.5674 13.3249C11.5023 13.9039 11.2131 14.4235 10.7533 14.7878C10.3597 15.0996 9.88481 15.2645 9.38041 15.2645C8.70157 15.2647 8.07088 14.9644 7.65001 14.4415Z" fill="#F39F5F"/>
<path d="M49.647 7.20281C49.4874 7.0419 49.2029 6.85008 48.7538 6.85008C48.2273 6.85008 46.8285 6.85008 38.3336 14.0787C38.1628 14.2239 37.9906 14.3712 37.8177 14.5194C36.2998 10.5601 33.6331 7.03021 30.1967 4.47699C26.2566 1.5495 21.5649 0.00123062 16.6292 0C16.6276 0 16.6266 0 16.6253 0C13.2944 0 9.24532 1.16386 6.05787 3.03793C2.15066 5.33488 -0.00076893 8.40681 2.06153e-07 11.6875C0.00123082 15.6482 2.23511 17.3049 4.03012 18.636C5.49379 19.7216 6.6498 20.5789 6.65041 22.4577C6.65087 24.3364 5.49548 25.1929 4.03258 26.2774C2.23819 27.6077 0.00476885 29.2635 0.00599947 33.2247C0.00692243 36.5049 2.15973 39.5776 6.06771 41.8765C9.25748 43.7529 13.3087 44.9192 16.6403 44.9202C16.6426 44.9202 16.6446 44.9202 16.6467 44.9202C22.6929 44.9202 28.3767 42.5864 32.6515 38.3487C36.8719 34.165 39.2192 28.6197 39.2809 22.7104C40.7139 21.0797 42.1022 19.4588 43.3696 17.9315C45.5379 15.3186 47.2053 13.1625 48.3253 11.5235C49.8091 9.35254 50.4589 8.02101 49.647 7.20281ZM31.3521 37.0377C27.4251 40.9308 22.2033 43.0742 16.6469 43.0742C16.6452 43.0742 16.6427 43.0742 16.641 43.0742C10.6868 43.0725 1.85362 38.9358 1.85193 33.2241C1.851 30.1926 3.44465 29.011 5.13198 27.7601C6.70917 26.5907 8.4968 25.2654 8.49618 22.4571C8.49526 19.6493 6.70717 18.3231 5.12952 17.1533C3.44142 15.9013 1.84685 14.7188 1.84593 11.687C1.84516 8.17961 5.07061 5.7596 6.99345 4.62912C9.86971 2.9381 13.65 1.84577 16.6253 1.84577C16.6264 1.84577 16.6276 1.84577 16.6286 1.84577C21.1651 1.847 25.4762 3.26929 29.096 5.9585C32.4343 8.43896 34.9826 11.921 36.3249 15.811C32.3216 19.3065 27.9864 23.3368 24.7579 26.5758C19.3956 27.2699 18.6651 30.8436 18.131 33.469C17.6763 35.7044 17.3811 36.7852 15.6556 36.9236C15.2304 36.9578 14.8842 37.2786 14.8179 37.7C14.7514 38.1212 14.9823 38.5331 15.3764 38.6963C15.4873 38.7422 18.1264 39.8205 21.2097 39.8206C21.2102 39.8206 21.2105 39.8206 21.2108 39.8206C23.3594 39.8206 25.2026 39.2998 26.6889 38.2727C28.5203 37.007 29.7622 35.0003 30.3863 32.3093C32.4957 30.1751 34.906 27.6015 37.2894 24.9506C36.7409 29.5147 34.6813 33.7375 31.3521 37.0377ZM28.5319 32.1345C27.5538 36.0103 25.0929 37.975 21.2106 37.9749C21.2106 37.9749 21.21 37.9749 21.2097 37.9749C20.186 37.9749 19.2056 37.8352 18.3814 37.6611C19.3659 36.657 19.6734 35.1461 19.9397 33.8372C20.4469 31.344 20.9265 28.9844 24.8503 28.4239L28.5319 32.1345ZM41.2774 17.5578C37.6186 21.9168 33.1899 26.8119 29.5442 30.5338L28.9798 29.9649L26.4895 27.4549C29.7949 24.1646 34.0354 20.2412 37.9916 16.8076C38.4528 16.4074 38.9111 16.0122 39.3627 15.627C43.954 11.7113 46.3601 10.0072 47.5875 9.26563C46.8545 10.5004 45.1661 12.9249 41.2774 17.5578Z" fill="#F39F5F"/>
</svg>
