<svg width="34" height="24" viewBox="0 0 34 24" fill="none" xmlns="http://www.w3.org/2000/svg">
<path d="M16.7236 4.40049C16.9545 4.40049 17.1758 4.3088 17.3391 4.14557C17.5023 3.98235 17.594 3.76098 17.594 3.53014V0.87035C17.594 0.639519 17.5023 0.418142 17.3391 0.25492C17.1758 0.0916974 16.9545 0 16.7236 0C16.4928 0 16.2714 0.0916974 16.1082 0.25492C15.945 0.418142 15.8533 0.639519 15.8533 0.87035V3.53014C15.8533 3.76098 15.945 3.98235 16.1082 4.14557C16.2714 4.3088 16.4928 4.40049 16.7236 4.40049Z" fill="#F39F5F"/>
<path d="M10.5765 5.41064C10.6332 5.51042 10.7091 5.598 10.7998 5.66832C10.8905 5.73865 10.9942 5.79034 11.105 5.82041C11.2158 5.85048 11.3314 5.85835 11.4452 5.84355C11.5591 5.82876 11.6688 5.7916 11.7682 5.7342C11.8677 5.67681 11.9547 5.60032 12.0244 5.50915C12.0942 5.41797 12.1452 5.3139 12.1745 5.20293C12.2038 5.09196 12.2109 4.97628 12.1954 4.86256C12.1798 4.74883 12.1419 4.63931 12.0839 4.54029L10.754 2.23682C10.6378 2.03855 10.4478 1.8943 10.2256 1.83555C10.0034 1.77681 9.76702 1.80833 9.56798 1.92325C9.36894 2.03817 9.22344 2.22715 9.16322 2.44895C9.103 2.67076 9.13296 2.90737 9.24655 3.10717L10.5765 5.41064Z" fill="#F39F5F"/>
<path d="M4.64306 8.34718L6.94653 9.67716C7.14644 9.79258 7.38401 9.82385 7.60698 9.7641C7.82995 9.70435 8.02005 9.55848 8.13547 9.35857C8.25088 9.15866 8.28216 8.92108 8.22241 8.69811C8.16266 8.47514 8.01679 8.28504 7.81688 8.16963L5.51341 6.83973C5.41439 6.78168 5.30486 6.74379 5.19114 6.72824C5.07741 6.71269 4.96174 6.71979 4.85077 6.74913C4.7398 6.77846 4.63573 6.82946 4.54455 6.89919C4.45337 6.96891 4.37688 7.05598 4.31949 7.15538C4.2621 7.25478 4.22494 7.36456 4.21014 7.47838C4.19535 7.59221 4.20321 7.70783 4.23329 7.81861C4.26336 7.92938 4.31505 8.03311 4.38537 8.12382C4.4557 8.21454 4.54327 8.29044 4.64306 8.34718Z" fill="#F39F5F"/>
<path d="M26.6401 14.3171C26.6401 14.548 26.7318 14.7693 26.8951 14.9326C27.0583 15.0958 27.2797 15.1875 27.5105 15.1875H30.1704C30.4012 15.1875 30.6226 15.0958 30.7858 14.9326C30.949 14.7693 31.0407 14.548 31.0407 14.3171C31.0407 14.0863 30.949 13.8649 30.7858 13.7017C30.6226 13.5385 30.4012 13.4468 30.1704 13.4468H27.5105C27.2797 13.4468 27.0583 13.5385 26.8951 13.7017C26.7318 13.8649 26.6401 14.0863 26.6401 14.3171Z" fill="#F39F5F"/>
<path d="M3.2766 15.1875H5.93648C6.16731 15.1875 6.38869 15.0958 6.55191 14.9326C6.71513 14.7693 6.80683 14.548 6.80683 14.3171C6.80683 14.0863 6.71513 13.8649 6.55191 13.7017C6.38869 13.5385 6.16731 13.4468 5.93648 13.4468H3.2766C3.04577 13.4468 2.82439 13.5385 2.66117 13.7017C2.49795 13.8649 2.40625 14.0863 2.40625 14.3171C2.40625 14.548 2.49795 14.7693 2.66117 14.9326C2.82439 15.0958 3.04577 15.1875 3.2766 15.1875Z" fill="#F39F5F"/>
<path d="M26.0664 9.79387C26.2189 9.79388 26.3687 9.75362 26.5007 9.67716L28.8041 8.34718C28.9039 8.29044 28.9914 8.21454 29.0618 8.12382C29.1321 8.03311 29.1838 7.92938 29.2139 7.81861C29.2439 7.70783 29.2518 7.59221 29.237 7.47838C29.2222 7.36456 29.185 7.25478 29.1277 7.15538C29.0703 7.05598 28.9938 6.96891 28.9026 6.89919C28.8114 6.82946 28.7073 6.77846 28.5964 6.74913C28.4854 6.71979 28.3697 6.71269 28.256 6.72824C28.1423 6.74379 28.0328 6.78168 27.9337 6.83973L25.6303 8.16963C25.4642 8.26543 25.3344 8.41338 25.2611 8.59051C25.1877 8.76763 25.1749 8.96403 25.2246 9.14919C25.2743 9.33435 25.3837 9.49792 25.536 9.61449C25.6882 9.73107 25.8746 9.79412 26.0663 9.79387H26.0664Z" fill="#F39F5F"/>
<path d="M21.6817 5.72893C21.7807 5.78615 21.89 5.82329 22.0033 5.83825C22.1166 5.8532 22.2318 5.84567 22.3422 5.81609C22.4526 5.7865 22.5561 5.73544 22.6468 5.66583C22.7375 5.59622 22.8135 5.50941 22.8706 5.41038L24.2005 3.10691C24.2586 3.00789 24.2965 2.89837 24.312 2.78464C24.3276 2.67092 24.3205 2.55524 24.2911 2.44427C24.2618 2.33331 24.2108 2.22924 24.1411 2.13806C24.0714 2.04688 23.9843 1.97039 23.8849 1.913C23.7855 1.85561 23.6757 1.81844 23.5619 1.80365C23.4481 1.78885 23.3324 1.79672 23.2217 1.82679C23.1109 1.85687 23.0072 1.90855 22.9164 1.97888C22.8257 2.04921 22.7498 2.13678 22.6931 2.23656L21.3632 4.54003C21.2478 4.73993 21.2165 4.97749 21.2762 5.20045C21.336 5.42341 21.4818 5.61351 21.6817 5.72893Z" fill="#F39F5F"/>
<path d="M33.1115 22.4432C30.4831 20.315 27.8438 18.7043 25.1939 17.6109C25.73 16.2327 25.9217 14.7444 25.7524 13.2753C25.5831 11.8062 25.0578 10.4006 24.2222 9.18051C23.3865 7.96039 22.2658 6.96261 20.9572 6.27375C19.6486 5.5849 18.1917 5.22577 16.7128 5.22755C15.234 5.22932 13.7779 5.59193 12.471 6.28392C11.164 6.97591 10.0457 7.97637 9.21296 9.19848C8.38026 10.4206 7.85836 11.8275 7.69254 13.297C7.52673 14.7665 7.72201 16.2543 8.26145 17.6312C5.6175 18.7247 2.97656 20.3278 0.338645 22.4406C0.247072 22.5112 0.170502 22.5995 0.113411 22.7C0.0563196 22.8006 0.0198515 22.9116 0.00613845 23.0265C-0.00757462 23.1413 0.00174241 23.2577 0.0335447 23.3689C0.0653471 23.4802 0.118997 23.5839 0.191358 23.6741C0.26372 23.7644 0.353342 23.8393 0.454986 23.8945C0.55663 23.9497 0.668258 23.9841 0.783344 23.9956C0.898431 24.0072 1.01467 23.9957 1.12526 23.9618C1.23586 23.928 1.33859 23.8724 1.42745 23.7983C11.7706 15.5058 21.7763 15.5049 32.0161 23.7957C32.1955 23.941 32.4253 24.009 32.6548 23.9849C32.8844 23.9607 33.095 23.8464 33.2403 23.667C33.3855 23.4876 33.4536 23.2578 33.4294 23.0283C33.4053 22.7987 33.2909 22.5881 33.1115 22.4428V22.4432ZM9.89057 17.022C9.5481 16.1613 9.37342 15.2432 9.37593 14.3169C9.37593 12.3682 10.15 10.4994 11.528 9.12144C12.9059 7.74351 14.7748 6.9694 16.7234 6.9694C18.6721 6.9694 20.541 7.74351 21.9189 9.12144C23.2968 10.4994 24.0709 12.3682 24.0709 14.3169C24.0735 15.2362 23.9017 16.1476 23.5645 17.0028C19.0192 15.49 14.4612 15.4963 9.89057 17.022Z" fill="#F39F5F"/>
</svg>
