<svg width="50" height="50" viewBox="0 0 50 50" fill="none" xmlns="http://www.w3.org/2000/svg">
<path d="M49.5758 25.1455C49.3172 24.8117 48.9277 24.5997 48.5071 24.5637L30.0385 22.9819C29.2595 22.9158 28.5458 23.4671 28.4152 24.2385C28.3224 24.7861 28.2295 25.3338 28.1367 25.8814C27.8316 27.6821 25.7862 39.7507 25.7497 39.9659C25.6762 40.4011 25.4316 40.2738 25.0173 40.2262C24.7359 40.1938 24.4525 40.1794 24.1692 40.1817C23.5898 40.1865 23.0112 40.262 22.449 40.4021C19.2428 41.2011 17.1584 43.9543 17.8027 46.5392C18.1232 47.8254 19.0499 48.8668 20.4121 49.4713C21.2029 49.8222 22.0873 49.9998 23.0015 49.9998C23.5897 49.9998 24.1903 49.9262 24.7857 49.7777C26.1184 49.4455 27.3787 48.7399 28.2912 47.7044C29.2027 46.6701 29.4548 45.5103 29.678 44.1934C29.7614 43.7014 32.0766 30.0461 32.1225 29.8191C32.1893 29.4889 32.3759 29.5391 32.6671 29.5641C33.0732 29.5988 43.9674 30.5318 44.284 30.559C44.3853 30.5677 44.5104 30.5995 44.4886 30.7282C44.386 31.3338 42.9566 39.8137 42.9315 39.9159C42.8477 40.2576 42.4108 40.0453 42.1666 40.0192C41.8936 39.99 41.6189 39.9774 41.3443 39.9808C40.7733 39.9876 40.2033 40.0628 39.6493 40.2009C38.1285 40.58 36.808 41.405 35.9312 42.5241C35.0119 43.6972 34.6824 45.0516 35.0029 46.3379C35.5273 48.4421 37.7001 49.7962 40.2199 49.796C40.7955 49.796 41.3897 49.7253 41.986 49.5767C44.1843 49.0288 45.9465 47.5247 46.5372 45.7125C46.8222 44.8382 49.6943 27.3765 49.7848 26.841C49.8138 26.6693 49.8429 26.4976 49.8719 26.3259C49.9423 25.9097 49.8344 25.4793 49.5758 25.1455ZM48.4219 26.0816C48.4209 26.1282 45.2832 44.7624 45.1833 45.1247C44.7987 46.5231 43.4045 47.7122 41.6315 48.1541C39.2099 48.7577 36.8743 47.7839 36.4256 45.9835C36.2167 45.1454 36.451 44.2381 37.0853 43.4286C37.7617 42.5652 38.7984 41.9242 40.0039 41.6237C40.857 41.4111 41.7307 41.3891 42.5311 41.5601C42.9365 41.6467 43.3646 41.5634 43.7064 41.3316C44.0505 41.098 44.2783 40.7436 44.348 40.3333L45.9507 30.8766C46.0212 30.4601 45.9135 30.0298 45.655 29.6958C45.3965 29.3618 45.0069 29.1496 44.586 29.1135L32.3348 28.0643C31.5553 27.9984 30.842 28.5495 30.7115 29.3209L28.052 45.0134C28.0486 45.0278 28.0455 45.0425 28.0429 45.0571C27.7824 46.5563 26.3311 47.8816 24.4312 48.3552C23.2257 48.6556 22.0096 48.5761 21.007 48.1312C20.0669 47.7141 19.4343 47.0228 19.2254 46.1847C18.7767 44.3842 20.382 42.4284 22.8037 41.8248C23.2776 41.7067 23.7579 41.6476 24.2287 41.6476C24.6032 41.6476 24.9716 41.6851 25.3257 41.7602C25.7308 41.8465 26.1589 41.7626 26.5002 41.5308C26.844 41.2972 27.0715 40.9429 27.1409 40.5329C27.1835 40.2816 29.7173 25.331 29.8067 24.8035C29.8483 24.5579 29.8994 24.4416 30.1612 24.464C30.3416 24.4794 48.2465 26.0244 48.3823 26.0245C48.4135 26.0246 48.4226 26.0495 48.4219 26.0816Z" fill="#F39F5F"/>
<path d="M17.1974 37.9123C14.8136 37.021 13.7712 34.697 13.3621 33.391C13.2322 32.9764 12.8526 32.6978 12.4175 32.6978C11.9826 32.6978 11.6029 32.9763 11.4729 33.3909V33.391C11.0637 34.697 10.0213 37.021 7.63765 37.9123C7.24839 38.0578 6.99692 38.4213 6.99683 38.8384C6.99673 39.2555 7.24819 39.6192 7.63755 39.7648C10.0212 40.6562 11.0637 42.9801 11.4729 44.286C11.6029 44.7008 11.9825 44.9795 12.4175 44.9794C12.8526 44.9794 13.2322 44.7007 13.362 44.286C13.7711 42.9801 14.8136 40.6562 17.1975 39.7647C17.5868 39.6191 17.8382 39.2555 17.8381 38.8384C17.838 38.4213 17.5865 38.0578 17.1974 37.9123ZM12.4174 42.6496C11.8345 41.3517 10.8224 39.8023 9.11265 38.8386C10.8225 37.8748 11.8345 36.3255 12.4174 35.0274C13.0003 36.3255 14.0124 37.8747 15.7223 38.8386C14.0125 39.8023 13.0004 41.3516 12.4174 42.6496Z" fill="#F39F5F"/>
<path d="M29.9407 14.7079C31.6042 15.3299 32.3364 16.9664 32.6246 17.8864C32.7456 18.2723 33.0986 18.5315 33.5033 18.5315C33.9078 18.5315 34.2609 18.2723 34.3819 17.8864C34.6701 16.9664 35.4021 15.33 37.0659 14.7079C37.428 14.5725 37.6622 14.2343 37.6623 13.8463C37.6624 13.4583 37.4284 13.12 37.0659 12.9842C35.4022 12.3622 34.6702 10.7258 34.3819 9.80576C34.2609 9.41992 33.9079 9.16064 33.5033 9.16064C33.0987 9.16064 32.7456 9.41982 32.6246 9.80566C32.3362 10.7258 31.6041 12.3623 29.9405 12.9843C29.5782 13.1199 29.3441 13.4582 29.3442 13.8463C29.3444 14.2343 29.5786 14.5726 29.9407 14.7079ZM33.5032 11.5153C33.922 12.3278 34.5652 13.2126 35.5381 13.8461C34.5652 14.4797 33.922 15.3643 33.5032 16.1768C33.0845 15.3644 32.4411 14.4798 31.4684 13.8461C32.4411 13.2125 33.0845 12.3278 33.5032 11.5153Z" fill="#F39F5F"/>
<path d="M39.7767 6.62061C41.9488 7.43271 42.9001 9.55459 43.2737 10.7473C43.401 11.1535 43.7728 11.4265 44.1989 11.4265C44.6252 11.4265 44.997 11.1535 45.1242 10.7473C45.2382 10.3835 45.3767 10.0264 45.5358 9.68613C45.7075 9.31943 45.5492 8.88311 45.1824 8.71143C44.8159 8.54004 44.3793 8.69805 44.2078 9.06494C44.2049 9.07109 44.202 9.07734 44.199 9.08359C43.6612 7.92705 42.7568 6.58184 41.272 5.71318C42.7567 4.84453 43.6612 3.49941 44.1989 2.34297C44.7369 3.49971 45.6414 4.84512 47.1269 5.71367C46.9249 5.83193 46.7293 5.96152 46.5407 6.10205C46.2161 6.34404 46.1489 6.80322 46.3909 7.12793C46.6329 7.45244 47.0921 7.51953 47.4168 7.27773C47.7865 7.00225 48.1916 6.78115 48.6213 6.62051C49.0025 6.47793 49.2488 6.12178 49.2488 5.71318C49.2488 5.30459 49.0025 4.94853 48.6212 4.80576C46.449 3.99365 45.4978 1.87178 45.1241 0.679102C44.9969 0.272949 44.625 0 44.1988 0C43.7728 0 43.4009 0.272949 43.2736 0.679199C42.9 1.87188 41.9488 3.99375 39.7765 4.80596C39.3952 4.94854 39.1489 5.30469 39.1489 5.71328C39.1489 6.12188 39.3953 6.47793 39.7767 6.62061Z" fill="#F39F5F"/>
<path d="M11.3233 25.8255C11.2743 25.4043 8.89052 10.4834 8.85292 10.2456C8.81572 10.0107 8.83007 9.95424 9.06865 9.89594C9.64482 9.75522 20.4536 7.11528 20.5536 7.09077C20.7646 7.0392 20.8598 7.09106 20.894 7.30776C21.1637 9.00981 22.2482 15.856 22.2969 16.1632C22.381 16.6945 22.0778 16.6185 21.6585 16.7102C21.3792 16.7712 21.1038 16.8501 20.8341 16.9452C20.2997 17.1334 19.7879 17.3853 19.3106 17.6906C16.5274 19.4716 15.4312 22.7461 16.867 24.9899C17.0764 25.3172 17.3329 25.6122 17.6293 25.8666C17.9364 26.1303 18.3993 26.0952 18.6631 25.788C18.9268 25.4808 18.8916 25.018 18.5845 24.7542C18.3967 24.593 18.2344 24.4064 18.102 24.1998C17.102 22.6369 17.9987 20.2708 20.101 18.9256C20.8414 18.4519 21.6625 18.152 22.4756 18.0584C22.8873 18.011 23.2667 17.7953 23.5165 17.4664C23.7681 17.1353 23.8707 16.7266 23.8056 16.3158L22.3049 6.84204C22.2389 6.42485 21.9993 6.05151 21.6476 5.81752C21.2959 5.58344 20.859 5.50688 20.4486 5.60707L8.50361 8.52456C7.74365 8.7103 7.24423 9.46108 7.36659 10.2338C7.36689 10.2357 7.36718 10.2375 7.36747 10.2394C7.62968 11.8947 9.00888 20.6003 9.43622 23.2978C9.56171 24.09 9.69238 24.8816 9.81279 25.6747C10.1021 27.5813 9.0623 29.2726 7.49286 30.2771C6.44638 30.9468 5.26884 31.2594 4.17626 31.1581C3.15224 31.0629 2.33193 30.6099 1.8665 29.8825C0.866399 28.3195 1.76308 25.9535 3.86542 24.6082C4.60409 24.1356 5.42333 23.836 6.23476 23.7417C6.64618 23.6939 7.02509 23.4779 7.2745 23.1492C7.52568 22.8181 7.62812 22.4097 7.56308 21.9992L5.01591 5.92143C5.01181 5.89594 5.02773 5.87211 5.05273 5.86596L23.0597 1.46782C23.0656 1.46625 23.0808 1.46254 23.0985 1.47456C23.1164 1.48637 23.1189 1.502 23.1198 1.50776C23.2399 2.2642 25.7417 18.0175 25.9768 19.4978C26.1398 20.5244 26.2039 21.4154 25.7433 22.3798C25.3073 23.2924 24.5759 24.052 23.7286 24.5942C22.9705 25.0793 22.1306 25.3815 21.2994 25.468C20.8968 25.5099 20.6043 25.8705 20.6462 26.2731C20.6881 26.6758 21.0485 26.9675 21.4513 26.9264C22.5085 26.8164 23.5692 26.437 24.5188 25.8292C25.6656 25.0955 26.6277 24.0367 27.1654 22.7789C27.4122 22.2017 27.5691 21.5825 27.5905 20.9539C27.6123 20.3143 27.5042 19.7666 27.404 19.1357C27.1607 17.6039 24.6847 2.01284 24.568 1.27788C24.5017 0.860786 24.2621 0.487544 23.9105 0.253852C23.559 0.0198679 23.1223 -0.0566946 22.7118 0.0435983L4.70488 4.44165C3.94482 4.62729 3.4454 5.37807 3.56777 6.15092C3.57841 6.21831 6.04404 21.7721 6.06406 21.9086C6.12909 22.3516 5.79257 22.3131 5.43906 22.3895C5.16757 22.4481 4.8998 22.5236 4.6374 22.6144C4.08896 22.804 3.56386 23.0606 3.07509 23.3734C0.29179 25.1542 -0.804402 28.4288 0.631438 30.6727C1.34589 31.7892 2.55663 32.4801 4.04062 32.6181C5.52636 32.7562 7.03339 32.3119 8.2831 31.5122C9.56142 30.6941 10.6167 29.4662 11.0984 28.0148C11.2219 27.6428 11.3061 27.2574 11.3422 26.8669C11.3743 26.5184 11.3637 26.1718 11.3233 25.8255Z" fill="#F39F5F"/>
</svg>
