<svg width="27" height="27" viewBox="0 0 27 27" fill="none" xmlns="http://www.w3.org/2000/svg">
<path d="M13.125 2.8125C13.3736 2.8125 13.6121 2.71373 13.7879 2.53791C13.9637 2.3621 14.0625 2.12364 14.0625 1.875V0.9375C14.0625 0.68886 13.9637 0.450403 13.7879 0.274587C13.6121 0.098772 13.3736 0 13.125 0C12.8764 0 12.6379 0.098772 12.4621 0.274587C12.2863 0.450403 12.1875 0.68886 12.1875 0.9375V1.875C12.1875 2.12364 12.2863 2.3621 12.4621 2.53791C12.6379 2.71373 12.8764 2.8125 13.125 2.8125Z" fill="#F39F5F"/>
<path d="M13.125 23.4375C12.8764 23.4375 12.6379 23.5363 12.4621 23.7121C12.2863 23.8879 12.1875 24.1264 12.1875 24.375V25.3125C12.1875 25.5611 12.2863 25.7996 12.4621 25.9754C12.6379 26.1512 12.8764 26.25 13.125 26.25C13.3736 26.25 13.6121 26.1512 13.7879 25.9754C13.9637 25.7996 14.0625 25.5611 14.0625 25.3125V24.375C14.0625 24.1264 13.9637 23.8879 13.7879 23.7121C13.6121 23.5363 13.3736 23.4375 13.125 23.4375Z" fill="#F39F5F"/>
<path d="M25.3125 12.1875H24.375C24.1264 12.1875 23.8879 12.2863 23.7121 12.4621C23.5363 12.6379 23.4375 12.8764 23.4375 13.125C23.4375 13.3736 23.5363 13.6121 23.7121 13.7879C23.8879 13.9637 24.1264 14.0625 24.375 14.0625H25.3125C25.5611 14.0625 25.7996 13.9637 25.9754 13.7879C26.1512 13.6121 26.25 13.3736 26.25 13.125C26.25 12.8764 26.1512 12.6379 25.9754 12.4621C25.7996 12.2863 25.5611 12.1875 25.3125 12.1875Z" fill="#F39F5F"/>
<path d="M1.875 12.1875H0.9375C0.68886 12.1875 0.450403 12.2863 0.274587 12.4621C0.098772 12.6379 0 12.8764 0 13.125C0 13.3736 0.098772 13.6121 0.274587 13.7879C0.450403 13.9637 0.68886 14.0625 0.9375 14.0625H1.875C2.12364 14.0625 2.3621 13.9637 2.53791 13.7879C2.71373 13.6121 2.8125 13.3736 2.8125 13.125C2.8125 12.8764 2.71373 12.6379 2.53791 12.4621C2.3621 12.2863 2.12364 12.1875 1.875 12.1875Z" fill="#F39F5F"/>
<path d="M21.0796 3.84359L20.4168 4.5064C20.3273 4.59288 20.2559 4.69633 20.2067 4.81071C20.1576 4.92509 20.1317 5.04811 20.1307 5.17259C20.1296 5.29707 20.1533 5.42052 20.2004 5.53573C20.2476 5.65095 20.3172 5.75562 20.4052 5.84365C20.4932 5.93167 20.5979 6.00128 20.7131 6.04842C20.8283 6.09556 20.9518 6.11928 21.0763 6.1182C21.2007 6.11712 21.3238 6.09125 21.4381 6.04212C21.5525 5.99299 21.656 5.92157 21.7424 5.83202L22.4062 5.17015C22.4933 5.08305 22.5624 4.97964 22.6095 4.86583C22.6567 4.75203 22.6809 4.63005 22.6809 4.50687C22.6809 4.38369 22.6567 4.26171 22.6095 4.1479C22.5624 4.0341 22.4933 3.93069 22.4062 3.84359C22.3191 3.75648 22.2157 3.68739 22.1019 3.64025C21.9881 3.59311 21.8661 3.56885 21.7429 3.56885C21.6197 3.56885 21.4978 3.59311 21.384 3.64025C21.2701 3.68739 21.1667 3.75648 21.0796 3.84359Z" fill="#F39F5F"/>
<path d="M4.50758 20.417L3.84383 21.0798C3.75673 21.1669 3.68763 21.2703 3.64049 21.3841C3.59335 21.4979 3.56909 21.6199 3.56909 21.7431C3.56909 21.8663 3.59335 21.9882 3.64049 22.102C3.68763 22.2159 3.75673 22.3193 3.84383 22.4064C4.01974 22.5823 4.25833 22.6811 4.50711 22.6811C4.6303 22.6811 4.75227 22.6568 4.86608 22.6097C4.97988 22.5626 5.08329 22.4935 5.17039 22.4064L5.83321 21.7435C5.92031 21.6565 5.98942 21.5532 6.03658 21.4394C6.08374 21.3257 6.10804 21.2037 6.10808 21.0806C6.10813 20.9575 6.08392 20.8355 6.03683 20.7217C5.98975 20.608 5.92072 20.5046 5.83368 20.4175C5.74663 20.3304 5.64329 20.2612 5.52954 20.2141C5.41579 20.1669 5.29387 20.1426 5.17073 20.1426C4.92204 20.1425 4.6835 20.2412 4.50758 20.417Z" fill="#F39F5F"/>
<path d="M4.50758 5.83296C4.6844 6.00374 4.92121 6.09823 5.16702 6.09609C5.41283 6.09396 5.64797 5.99536 5.82179 5.82154C5.99561 5.64772 6.0942 5.41259 6.09634 5.16678C6.09848 4.92097 6.00398 4.68415 5.83321 4.50734L5.17039 3.84359C4.99448 3.66767 4.75589 3.56885 4.50711 3.56885C4.25833 3.56885 4.01974 3.66767 3.84383 3.84359C3.66792 4.0195 3.56909 4.25809 3.56909 4.50687C3.56909 4.75565 3.66792 4.99424 3.84383 5.17015L4.50758 5.83296Z" fill="#F39F5F"/>
<path d="M21.2812 14.5153C21.1602 14.396 21.0091 14.3117 20.844 14.2716C20.6788 14.2315 20.5059 14.237 20.3437 14.2875C19.7146 14.4818 19.0596 14.5792 18.4012 14.5763C16.6171 14.5745 14.9066 13.8651 13.645 12.6037C12.3834 11.3423 11.6738 9.63189 11.6718 7.84785C11.6695 7.18965 11.7675 6.53495 11.9624 5.90628C12.0133 5.74387 12.019 5.57066 11.979 5.40525C11.9389 5.23983 11.8545 5.08844 11.735 4.96732C11.6154 4.8462 11.4651 4.75992 11.3002 4.71773C11.1353 4.67555 10.962 4.67904 10.799 4.72785C9.37584 5.15821 8.08852 5.95007 7.06261 7.0262C6.03669 8.10233 5.3072 9.42598 4.94528 10.8681C4.58336 12.3101 4.60138 13.8214 4.99757 15.2544C5.39376 16.6874 6.1546 17.9933 7.20587 19.0447C8.25715 20.0961 9.56297 20.857 10.996 21.2533C12.429 21.6497 13.9402 21.6678 15.3823 21.306C16.8244 20.9442 18.1481 20.2148 19.2244 19.189C20.3006 18.1632 21.0926 16.876 21.523 15.4528C21.5719 15.2894 21.5751 15.1157 21.5325 14.9505C21.4899 14.7853 21.403 14.6348 21.2812 14.5153ZM13.2909 19.6875C11.8205 19.6873 10.3907 19.2054 9.2202 18.3156C8.0497 17.4257 7.20297 16.1768 6.80955 14.7601C6.41613 13.3434 6.49768 11.8367 7.04174 10.4707C7.58579 9.10475 8.56239 7.9546 9.82211 7.19628C9.80648 7.41191 9.79867 7.63066 9.79867 7.85253C9.8014 10.1336 10.7088 12.3205 12.3219 13.9334C13.935 15.5463 16.1219 16.4535 18.403 16.456C18.6215 16.456 18.8399 16.4475 19.0593 16.4316C18.457 17.4228 17.6103 18.2427 16.6002 18.8128C15.5902 19.3829 14.4507 19.6841 13.2909 19.6875Z" fill="#F39F5F"/>
</svg>
